<svg width="379" height="357" viewBox="0 0 379 357" fill="none" xmlns="http://www.w3.org/2000/svg">
<path fill-rule="evenodd" clip-rule="evenodd" d="M249.444 0.138733C208.186 3.92073 143.34 32.4877 119.661 57.3127C108.187 69.3417 109.212 76.6987 122.755 79.5257C133.337 81.7357 155.989 78.0167 179.944 70.1377C185.719 68.2377 190.747 66.8617 191.116 67.0797C192.326 67.7937 194.944 81.2247 194.944 86.7187C194.944 89.6717 194.456 94.7577 193.86 98.0207C192.712 104.302 186.264 119.182 183.867 121.083C183.084 121.703 175.469 125.778 166.944 130.139C148.01 139.824 138.187 146.165 130.87 153.425C120.674 163.54 119.18 175.157 126.942 183.955C128.282 185.473 128.822 188.303 129.186 195.7C129.595 204.031 130.119 206.369 132.796 211.805C135.654 217.61 142.475 225.202 147.308 227.955C148.962 228.897 148.91 229.606 146.42 240.205C144.966 246.393 143.665 251.455 143.529 251.455C143.393 251.455 137.513 245.147 130.462 237.436C123.149 229.439 116.605 223.157 115.227 222.811C112.45 222.114 8.53 254.011 6.295 256.247C5.501 257.04 4.95299 259.735 4.96499 262.776L4.98599 267.955L21.112 287.453C29.982 298.176 37.96 307.499 38.841 308.171C41.409 310.126 44.149 309.698 56.14 305.464C69.183 300.858 71.9 300.609 75.312 303.705C76.675 304.943 86.86 316.755 97.945 329.955C118.899 354.909 121.748 357.441 126.819 355.622C128.263 355.104 142.944 348.286 159.444 340.47C178.857 331.274 190.414 325.23 192.194 323.341C194.605 320.783 194.944 319.633 194.944 314.003C194.944 307.658 194.88 307.509 189.487 301.326L184.031 295.069L188.328 290.012C197.355 279.39 203.367 269.119 208.96 254.764C213.819 242.296 217.079 236.671 222.773 230.929C229.571 224.076 235.288 221.306 243.91 220.69C252.857 220.049 255.574 221.08 270.154 230.65C290.61 244.076 311.178 252.701 321.854 252.33C324.88 252.225 324.63 252.086 320.259 251.447C306.259 249.4 290.485 242.436 270.444 229.453C256.398 220.353 253.056 219.107 244.103 219.625C235.248 220.138 228.95 223.282 221.444 230.937C215.035 237.473 211.329 243.61 208.452 252.455C206.208 259.354 199.818 272.246 195.07 279.455C186.201 292.92 168.488 308.017 156.766 312.101C148.898 314.842 134.363 314.566 126.6 311.528C119.434 308.724 111.201 302.173 108.21 296.896C102.769 287.296 107.527 276.058 118.577 272.411C123.243 270.871 137.862 271.689 143.694 273.816C146.032 274.669 147.944 274.986 147.944 274.522C147.944 274.057 145.042 272.892 141.496 271.932L135.047 270.186L137.456 267.028C141.992 261.082 145.049 252.54 149.007 234.754C153.815 213.149 155.976 206.321 161.256 196.06C166.283 186.289 174.01 177.796 181.639 173.658C184.832 171.925 186.708 170.496 185.808 170.482C182.86 170.434 171.985 178.539 167.329 184.256C164.82 187.335 161.287 192.802 159.477 196.405C156.012 203.3 149.944 221.125 149.944 224.408C149.944 227.462 148.561 227.555 144.639 224.765C140.309 221.684 134.585 213.633 132.524 207.727C128.914 197.384 129.706 183.549 134.464 173.825C135.9 170.89 140.213 165.368 144.239 161.31C148.202 157.316 150.031 155.036 148.303 156.242C140.198 161.903 129.996 176.549 129.912 182.642C129.881 184.939 129.864 184.936 127.447 182.189C120.314 174.084 122.973 161.623 133.944 151.736C139.061 147.125 152.838 138.399 164.95 132.098C177.396 125.624 196.649 117.455 199.464 117.455C200.278 117.455 200.944 117.016 200.944 116.48C200.944 115.853 200.051 115.844 198.444 116.455C197.069 116.978 195.944 117.208 195.944 116.966C195.944 116.724 193.855 117.421 191.302 118.516C188.75 119.61 186.515 120.36 186.338 120.182C186.16 120.004 187.046 118.747 188.306 117.387C189.566 116.028 190.43 114.414 190.226 113.801C190.022 113.189 190.473 112.068 191.23 111.312C191.986 110.556 192.398 109.316 192.145 108.557C191.839 107.639 192.115 107.442 192.969 107.97C193.735 108.444 194.006 108.364 193.641 107.774C192.616 106.116 194.546 100.926 196.057 101.276C197.168 101.534 197.195 101.345 196.194 100.326C194.409 98.5097 194.651 97.4227 196.694 98.0807C197.732 98.4147 198.02 98.2997 197.402 97.7987C195.88 96.5667 195.722 91.4577 197.205 91.4397C198.031 91.4287 197.944 91.0707 196.944 90.3637C195.776 89.5367 195.73 89.1867 196.736 88.7817C197.728 88.3807 197.757 87.9347 196.863 86.8577C195.97 85.7817 195.989 85.4547 196.944 85.4547C197.91 85.4547 197.896 85.1017 196.881 83.8787C195.797 82.5717 195.818 82.1467 197.008 81.3937C198.071 80.7217 198.108 80.4817 197.15 80.4697C196.439 80.4617 195.969 79.8927 196.106 79.2047C196.533 77.0727 191.95 64.2947 188.176 57.0947C184.341 49.7767 172.164 35.9897 166.379 32.4147C164.49 31.2467 162.944 29.9327 162.944 29.4937C162.944 28.6987 179.629 20.9307 191.866 16.0277L198.288 13.4547L209.813 18.6637C251.964 37.7157 281.129 66.4847 294.616 102.315C297.821 110.83 301.01 124.558 301.502 131.955C301.722 135.255 302.135 139.485 302.421 141.355C302.724 143.34 302.42 145.397 301.692 146.297C300.79 147.412 300.776 147.64 301.643 147.119C302.532 146.586 302.762 147.84 302.53 151.957C302.198 157.873 301.391 159.784 300.361 157.098C300.014 156.194 299.077 155.455 298.278 155.455C297.479 155.455 297.058 155.08 297.341 154.622C297.624 154.163 297.313 153.767 296.65 153.741C295.987 153.715 294.544 153.389 293.444 153.018C291.948 152.513 292.074 152.778 293.944 154.072C300.927 158.902 310.711 170.512 316.635 180.997C320.041 187.024 324.573 193.655 326.706 195.733C331.172 200.082 339.28 203.508 344.705 203.338C348.023 203.234 347.838 203.121 343.059 202.327C336.329 201.209 328.691 197.124 325.493 192.93C324.149 191.168 320.903 185.81 318.28 181.022C315.656 176.234 311.422 169.725 308.87 166.558L304.231 160.801L303.66 143.878C303.247 131.645 302.507 124.599 300.989 118.455C293.889 89.7097 278.525 65.0087 255.98 46.0937L247.162 38.6947L252.803 34.6957C273.927 19.7197 280.125 6.19873 267.942 1.66373C264.789 0.490735 254.69 -0.342267 249.444 0.138733ZM166.444 3.38573C160.456 5.52273 148.238 11.6477 145.444 13.9127C144.344 14.8047 146.819 13.8697 150.944 11.8357C155.069 9.80074 162.044 6.65273 166.444 4.83873C174.903 1.35273 174.903 0.366735 166.444 3.38573ZM282.944 3.95474C282.944 4.22974 283.169 4.45473 283.444 4.45473C283.719 4.45473 283.944 4.22974 283.944 3.95474C283.944 3.67974 283.719 3.45474 283.444 3.45474C283.169 3.45474 282.944 3.67974 282.944 3.95474ZM283.001 10.6257C281.869 16.0237 279.236 20.7667 273.012 28.6227L269.58 32.9547L273.327 29.4547C278.899 24.2497 282.701 17.9427 283.98 11.7817C284.606 8.76473 284.894 6.07073 284.619 5.79573C284.344 5.52073 283.616 7.69474 283.001 10.6257ZM169.488 12.0337C151.886 18.9227 132.651 30.4507 119.805 41.8107C116.769 44.4957 116.507 44.8827 118.944 43.0837C137.39 29.4697 156.36 18.3977 171.444 12.4407C175.844 10.7027 179.632 9.09473 179.861 8.86773C180.9 7.83673 177.772 8.79173 169.488 12.0337ZM165.216 83.9097C158.921 85.8767 145.266 88.4517 135.804 89.4567L127.444 90.3447L138.444 89.9397C148.852 89.5567 165.133 86.2007 169.798 83.4767C172.051 82.1617 170.274 82.3297 165.216 83.9097ZM194.944 102.955C194.944 103.23 195.169 103.455 195.444 103.455C195.719 103.455 195.944 103.23 195.944 102.955C195.944 102.68 195.719 102.455 195.444 102.455C195.169 102.455 194.944 102.68 194.944 102.955ZM194.944 106.955C194.944 107.23 195.169 107.455 195.444 107.455C195.719 107.455 195.944 107.23 195.944 106.955C195.944 106.68 195.719 106.455 195.444 106.455C195.169 106.455 194.944 106.68 194.944 106.955ZM194.944 109.955C194.944 110.23 195.169 110.455 195.444 110.455C195.719 110.455 195.944 110.23 195.944 109.955C195.944 109.68 195.719 109.455 195.444 109.455C195.169 109.455 194.944 109.68 194.944 109.955ZM192.944 111.955C192.944 112.23 193.169 112.455 193.444 112.455C193.719 112.455 193.944 112.23 193.944 111.955C193.944 111.68 193.719 111.455 193.444 111.455C193.169 111.455 192.944 111.68 192.944 111.955ZM192.944 114.955C192.944 115.23 193.169 115.455 193.444 115.455C193.719 115.455 193.944 115.23 193.944 114.955C193.944 114.68 193.719 114.455 193.444 114.455C193.169 114.455 192.944 114.68 192.944 114.955ZM196.277 115.122C196.644 115.488 197.244 115.488 197.611 115.122C197.977 114.755 197.677 114.455 196.944 114.455C196.211 114.455 195.911 114.755 196.277 115.122ZM190.944 116.955C190.944 117.23 191.169 117.455 191.444 117.455C191.719 117.455 191.944 117.23 191.944 116.955C191.944 116.68 191.719 116.455 191.444 116.455C191.169 116.455 190.944 116.68 190.944 116.955ZM300.277 144.122C300.644 144.488 301.244 144.488 301.611 144.122C301.977 143.755 301.677 143.455 300.944 143.455C300.211 143.455 299.911 143.755 300.277 144.122ZM298.944 148.955C298.944 149.23 299.169 149.455 299.444 149.455C299.719 149.455 299.944 149.23 299.944 148.955C299.944 148.68 299.719 148.455 299.444 148.455C299.169 148.455 298.944 148.68 298.944 148.955ZM296.944 150.955C296.944 151.23 297.169 151.455 297.444 151.455C297.719 151.455 297.944 151.23 297.944 150.955C297.944 150.68 297.719 150.455 297.444 150.455C297.169 150.455 296.944 150.68 296.944 150.955ZM300.944 150.955C300.944 151.23 301.169 151.455 301.444 151.455C301.719 151.455 301.944 151.23 301.944 150.955C301.944 150.68 301.719 150.455 301.444 150.455C301.169 150.455 300.944 150.68 300.944 150.955ZM298.944 152.455C298.944 153.188 299.244 153.488 299.611 153.122C299.977 152.755 299.977 152.155 299.611 151.788C299.244 151.422 298.944 151.722 298.944 152.455ZM46.611 167.122C46.244 167.488 45.944 169.466 45.944 171.516C45.944 173.567 45.005 178.285 43.857 182.002C42.175 187.446 40.766 189.758 36.607 193.891C30.707 199.756 25.766 201.668 17.104 201.44C13.991 201.358 11.084 201.328 10.643 201.373C10.203 201.418 10.956 202.918 12.318 204.705C19.572 214.228 17.183 228.45 6.705 238.108C4.281 240.342 1.65499 242.398 0.870993 242.676C0.0859929 242.954 -0.227007 243.535 0.175993 243.967C1.34499 245.221 8.98099 239.366 12.582 234.455C18.992 225.711 20.702 215.326 16.944 207.955C15.844 205.797 14.944 203.902 14.944 203.744C14.944 203.585 16.437 203.455 18.262 203.455C23.38 203.455 31.183 200.789 35.752 197.479C40.653 193.929 45.45 185.992 47.076 178.746L48.244 173.537L50.951 177.805C56.03 185.814 63.846 190.489 72.06 190.431C73.921 190.418 77.922 189.388 80.95 188.142L86.457 185.876L86.101 189.601C85.385 197.119 89.832 204.827 96.996 208.481C101.662 210.862 111.374 212.186 112.369 210.577C112.844 209.808 111.548 209.448 108.253 209.433C95.785 209.376 86.933 199.704 88.424 187.767C88.789 184.846 88.787 182.455 88.42 182.455C88.053 182.455 86.558 183.286 85.098 184.302C78.652 188.788 69.347 189.722 63.059 186.514C58.087 183.977 53.233 178.357 50.315 171.759C47.873 166.237 47.705 166.027 46.611 167.122ZM355.149 204.423C370.777 206.422 380.282 216.92 376.846 228.387C375.614 232.499 370.994 238.141 365.444 242.311C363.358 243.879 363.156 244.219 364.782 243.428C368.705 241.519 374.979 235.306 377.016 231.313C383.541 218.525 372.584 204.582 355.444 203.861L348.444 203.566L355.149 204.423ZM359.944 245.455C359.043 246.037 358.919 246.43 359.635 246.44C360.29 246.448 361.104 246.005 361.444 245.455C362.211 244.213 361.865 244.213 359.944 245.455ZM354.944 247.455C354.119 247.988 353.894 248.424 354.444 248.424C354.994 248.424 356.119 247.988 356.944 247.455C357.769 246.922 357.994 246.486 357.444 246.486C356.894 246.486 355.769 246.922 354.944 247.455ZM350.8 248.932C350.538 249.194 346.751 250.054 342.384 250.842C338.017 251.631 335.794 252.309 337.444 252.35C340.714 252.43 351.657 250.075 352.657 249.076C352.998 248.734 352.827 248.455 352.277 248.455C351.727 248.455 351.063 248.67 350.8 248.932ZM327.706 253.162C328.95 253.401 330.75 253.392 331.706 253.142C332.662 252.892 331.644 252.696 329.444 252.707C327.244 252.718 326.462 252.923 327.706 253.162Z" fill="#323036"/>
<path d="M66.1094 265.964L68.1094 257.464L75.6094 259.964L82.1094 263.964L83.6094 271.464L82.1094 277.964L75.6094 276.964L70.1094 272.464L66.1094 265.964Z" fill="#323036" stroke="white" stroke-width="3"/>
<path d="M83.1094 250.964L81.1094 253.464L92.1094 268.497L96.6094 265.464L98.6094 261.464C99.4094 259.864 98.9427 258.464 98.6094 257.964L97.1094 255.464L94.1094 252.464L89.6094 251.464H86.1094L83.1094 250.964Z" fill="#323036"/>
<path d="M96.1094 273.964L92.1094 268.497M92.1094 268.497L81.1094 253.464L83.1094 250.964L86.1094 251.464H89.6094L94.1094 252.464L97.1094 255.464L98.6094 257.964C98.9427 258.464 99.4094 259.864 98.6094 261.464C97.8094 263.064 96.9427 264.797 96.6094 265.464L92.1094 268.497ZM92.1094 268.497H110.609" stroke="white" stroke-width="3"/>
<path d="M99.6094 245.464L109.959 256.964M117.609 265.464L109.959 256.964M109.959 256.964L112.609 252.964L113.109 251.464L113.609 249.464V248.464V246.964V245.464L113.109 243.964L111.609 242.964V241.464M109.959 256.964L116.609 255.964H119.609L122.609 256.964L124.609 257.464L126.609 257.964L127.609 258.964L129.109 259.464L130.609 260.464" stroke="white" stroke-width="3"/>
<path d="M26.6094 268.464L51.1094 289.464V276.464L66.1094 284.964L58.1094 261.964" stroke="white" stroke-width="3"/>
</svg>
