<svg width="37" height="30" viewBox="0 0 37 30" fill="none" xmlns="http://www.w3.org/2000/svg">
<g clip-path="url(#clip0_155_13197)">
<path d="M20.9167 10.606C19.8727 14.3531 18.5248 17.9893 16.9058 21.5219L19.526 22.1058C19.9637 19.6567 20.6955 17.2582 21.7149 14.9914C22.1948 13.9186 22.7246 12.8465 23.3566 11.8537C23.5832 11.497 23.8279 11.1482 24.1289 10.8518C24.2807 10.7006 24.436 10.558 24.6199 10.4488C24.6508 10.4272 25.0869 10.2664 24.8526 10.2767C24.7068 10.2485 24.7284 10.2649 24.9235 10.3285C25.0453 10.3954 25.1646 10.4681 25.2814 10.5468C25.4353 10.6556 25.5841 10.7762 25.7218 10.9059C26.0629 11.2289 26.3639 11.6115 26.5702 12.03C26.9889 12.8697 27.0979 13.827 26.7368 14.6924C26.4694 15.3254 25.7981 16.2101 25.0041 16.1526C24.2101 16.0951 23.4139 15.4136 22.8121 15.0125C22.2873 14.6658 21.4953 14.5042 20.8948 14.7126C20.3606 14.9008 20.3135 15.3074 20.7616 15.6488C22.561 17.0316 25.1313 18.1608 27.3745 17.2791C29.2685 16.5399 30.124 14.4191 29.4468 12.5362C28.669 10.3717 26.1777 8.64665 23.8393 8.92005C21.5008 9.19344 20.5005 11.4824 19.6183 13.2837C18.3165 15.9529 17.4032 18.7697 16.8342 21.6869C16.6722 22.5406 19.126 22.9613 19.4544 22.2708C21.1764 18.6498 22.5658 14.8846 23.6498 11.0289C23.886 10.1864 21.1843 9.6581 20.9167 10.606Z" fill="#323036" fill-opacity="0.55"/>
<path d="M31.9586 14.0321L29.6453 20.4065C28.8777 22.5235 28.0151 24.6272 27.4183 26.7974C27.1949 27.6104 29.7101 28.0718 30.0238 27.3819C30.9615 25.3037 31.672 23.1199 32.4499 20.9794L34.8108 14.4786C35.11 13.6565 32.3183 13.0541 31.9647 14.0347L31.9586 14.0321Z" fill="#323036" fill-opacity="0.55"/>
<path d="M11.8539 3.62861C10.2247 5.28075 8.61807 6.96368 7.00445 8.62958C5.39083 10.2955 3.72349 11.9031 2.21196 13.6483C1.85122 14.0658 2.69342 14.4592 2.98686 14.5445C3.50211 14.6981 4.18915 14.7372 4.59919 14.3551C6.30024 12.7691 7.86525 11.0331 9.47538 9.35871C11.0855 7.68429 12.7061 6.03542 14.3007 4.34725C14.6881 3.93436 13.788 3.50881 13.5067 3.42874C12.9975 3.27779 12.2535 3.22097 11.8565 3.62272L11.8539 3.62861Z" fill="#323036" fill-opacity="0.55"/>
<path d="M14.4312 3.73187L14.2472 3.47705C13.9079 3.00081 11.8279 2.54629 11.7495 3.4223C11.3886 7.46582 11.0692 11.5133 10.8265 15.5661C10.7723 16.4526 13.2845 16.8216 13.3699 15.9626C13.7721 11.9231 14.0976 7.87821 14.3817 3.8294L11.8839 3.77465L12.0679 4.02948C12.5547 4.6957 15.1359 4.72366 14.4312 3.73187Z" fill="#323036" fill-opacity="0.55"/>
<path d="M10.7304 15.3074C10.6618 16.2436 10.5957 17.174 10.5332 18.1129C10.523 18.3185 10.6746 18.4823 10.832 18.5996C11.0629 18.7628 11.4022 18.875 11.6807 18.9118C11.9593 18.9487 12.3015 18.9712 12.5828 18.8692C12.7548 18.8039 12.9836 18.7071 13.0024 18.4983C13.0831 17.5672 13.1638 16.6362 13.241 15.6967C13.2598 15.4879 13.096 15.3188 12.9361 15.2074C12.7017 15.0357 12.3538 14.9268 12.0753 14.8899C11.7967 14.8531 11.4424 14.8253 11.1585 14.9332C10.9865 14.9985 10.7405 15.1018 10.7278 15.3133L10.7304 15.3074Z" fill="#323036" fill-opacity="0.55"/>
<path d="M7.93891 11.8072C7.98122 11.8255 8.02354 11.8439 8.06237 11.8537L7.75847 11.7429C8.43278 11.9934 9.08756 12.3056 9.71841 12.6563C9.86955 12.7219 10.0198 12.773 10.1802 12.8006C10.3476 12.8453 10.5166 12.8696 10.6838 12.8652C10.9216 12.8634 11.1551 12.8386 11.3752 12.7452C11.5094 12.6844 11.6907 12.581 11.7002 12.4101C11.7104 12.2046 11.5664 12.0231 11.3918 11.9123C10.6751 11.4614 9.92172 11.0785 9.1265 10.7754C8.79493 10.6456 8.46964 10.5674 8.11624 10.5541C7.80678 10.5388 7.44596 10.5922 7.20653 10.7964C7.04266 10.9423 7.01503 11.1053 7.13318 11.2966C7.31297 11.5776 7.635 11.6963 7.93286 11.8045L7.93891 11.8072Z" fill="#323036" fill-opacity="0.55"/>
</g>
<defs>
<clipPath id="clip0_155_13197">
<rect width="31" height="18" fill="white" transform="translate(7.86328 0.574097) rotate(23.456)"/>
</clipPath>
</defs>
</svg>
