<svg width="19" height="72" viewBox="0 0 19 72" fill="none" xmlns="http://www.w3.org/2000/svg">
<path d="M2.51011 70.1738C2.6061 70.9967 3.35097 71.5859 4.17382 71.4899L17.5829 69.9255C18.4057 69.8295 18.9949 69.0846 18.8989 68.2618C18.8029 67.4389 18.0581 66.8497 17.2352 66.9457L5.31607 68.3363L3.9255 56.4171C3.82951 55.5943 3.08463 55.0051 2.26179 55.1011C1.43894 55.1971 0.849717 55.9419 0.945715 56.7648L2.51011 70.1738ZM5.18957 1.08627C4.68493 0.429283 3.74325 0.305786 3.08626 0.810425C2.42928 1.31506 2.30578 2.25674 2.81042 2.91373L5.18957 1.08627ZM4 70C5.17642 70.9306 5.17698 70.9299 5.17763 70.9291C5.17798 70.9286 5.17873 70.9277 5.17943 70.9268C5.18084 70.925 5.18264 70.9227 5.18485 70.9199C5.18925 70.9143 5.19524 70.9066 5.20277 70.897C5.21785 70.8776 5.23911 70.8501 5.26625 70.8147C5.32054 70.7438 5.39837 70.6409 5.49731 70.5071C5.69516 70.2394 5.97754 69.8478 6.32487 69.3402C7.01936 68.3252 7.9747 66.8446 9.03385 64.9621C11.1502 61.2006 13.6923 55.8145 15.3888 49.3164C18.7915 36.2836 18.7807 18.7804 5.18957 1.08627L2.81042 2.91373C15.7193 19.7196 15.7085 36.2164 12.4861 48.5586C10.8702 54.748 8.44356 59.8932 6.41927 63.491C5.40811 65.2882 4.50017 66.6944 3.84895 67.6461C3.52344 68.1219 3.26236 68.4837 3.08497 68.7236C2.99628 68.8436 2.92855 68.9331 2.88417 68.991C2.86198 69.02 2.84564 69.0411 2.83544 69.0542C2.83034 69.0608 2.82677 69.0653 2.82478 69.0679C2.82379 69.0691 2.82319 69.0699 2.82298 69.0701C2.82288 69.0703 2.82303 69.0701 2.82298 69.0701C2.82323 69.0698 2.82358 69.0694 4 70Z" fill="#525C60"/>
</svg>
