<svg width="19" height="72" viewBox="0 0 19 72" fill="none" xmlns="http://www.w3.org/2000/svg">
<path d="M17.2677 70.1738C17.1717 70.9967 16.4268 71.5859 15.6039 71.4899L2.1949 69.9255C1.37205 69.8295 0.782826 69.0846 0.878824 68.2618C0.974823 67.4389 1.71969 66.8497 2.54254 66.9457L14.4617 68.3363L15.8523 56.4171C15.9483 55.5943 16.6931 55.0051 17.516 55.1011C18.3388 55.1971 18.9281 55.9419 18.8321 56.7648L17.2677 70.1738ZM14.5882 1.08627C15.0928 0.429283 16.0345 0.305786 16.6915 0.810425C17.3485 1.31506 17.472 2.25674 16.9674 2.91373L14.5882 1.08627ZM15.7778 70C14.6013 70.9306 14.6008 70.9299 14.6001 70.9291C14.5998 70.9286 14.599 70.9277 14.5983 70.9268C14.5969 70.925 14.5951 70.9227 14.5929 70.9199C14.5885 70.9143 14.5825 70.9066 14.575 70.897C14.5599 70.8776 14.5387 70.8501 14.5115 70.8147C14.4572 70.7438 14.3794 70.6409 14.2805 70.5071C14.0826 70.2394 13.8002 69.8478 13.4529 69.3402C12.7584 68.3252 11.8031 66.8446 10.7439 64.9621C8.62758 61.2006 6.08546 55.8145 4.38892 49.3164C0.986252 36.2836 0.997058 18.7804 14.5882 1.08627L16.9674 2.91373C4.05849 19.7196 4.06929 36.2164 7.29162 48.5586C8.90759 54.748 11.3342 59.8932 13.3585 63.491C14.3697 65.2882 15.2776 66.6944 15.9288 67.6461C16.2543 68.1219 16.5154 68.4837 16.6928 68.7236C16.7815 68.8436 16.8492 68.9331 16.8936 68.991C16.9158 69.02 16.9321 69.0411 16.9423 69.0542C16.9474 69.0608 16.951 69.0653 16.953 69.0679C16.954 69.0691 16.9546 69.0699 16.9548 69.0701C16.9549 69.0703 16.9547 69.0701 16.9548 69.0701C16.9545 69.0698 16.9542 69.0694 15.7778 70Z" fill="#525C60"/>
</svg>
