<svg width="118" height="65" viewBox="0 0 118 65" fill="none" xmlns="http://www.w3.org/2000/svg">
<path d="M114.835 33.569C115.662 33.5306 116.364 34.1704 116.403 34.9979L117.028 48.4834C117.067 49.3109 116.427 50.0129 115.599 50.0513C114.772 50.0897 114.07 49.4499 114.031 48.6224L113.476 36.6353L101.488 37.1912C100.661 37.2296 99.9589 36.5899 99.9205 35.7623C99.8822 34.9348 100.522 34.2328 101.349 34.1944L114.835 33.569ZM3.26816 0.343781C12.7687 29.2843 24.4692 45.6299 36.4877 54.0369C48.448 62.4032 60.9161 63.0406 72.3315 60.1321C83.7953 57.2113 94.1578 50.7167 101.695 44.8951C105.454 41.9917 108.488 39.273 110.579 37.2826C111.625 36.2878 112.434 35.476 112.979 34.9154C113.252 34.6352 113.459 34.4178 113.596 34.2719C113.664 34.1989 113.716 34.1438 113.749 34.1076C113.766 34.0896 113.778 34.0762 113.786 34.0677C113.79 34.0635 113.793 34.0605 113.794 34.0587C113.795 34.0578 113.795 34.0574 113.796 34.0569C113.796 34.0568 113.796 34.057 114.904 35.0674C116.013 36.0778 116.012 36.0786 116.011 36.0798C116.011 36.0806 116.009 36.082 116.008 36.0836C116.005 36.0868 116.001 36.0912 115.996 36.0969C115.985 36.1082 115.97 36.1244 115.951 36.1453C115.912 36.1872 115.855 36.2481 115.781 36.327C115.633 36.4848 115.415 36.7144 115.13 37.0073C114.56 37.5931 113.723 38.4322 112.647 39.456C110.496 41.5026 107.384 44.2913 103.529 47.2694C95.8365 53.2108 85.0977 59.9753 73.0722 63.0393C60.9982 66.1156 47.5889 65.4634 34.7682 56.4952C22.0057 47.5678 10.0214 30.5339 0.41782 1.27949L3.26816 0.343781Z" fill="#525C60"/>
</svg>
