<svg width="35" height="80" viewBox="0 0 35 80" fill="none" xmlns="http://www.w3.org/2000/svg">
<path d="M34.9307 3.397C35.048 3.093 34.8967 2.75146 34.5927 2.63414L29.6388 0.72231C29.3348 0.604991 28.9932 0.756322 28.8759 1.06032C28.7586 1.36431 28.9099 1.70586 29.2139 1.82317L33.6174 3.52258L31.918 7.92603C31.8007 8.23003 31.952 8.57157 32.256 8.68889C32.56 8.80621 32.9015 8.65488 33.0189 8.35088L34.9307 3.397ZM8.15545 79.6C8.30819 79.8878 8.66535 79.9973 8.95318 79.8446C9.24101 79.6918 9.35051 79.3347 9.19777 79.0468L8.15545 79.6ZM34.3802 3.18457C34.1412 2.64515 34.1408 2.64536 34.1401 2.64566C34.1396 2.64588 34.1387 2.64627 34.1377 2.64671C34.1357 2.64759 34.133 2.64884 34.1294 2.65045C34.1222 2.65367 34.1118 2.65834 34.0982 2.66447C34.0711 2.67673 34.0315 2.69482 33.9798 2.71875C33.8763 2.76662 33.7247 2.83787 33.5289 2.93266C33.1373 3.12224 32.5691 3.40603 31.8573 3.78528C30.4339 4.54368 28.4352 5.68444 26.1255 7.21765C21.509 10.2823 15.6354 14.9246 10.6337 21.2285C5.62974 27.5351 1.49096 35.515 0.370036 45.243C-0.751275 54.9743 1.1532 66.4051 8.15545 79.6L9.19777 79.0468C2.28992 66.0299 0.452302 54.8375 1.54228 45.3781C2.63264 35.9153 6.65854 28.137 11.558 21.9619C16.4598 15.784 22.2284 11.221 26.7781 8.20076C29.0516 6.69155 31.0171 5.56999 32.4122 4.82668C33.1096 4.45507 33.6642 4.17816 34.043 3.99475C34.2325 3.90304 34.3779 3.83473 34.4753 3.78965C34.524 3.76711 34.5607 3.75038 34.5849 3.73944C34.597 3.73398 34.6059 3.72996 34.6117 3.72738C34.6145 3.72609 34.6166 3.72517 34.6179 3.7246C34.6185 3.72432 34.6189 3.72417 34.6192 3.72403C34.6193 3.72396 34.6193 3.72399 34.3802 3.18457Z" fill="#4A4A4A"/>
</svg>
