<svg width="917" height="1237" viewBox="0 0 917 1237" fill="none" xmlns="http://www.w3.org/2000/svg">
<path opacity="0.4" d="M62.6282 625.647C-37.3697 623.018 -245.26 666.66 -276.838 862.261C-316.311 1106.76 196.836 822.826 275.781 625.647C354.727 428.469 -103.158 964.794 38.9445 1154.09C181.047 1343.38 473.146 1217.18 441.567 625.647C409.989 34.1117 473.146 1027.89 733.666 1122.54C994.187 1217.18 741.561 838.6 638.931 822.826C773.139 772.874 1008.4 631.957 875.768 467.904C743.14 303.852 662.615 541.517 638.931 680.857C644.195 446.872 612.09 -16.3663 441.567 2.56285C271.045 21.492 344.201 425.839 402.095 625.647C362.622 452.13 177.889 150.841 38.9445 239.177C-99.9998 327.513 20.5238 525.743 62.6282 625.647Z" stroke="#EB382A" stroke-width="2.4" stroke-linecap="round"/>
</svg>
