<svg width="73" height="22" viewBox="0 0 73 22" fill="none" xmlns="http://www.w3.org/2000/svg">
<g clip-path="url(#clip0_155_13204)">
<path d="M0.419971 10.13C0.469971 13.61 0.509971 17.09 0.559971 20.57L4.35997 19.55C3.97997 17.09 3.77997 14.6 3.81997 12.1C3.84997 9.91003 3.87997 7.31003 5.03997 5.38003C5.25997 5.02003 5.49997 4.73003 5.79997 4.45003C6.22997 4.05003 5.91997 4.48003 5.75997 4.41003C5.77997 4.42003 5.87997 4.45003 5.88997 4.46003C5.92997 4.54003 6.32997 4.69003 6.41997 4.76003C6.56997 4.87003 6.70997 5.02003 6.82997 5.16003C7.15997 5.53003 7.41997 5.94003 7.61997 6.40003C8.01997 7.33003 8.21997 8.39003 8.18997 9.39003C8.15997 10.33 8.00997 11.73 7.36997 12.47L7.96997 11.94L8.58997 11.69L10.39 11.72L10.23 11.65L10.63 12.07C10.53 11.74 10.71 11.5 10.67 11.23C10.64 11.04 11 11.17 10.53 11.2L10.05 11.33L10.15 11.36C10.26 11.52 10.71 11.62 10.89 11.76C11.15 11.97 11.38 12.23 11.56 12.5C12.33 13.64 12.37 15.15 11.82 16.39C11.33 17.49 10.31 18.58 9.14997 18.96C8.07997 19.31 6.77997 18.55 6.22997 17.58C5.80997 16.84 4.75997 16.94 4.03997 17.13C3.58997 17.25 2.03997 17.86 2.36997 18.61C3.35997 20.88 5.90997 21.56 8.19997 21.28C10.7 20.97 13.1 19.68 14.71 17.74C15.97 16.23 16.59 14.09 15.88 12.2C15.05 9.99003 12.86 8.83003 10.55 9.17003C9.30997 9.35003 8.00997 9.88003 7.21997 10.9C6.65997 11.63 6.23997 13.12 7.30997 13.58C8.60997 14.14 10.52 13.37 11.22 12.2C11.84 11.16 12.05 9.79003 12.06 8.60003C12.09 6.51003 11.43 4.20003 9.61997 2.96003C7.46997 1.49003 4.25997 2.32003 2.47997 4.02003C0.459971 5.97003 0.119971 8.98003 0.0299714 11.61C-0.0700286 14.61 0.0999714 17.6 0.559971 20.57C0.679971 21.37 2.22997 21.14 2.70997 21.01C3.41997 20.82 4.36997 20.39 4.34997 19.55C4.30997 16.07 4.26997 12.59 4.22997 9.11003C4.22997 8.31003 2.47997 8.56003 2.06997 8.67003C1.35997 8.86003 0.409971 9.29003 0.419971 10.13Z" fill="#323036" fill-opacity="0.55"/>
<path d="M24.77 19.69C24.77 16.94 24.61 14.19 24.6 11.43C24.6 10.13 24.6 8.82998 24.74 7.53998C24.79 7.01998 24.88 6.49998 25.01 5.98998C25.15 5.42998 25.34 4.43998 25.86 4.07998L23.81 4.62998C24.35 4.60998 24.94 6.16998 25.13 6.69998C25.64 8.07998 26.09 9.47998 26.48 10.89C27.27 13.73 27.64 16.62 28.26 19.5C28.43 20.3 29.91 20.09 30.45 19.95C31.17 19.76 32.13 19.32 32.12 18.47C32.08 15.32 31.25 12.05 30.36 9.03998C29.93 7.58998 29.51 6.05998 28.84 4.68998C28.3 3.57998 27.53 2.63998 26.26 2.38998C22.89 1.71998 21.11 4.82998 20.74 7.64998C20.48 9.65998 20.54 11.73 20.58 13.75C20.62 16.09 20.74 18.42 20.75 20.76C20.75 21.6 22.6 21.34 23.03 21.23C23.79 21.03 24.77 20.58 24.77 19.69Z" fill="#323036" fill-opacity="0.55"/>
<path d="M25.78 14.87C25.9 14.74 26.02 14.62 26.15 14.5C26.22 14.44 26.3 14.38 26.37 14.31C26.58 14.12 26.3 14.4 26.27 14.38C26.3 14.39 26.71 14.1 26.76 14.08C26.99 13.94 26.67 14.14 26.6 14.16C26.69 14.14 26.78 14.08 26.86 14.04C27.02 13.97 27.19 13.92 27.35 13.85C27.22 13.9 26.86 14.01 27.2 13.91C27.28 13.89 27.35 13.87 27.43 13.85C27.53 13.82 27.62 13.8 27.72 13.78C28.01 13.71 27.58 13.81 27.51 13.82C27.71 13.79 27.91 13.75 28.1 13.73C28.28 13.71 28.46 13.69 28.64 13.67C28.72 13.67 28.8 13.66 28.88 13.65C29.13 13.63 28.43 13.66 28.78 13.65C29.13 13.64 29.5 13.65 29.85 13.65C30.04 13.65 30.24 13.67 30.43 13.68C30.51 13.68 30.58 13.69 30.66 13.7C30.98 13.72 30.39 13.66 30.6 13.7C30.94 13.75 31.28 13.79 31.62 13.84C32.53 13.99 33.71 13.76 34.39 13.1C34.98 12.52 34.84 11.92 34.02 11.72C32.21 11.28 30.25 11.19 28.41 11.46C26.26 11.77 23.95 12.55 22.43 14.19C22.21 14.42 21.92 14.73 22.02 15.09C22.11 15.42 22.53 15.61 22.83 15.66C23.72 15.83 25.12 15.58 25.77 14.87H25.78Z" fill="#323036" fill-opacity="0.55"/>
<path d="M48.37 2.95003C44.18 4.16003 40.68 7.19003 39.24 11.36C38.62 13.17 38.42 15.25 38.88 17.12C39.46 19.5 41.25 20.98 43.72 21.03C45.34 21.06 46.9 20.59 48.4 20.02C49.9 19.45 51.34 18.95 52.74 18.27C53.23 18.03 54.24 17.49 53.87 16.8C53.5 16.11 52.24 16.29 51.68 16.46C50.22 16.9 48.8 17.49 47.38 18.04C46.53 18.37 45.77 18.83 44.96 18.59C43.05 18.02 42.75 15.1 42.88 13.47C43.04 11.48 43.76 9.60003 44.96 8.01003C45.49 7.29003 46.2 6.59003 46.87 6.10003C47.11 5.93003 47.74 5.54003 47.91 5.46003C48.32 5.26003 48.56 5.17003 48.94 5.06003C49.57 4.88003 50.96 4.34003 50.75 3.45003C50.54 2.56003 48.92 2.81003 48.38 2.96003L48.37 2.95003Z" fill="#323036" fill-opacity="0.55"/>
<path d="M57.64 4.13004C57.56 6.55004 57.55 8.97004 57.6 11.39C57.63 12.6 57.67 13.8 57.73 15.01C57.79 16.22 57.8 17.44 58.13 18.58C58.5 19.88 61.9 18.96 62.03 17.81C62.16 16.66 62.04 15.36 61.98 14.15C61.92 12.94 61.88 11.83 61.85 10.67C61.79 8.31004 61.81 5.95004 61.88 3.59004C61.91 2.67004 60.76 2.58004 60.05 2.68004C59.43 2.77004 57.67 3.22004 57.64 4.12004V4.13004Z" fill="#323036" fill-opacity="0.55"/>
<path d="M65.61 9.65C67.37 6.55 69.57 3.8 71.94 1.14C72.14 0.919996 72.13 0.549996 71.94 0.329996C71.73 0.099996 71.39 0.0399959 71.1 0.00999594C70.24 -0.0800041 69.2 0.189996 68.55 0.779996C65.79 3.28 63.51 6.33 61.67 9.56C61.19 10.39 62.08 10.8 62.82 10.8C63.38 10.8 63.97 10.7 64.48 10.47C64.88 10.29 65.39 10.04 65.62 9.64L65.61 9.65Z" fill="#323036" fill-opacity="0.55"/>
<path d="M62.46 10.43C63.37 11.58 64.3 12.71 65.27 13.82C65.74 14.36 66.21 14.89 66.69 15.41C67.21 15.98 67.72 16.55 68.33 17.01C69.07 17.56 70.18 17.41 70.98 17.05C71.59 16.78 72.54 16.2 72.05 15.44C71.66 14.84 71.14 14.32 70.66 13.79C70.18 13.26 69.68 12.7 69.2 12.15C68.24 11.04 67.3 9.90996 66.4 8.75996C66.17 8.46996 65.58 8.39996 65.26 8.38996C64.72 8.36996 64.09 8.49996 63.6 8.71996C63.03 8.97996 61.87 9.65996 62.47 10.42L62.46 10.43Z" fill="#323036" fill-opacity="0.55"/>
</g>
<defs>
<clipPath id="clip0_155_13204">
<rect width="72.18" height="21.37" fill="white"/>
</clipPath>
</defs>
</svg>
