<svg width="390" height="643" viewBox="0 0 390 643" fill="none" xmlns="http://www.w3.org/2000/svg">
<path opacity="0.55" d="M-39.6185 -18.1748C25.8267 -112.982 163.857 -245.712 228.112 -175.097C292.367 -104.482 147.793 50.4786 67.4737 119.132C147.793 57.017 328.065 -45.6362 406.599 40.6709C485.133 126.978 320.33 220.477 228.112 256.439C296.532 213.939 447.651 144.632 504.767 207.401C561.883 270.169 433.372 370.861 361.977 413.361C415.523 449.322 499.412 540.86 406.599 619.321C313.786 697.782 266.784 553.937 254.885 472.207C213.238 521.245 112.095 601.667 40.7006 531.052C-30.6942 460.437 82.3476 357.784 147.793 315.284C88.2972 357.784 -66.3915 452.591 -137.786 334.9C-209.181 217.208 -60.442 148.555 13.9275 148.555C-72.3412 161.632 -260.942 148.555 -253.803 70.0938C-246.663 -8.3672 -99.1141 -27.9825 -39.6185 -18.1748Z" stroke="#4A4A4A" stroke-width="1.1847"/>
</svg>
