<svg width="959" height="697" viewBox="0 0 959 697" fill="none" xmlns="http://www.w3.org/2000/svg">
<path d="M266.337 -122.199C347.381 -239.616 518.31 -404.001 597.88 -316.545C677.45 -229.089 498.417 -37.172 398.954 47.8545C498.417 -29.0743 721.656 -156.209 818.909 -49.3187C916.161 57.5718 712.078 173.37 597.88 217.908C682.608 165.272 869.745 79.4358 940.474 157.174C1011.2 234.913 852.063 359.619 763.651 412.254C829.96 456.792 933.843 570.16 818.909 667.334C703.974 764.507 645.769 586.356 631.034 485.134C579.461 545.867 454.211 645.47 365.8 558.014C277.389 470.558 417.373 343.423 498.417 290.787C424.741 343.423 233.183 460.841 144.772 315.081C56.3601 169.321 240.55 84.2945 332.646 84.2945C225.815 100.49 -7.73817 84.2945 1.10297 -12.8787C9.94411 -110.052 192.661 -134.345 266.337 -122.199Z" stroke="#4A4A4A" stroke-width="1.1847"/>
</svg>
