<svg width="282" height="300" viewBox="0 0 282 300" fill="none" xmlns="http://www.w3.org/2000/svg">
<path fill-rule="evenodd" clip-rule="evenodd" d="M56.3661 2.74393C54.9085 4.25346 52.3797 8.39935 50.745 11.9584C48.0274 17.878 47.6755 18.3294 46.6087 17.2633C44.8921 15.546 42.9376 15.835 40.2954 18.1963C38.1874 20.0797 37.9144 20.7931 37.6371 25.1527C37.4666 27.8249 37.7015 31.4952 38.1581 33.3091C38.8569 36.0823 38.7939 36.9838 37.7652 38.9748C37.0927 40.2765 36.0164 41.7428 35.3739 42.2331C34.5054 42.896 34.4585 43.1309 35.1932 43.1477C35.9183 43.1653 35.7654 43.8736 34.6144 45.8243C33.7532 47.2834 33.1919 48.6202 33.3661 48.7951C33.541 48.9693 37.7161 48.261 42.645 47.2197C47.5738 46.1792 51.7233 45.4446 51.866 45.5865C52.008 45.7292 53.7721 53.3932 55.7851 62.6187C57.7988 71.8434 59.5739 79.942 59.7312 80.6159C59.8878 81.2891 59.0851 82.9354 57.9473 84.2745C56.1597 86.3774 55.9358 86.4777 56.2988 85.0135C56.7114 83.3503 55.4083 79.9135 53.9638 78.8532C53.5607 78.5576 52.5721 78.3256 51.7672 78.3373C50.6653 78.3542 50.846 78.592 52.499 79.2996L54.6941 80.2398L52.5209 80.6598C50.8855 80.9752 49.8275 80.6422 48.2492 79.3135C47.0952 78.3425 45.2747 77.5288 44.2028 77.5039C43.1315 77.4798 41.0615 77.4234 39.6032 77.3788C35.5598 77.2551 27.8072 83.624 26.8838 87.8284C26.4946 89.6021 26.1858 89.8999 25.4065 89.2538C24.865 88.8038 24.2101 87.4721 23.9511 86.2925C23.5633 84.5284 23.9365 83.6167 26.0599 81.1361C30.7144 75.6981 32.4646 66.6738 29.45 63.6592C28.6451 62.8543 27.6573 62.1957 27.2548 62.1957C26.8524 62.1957 26.5231 61.7589 26.5231 61.2255C26.5231 60.6921 25.7182 59.4994 24.7348 58.5759C23.3775 57.3006 22.364 56.9815 20.5274 57.2508C19.1972 57.4462 17.3825 57.2757 16.4949 56.8718C15.3396 56.3457 14.1966 56.4225 12.4705 57.1432C11.1446 57.6964 9.62122 58.0506 9.08634 57.9313C6.03289 57.2501 2.27188 62.6465 2.40432 67.519C2.45042 69.2195 2.25359 72.1873 1.96822 74.1146C1.59651 76.6178 1.77212 78.3937 2.58286 80.3342C3.20701 81.8276 4.25702 84.8138 4.91703 86.9701C6.4968 92.1338 8.80463 95.6797 12.9769 99.3522C17.4981 103.332 22.4145 104.967 29.9834 105.008C35.8656 105.04 36.069 105.101 38.7639 107.651C45.0047 113.555 51.9816 115.945 61.5737 115.463C69.0299 115.088 73.2175 113.456 77.9751 109.071L81.2429 106.058L87.1808 130.342C90.4464 143.699 93.0228 154.722 92.9064 154.839C92.7901 154.955 89.9796 154.201 86.662 153.162C80.749 151.313 80.599 151.302 79.1136 152.647C76.7648 154.772 70.9879 164.559 67.1252 172.956L63.6269 180.561L60.2581 177.973C55.8356 174.578 50.4143 172.126 45.1891 171.16C33.6939 169.036 22.0728 175.331 16.7145 186.587C14.6269 190.971 14.4505 191.945 14.4542 199.026C14.4586 205.779 14.7074 207.306 16.5103 211.632C17.6386 214.34 18.6798 218.009 18.8247 219.787C18.9696 221.564 19.5967 224 20.2172 225.202C21.2694 227.236 21.2489 227.474 19.9106 228.686C18.892 229.607 18.4742 230.935 18.4742 233.251C18.4742 236.083 18.8613 236.903 21.3894 239.432C24.1758 242.217 24.4597 242.327 27.7919 241.903C29.7097 241.659 32.9629 241.477 35.0212 241.499C38 241.531 39.2154 241.158 40.9803 239.673C42.2001 238.646 43.8677 237.807 44.6857 237.807C45.5038 237.807 46.8867 236.901 47.7589 235.795C49.1192 234.069 49.3058 233.055 49.0723 228.661C48.9231 225.844 48.2557 222.462 47.5884 221.146C46.4067 218.812 46.4191 218.725 48.1028 217.622C50.2365 216.224 51.4994 212.922 50.5497 211.225C49.9592 210.17 49.0211 210.064 43.8157 210.464C40.0357 210.755 37.2222 210.637 36.3134 210.151C34.2998 209.073 30.9236 201.887 30.4151 197.598C29.8312 192.663 30.5556 189.573 33.2534 185.5C37.6247 178.901 46.463 177.246 54.76 181.473C62.2293 185.277 61.9593 184.658 59.4137 192.149C54.1731 207.567 50.0111 227.161 51.4182 229.789C52.7895 232.352 54.3319 233.28 58.0702 233.794L61.8495 234.314L55.9592 237.083C45.4994 241.999 40.6101 248.177 42.5425 254.034C42.9984 255.415 44.8401 257.986 46.6343 259.748L49.897 262.95L46.2326 265.042C42.3947 267.235 39.8242 271.038 40.6774 273.262C42.3157 277.532 62.2754 279.081 73.6294 275.819C76.9155 274.875 79.9382 272.152 79.9382 270.134C79.9382 267.641 77.1124 265.042 68.7518 259.849C64.2401 257.045 59.5878 253.745 58.4134 252.515C53.7853 247.663 56.74 242.912 67.0593 238.616L72.3079 236.432L89.4769 240.444C98.9197 242.651 108.151 244.814 109.99 245.252L113.335 246.047L121.332 262.148C130.853 281.318 136.648 291.309 141.15 296.316C143.985 299.47 144.852 300.002 147.141 300C154.425 299.993 160.126 291.657 161.568 278.908C162.509 270.593 160.551 264.881 156.76 264.881C154.38 264.881 149.023 267.721 145.416 270.897L142.062 273.849L140.185 272.108C136.437 268.635 122.558 249.822 123.24 249.14C123.384 248.997 126.935 249.836 131.131 251.005C135.328 252.175 138.843 253.05 138.944 252.949C139.045 252.848 139.666 250.14 140.324 246.932C141.654 240.453 146.882 224.322 149.716 217.957C151.783 213.313 153.713 212.197 159.674 212.197C166.983 212.197 173.598 216.315 173.598 220.864C173.598 223.369 170.482 227.986 167.615 229.73C165.41 231.071 165.401 231.07 161.854 228.864C156.79 225.716 154.632 226.284 148.859 232.289C144.448 236.876 143.671 238.561 144.997 240.656C145.375 241.254 145.353 242.508 144.942 243.686C144.18 245.874 145.772 250.978 147.219 250.978C147.642 250.978 147.988 252.086 147.988 253.44C147.988 258.3 153.529 262.491 158.676 261.525C160.349 261.211 161.917 260.193 163.195 258.592C164.682 256.729 165.914 256.025 168.329 255.663C171.811 255.141 175.43 252.558 176.219 250.031C176.496 249.144 177.956 247.355 179.462 246.057C182.528 243.417 186.419 237.708 187.137 234.794C187.554 233.104 188.062 232.832 191.443 232.483C196.51 231.96 200.269 230.32 201.818 227.957C202.883 226.331 202.947 225.614 202.232 223.323C201.171 219.925 199.754 218.353 191.324 211.223C181.685 203.069 180.253 199.58 184.879 195.518C186.255 194.311 189.226 192.633 191.481 191.789L195.581 190.255L199.406 193.365C201.51 195.076 205.372 197.441 207.988 198.62C212.164 200.503 213.797 200.804 221.365 201.084C228.853 201.361 230.082 201.584 230.72 202.776C231.772 204.742 234.765 206.526 237.852 207.028C240.257 207.418 240.817 207.991 243.624 212.937L246.733 218.413L243.252 219.95C239.72 221.508 235.793 225.353 235.793 227.254C235.793 230.876 243.329 233.048 254.083 232.526C260.816 232.199 265.261 230.867 266.716 228.741C268.206 226.564 264.586 220.527 257.121 212.746L252.383 207.807H254.929C263.187 207.807 272.931 203.873 276.812 198.973C284.676 189.044 281.328 175.441 269.743 170.247L266.754 168.907L267.097 161.785C267.349 156.559 267.128 153.604 266.269 150.686C264.778 145.624 260.192 138.192 255.786 133.701C243.852 121.536 221.054 121.458 204.696 133.525C203.488 134.417 201.287 135.543 199.802 136.029C198.318 136.516 196.249 137.586 195.204 138.409C193.934 139.408 192.723 139.757 191.553 139.464C190.442 139.185 189.38 139.446 188.651 140.175C187.28 141.546 187.292 141.426 188.313 143.668C188.84 144.825 188.883 145.886 188.434 146.688C187.83 147.768 187.151 147.449 183.049 144.158C175.21 137.872 159.615 124.062 154.612 118.977C152.017 116.34 149.218 112.778 148.392 111.062C146.494 107.116 143.499 105.128 137.099 103.559C134.315 102.877 131.064 101.605 129.874 100.733C128.685 99.8607 126.297 98.0768 124.569 96.7692C119.4 92.8575 115.061 93.9997 115.061 99.2724C115.061 101.214 115.651 102.441 117.439 104.215C118.746 105.513 120.431 106.914 121.181 107.327C122.3 107.945 122.398 108.352 121.729 109.602C121.281 110.439 120.914 111.924 120.914 112.903C120.914 114.829 123.443 118.538 124.757 118.538C125.202 118.538 126.622 119.69 127.912 121.099C129.396 122.719 130.931 123.66 132.09 123.66C133.593 123.66 134.006 124.105 134.387 126.139C135.062 129.737 138.052 132.44 141.355 132.44C142.83 132.44 144.419 132.058 144.887 131.589C145.534 130.943 150.443 133.564 165.339 142.511C176.119 148.986 185.518 154.72 186.226 155.252C187.356 156.104 187.433 156.844 186.862 161.376C185.998 168.226 186.961 174.101 189.946 180.202C192.301 185.013 192.327 185.168 190.851 185.474C190.014 185.646 187.575 186.134 185.43 186.558C176.896 188.244 170.691 192.472 169.624 197.329C169.374 198.469 169.631 200.933 170.195 202.806L171.22 206.213L166.208 206.259C161.618 206.303 159.477 206.572 155.811 207.572C154.692 207.876 154.849 207.217 156.823 203.297C158.107 200.747 160.102 197.284 161.256 195.602C162.41 193.92 163.354 192.304 163.354 192.012C163.354 190.173 158.709 186.145 152.198 182.34C145.681 178.531 127.204 169.049 124.617 168.187C123.796 167.913 122.027 161.036 112.883 122.562C105.903 93.1933 101.347 74.58 101.07 74.3034C100.917 74.1512 97.5543 74.6839 93.5964 75.4888C89.6386 76.2929 86.3042 76.8417 86.1871 76.7078C85.8366 76.3083 78.4638 42.1687 78.4697 40.9716C78.4734 40.177 80.3553 39.4643 85.2359 38.4106C91.9567 36.9604 92.0064 36.9326 93.7376 33.7833L95.4784 30.6157L93.1962 28.261C91.9413 26.9659 90.914 25.3707 90.914 24.7166C90.914 24.0624 90.0615 22.5141 89.0196 21.2761C87.5934 19.5814 86.5149 19.0246 84.6571 19.0246C82.5512 19.0246 80.55 17.6255 71.0465 9.51229C64.9176 4.28053 59.7042 0 59.4598 0C59.2154 0 57.8229 1.23513 56.3661 2.74393ZM85.6332 23.2934C85.852 23.9571 85.4195 24.1912 84.2846 24.0251C83.3656 23.8905 82.4692 23.3417 82.2922 22.8046C82.0734 22.1409 82.5058 21.9068 83.6407 22.0729C84.5598 22.2075 85.4561 22.7563 85.6332 23.2934ZM83.2741 27.7349C82.7854 28.5266 79.9382 28.8903 79.9382 28.1608C79.9382 27.9544 80.3436 27.1364 80.8383 26.3439C81.6066 25.1139 81.8883 25.051 82.7546 25.9173C83.3129 26.4764 83.5471 27.2937 83.2741 27.7349ZM79.6156 31.3935C78.9219 32.5159 76.2797 32.3981 76.2797 31.2442C76.2797 30.721 76.677 29.8957 77.1629 29.4098C77.8529 28.7198 78.2721 28.7527 79.0785 29.5591C79.647 30.1269 79.8885 30.9523 79.6156 31.3935ZM21.4809 54.471C21.6594 54.6488 23.0409 55.6337 24.5519 56.6588C27.0214 58.3352 27.2182 58.3725 26.5004 57.0313C26.0614 56.211 24.8775 55.2269 23.8699 54.8435C21.903 54.0956 20.9584 53.9486 21.4809 54.471ZM1.40114 62.6838C1.1326 62.9516 0.946746 64.1867 0.987722 65.4277L1.06309 67.6836L1.66383 65.1277C2.28944 62.4643 2.22432 61.8599 1.40114 62.6838ZM32.3995 66.9519C32.3995 69.5809 32.5985 70.3017 33.1085 69.5129C33.4985 68.9092 33.8176 67.7568 33.8176 66.9519C33.8176 66.147 33.4985 64.9945 33.1085 64.3909C32.5985 63.6021 32.3995 64.3228 32.3995 66.9519ZM35.6966 75.3234C35.4427 75.7339 36.3851 75.8393 38.0315 75.5854C41.7054 75.0183 42.0003 74.6349 38.7617 74.6349C37.3093 74.6349 35.93 74.9444 35.6966 75.3234ZM2.42847 88.9033C2.40286 90.1106 3.03433 92.1689 3.83189 93.4765C5.46654 96.1568 6.56485 96.7436 5.20166 94.2082C4.71434 93.3024 3.90214 91.2448 3.39506 89.635C2.52139 86.8574 2.47237 86.8201 2.42847 88.9033ZM63.4776 97.3948L64.6718 102.959L70.8233 101.702C74.206 101.011 76.8219 100.691 76.636 100.992C76.4502 101.293 74.7299 102.287 72.8135 103.202C67.0586 105.951 59.6924 105.42 55.7244 101.971C54.0473 100.514 55.4485 95.6285 58.701 91.5894C61.6381 87.9418 61.3827 87.6316 63.4776 97.3948ZM0.913086 93.1311C0.913086 93.7794 1.767 95.2334 2.81042 96.3624L4.70776 98.4156L3.04969 95.4887C0.929914 91.7482 0.913086 91.7299 0.913086 93.1311ZM128.204 96.6163C129.597 97.8068 131.079 98.7727 131.496 98.7617C131.914 98.7507 131.103 97.7717 129.695 96.5863C128.286 95.4009 126.805 94.4351 126.402 94.4409C126 94.446 126.81 95.4251 128.204 96.6163ZM124.258 97.5412C129.527 101.972 131.553 103.051 137.414 104.547C142.144 105.754 143.676 106.515 145.61 108.616C148.94 112.233 148.886 115.688 145.427 120.218C142.583 123.941 142.369 124.919 143.94 126.996C146.348 130.179 144.031 132.527 139.582 131.411C136.757 130.701 135.486 127.999 135.017 121.695C134.783 118.55 134.146 115.29 133.601 114.45C133.057 113.611 129.646 111.184 126.021 109.056C116.842 103.669 114.436 100.489 116.55 96.538C117.725 94.3414 120.953 94.7614 124.258 97.5412ZM126.621 110.352C128.218 111.582 128.246 111.755 127.174 113.812C126.554 115.003 126.044 116.389 126.041 116.891C126.03 119.127 122.969 116.618 122.058 113.626C121.5 111.795 122.707 109.017 124.05 109.042C124.538 109.05 125.696 109.641 126.621 110.352ZM132.98 115.596C133.588 116.771 134.085 118.902 134.085 120.33C134.085 122.46 133.815 122.928 132.589 122.928C128.856 122.928 126.239 117.139 128.262 113.359C129.246 111.519 131.4 112.541 132.98 115.596ZM44.7625 115.143C46.3504 117.114 49.5911 118.546 52.2794 118.465L54.6941 118.391L51.8324 117.72C50.2584 117.35 47.7889 116.328 46.3445 115.447C44.2372 114.162 43.9247 114.101 44.7625 115.143ZM156.352 122.035C160.047 125.568 167.308 132.071 172.486 136.486C177.664 140.901 182.654 145.172 183.575 145.977C185.482 147.643 186.365 150.617 185.396 152.105C184.883 152.892 180.573 150.609 165.632 141.636C155.123 135.326 146.524 129.728 146.524 129.196C146.524 128.664 146.03 127.82 145.427 127.318C143.708 125.892 144.186 122.799 146.554 120.029C147.745 118.636 148.719 117.071 148.719 116.553C148.719 116.035 148.925 115.611 149.176 115.611C149.427 115.611 152.656 118.502 156.352 122.035ZM158.963 120.309C160.372 121.819 162.512 123.74 163.72 124.577C165.847 126.051 165.836 126.014 163.354 123.352C161.945 121.841 159.805 119.921 158.598 119.084C156.47 117.61 156.481 117.647 158.963 120.309ZM51.5002 121.541C52.7324 122.322 56.317 122.395 56.77 121.648C56.9536 121.346 55.6183 121.056 53.8021 121.004C51.6933 120.942 50.8614 121.137 51.5002 121.541ZM234.33 127.168C226.739 133.022 217.449 143.201 211.105 152.615L208.11 157.059L213.537 176.018C216.522 186.447 218.964 195.231 218.964 195.539C218.964 196.698 212.564 196.005 207.827 194.333C199.985 191.565 194.27 186.759 190.787 180.002C187.985 174.565 186.815 166.78 187.949 161.114C188.351 159.103 188.557 158.955 189.961 159.673C193.377 161.422 193.922 161.582 194.541 161.019C194.894 160.698 196.08 160.224 197.176 159.965C198.857 159.569 199.093 159.694 198.683 160.761C198.252 161.885 198.329 161.906 199.362 160.953C200.003 160.363 200.23 159.77 199.867 159.636C199.505 159.501 199.208 159.055 199.208 158.643C199.208 158.231 199.636 158.058 200.16 158.259C200.798 158.504 201.1 157.987 201.074 156.691C201.054 155.628 201.41 154.827 201.865 154.912C202.321 154.997 202.681 154.668 202.665 154.18C202.582 151.684 202.929 150.686 203.711 151.169C204.235 151.493 204.358 151.37 204.033 150.847C203.728 150.351 203.966 150.001 204.609 150.001C205.213 150.001 205.908 149.676 206.154 149.278C206.42 148.847 206.069 148.747 205.282 149.03C204.21 149.415 204.279 149.158 205.654 147.646C206.584 146.625 207.901 145.831 208.581 145.883C209.294 145.937 209.821 145.447 209.826 144.724C209.831 144.036 210.242 143.065 210.741 142.566C212.894 140.413 211.522 137.03 207.823 135.374L204.953 134.09L207.616 132.445C213.195 128.996 218.164 127.059 225.184 125.598C225.988 125.43 228.952 125.27 231.769 125.242L236.891 125.192L234.33 127.168ZM132.21 128.416C132.489 129.623 133.202 131.105 133.793 131.708C134.739 132.674 134.766 132.5 134.01 130.244C132.872 126.841 131.529 125.479 132.21 128.416ZM209.199 136.924C211.198 138.583 210.243 141.467 206.316 145.632C202.536 149.639 202.471 149.671 199.315 149.132C194.904 148.379 189.821 145.269 189.244 142.97C188.515 140.065 189.829 139.526 192.62 141.585C193.985 142.592 195.44 143.416 195.854 143.416C196.268 143.416 195.869 142.899 194.968 142.269C192.952 140.856 193.333 140.172 197.245 138.173C202.901 135.284 206.739 134.883 209.199 136.924ZM212.379 142.318C212.379 142.52 212.543 142.684 212.744 142.684C212.946 142.684 213.11 142.52 213.11 142.318C213.11 142.117 212.946 141.953 212.744 141.953C212.543 141.953 212.379 142.117 212.379 142.318ZM210.915 143.782C210.915 143.983 211.08 144.148 211.281 144.148C211.482 144.148 211.647 143.983 211.647 143.782C211.647 143.581 211.482 143.416 211.281 143.416C211.08 143.416 210.915 143.581 210.915 143.782ZM209.452 144.879C209.452 145.282 209.103 145.611 208.677 145.611C208.251 145.611 208.105 145.282 208.354 144.879C208.603 144.477 208.951 144.148 209.129 144.148C209.307 144.148 209.452 144.477 209.452 144.879ZM238.987 146.396C241.617 148.465 241.412 150.181 238.14 153.449C236.614 154.973 234.825 157.003 234.166 157.958C233.103 159.499 232.601 159.64 229.717 159.208C223.059 158.209 216.375 153.029 218.719 150.686C219.339 150.065 220.403 150.355 222.915 151.827C224.766 152.911 226.281 153.477 226.281 153.083C226.281 152.69 225.559 152.178 224.676 151.948C223.081 151.53 223.079 151.518 224.493 149.929C226.3 147.898 232.642 144.896 235.146 144.887C236.198 144.882 237.927 145.562 238.987 146.396ZM191.506 147.045C191.865 147.625 195.128 148.765 201.242 150.446C201.941 150.639 201.779 151.5 200.608 153.828C198.218 158.581 197.13 159.514 193.972 159.514C189.51 159.514 187.951 157.443 188.431 152.153C188.642 149.817 189.033 147.554 189.299 147.124C189.899 146.153 190.933 146.116 191.506 147.045ZM207.257 147.44C207.257 147.642 207.421 147.806 207.622 147.806C207.824 147.806 207.988 147.642 207.988 147.44C207.988 147.239 207.824 147.075 207.622 147.075C207.421 147.075 207.257 147.239 207.257 147.44ZM205.793 151.099C205.793 151.3 205.958 151.465 206.159 151.465C206.36 151.465 206.525 151.3 206.525 151.099C206.525 150.898 206.36 150.733 206.159 150.733C205.958 150.733 205.793 150.898 205.793 151.099ZM203.934 152.977C203.668 153.406 203.608 153.915 203.8 154.106C203.992 154.298 204.344 153.947 204.582 153.326C205.077 152.036 204.655 151.81 203.934 152.977ZM99.3287 161.46C115.429 167.454 139.619 178.514 151.535 185.332L154.716 187.151L148.608 189.163C145.248 190.268 142.204 191.344 141.841 191.553C141.48 191.76 142.457 192.584 144.014 193.383L146.845 194.836L142.975 198.395C140.847 200.351 138.799 201.953 138.424 201.953C138.05 201.953 137.744 200.801 137.744 199.392C137.744 197.807 137.186 196.274 136.28 195.368C132.895 191.982 128.586 194.224 118.782 204.473C99.7867 224.333 94.585 228.495 88.7576 228.495C82.4414 228.495 80.2441 224.739 81.0314 215.29C81.6556 207.799 80.8317 205.288 77.3751 204.148C73.3404 202.816 69.1374 204.38 62.1108 209.829L57.8207 213.156L58.3593 210.665C59.4093 205.803 65.222 189.033 68.6069 181.099C72.5406 171.878 77.8053 162.122 80.8258 158.459L82.8988 155.944L86.7234 157.068C88.8271 157.686 94.4994 159.662 99.3287 161.46ZM227.799 159.58C229.982 160.041 231.85 160.488 231.949 160.573C232.477 161.027 227.413 169.152 226.196 169.803C223.266 171.372 218.568 168.269 217.818 164.269C217.578 162.989 217.754 160.556 218.21 158.863L219.04 155.783L221.434 157.262C222.751 158.077 225.615 159.119 227.799 159.58ZM69.9035 159.698C67.9623 162.402 64.5064 169.336 65.6903 168.152C66.6496 167.193 72.6431 157.097 72.3987 156.852C72.2538 156.708 71.1313 157.988 69.9035 159.698ZM191.159 161.343C191.159 161.544 191.323 161.709 191.525 161.709C191.726 161.709 191.891 161.544 191.891 161.343C191.891 161.142 191.726 160.977 191.525 160.977C191.323 160.977 191.159 161.142 191.159 161.343ZM195.321 161.45C195.044 161.726 194.823 162.31 194.828 162.746C194.835 163.181 195.164 163.044 195.56 162.441C196.201 161.465 196.369 161.465 197.068 162.441C197.71 163.335 197.803 163.344 197.572 162.487C197.242 161.268 196.05 160.72 195.321 161.45ZM256.647 166.831C256.647 167.599 255.714 167.996 253.538 168.153C251.262 168.318 250.428 168.106 250.428 167.361C250.428 165.727 251.302 165.283 254.06 165.515C255.775 165.66 256.647 166.104 256.647 166.831ZM252.623 172.418C252.623 173.358 249.239 174.666 248.561 173.989C248.377 173.804 248.595 172.596 249.046 171.303C249.828 169.056 249.926 169.008 251.244 170.2C252.002 170.886 252.623 171.885 252.623 172.418ZM269.665 171.302C278.177 175.568 281.859 183.486 279.347 192.126C277.038 200.07 269.388 205.465 258.698 206.69C253.211 207.319 252.014 206.809 253.851 204.625C255.005 203.252 254.926 203.269 253.238 204.757C252.174 205.696 250.036 206.629 248.487 206.832C245.298 207.249 241.311 206.015 242.039 204.838C242.879 203.48 240.79 199.731 238.549 198.572C237.361 197.957 236.224 197.62 236.023 197.821C235.822 198.022 236.636 198.693 237.832 199.311C241.388 201.15 242.165 205.27 239.101 206.039C236.497 206.693 232.775 204.3 231.102 200.897C229.85 198.35 229.814 197.853 230.759 196.161C232.193 193.593 234.874 193.419 238.202 195.677C239.694 196.69 240.915 197.218 240.915 196.851C240.915 195.692 237.73 193.886 234.879 193.427C231.835 192.937 231.549 192.4 233.363 190.585C234.962 188.986 239.301 189.517 242.344 191.685C243.571 192.558 244.574 192.976 244.574 192.614C244.574 192.251 243.01 191.085 241.098 190.02C238.522 188.587 238.036 188.081 239.222 188.068C241.739 188.04 244.63 189.382 248.75 192.492C253.153 195.816 254.953 196.35 251.164 193.209C248.224 190.772 248.601 189.721 252.062 190.71C254.048 191.278 254.514 191.822 254.822 193.93C255.185 196.421 255.25 196.463 258.558 196.356C262.325 196.233 265.871 194.685 268.969 191.809C271.918 189.071 273.111 186.426 273.111 182.624C273.111 179.998 272.662 178.809 270.919 176.825C269.714 175.452 267.738 173.918 266.529 173.418C265.189 172.862 264.33 171.97 264.33 171.133C264.33 169.346 265.859 169.395 269.665 171.302ZM269.142 176.527C276.005 182.815 270.255 194.103 259.391 195.668C256.439 196.094 256.281 196.023 256.281 194.279C256.281 193.268 255.568 191.727 254.695 190.855L253.109 189.269L255.143 187.745C260.77 183.529 263.544 180.237 264.03 177.2C264.624 173.479 265.666 173.342 269.142 176.527ZM248.964 177.377C248.964 178.724 247.365 179.936 245.277 180.172C242.955 180.433 242.557 178.361 244.545 176.372C245.762 175.156 246.365 175.003 247.518 175.62C248.313 176.046 248.964 176.836 248.964 177.377ZM175.427 185.406C174.219 185.932 172.737 186.99 172.134 187.756C171.115 189.049 171.13 189.075 172.344 188.122C173.063 187.557 175.368 186.51 177.466 185.795C180.055 184.912 180.693 184.487 179.451 184.472C178.445 184.459 176.634 184.88 175.427 185.406ZM194.274 187.502C195.351 189.115 195.254 189.207 189.424 192.075C185.067 194.219 183.114 195.641 182.122 197.389C180.785 199.75 180.789 199.817 182.488 203.243C183.73 205.746 186.077 208.233 190.939 212.197C199.592 219.253 200.949 221.02 200.998 225.301C201.034 228.432 200.862 228.746 198.476 229.902C197.067 230.584 194.206 231.365 192.117 231.637L188.32 232.131L188.731 228.146C189.665 219.096 184.23 210.243 176.076 207.535C173.072 206.537 172.264 205.889 171.545 203.902C168.49 195.454 173.77 189.528 186.632 186.967C193.235 185.653 193.031 185.638 194.274 187.502ZM160.355 190.861L162.113 192.249L159.405 196.706C151.748 209.311 142.572 232.132 139.474 246.277L138.181 252.185L132.291 250.451C114.939 245.34 69.4594 234.592 58.5268 233.018C56.6097 232.742 54.8792 232.253 54.6802 231.932C54.4812 231.61 54.6904 228.844 55.1456 225.787C55.9534 220.353 56.0624 220.145 59.9895 216.557C66.1784 210.9 70.2394 208.38 73.8138 207.977L77.0114 207.617V215.79C77.0114 222.473 77.2741 224.478 78.4507 226.783C80.4263 230.656 85.3142 233.05 89.9496 232.414C96.3477 231.538 100.065 228.769 114.413 214.193C126.554 201.86 131.26 197.583 132.708 197.568C132.957 197.565 133.339 198.893 133.557 200.518C134.044 204.151 135.18 205.612 137.515 205.612C139.956 205.612 141.803 204.562 146.559 200.476C150.331 197.236 150.746 197.056 152.404 197.943C153.386 198.468 154.421 198.755 154.704 198.579C154.988 198.404 155.445 195.974 155.72 193.179C156.263 187.666 156.293 187.652 160.355 190.861ZM10.8695 195.062C10.2644 196.639 10.4012 201.993 11.092 203.761C11.4264 204.617 11.6356 202.907 11.6064 199.554C11.5786 196.447 11.5017 193.904 11.4351 193.904C11.3686 193.904 11.1139 194.425 10.8695 195.062ZM94.5725 194.973C94.5725 195.592 95.0218 196.099 95.5699 196.099C96.1684 196.099 96.4984 196.759 96.3952 197.746C96.3001 198.652 96.1809 199.823 96.1296 200.35C96.0777 200.877 95.7104 201.107 95.3123 200.861C94.8828 200.595 94.7847 200.924 95.0708 201.669C95.3679 202.442 95.2633 202.746 94.8001 202.46C94.3545 202.184 94.1174 202.659 94.2199 203.62C94.3999 205.305 92.133 210.246 91.4803 209.593C91.2769 209.389 91.2103 210.138 91.3332 211.258C91.634 213.999 94.7745 216.587 97.7979 216.587C100.794 216.587 104.639 214.067 106.753 210.716C107.635 209.317 109.278 207.273 110.404 206.173C112.011 204.602 112.26 203.981 111.561 203.283C110.861 202.583 110.67 202.659 110.67 203.636C110.67 205.238 109.83 205.209 107.659 203.533C99.1582 196.969 94.5725 193.97 94.5725 194.973ZM107.378 204.57C108.831 205.679 108.828 205.711 106.942 209.125C104.767 213.063 101.132 215.856 98.1828 215.856C92.4491 215.856 91.6706 213.434 94.975 205.866C96.3535 202.708 97.4855 199.527 97.4906 198.797C97.4994 197.519 100.241 199.12 107.378 204.57ZM94.1372 199.14C93.813 199.663 93.936 199.786 94.4591 199.462C94.9238 199.175 95.3043 198.795 95.3043 198.617C95.3043 198.007 94.6581 198.296 94.1372 199.14ZM279.041 201.078C278.616 201.873 276.721 203.548 274.832 204.8C272.943 206.052 271.865 207.073 272.437 207.07C274.701 207.06 281.277 201.094 280.205 200.023C279.99 199.809 279.467 200.283 279.041 201.078ZM92.3774 203.051C92.3774 203.252 92.542 203.417 92.7433 203.417C92.9445 203.417 93.1091 203.252 93.1091 203.051C93.1091 202.85 92.9445 202.685 92.7433 202.685C92.542 202.685 92.3774 202.85 92.3774 203.051ZM92.3774 205.978C92.3774 206.179 92.542 206.343 92.7433 206.343C92.9445 206.343 93.1091 206.179 93.1091 205.978C93.1091 205.776 92.9445 205.612 92.7433 205.612C92.542 205.612 92.3774 205.776 92.3774 205.978ZM90.5949 207.592C90.1983 208.635 90.2818 208.719 91.0047 208.002C91.5052 207.505 91.7298 206.915 91.5045 206.69C91.2791 206.465 90.8701 206.871 90.5949 207.592ZM248.354 207.797C251.741 207.807 251.812 207.858 257.5 214.436C269.812 228.673 268.805 231.555 251.525 231.555C241.264 231.555 237.257 230.37 237.257 227.334C237.257 223.644 243.28 219.615 249.124 219.397C251.536 219.307 251.752 219.214 250.062 218.99C248.161 218.739 247.442 217.907 244.704 212.789C241.728 207.225 241.642 206.904 243.241 207.332C244.175 207.582 246.476 207.792 248.354 207.797ZM127.746 209.685C127.503 210.316 127.678 211.205 128.134 211.661C129.113 212.64 129.251 213.925 128.314 213.346C127.957 213.125 127.68 213.353 127.697 213.852C127.782 216.2 127.436 217.366 126.776 216.958C126.36 216.702 126.24 216.998 126.492 217.655C126.776 218.395 126.579 218.709 125.935 218.545C125.387 218.405 125.186 218.429 125.487 218.598C126.58 219.208 126.006 220.391 124.836 219.942C123.831 219.556 123.786 219.664 124.559 220.595C125.223 221.394 125.245 221.709 124.636 221.709C124.014 221.709 123.998 222.1 124.581 223.188C125.016 224.001 125.227 224.907 125.049 225.2C123.625 227.554 132.563 228.326 136.065 226.153C138.689 224.524 142.608 218.237 143.317 214.517C143.6 213.036 144.391 211.811 145.336 211.389C146.365 210.931 143.739 210.822 137.561 211.066C132.43 211.269 128.231 211.179 128.231 210.865C128.231 210.552 128.627 209.9 129.109 209.417C129.792 208.734 129.787 208.539 129.087 208.539C128.591 208.539 127.988 209.054 127.746 209.685ZM142.866 212.433C142.866 215.18 140.133 220.781 137.403 223.63C134.823 226.323 133.89 226.831 131.524 226.831C128.56 226.831 126.036 225.2 126.036 223.285C126.036 222.667 126.942 219.935 128.048 217.216L130.061 212.273L133.353 212.001C140.986 211.371 142.866 211.457 142.866 212.433ZM126.036 214.758C126.036 214.959 126.201 215.124 126.402 215.124C126.603 215.124 126.768 214.959 126.768 214.758C126.768 214.557 126.603 214.392 126.402 214.392C126.201 214.392 126.036 214.557 126.036 214.758ZM110.747 224.493C109.205 227.374 112.736 229.188 119.3 228.887C123.875 228.676 124.222 228.769 124.435 230.265C124.602 231.435 124.058 232.182 122.423 233.028C121.191 233.665 120.183 234.547 120.183 234.989C120.183 235.517 120.564 235.475 121.298 234.866C122.717 233.688 123.382 234.334 122.761 236.289C122.05 238.53 119.343 238.18 116.844 235.522C114.71 233.253 110.966 231.222 108.917 231.222C107.655 231.222 105.548 233.172 105.548 234.339C105.548 234.788 106.24 234.413 107.086 233.505C107.945 232.583 109.103 232.038 109.707 232.27C110.303 232.498 111.081 232.685 111.437 232.685C111.793 232.685 113.753 234.167 115.792 235.978C117.832 237.789 119.745 239.271 120.044 239.271C121.601 239.271 123.841 236.798 123.841 235.079C123.841 234.027 124.404 232.545 125.091 231.785C126.041 230.735 126.153 230.108 125.558 229.166C124.932 228.178 123.615 227.925 119.003 227.912C112.331 227.893 111.103 227.389 111.722 224.922C112.242 222.853 111.742 222.633 110.747 224.493ZM122.378 223.539C122.378 223.74 122.542 223.905 122.744 223.905C122.945 223.905 123.109 223.74 123.109 223.539C123.109 223.338 122.945 223.173 122.744 223.173C122.542 223.173 122.378 223.338 122.378 223.539ZM38.9432 249.931C38.2532 251.746 38.63 255.076 39.5922 255.671C39.8491 255.83 40.0598 254.181 40.0598 252.006C40.0598 249.831 39.9691 248.051 39.8586 248.051C39.7481 248.051 39.3361 248.897 38.9432 249.931ZM163.516 273.661C163.529 278.955 163.556 279.039 164.278 276.036C164.792 273.898 164.788 272.178 164.265 270.548C163.595 268.46 163.504 268.836 163.516 273.661ZM130.449 286.872C130.424 288.154 134.227 294.43 135.509 295.223C135.969 295.507 135.385 294.146 134.212 292.2C133.04 290.254 131.719 288.003 131.276 287.198C130.68 286.115 130.465 286.03 130.449 286.872Z" fill="#323036"/>
</svg>
