<svg width="366" height="300" viewBox="0 0 366 300" fill="none" xmlns="http://www.w3.org/2000/svg">
<path fill-rule="evenodd" clip-rule="evenodd" d="M226.968 0.64743C217.289 4.13839 206.891 18.6658 202.693 34.5653L201.683 38.3877L198.906 34.3512C195.741 29.7502 193.141 29.0333 192.265 32.5192C191.277 36.4589 192.428 46.835 194.329 51.1234C196.016 54.9269 196.041 55.2704 194.682 55.7706C190.791 57.2017 182.153 63.4385 178.451 67.4879L174.32 72.0083L170.92 70.7656C165.754 68.8779 155.773 69.1297 148.037 71.3429C144.387 72.3877 141.041 73.019 140.601 72.7466C140.159 72.4751 137.977 71.9116 135.75 71.4953C123.845 69.2719 108.682 76.4371 101.621 87.6217C98.739 92.1867 96.8616 99.1155 96.859 105.198C96.8556 112.463 95.2677 124.632 93.3312 132.235C88.7611 150.182 76.9282 166.108 60.609 176.279C48.4043 183.886 30.6018 190.291 18.7252 191.347C9.37424 192.178 6.35691 193.793 3.51943 199.482C0.702507 205.13 0.0258968 218.971 2.15765 227.361C6.07085 242.77 15.3738 247.518 34.7985 244.021C44.4278 242.287 46.33 240.961 46.33 235.983C46.33 232.198 44.3079 229.167 40.011 226.511C36.1543 224.127 36.5954 221.207 41.049 219.636C42.7756 219.027 48.0429 216.398 52.7535 213.792C76.4845 200.67 91.3673 183.711 99.1509 160.927C101.68 153.524 103.713 142.221 103.713 135.566V130.556L109.923 136.84C117.343 144.347 125.967 148.863 136.666 150.842C146.401 152.643 147.386 153.283 150.819 160.015C153.597 165.46 153.817 166.467 153.817 173.705C153.817 180.852 153.569 182.02 150.92 187.402C145.989 197.418 134.729 207.467 120.311 214.723C115.555 217.116 113.625 218.678 111.547 221.814C107.233 228.329 106.955 234.646 110.824 238.275C111.859 239.247 115.79 240.928 119.558 242.011C125.563 243.739 128.315 243.984 141.826 243.993C156.569 244.003 157.43 243.911 161.525 241.863C165.172 240.04 165.847 239.315 166.073 236.978C166.218 235.469 165.907 233.428 165.379 232.442C164.457 230.719 155.375 223.54 153.198 222.814C152.551 222.599 153.408 221.163 155.415 219.102C160.212 214.174 165.672 205.479 168.437 198.364L170.863 192.121L172.096 194.51C175.304 200.723 184.458 210.174 187.268 210.174C187.833 210.174 188.779 209.008 189.37 207.582C190.098 205.824 190.888 205.126 191.828 205.409C199.481 207.719 207.943 208.193 214.9 206.701C218.476 205.934 219.901 206.064 224.336 207.557C233.062 210.497 242.524 209.724 248.641 205.573C250.268 204.469 253.096 203.285 254.924 202.942C258.198 202.328 260.07 200.743 267.941 191.927C270.81 188.712 271.71 184.094 269.832 182.217C269.212 181.597 269.344 180.988 270.26 180.227C271.973 178.806 271.936 176.872 270.158 174.907C269.376 174.042 268.895 173.216 269.088 173.072C269.281 172.927 270.527 171.985 271.855 170.979C273.767 169.532 274.715 169.32 276.407 169.963C277.582 170.411 281.12 170.766 284.27 170.754C303.285 170.68 325.906 152.316 325.906 136.952C325.906 128.605 320.288 124.214 309.694 124.279C290.774 124.395 268.155 142.974 268.155 158.399V162.877L262.52 166.41L256.886 169.943L251.6 167.462C243.14 163.49 240.226 162.826 233.142 163.261C225.162 163.75 219.527 166.218 214.427 171.459C212.423 173.519 210.341 176.727 209.769 178.636C209.2 180.535 208.162 182.309 207.463 182.577C205.502 183.329 194.788 181.238 191.243 179.411C181.135 174.2 177.465 163.749 181.897 152.79C183.719 148.283 184.114 147.914 191.077 144.223C195.079 142.102 199.509 139.574 200.922 138.606C203.206 137.041 203.826 136.965 206.489 137.918C212.498 140.068 218.272 138.993 223.782 134.698C226.282 132.752 227.898 132.21 231.491 132.115C234.573 132.034 233.278 131.769 227.473 131.294C217.271 130.459 208.49 128.61 201.249 125.772C194.494 123.124 191.705 121.301 192.485 120.038C192.821 119.495 191.906 119.898 190.453 120.932C186.49 123.754 185.618 123.42 186.273 119.325C186.58 117.406 186.495 116.044 186.086 116.297C185.676 116.551 184.286 115.658 182.998 114.314C181.303 112.544 180.971 111.746 181.797 111.422C182.424 111.176 180.913 111.187 178.44 111.447C175.968 111.706 173.944 111.597 173.944 111.204C173.944 110.811 175.004 109.349 176.299 107.954C177.766 106.376 178.123 105.608 177.245 105.919C176.166 106.301 175.27 105.178 173.423 101.127C171.427 96.7491 171.007 94.6516 170.993 88.9835C170.979 83.0765 171.344 81.3507 173.644 76.4705C176.835 69.6967 183.639 62.5675 190.105 59.2213C194.638 56.8763 198.505 56.0917 197.497 57.7225C197.205 58.1935 197.376 58.5789 197.874 58.5789C198.373 58.5789 198.781 58.96 198.781 59.4251C198.781 59.891 197.956 60.1797 196.948 60.0675C195.92 59.9535 194.952 60.4272 194.742 61.1483C194.51 61.9474 194.636 62.0887 195.076 61.5243C196.537 59.6469 200.064 60.637 203.101 63.7777C204.771 65.5035 206.967 67.1796 207.982 67.5016C209.224 67.8964 209.676 68.5636 209.363 69.5426C208.964 70.7904 209.033 70.8144 209.852 69.713C210.675 68.6047 211.04 68.7058 212.502 70.4504C213.435 71.5621 214.198 72.0306 214.198 71.491C214.198 70.7793 214.728 70.8041 216.125 71.5792C217.185 72.1685 218.245 72.6807 218.48 72.7175C218.716 72.7552 221.028 73.3384 223.619 74.015C226.562 74.7824 232.666 75.2501 239.892 75.2621C249.679 75.2775 252.441 74.97 257.878 73.2631C261.41 72.1539 265.877 70.3237 267.802 69.1948C269.728 68.0669 271.542 67.1436 271.835 67.1436C273.171 67.1436 281.816 77.9745 280.913 78.5166C276.533 81.1451 259.585 88.6529 258.936 88.2521C258.442 87.9463 258.224 86.8304 258.45 85.7709C258.845 83.9167 258.812 83.9055 257.546 85.4617C256.01 87.3502 257.073 90.2682 259.298 90.2682C260.408 90.2682 260.462 90.5029 259.59 91.5529C258.74 92.5781 258.74 93.0971 259.59 94.1223C260.177 94.8289 260.299 95.407 259.862 95.407C259.425 95.407 259.056 96.4673 259.041 97.7623C258.973 103.985 258.678 106.608 258.088 106.243C257.733 106.024 257.444 108.794 257.446 112.399L257.449 118.953L261.732 119.111C265.268 119.24 265.553 119.153 263.37 118.608C258.061 117.284 257.896 116.537 260.031 103.543C260.727 99.304 261.298 94.3947 261.3 92.6329C261.303 89.4897 261.429 89.3672 268.136 85.9953C271.895 84.1059 275.19 82.56 275.46 82.56C276.84 82.56 278.433 89.1839 278.433 94.9188C278.433 102.469 276.118 109.598 272.334 113.702L269.855 116.391L271.123 113.844C272.724 110.626 273.637 104.69 272.892 102.344C272.575 101.342 271.596 100.546 270.683 100.546C268.564 100.546 267.574 104.283 268.992 106.933C270.302 109.38 269.47 112.275 267.255 112.978C265.509 113.532 265.099 115.581 266.342 117.542C266.948 118.498 267.491 118.477 269.543 117.416C272.649 115.809 274.354 113.879 276.504 109.539C280.43 101.61 281.142 90.3402 278.09 84.4382C276.716 81.7798 276.725 81.7447 279.192 80.4694L281.681 79.1821L283.177 84.7055C286.69 97.6852 280.876 111.545 268.434 119.852C261.817 124.271 260.981 125.091 265.305 122.925C270.876 120.133 278.685 112.357 281.934 106.363C284.706 101.252 284.856 100.531 284.856 92.4094C284.856 84.9247 284.569 83.2315 282.578 78.9843C281.324 76.3112 278.671 72.3569 276.68 70.1969L273.061 66.2709L277.29 61.783C283.342 55.3603 285.714 50.0768 285.662 43.1368C285.613 36.4358 283.059 31.0597 278.433 27.9174C274.065 24.9497 268.288 25.5946 264.259 29.5001C262.64 31.0683 261.094 33.0502 260.824 33.9032C260.013 36.4581 259.15 35.6864 258.012 31.3861C256.223 24.6277 250.502 13.7411 246.26 9.02368C239.515 1.52103 232.721 -1.42865 226.968 0.64743ZM194.499 58.1507C194.499 58.3862 194.692 58.5789 194.927 58.5789C195.163 58.5789 195.355 58.3862 195.355 58.1507C195.355 57.9152 195.163 57.7225 194.927 57.7225C194.692 57.7225 194.499 57.9152 194.499 58.1507ZM192.786 59.8636C192.786 60.0991 192.979 60.2919 193.214 60.2919C193.45 60.2919 193.642 60.0991 193.642 59.8636C193.642 59.6281 193.45 59.4354 193.214 59.4354C192.979 59.4354 192.786 59.6281 192.786 59.8636ZM196.212 62.433C196.212 62.6686 196.405 62.8613 196.64 62.8613C196.876 62.8613 197.068 62.6686 197.068 62.433C197.068 62.1975 196.876 62.0048 196.64 62.0048C196.405 62.0048 196.212 62.1975 196.212 62.433ZM198.781 62.433C198.781 62.6686 198.974 62.8613 199.21 62.8613C199.445 62.8613 199.638 62.6686 199.638 62.433C199.638 62.1975 199.445 62.0048 199.21 62.0048C198.974 62.0048 198.781 62.1975 198.781 62.433ZM200.494 64.146C200.494 64.3815 200.687 64.5742 200.922 64.5742C201.158 64.5742 201.351 64.3815 201.351 64.146C201.351 63.9104 201.158 63.7177 200.922 63.7177C200.687 63.7177 200.494 63.9104 200.494 64.146ZM198.781 65.4307C198.781 66.0584 199.038 66.3154 199.353 66.0019C199.666 65.6876 199.666 65.1737 199.353 64.8594C199.038 64.5459 198.781 64.8029 198.781 65.4307ZM202.207 65.0024C202.207 65.238 202.4 65.4307 202.635 65.4307C202.871 65.4307 203.064 65.238 203.064 65.0024C203.064 64.7669 202.871 64.5742 202.635 64.5742C202.4 64.5742 202.207 64.7669 202.207 65.0024ZM206.489 65.8589C206.489 66.0944 206.297 66.2871 206.061 66.2871C205.826 66.2871 205.633 66.0944 205.633 65.8589C205.633 65.6234 205.826 65.4307 206.061 65.4307C206.297 65.4307 206.489 65.6234 206.489 65.8589ZM200.494 66.7154C200.494 66.9509 200.687 67.1436 200.922 67.1436C201.158 67.1436 201.351 66.9509 201.351 66.7154C201.351 66.4798 201.158 66.2871 200.922 66.2871C200.687 66.2871 200.494 66.4798 200.494 66.7154ZM203.064 66.7154C203.064 66.9509 203.256 67.1436 203.492 67.1436C203.727 67.1436 203.92 66.9509 203.92 66.7154C203.92 66.4798 203.727 66.2871 203.492 66.2871C203.256 66.2871 203.064 66.4798 203.064 66.7154ZM204.777 68.4283C204.777 68.6638 204.969 68.8565 205.205 68.8565C205.44 68.8565 205.633 68.6638 205.633 68.4283C205.633 68.1928 205.44 68.0001 205.205 68.0001C204.969 68.0001 204.777 68.1928 204.777 68.4283ZM171.513 72.076L173.793 73.0395L171.748 78.0139C169.07 84.5239 168.97 92.5481 171.476 99.787L173.29 105.03L170.834 107.069C169.482 108.19 165.65 110.483 162.316 112.163C154.693 116.008 149.514 116.076 147.438 112.362C146.246 110.229 146.282 109.861 147.881 107.719C148.925 106.321 151.445 104.77 154.19 103.837C158.745 102.29 165.039 98.2077 164.187 97.3555C163.94 97.1088 162.617 97.8505 161.247 99.0033C159.876 100.157 157.451 101.586 155.858 102.178C149.207 104.654 147.312 105.782 146.384 107.819C144.466 112.029 137.972 109.522 137.972 104.572C137.972 101.635 142.457 98.3344 149.745 95.9081C156.08 93.7977 162.165 90.3693 159.702 90.2965C159.171 90.2811 158.275 90.8249 157.711 91.505C157.147 92.185 154.112 93.5776 150.968 94.6002C147.824 95.622 143.629 97.3435 141.645 98.4235C138.065 100.374 138.034 100.375 137.486 98.6513C136.522 95.6143 139.628 92.9036 148.027 89.4494C157.728 85.4592 160.434 83.7531 160.055 81.8637C159.811 80.645 158.632 80.4188 152.509 80.4188C145.257 80.4188 145.252 80.4171 144.985 78.1004C144.681 75.4659 146.714 73.311 151.058 71.6657C154.377 70.4084 168.223 70.686 171.513 72.076ZM210.772 70.9977C210.772 71.2332 210.965 71.4259 211.2 71.4259C211.436 71.4259 211.628 71.2332 211.628 70.9977C211.628 70.7622 211.436 70.5695 211.2 70.5695C210.965 70.5695 210.772 70.7622 210.772 70.9977ZM215.054 72.7106C215.054 72.9462 215.247 73.1389 215.482 73.1389C215.718 73.1389 215.911 72.9462 215.911 72.7106C215.911 72.4751 215.718 72.2824 215.482 72.2824C215.247 72.2824 215.054 72.4751 215.054 72.7106ZM179.49 75.191C175.425 76.9622 173.534 82.8769 175.725 86.9708C176.235 87.9224 177.956 89.2456 179.552 89.9128C183.003 91.3542 183.365 91.3885 183.365 90.2682C183.365 89.7972 182.461 89.4118 181.356 89.4118C176.697 89.4118 174.218 81.3772 177.692 77.5385C181.397 73.4446 188.042 74.8998 189.068 80.0292C189.346 81.4209 189.954 82.56 190.416 82.56C191.919 82.56 190.225 77.9145 187.996 75.9224C185.56 73.7461 183.26 73.5483 179.49 75.191ZM181.229 79.7405C181.596 81.0878 181.238 81.9476 179.985 82.7296C179.017 83.3343 178.226 84.1299 178.226 84.4991C178.226 84.8673 179.161 84.5556 180.305 83.807C182.324 82.4838 182.394 82.5138 182.746 84.8579C183.107 87.2603 183.109 87.2595 183.236 84.5916C183.318 82.8932 184.071 81.4089 185.292 80.5379C187.213 79.1684 187.211 79.1667 184.889 79.9752C183.03 80.6218 182.372 80.4882 181.636 79.3174C180.849 78.0644 180.789 78.1261 181.229 79.7405ZM208.202 82.381C208.202 82.8161 209.809 83.5167 211.773 83.9372C213.738 84.3577 215.501 85.2793 215.693 85.9859C215.95 86.9349 215.843 86.9914 215.285 86.2026C214.82 85.5474 214.58 87.3691 214.662 90.9132C214.741 94.3082 214.408 96.9512 213.854 97.3212C213.181 97.7709 213.192 97.9542 213.894 97.9636C214.885 97.9764 214.248 102.668 212.976 104.727C212.02 106.274 210.533 105.83 211.159 104.186C211.594 103.043 211.491 102.923 210.726 103.683C209.48 104.919 210.524 106.819 212.114 106.21C213.014 105.864 213.16 106.393 212.749 108.506C212.454 110.016 211.911 111.373 211.541 111.521C211.171 111.67 211.105 112.407 211.394 113.161C211.683 113.914 211.565 114.312 211.132 114.044C210.698 113.777 210.354 115.042 210.366 116.856C210.414 124.058 216.529 126.432 224.904 122.499C230.244 119.99 231.393 118.695 234.894 111.238C237.388 105.924 237.705 104.418 237.727 97.7469C237.746 91.6017 237.984 90.2588 239.035 90.3513C241.873 90.6031 243.158 90.2048 243.651 88.9219C244.3 87.2312 242.669 84.0426 241.52 84.7534C240.972 85.0926 241.035 85.7281 241.698 86.5263C242.435 87.4145 242.467 88.0354 241.811 88.6915C241.154 89.3484 236.629 88.5827 226.045 86.0244C217.88 84.052 210.525 82.2465 209.701 82.0127C208.877 81.7789 208.202 81.9451 208.202 82.381ZM236.616 93.3181C237.44 98.0261 236.116 105.626 233.429 111.613C231.085 116.837 229.34 118.878 224.904 121.587L222.334 123.156L224.175 121.057C227.582 117.175 229.807 107.81 228 104.958C225.772 101.443 221.573 107.428 223.603 111.223C225.093 114.006 224.395 116.201 221.592 117.544C219.52 118.537 219.232 119.08 219.654 121.19C220.064 123.241 219.863 123.67 218.499 123.67C215.811 123.67 212.662 121.872 212.19 120.067C211.949 119.143 212.662 114.355 213.775 109.427C214.889 104.499 216.066 97.3058 216.393 93.4406C216.719 89.5762 217.125 86.1683 217.296 85.8686C217.465 85.5688 221.749 86.3627 226.815 87.6337L236.026 89.9445L236.616 93.3181ZM212.485 87.2706C212.485 87.5061 212.677 87.6988 212.913 87.6988C213.149 87.6988 213.341 87.5061 213.341 87.2706C213.341 87.0351 213.149 86.8424 212.913 86.8424C212.677 86.8424 212.485 87.0351 212.485 87.2706ZM211.809 90.783C211.201 91.4416 211.082 91.9812 211.544 91.9812C212.433 91.9812 213.721 90.3522 213.213 89.8691C213.048 89.7124 212.416 90.1235 211.809 90.783ZM257.021 91.5529C257.021 91.7885 257.214 91.9812 257.449 91.9812C257.685 91.9812 257.878 91.7885 257.878 91.5529C257.878 91.3174 257.685 91.1247 257.449 91.1247C257.214 91.1247 257.021 91.3174 257.021 91.5529ZM260.162 93.4089C259.847 93.7224 259.59 93.4654 259.59 92.8376C259.59 92.2098 259.847 91.9529 260.162 92.2664C260.475 92.5807 260.475 93.0946 260.162 93.4089ZM212.485 93.2659C212.485 93.5014 212.677 93.6941 212.913 93.6941C213.149 93.6941 213.341 93.5014 213.341 93.2659C213.341 93.0303 213.149 92.8376 212.913 92.8376C212.677 92.8376 212.485 93.0303 212.485 93.2659ZM210.772 94.5506C210.772 95.1784 211.029 95.4353 211.343 95.1218C211.657 94.8075 211.657 94.2936 211.343 93.9793C211.029 93.6658 210.772 93.9228 210.772 94.5506ZM257.021 94.1223C257.021 94.3579 257.214 94.5506 257.449 94.5506C257.685 94.5506 257.878 94.3579 257.878 94.1223C257.878 93.8868 257.685 93.6941 257.449 93.6941C257.214 93.6941 257.021 93.8868 257.021 94.1223ZM212.485 95.8353C212.485 96.0708 212.677 96.2635 212.913 96.2635C213.149 96.2635 213.341 96.0708 213.341 95.8353C213.341 95.5997 213.149 95.407 212.913 95.407C212.677 95.407 212.485 95.5997 212.485 95.8353ZM257.021 97.12C257.021 97.7478 257.278 98.0047 257.592 97.6912C257.906 97.3769 257.906 96.863 257.592 96.5487C257.278 96.2352 257.021 96.4922 257.021 97.12ZM211.057 97.6912C211.371 98.0047 211.885 98.0047 212.2 97.6912C212.513 97.3769 212.256 97.12 211.628 97.12C211 97.12 210.744 97.3769 211.057 97.6912ZM212.485 99.2611C212.485 99.4967 212.677 99.6894 212.913 99.6894C213.149 99.6894 213.341 99.4967 213.341 99.2611C213.341 99.0256 213.149 98.8329 212.913 98.8329C212.677 98.8329 212.485 99.0256 212.485 99.2611ZM210.772 100.118C210.772 100.353 210.965 100.546 211.2 100.546C211.436 100.546 211.628 100.353 211.628 100.118C211.628 99.8821 211.436 99.6894 211.2 99.6894C210.965 99.6894 210.772 99.8821 210.772 100.118ZM257.021 100.118C257.021 100.353 257.214 100.546 257.449 100.546C257.685 100.546 257.878 100.353 257.878 100.118C257.878 99.8821 257.685 99.6894 257.449 99.6894C257.214 99.6894 257.021 99.8821 257.021 100.118ZM212.485 101.831C212.485 102.066 212.677 102.259 212.913 102.259C213.149 102.259 213.341 102.066 213.341 101.831C213.341 101.595 213.149 101.402 212.913 101.402C212.677 101.402 212.485 101.595 212.485 101.831ZM257.021 103.115C257.021 103.743 257.278 104 257.592 103.687C257.906 103.372 257.906 102.858 257.592 102.544C257.278 102.231 257.021 102.487 257.021 103.115ZM182.937 106.044C180.581 107.153 177.883 108.707 176.941 109.496C174.82 111.273 175.506 111.037 182.508 107.579C194.082 101.863 196.65 105.362 189.191 116.684C187.843 118.73 187.209 120.248 187.78 120.058C189.692 119.421 194.535 109.692 194.296 106.969C194.09 104.617 193.782 104.385 190.645 104.214C188.499 104.098 185.619 104.782 182.937 106.044ZM255.308 104.4C255.308 104.635 255.501 104.828 255.736 104.828C255.972 104.828 256.165 104.635 256.165 104.4C256.165 104.164 255.972 103.972 255.736 103.972C255.501 103.972 255.308 104.164 255.308 104.4ZM255.308 107.398C255.308 108.025 255.565 108.282 255.879 107.969C256.193 107.655 256.193 107.141 255.879 106.826C255.565 106.513 255.308 106.77 255.308 107.398ZM209.344 107.969C209.658 108.282 210.172 108.282 210.487 107.969C210.8 107.655 210.543 107.398 209.915 107.398C209.288 107.398 209.031 107.655 209.344 107.969ZM209.915 110.395C209.915 110.631 210.108 110.823 210.344 110.823C210.579 110.823 210.772 110.631 210.772 110.395C210.772 110.16 210.579 109.967 210.344 109.967C210.108 109.967 209.915 110.16 209.915 110.395ZM255.308 110.395C255.308 110.631 255.501 110.823 255.736 110.823C255.972 110.823 256.165 110.631 256.165 110.395C256.165 110.16 255.972 109.967 255.736 109.967C255.501 109.967 255.308 110.16 255.308 110.395ZM120.266 118.873C122.539 120.57 124.071 121.958 123.668 121.958C121.709 121.958 113.571 114.997 112.153 112.108C111.69 111.166 112.396 111.609 113.722 113.092C115.048 114.577 117.992 117.178 120.266 118.873ZM208.202 112.108C208.202 112.344 208.395 112.536 208.631 112.536C208.866 112.536 209.059 112.344 209.059 112.108C209.059 111.873 208.866 111.68 208.631 111.68C208.395 111.68 208.202 111.873 208.202 112.108ZM255.308 112.965C255.308 113.2 255.501 113.393 255.736 113.393C255.972 113.393 256.165 113.2 256.165 112.965C256.165 112.729 255.972 112.536 255.736 112.536C255.501 112.536 255.308 112.729 255.308 112.965ZM208.202 115.106C208.202 115.734 208.459 115.991 208.774 115.677C209.087 115.363 209.087 114.849 208.774 114.535C208.459 114.221 208.202 114.478 208.202 115.106ZM253.88 114.821C254.195 115.134 254.709 115.134 255.023 114.821C255.336 114.506 255.079 114.249 254.452 114.249C253.824 114.249 253.567 114.506 253.88 114.821ZM254.834 116.893C254.518 117.405 254.605 118.171 255.028 118.594C255.483 119.049 255.797 118.669 255.797 117.663C255.797 115.716 255.639 115.591 254.834 116.893ZM104.328 123.444C104.131 124.746 103.965 123.885 103.958 121.529C103.952 119.174 104.113 118.109 104.316 119.162C104.519 120.215 104.524 122.143 104.328 123.444ZM208.202 118.103C208.202 118.339 208.395 118.532 208.631 118.532C208.866 118.532 209.059 118.339 209.059 118.103C209.059 117.868 208.866 117.675 208.631 117.675C208.395 117.675 208.202 117.868 208.202 118.103ZM258.734 118.103C258.734 118.339 258.541 118.532 258.306 118.532C258.07 118.532 257.878 118.339 257.878 118.103C257.878 117.868 258.07 117.675 258.306 117.675C258.541 117.675 258.734 117.868 258.734 118.103ZM208.202 120.673C208.202 120.908 208.395 121.101 208.631 121.101C208.866 121.101 209.059 120.908 209.059 120.673C209.059 120.437 208.866 120.245 208.631 120.245C208.395 120.245 208.202 120.437 208.202 120.673ZM257.021 120.673C257.021 120.908 257.214 121.101 257.449 121.101C257.685 121.101 257.878 120.908 257.878 120.673C257.878 120.437 257.685 120.245 257.449 120.245C257.214 120.245 257.021 120.437 257.021 120.673ZM263.016 120.673C263.016 120.908 263.209 121.101 263.445 121.101C263.68 121.101 263.873 120.908 263.873 120.673C263.873 120.437 263.68 120.245 263.445 120.245C263.209 120.245 263.016 120.437 263.016 120.673ZM125.981 122.386C125.981 122.621 125.789 122.814 125.553 122.814C125.318 122.814 125.125 122.621 125.125 122.386C125.125 122.15 125.318 121.958 125.553 121.958C125.789 121.958 125.981 122.15 125.981 122.386ZM206.489 122.386C206.489 122.621 206.682 122.814 206.918 122.814C207.153 122.814 207.346 122.621 207.346 122.386C207.346 122.15 207.153 121.958 206.918 121.958C206.682 121.958 206.489 122.15 206.489 122.386ZM209.915 122.386C209.915 122.621 210.108 122.814 210.344 122.814C210.579 122.814 210.772 122.621 210.772 122.386C210.772 122.15 210.579 121.958 210.344 121.958C210.108 121.958 209.915 122.15 209.915 122.386ZM208.202 123.67C208.202 124.298 208.459 124.555 208.774 124.242C209.087 123.927 209.087 123.414 208.774 123.099C208.459 122.786 208.202 123.043 208.202 123.67ZM210.772 124.099C210.772 124.334 210.965 124.527 211.2 124.527C211.436 124.527 211.628 124.334 211.628 124.099C211.628 123.863 211.436 123.67 211.2 123.67C210.965 123.67 210.772 123.863 210.772 124.099ZM212.485 124.955C212.485 125.191 212.677 125.383 212.913 125.383C213.149 125.383 213.341 125.191 213.341 124.955C213.341 124.72 213.149 124.527 212.913 124.527C212.677 124.527 212.485 124.72 212.485 124.955ZM255.308 126.737C252.717 127.848 251.176 128.764 251.882 128.772C252.589 128.78 255.094 127.859 257.449 126.725C262.927 124.086 261.473 124.094 255.308 126.737ZM203.554 127.638C205.875 128.408 208.1 129.332 208.5 129.691C209.446 130.545 198.056 139.943 196.076 139.943C193.458 139.943 192.569 136.982 194.092 133.337C195.14 130.827 198.446 126.24 199.206 126.24C199.275 126.24 201.232 126.869 203.554 127.638ZM248.296 129.394C248.914 129.642 249.653 129.611 249.937 129.327C250.222 129.042 249.716 128.84 248.814 128.877C247.816 128.918 247.613 129.121 248.296 129.394ZM243.96 130.233C244.549 130.471 245.513 130.471 246.101 130.233C246.69 129.995 246.208 129.801 245.031 129.801C243.853 129.801 243.372 129.995 243.96 130.233ZM237.975 131.128C239.04 131.332 240.582 131.325 241.401 131.111C242.22 130.896 241.348 130.729 239.463 130.738C237.579 130.747 236.909 130.923 237.975 131.128ZM314.013 133.962C316.105 134.757 316.251 135.109 315.71 138.03C314.881 142.499 312.543 145.975 306.872 151.167C298.781 158.574 287.034 162.839 279.757 161.013C276.767 160.263 276.888 157.017 280.113 151.393C283.194 146.023 289.123 140.821 296.063 137.403C303.993 133.498 309.842 132.376 314.013 133.962ZM168.928 156.534C166.776 161.735 166.614 161.906 165.467 160.174C164.805 159.174 163.116 157.132 161.713 155.633L159.163 152.909L162.057 152.438C165.955 151.805 169.028 151.335 170.21 151.194C170.783 151.125 170.254 153.331 168.928 156.534ZM248.671 167.299C252.321 168.911 255.306 170.449 255.301 170.717C255.298 170.985 253.691 172.121 251.73 173.241C248.328 175.184 248.114 175.207 247.035 173.732C246.414 172.881 245.655 172.435 245.35 172.741C245.045 173.046 245.993 174.414 247.458 175.782C250.291 178.429 255.694 180.19 261.04 180.209C266.082 180.227 267.931 181.013 269 183.594C269.776 185.467 269.722 186.598 268.747 188.932C267.045 193.003 263.721 194.239 255.927 193.699C252.459 193.458 250.493 193.57 251.454 193.953C252.396 194.329 255.589 194.664 258.55 194.697C263.595 194.754 263.877 194.861 263.048 196.41C260.277 201.589 251.226 203.862 243.653 201.282C238.924 199.67 238.396 199.6 239.524 200.728C239.982 201.185 242.661 202.087 245.477 202.732L250.598 203.904L246.743 205.882C241.974 208.331 232.947 209.137 227.47 207.603C225.336 207.007 221.863 205.421 219.751 204.082C217.639 202.743 215.911 201.982 215.911 202.393C215.911 202.803 216.586 203.398 217.409 203.716C220.178 204.782 216.234 206.061 208.739 206.527C201.208 206.995 192.885 205.407 188.103 202.587C185.599 201.111 185.508 200.843 185.554 195.123C185.597 189.768 188.015 180.178 189.316 180.208C189.575 180.214 192.232 180.985 195.218 181.921C198.204 182.858 202.347 183.623 204.425 183.623C207.593 183.623 208.202 183.891 208.202 185.286C208.202 186.2 208.588 187.186 209.059 187.477C209.576 187.798 209.915 186.621 209.915 184.503C209.915 176.004 216.833 168 227.045 164.683C228.222 164.301 232.076 164.074 235.609 164.178C240.794 164.332 243.312 164.933 248.671 167.299ZM269.868 178.161C269.868 180.33 268.666 180.576 263.546 179.454L261.077 178.913L264.35 176.587C267.991 174 269.868 174.535 269.868 178.161ZM295.042 224.532C294.522 224.878 293.887 228.438 293.633 232.442C292.863 244.591 287.093 256.533 277.96 264.879C273.181 269.247 264.034 274.409 261.072 274.409C258.345 274.409 249.849 269.443 244.655 264.814C241.992 262.441 239.554 260.758 239.237 261.074C238.761 261.551 239.979 267.094 242.202 274.564C242.596 275.888 242.262 275.909 238.049 274.82C235.53 274.169 228.85 273.241 223.205 272.757C214.357 271.999 212.321 272.073 208.431 273.3C203.72 274.785 202.896 275.622 205.419 276.361C206.243 276.602 211.735 278.232 217.624 279.983C226.921 282.747 229.572 283.182 237.77 283.284C246.881 283.397 247.364 283.5 251.573 286.201C269.317 297.588 296.862 302.763 317.237 298.536C323.982 297.137 326.868 296.026 331.898 292.891C348.612 282.473 360.887 261.6 364.51 237.433L365.095 233.53L358.806 231.299C342.908 225.66 331.442 223.884 310.979 223.895C302.735 223.899 295.564 224.186 295.042 224.532ZM333.675 226.032C342.911 227.422 351.562 229.595 359.118 232.421L363.872 234.2L362.701 240.387C359.947 254.937 354.515 267.901 346.972 277.926C342.284 284.157 337.463 288.429 330.011 292.956C325.9 295.453 324.578 295.85 321.809 295.424C314.896 294.359 310.979 290.49 310.979 284.729C310.979 282.329 310.752 282.126 308.195 282.234C306.301 282.313 306.007 282.466 307.272 282.713C308.675 282.986 309.273 283.908 309.704 286.462C310.384 290.486 314.337 294.822 317.993 295.553C321.598 296.274 319.962 297.297 313.548 298.333C302.045 300.193 288.31 299.099 275.107 295.273C266.792 292.863 254.683 287.432 250.481 284.227C247.364 281.85 242.011 271.677 241.093 266.383L240.519 263.068L245.369 267.018C251.925 272.358 264.323 278.243 274.639 280.911C281.088 282.58 285.835 283.182 294.277 283.406L305.411 283.702L295.134 283.001C284.502 282.276 276.815 280.809 267.393 277.705L261.92 275.902L268.678 272.382C277.852 267.604 284.986 260.311 289.556 251.039C293.011 244.031 295.519 234.779 295.548 228.945C295.555 227.257 295.819 225.618 296.133 225.305C297.239 224.199 325.076 224.739 333.675 226.032ZM314.95 237.122C308.209 239.526 302.541 247.686 303.747 253.253C304.633 257.35 307.389 260.713 311.322 262.5C323.643 268.095 338.806 257.373 334.978 245.772C332.37 237.869 323.546 234.058 314.95 237.122ZM64.744 248.585C60.6664 249.497 61.4689 251.662 66.0031 251.985C70.2152 252.285 77.6613 250.557 76.5676 249.534C75.5295 248.563 67.6672 247.933 64.744 248.585ZM76.9487 251.109C74.7116 251.843 72.8805 252.738 72.8805 253.102C72.8805 253.466 77.6818 255.325 83.5495 257.234C93.0794 260.335 95.1204 260.705 102.656 260.705C112.042 260.705 115.354 259.526 113.213 256.946C111.499 254.881 101.925 252.229 92.6709 251.257C88.1453 250.782 83.672 250.255 82.7299 250.086C81.7878 249.916 79.1858 250.377 76.9487 251.109ZM287.854 264.988C287.854 265.459 288.625 266.615 289.567 267.557C290.905 268.895 292.421 269.27 296.497 269.27C300.409 269.27 302.258 269.697 303.881 270.974C305.3 272.09 306.741 272.502 308.063 272.171C309.651 271.772 310.29 272.128 311.073 273.846C312.338 276.621 313.246 276.941 321.169 277.394L327.68 277.767L322.113 276.941C313.631 275.683 313.059 275.468 312 273.145C311.247 271.491 310.373 270.983 308.281 270.983C306.777 270.983 304.833 270.337 303.96 269.548C302.828 268.523 301 268.148 297.581 268.238C292.392 268.375 289.567 267.369 289.567 265.386C289.567 264.696 289.181 264.131 288.71 264.131C288.239 264.131 287.854 264.517 287.854 264.988ZM192.206 271.498C191.917 272.251 192.218 273.232 192.875 273.676C194.409 274.71 203.58 274.121 206.889 272.775C210.826 271.173 208.096 270.155 199.825 270.139C194.103 270.129 192.63 270.392 192.206 271.498ZM276.72 270.846C276.72 271.406 277.972 272.628 279.503 273.563C281.691 274.896 283.15 275.146 286.32 274.729C289.848 274.264 290.688 274.479 293.024 276.445C294.492 277.68 296.338 278.689 297.127 278.688C298.031 278.686 297.568 278.081 295.87 277.044C294.39 276.142 292.922 274.988 292.607 274.478C292.29 273.965 289.503 273.552 286.359 273.552C281.711 273.552 280.326 273.216 278.702 271.69C277.612 270.666 276.72 270.286 276.72 270.846ZM113.285 275.264C110.293 276.541 111.249 278.966 115.122 279.925C119.839 281.094 131.512 277.884 129.579 275.95C128.32 274.691 115.855 274.166 113.285 275.264ZM127.359 279.785L123.168 281.724L131.55 284.961C144.182 289.84 148.31 290.682 159.591 290.682C169.66 290.682 175.657 289.414 175.657 287.287C175.657 284.268 164.278 280.883 149.534 279.513C144.353 279.032 138.186 278.46 135.831 278.242C132.577 277.94 130.542 278.311 127.359 279.785Z" fill="#323036"/>
</svg>
