<svg width="322" height="300" viewBox="0 0 322 300" fill="none" xmlns="http://www.w3.org/2000/svg">
<path fill-rule="evenodd" clip-rule="evenodd" d="M210.196 3.40339C209.916 5.27552 210.031 8.10698 210.453 9.69467C211.146 12.3096 211.226 11.9877 211.298 6.29128C211.34 2.83069 211.226 0 211.041 0C210.858 0 210.477 1.53126 210.196 3.40339ZM217.858 9.15095C216.753 11.3312 216.021 13.2872 216.231 13.4969C216.44 13.7066 217.516 12.0937 218.621 9.91353C219.726 7.73331 220.458 5.7773 220.248 5.56759C220.038 5.35788 218.963 6.97074 217.858 9.15095ZM121.936 6.57343C121.637 6.87236 121.392 8.4326 121.392 10.0409C121.392 12.9425 121.37 12.9638 118.342 12.9638H115.291V19.4458V25.9277H118.342H121.392V28.978C121.392 32.0207 121.399 32.0283 124.399 32.0283C127.39 32.0283 127.406 32.0443 127.64 35.2693C127.873 38.4942 127.89 38.511 131.115 38.7444C134.34 38.9785 134.356 38.9937 134.356 41.9853V44.9922H137.787H141.219V41.9418C141.219 38.8976 141.225 38.8915 144.231 38.8915C146.307 38.8915 147.477 38.4767 147.993 37.557C148.686 36.3216 151.11 36.2156 180.631 36.1295C198.17 36.0784 213.094 35.993 213.796 35.9388C216.026 35.768 219.706 32.0192 220.612 28.9963C221.356 26.5133 221.272 25.6394 220.054 23.1527C219.266 21.5444 217.544 19.5121 216.228 18.6359C213.889 17.0795 213.236 17.052 187.059 17.3929L160.283 17.7422V15.353C160.283 12.8975 159.79 12.6222 155.945 12.928C154.497 13.0432 154.244 12.6245 154.039 9.77169L153.801 6.48192H150.37H146.938L146.704 9.72288C146.47 12.9478 146.455 12.9638 143.463 12.9638C140.464 12.9638 140.456 12.9715 140.456 16.0142C140.456 18.992 140.393 19.0645 137.787 19.0645C135.182 19.0645 135.118 18.992 135.118 16.0142C135.118 12.9715 135.111 12.9638 132.111 12.9638C129.12 12.9638 129.105 12.9478 128.87 9.72288C128.639 6.52768 128.593 6.47887 125.559 6.25544C123.866 6.13113 122.235 6.27374 121.936 6.57343ZM201.875 7.81644C202.159 8.75975 203.062 10.5617 203.882 11.82C205.248 13.9148 205.329 13.9468 204.847 12.2013C204.183 9.7999 202.319 6.10063 201.773 6.10063C201.546 6.10063 201.592 6.87313 201.875 7.81644ZM127.761 11.6293C128.648 19.0149 128.631 19.0645 125.205 19.0645H122.154V22.1148V25.1651H119.104H116.054V19.4892V13.8141L119.295 13.5792C122.44 13.352 122.543 13.2613 122.772 10.4855C122.985 7.91786 123.227 7.62579 125.145 7.62579C127.152 7.62579 127.309 7.86753 127.761 11.6293ZM211.695 20.2899C212.358 20.5446 212.901 21.1944 212.901 21.7335C212.901 22.2726 212.358 22.9224 211.695 23.1771C211.032 23.4318 199.192 23.64 185.386 23.64H160.283V21.7335V19.8271H185.386C199.192 19.8271 211.032 20.0352 211.695 20.2899ZM128.255 28.5967C128.255 31.1384 128.128 31.2657 125.586 31.2657C123.044 31.2657 122.917 31.1384 122.917 28.5967C122.917 26.055 123.044 25.9277 125.586 25.9277C128.128 25.9277 128.255 26.055 128.255 28.5967ZM277.078 29.7368C275.676 30.0685 274.161 30.7075 273.711 31.1575C273.134 31.734 273.772 31.7309 275.879 31.1468C277.521 30.6915 281.438 30.4856 284.584 30.6892C290.083 31.0454 290.186 31.0217 287.253 30.0776C283.792 28.9628 280.778 28.8621 277.078 29.7368ZM134.356 34.6973C134.356 37.239 134.228 37.3664 131.687 37.3664C129.145 37.3664 129.018 37.239 129.018 34.6973C129.018 32.1557 129.145 32.0283 131.687 32.0283C134.228 32.0283 134.356 32.1557 134.356 34.6973ZM146.557 34.6973C146.557 37.239 146.43 37.3664 143.888 37.3664C141.346 37.3664 141.219 37.239 141.219 34.6973C141.219 32.1557 141.346 32.0283 143.888 32.0283C146.43 32.0283 146.557 32.1557 146.557 34.6973ZM276.246 33.4612C275.197 33.754 277.017 33.9744 280.441 33.9683C287.559 33.9554 292.376 35.7787 297.069 40.2634C299.035 42.1432 299.738 42.5321 299.171 41.4294C297.86 38.8763 293.045 35.2472 289.257 33.9561C285.765 32.7665 279.577 32.5309 276.246 33.4612ZM251.277 36.372C248.507 36.9111 247.833 38.3615 249.136 40.9749C250.615 43.939 250.158 44.9373 246.231 47.318C243.918 48.7204 242.492 49.1131 241.117 48.728C240.068 48.4344 238.352 48.1912 237.304 48.1866C236.105 48.182 236.673 48.5313 238.834 49.1276C240.723 49.65 243.058 50.4995 244.021 51.015C246.413 52.2946 248.736 56.3119 248.74 59.1723C248.743 62.4751 246.697 64.0566 242.418 64.0566C239.576 64.0566 238.37 63.6075 236.277 61.7689C233.436 59.2753 231.795 58.6789 233.652 60.8157C234.999 62.366 236.093 70.1573 234.964 70.1573C233.805 70.1573 229.751 63.3162 229.215 60.4573C228.554 56.9357 230.75 51.3902 233.367 49.9688C234.484 49.3625 235.045 48.8523 234.614 48.8356C231.617 48.7189 228.153 54.0112 228.153 58.7049C228.153 63.0988 229.738 66.3756 233.733 70.2412C235.771 72.2124 238.015 75.4702 239.192 78.1644C241.652 83.796 246.258 88.6674 251.793 91.4927C260.794 96.088 270.394 108.685 271.961 117.96C273.2 125.296 267.952 132.979 260.113 135.307C251.797 137.777 244.403 136.8 223.356 130.451C216.315 128.326 209.574 126.588 208.378 126.588C206.638 126.588 206.101 126.169 205.693 124.491C205.412 123.338 204.361 121.138 203.357 119.603L201.532 116.812L206.771 112.989C212.955 108.477 217.571 102.928 220.833 96.085C222.935 91.675 223.195 90.371 223.191 84.265C223.186 78.5861 222.884 76.8367 221.442 74.1265C218.413 68.4346 214.661 65.0358 207.29 61.3037C203.456 59.3622 198.946 57.0737 197.268 56.2189C193.125 54.1065 187.838 53.6574 184.915 55.1688C183.062 56.1266 182.019 56.2036 179.668 55.5539C176.234 54.606 170.022 55.043 166.765 56.4621C165.507 57.0097 163.448 57.564 162.19 57.6937C157.93 58.1314 156.439 58.7514 153.592 61.2702C152.029 62.652 149.627 64.2328 148.253 64.7834C144.069 66.458 139.348 72.4671 136.995 79.1115C133.194 89.844 131.16 93.8026 128.1 96.422C125.729 98.4512 125.391 99.043 126.382 99.4235C128.63 100.287 136.341 99.9162 140.144 98.7624C142.203 98.1378 143.93 97.6231 143.981 97.6185C144.032 97.6139 144.297 99.0049 144.57 100.709C144.963 103.169 144.747 104.213 143.523 105.769C141.293 108.605 141.544 111.779 144.211 114.446C146.42 116.656 149.038 117.253 151.015 116.001C151.694 115.571 153.326 116.216 155.839 117.907C160.723 121.194 166.006 122.791 173.629 123.287C179.158 123.647 187.488 122.54 191.629 120.895C192.556 120.527 193.25 121.333 194.489 124.212C195.389 126.304 196.113 128.466 196.099 129.017C196.06 130.617 157.026 159.154 128.039 178.776C121.883 182.943 116.993 186.5 117.173 186.681C117.692 187.199 161.228 156.988 180.914 142.45C182.433 141.328 183.562 141.123 186.041 141.519L189.22 142.028L162.45 169.362L135.68 196.697L134.2 194.815C133.386 193.78 132.371 192.933 131.945 192.933C131.519 192.933 132.05 193.978 133.125 195.256C135.071 197.569 137.408 203.979 137.403 206.988C137.399 209.337 134.885 212.958 132.173 214.519C130.857 215.276 129.78 215.537 129.78 215.098C129.78 214.659 127.578 213.301 124.886 212.081L119.992 209.862L120.381 206.926C121.139 201.204 114.875 198.324 109.813 202.067L107.429 203.829L104.116 202.019C100.356 199.965 100.083 198.801 102.518 195.187C104.935 191.601 110.323 189.043 116.591 188.505C121.455 188.088 121.588 188.028 118.758 187.541C112.881 186.528 102.858 191.336 100.504 196.296C99.7903 197.802 99.0025 199.033 98.7539 199.033C98.5053 199.033 96.6286 198.004 94.5841 196.745C92.5389 195.487 90.6134 194.458 90.3053 194.458C89.9972 194.457 89.789 198.38 89.8432 203.175L89.9416 211.893L49.7834 244.375L9.62445 276.858L4.88731 286.37C2.28157 291.6 0.544419 295.881 1.02637 295.881C1.50832 295.881 9.46126 293.758 18.6991 291.165L35.4942 286.449L59.5696 266.55C72.8102 255.607 89.8211 241.547 97.3706 235.307C104.92 229.067 111.645 223.495 112.314 222.925C113.37 222.025 114.614 222.543 121.681 226.829L129.831 231.771L129.321 225.015C128.832 218.539 128.885 218.201 130.603 216.844C131.588 216.065 133.694 214.182 135.281 212.659C137.812 210.232 138.169 209.45 138.169 206.343C138.169 204.393 137.649 201.553 137.014 200.034L135.859 197.271L163.215 169.827L190.569 142.383L193.439 145.013C196.243 147.582 196.296 147.732 195.769 151.565C195.231 155.478 195.22 155.491 191.317 156.787C185.42 158.746 179.812 164.661 178.563 170.237C177.38 175.524 178.37 180.18 181.71 185.034L183.997 188.357L181.53 191.979C168.375 211.291 147.676 235.172 119.485 263.56C102.854 280.308 100.898 282.038 98.0531 282.502C96.3312 282.783 92.8996 283.648 90.4273 284.423C86.4878 285.658 85.9472 286.061 86.0585 287.68C86.1477 288.985 85.5354 289.91 83.9721 290.834C82.755 291.553 80.8265 293.365 79.6856 294.86C77.6785 297.491 77.6587 297.613 79.058 298.636C80.5374 299.718 94.9692 300.209 116.68 299.917C127.402 299.773 128.554 299.298 128.077 295.216C127.811 292.94 128.386 291.733 132.093 286.785C148.955 264.277 173.564 225.216 184.624 203.4L190.244 192.316L193.375 193.425C197.516 194.893 205.61 194.878 209.711 193.393C212.984 192.209 213.013 192.213 214.866 194.283C218.485 198.325 223.641 206.602 225.799 211.835C228.745 218.979 229.678 223.769 229.678 231.739C229.678 247.792 222.235 263.476 207.256 278.985C199.438 287.08 194.939 294.595 196.069 297.67C196.598 299.109 197.42 299.363 202.69 299.72C211.643 300.327 242.797 299.665 244.347 298.835C245.087 298.438 245.692 297.659 245.692 297.102C245.692 295.91 242.598 292.653 238.81 289.858C237.243 288.7 236.226 287.354 236.371 286.628C236.534 285.811 235.818 285.102 234.292 284.57C233.013 284.124 231.966 283.57 231.966 283.339C231.966 283.109 233.171 281.244 234.643 279.194C238.227 274.206 242.953 263.864 244.465 257.703C246.212 250.58 246.067 238.403 244.14 230.299C241.214 218 232.046 202.279 222.184 192.649L218.38 188.934L221.693 184.432C227.766 176.182 229.785 167.526 228.161 156.694C227.659 153.348 226.6 148.754 225.81 146.486C224.362 142.336 224.544 138.367 226.15 139.081C231.505 141.461 239.719 144.346 243.572 145.2C248.752 146.347 260.656 147.464 256.75 146.435C255.491 146.104 253.23 145.792 251.724 145.743C245.276 145.531 226.628 139.465 226.628 137.581C226.628 137.048 227.488 135.936 228.539 135.109C230.435 133.618 230.495 133.618 235.974 135.078C244.303 137.298 254.274 137.759 259.715 136.178C264.652 134.742 270.76 129.743 272.394 125.798C275.114 119.231 271.085 108.2 262.631 99.0682L257.751 93.7972H261.59C263.701 93.7972 265.589 93.5395 265.784 93.2253C265.979 92.9111 264.468 92.7716 262.428 92.9157C255.471 93.4068 248.203 89.7548 243.33 83.3186C240.722 79.8741 240.458 78.4381 242.833 80.6145C246.318 83.8082 251.213 85.6498 257.161 86.0052C262.079 86.2988 263.63 86.0609 267.896 84.3534C270.639 83.2561 273.715 82.3532 274.73 82.3471C275.745 82.3402 277.091 81.9833 277.721 81.5525C278.539 80.9935 277.862 80.9081 275.343 81.2551C268.621 82.1793 264.314 77.793 267.561 73.3319C271.66 67.7018 282.793 66.0157 286.605 70.4471C288.702 72.885 289.006 77.4437 287.292 80.7579C285.972 83.3087 281.522 87.3557 279.238 88.0802C278.341 88.3654 277.771 88.7642 277.974 88.9663C278.176 89.1684 279.427 88.7726 280.755 88.0863C283.836 86.4925 284.449 87.0011 287.546 93.7225C293.928 107.567 293.374 121.1 285.969 132.279C281.434 139.126 273.322 143.978 263.73 145.58C260.963 146.042 260.492 146.263 262.14 146.326C264.962 146.433 271.657 144.522 275.732 142.447C279.736 140.408 285.806 134.62 288.168 130.591C291.24 125.347 292.972 118.716 292.972 112.191C292.972 104.784 291.442 98.8821 287.646 91.6353L284.659 85.935L287.1 82.5362C290.014 78.4785 290.502 72.9048 288.169 70.3273C287.216 69.2742 286.95 68.2043 287.296 66.824C287.634 65.4781 287.296 63.9895 286.247 62.2127C285.371 60.7272 284.878 58.9008 285.113 58.0041C286.141 54.0737 281.643 49.5676 276.69 49.5676C275.621 49.5676 273.186 48.5138 271.277 47.2258C268.509 45.3574 267.807 44.4416 267.807 42.6953C267.807 41.4919 268.15 40.2947 268.57 40.0354C270.204 39.025 269.2 37.4015 266.473 36.6442C263.704 35.8748 254.661 35.7131 251.277 36.372ZM140.456 41.1793C140.456 44.1571 140.393 44.2296 137.787 44.2296C135.182 44.2296 135.118 44.1571 135.118 41.1793C135.118 38.2014 135.182 38.129 137.787 38.129C140.393 38.129 140.456 38.2014 140.456 41.1793ZM308.044 45.7517C304.919 46.692 300.688 49.5005 299.748 51.2568C299.073 52.5181 299.446 53.9959 301.739 59.1426C303.291 62.626 305.096 65.6817 305.749 65.9318C307.903 66.7585 314.233 64.0063 317.937 60.6319C321.45 57.4314 321.531 57.2613 320.425 55.4212C318.918 52.9169 311.483 44.9739 310.723 45.0577C310.397 45.0936 309.191 45.4062 308.044 45.7517ZM312.021 49.5974C311.27 50.9998 311.373 51.6197 312.634 53.2852C313.82 54.85 314.761 55.2672 316.948 55.1962C319.534 55.1124 319.727 55.2557 319.513 57.1027C319.315 58.807 318.835 59.1555 316.238 59.4812C313.961 59.7664 313.127 60.246 312.923 61.3876C312.773 62.2265 312.355 63.2254 311.993 63.6067C311.085 64.5645 308.281 61.046 308.249 58.9092C308.233 57.8226 307.734 57.166 306.889 57.1179C306.156 57.0768 304.703 56.9913 303.662 56.9273C300.36 56.726 300.933 54.5137 304.655 53.0923C306.504 52.3861 309.007 50.8183 310.217 49.6081C312.705 47.1198 313.348 47.116 312.021 49.5974ZM250.127 52.8155C250.26 53.9647 250.043 54.9057 249.643 54.9057C248.645 54.9057 246.417 51.3841 247.029 50.7725C248.124 49.6775 249.901 50.848 250.127 52.8155ZM280.311 51.3917C282 52.0979 283.132 53.2555 283.685 54.8454C285.031 58.7033 284.456 59.0999 277.52 59.0999C272.068 59.0999 270.776 59.3721 267.733 61.1611C263.734 63.5122 262.469 63.0157 262.469 59.0968C262.469 56.5025 265.903 52.5432 269.332 51.1828C272.126 50.0748 277.4 50.1754 280.311 51.3917ZM194.512 56.0191C202.608 58.8749 210.614 67.8764 210.614 74.1227C210.614 77.8334 207.932 80.8334 204.615 80.8334C202.713 80.8334 201.405 79.717 196.244 73.6819C192.879 69.7485 188.542 65.2318 186.605 63.6448C183.839 61.3777 183.133 60.3398 183.313 58.8032C183.736 55.1924 188.684 53.9624 194.512 56.0191ZM192.663 58.7666C191.806 60.1538 194.744 62.6817 196.764 62.2958C199.226 61.8246 201.636 64.245 201.046 66.5945C200.477 68.8647 202.989 72.1377 204.775 71.4521C205.47 71.186 206.038 70.2976 206.038 69.4778C206.038 67.2488 201.421 61.6294 197.995 59.6886C194.632 57.7837 193.402 57.5709 192.663 58.7666ZM283.004 60.5968C285.311 61.7895 286.109 63.1522 286.109 65.8975C286.109 67.5119 285.86 67.5927 281.902 67.2648C276.77 66.8393 271.451 68.231 268.4 70.7986C265.608 73.1474 263.733 72.3634 263.37 68.6946C263.174 66.718 263.638 65.7595 265.759 63.76C267.205 62.395 269.545 60.9095 270.958 60.458C274.727 59.2532 280.534 59.3203 283.004 60.5968ZM182.18 60.7158C181.921 60.9758 182.227 61.7064 182.86 62.3393C183.493 62.9723 183.812 64.0101 183.569 64.6438C183.202 65.5986 183.326 65.6314 184.287 64.8337C185.211 64.0673 185.681 64.0635 186.584 64.8124C187.209 65.3309 187.498 66.1118 187.228 66.5488C186.959 66.9849 187.096 67.1215 187.532 66.8523C188.453 66.2826 190.257 68.1448 189.509 68.8929C189.233 69.169 189.59 69.3947 190.302 69.3947C191.015 69.3947 191.825 69.9948 192.104 70.7292C192.383 71.4636 194.821 74.3583 197.52 77.1623C201.778 81.5845 202.732 82.222 204.72 81.9704C207.558 81.6112 211.145 78.2826 211.773 75.4259C212.287 73.0848 210.255 67.6865 207.579 64.2854C205.388 61.4982 206.182 61.261 210.071 63.5404C225.286 72.4572 226.489 91.3677 212.795 106.351C207.977 111.622 201.473 116.228 200.384 115.138C198.531 113.286 198.533 114.647 200.387 117.076C201.515 118.556 202.305 119.853 202.141 119.959C201.977 120.065 200.493 120.767 198.841 121.519L195.837 122.887L193.274 119.972C191.39 117.828 190.828 117.488 191.156 118.689C191.548 120.13 191.124 120.446 187.571 121.358C185.31 121.939 180.028 122.364 175.535 122.327C166.967 122.254 161.676 120.825 156.351 117.144C153.753 115.347 153.677 115.147 154.595 112.48C155.011 111.269 154.749 111.372 153.316 112.987C150.879 115.734 148.464 116.338 146.104 114.792C141.152 111.546 142.576 104.473 148.181 104.473C149.575 104.473 150.268 104.163 149.966 103.674C149.694 103.235 148.73 102.977 147.824 103.102C146.244 103.32 146.176 103.055 146.176 96.7499C146.176 90.5822 146.367 89.7937 149.226 84.1674C150.904 80.8654 152.655 78.1644 153.118 78.1644C155.132 78.1644 165.991 89.5314 165.2 90.8117C164.95 91.2159 165.028 91.4981 165.374 91.4378C166.916 91.1701 167.431 91.5957 166.384 92.2721C165.414 92.8989 165.45 93.0133 166.62 93.0232C167.378 93.0293 167.789 93.374 167.533 93.7888C167.256 94.2365 167.599 94.3387 168.376 94.0405C169.334 93.6722 169.517 93.8087 169.061 94.5484C168.676 95.1691 168.733 95.3742 169.208 95.0807C169.633 94.8183 171.058 94.9129 172.376 95.2911C173.694 95.6694 174.772 95.7006 174.772 95.362C174.772 95.0227 175.818 94.312 177.096 93.782C185.349 90.3641 181.287 77.4094 169.189 68.562L166.275 66.4313L169.562 64.7544C175.074 61.942 183.722 59.1746 182.18 60.7158ZM181.303 63.5175C181.59 64.2694 182.016 64.6926 182.251 64.4578C182.486 64.2236 182.252 63.6082 181.73 63.0905C180.977 62.3431 180.89 62.4308 181.303 63.5175ZM247.217 65.9837C247.217 68.5635 245.057 70.9199 242.692 70.9199C240.193 70.9199 239.014 69.7493 238.395 66.6532L237.952 64.4379H242.585C246.73 64.4379 247.217 64.6004 247.217 65.9837ZM185.448 65.2005C185.448 65.4102 185.62 65.5818 185.83 65.5818C186.039 65.5818 186.211 65.4102 186.211 65.2005C186.211 64.9908 186.039 64.8192 185.83 64.8192C185.62 64.8192 185.448 64.9908 185.448 65.2005ZM165.253 67.3784C170.396 69.7729 175.709 75.2566 178.623 81.1773C181.976 87.9856 181.026 91.5644 175.29 93.7454C171.891 95.0372 169.752 93.9841 166.341 89.3384C164.599 86.9676 160.808 82.7688 157.916 80.0083C153.086 75.3977 152.658 74.7343 152.658 71.8654C152.658 65.9044 158 64.001 165.253 67.3784ZM184.847 67.4112C185.387 67.9984 185.95 68.3645 186.097 68.2249C186.549 67.7948 185.403 66.3444 184.611 66.3444C184.199 66.3444 184.305 66.8248 184.847 67.4112ZM186.974 69.0134C186.974 69.2231 187.145 69.3947 187.355 69.3947C187.565 69.3947 187.736 69.2231 187.736 69.0134C187.736 68.8037 187.565 68.6321 187.355 68.6321C187.145 68.6321 186.974 68.8037 186.974 69.0134ZM162.836 71.3294C162.184 73.0276 164.753 75.4953 167.172 75.4953C169.724 75.4953 171.284 77.2256 170.709 79.4211C170.109 81.7149 172.172 85.4089 174.053 85.4089C178.01 85.4089 175.86 78.9597 170.111 73.582C166.37 70.0833 163.639 69.2376 162.836 71.3294ZM188.499 70.5386C188.499 70.7483 188.67 70.9199 188.88 70.9199C189.09 70.9199 189.261 70.7483 189.261 70.5386C189.261 70.3289 189.09 70.1573 188.88 70.1573C188.67 70.1573 188.499 70.3289 188.499 70.5386ZM190.787 70.5386C190.787 70.7483 190.958 70.9199 191.168 70.9199C191.378 70.9199 191.549 70.7483 191.549 70.5386C191.549 70.3289 191.378 70.1573 191.168 70.1573C190.958 70.1573 190.787 70.3289 190.787 70.5386ZM189.261 72.0637C189.261 72.2734 189.433 72.445 189.643 72.445C189.852 72.445 190.024 72.2734 190.024 72.0637C190.024 71.854 189.852 71.6824 189.643 71.6824C189.433 71.6824 189.261 71.854 189.261 72.0637ZM193.837 72.0637C193.837 72.2734 193.665 72.445 193.456 72.445C193.246 72.445 193.074 72.2734 193.074 72.0637C193.074 71.854 193.246 71.6824 193.456 71.6824C193.665 71.6824 193.837 71.854 193.837 72.0637ZM190.787 73.2076C190.787 73.7666 191.015 73.9953 191.295 73.7162C191.574 73.4364 191.574 72.9788 191.295 72.699C191.015 72.4198 190.787 72.6486 190.787 73.2076ZM192.312 74.3515C192.312 74.5612 192.483 74.7327 192.693 74.7327C192.903 74.7327 193.074 74.5612 193.074 74.3515C193.074 74.1418 192.903 73.9702 192.693 73.9702C192.483 73.9702 192.312 74.1418 192.312 74.3515ZM250.259 75.1041C252.221 77.4674 249.599 79.8802 246.039 78.9864C243.93 78.4572 242.99 76.9137 243.681 75.114C244.257 73.611 249.014 73.6041 250.259 75.1041ZM194.599 77.0205C194.599 77.5795 194.828 77.8082 195.108 77.5291C195.387 77.2493 195.387 76.7917 195.108 76.5118C194.828 76.2327 194.599 76.4615 194.599 77.0205ZM196.125 78.1644C196.125 78.3741 196.296 78.5456 196.506 78.5456C196.716 78.5456 196.887 78.3741 196.887 78.1644C196.887 77.9546 196.716 77.7831 196.506 77.7831C196.296 77.7831 196.125 77.9546 196.125 78.1644ZM153.581 80.3751C154.122 80.9623 154.685 81.3283 154.831 81.1887C155.283 80.7587 154.137 79.3082 153.345 79.3082C152.934 79.3082 153.04 79.7887 153.581 80.3751ZM197.141 79.8169C197.421 80.096 197.879 80.096 198.158 79.8169C198.438 79.537 198.209 79.3082 197.65 79.3082C197.091 79.3082 196.862 79.537 197.141 79.8169ZM198.412 81.2147C198.412 81.4244 198.584 81.596 198.794 81.596C199.003 81.596 199.175 81.4244 199.175 81.2147C199.175 81.005 199.003 80.8334 198.794 80.8334C198.584 80.8334 198.412 81.005 198.412 81.2147ZM155.708 82.2838C155.708 83.0754 157.158 84.2215 157.588 83.7693C157.728 83.6229 157.362 83.0601 156.775 82.5194C156.188 81.978 155.708 81.872 155.708 82.2838ZM199.938 81.9772C199.938 82.187 200.109 82.3585 200.319 82.3585C200.529 82.3585 200.7 82.187 200.7 81.9772C200.7 81.7675 200.529 81.596 200.319 81.596C200.109 81.596 199.938 81.7675 199.938 81.9772ZM201.463 83.5024C201.463 83.7121 201.634 83.8837 201.844 83.8837C202.054 83.8837 202.225 83.7121 202.225 83.5024C202.225 83.2927 202.054 83.1211 201.844 83.1211C201.634 83.1211 201.463 83.2927 201.463 83.5024ZM203.75 83.5024C203.75 83.7121 203.922 83.8837 204.132 83.8837C204.341 83.8837 204.513 83.7121 204.513 83.5024C204.513 83.2927 204.341 83.1211 204.132 83.1211C203.922 83.1211 203.75 83.2927 203.75 83.5024ZM157.996 85.0276C157.996 85.2373 158.167 85.4089 158.377 85.4089C158.587 85.4089 158.758 85.2373 158.758 85.0276C158.758 84.8179 158.587 84.6463 158.377 84.6463C158.167 84.6463 157.996 84.8179 157.996 85.0276ZM160.537 87.4427C160.817 87.7218 161.275 87.7218 161.555 87.4427C161.834 87.1628 161.605 86.934 161.046 86.934C160.487 86.934 160.258 87.1628 160.537 87.4427ZM162.062 88.9678C162.342 89.2469 162.8 89.2469 163.08 88.9678C163.359 88.688 163.13 88.4592 162.571 88.4592C162.012 88.4592 161.783 88.688 162.062 88.9678ZM291.46 92.1249C292.324 93.7827 293.505 97.3249 294.085 99.997L295.139 104.855L295.192 101.423C295.245 97.996 292.502 90.7263 290.746 89.6412C290.275 89.3499 290.596 90.4678 291.46 92.1249ZM163.334 90.3656C163.334 90.5753 163.505 90.7469 163.715 90.7469C163.925 90.7469 164.096 90.5753 164.096 90.3656C164.096 90.1559 163.925 89.9843 163.715 89.9843C163.505 89.9843 163.334 90.1559 163.334 90.3656ZM191.549 91.5308C190.501 92.3628 188.143 93.4358 186.309 93.9154C183.809 94.5697 182.598 95.4269 181.467 97.3425C180.052 99.7431 179.708 99.8979 175.816 99.8979C170.182 99.8979 166.697 101.476 165.145 104.732C160.683 114.089 175.321 121.474 186.782 115.648C188.007 115.026 189.515 114.815 190.405 115.141C192.48 115.903 193.756 115.367 196.887 112.416C198.355 111.034 200.49 109.551 201.632 109.121C205.064 107.83 205.167 105.046 201.929 101.095C200.06 98.8158 199.175 96.9627 199.175 95.3346C199.175 90.1079 195.594 88.3219 191.549 91.5308ZM164.859 94.1785C164.859 94.3882 165.03 94.5598 165.24 94.5598C165.45 94.5598 165.621 94.3882 165.621 94.1785C165.621 93.9688 165.45 93.7972 165.24 93.7972C165.03 93.7972 164.859 93.9688 164.859 94.1785ZM170.197 96.4663C170.197 96.676 170.368 96.8475 170.578 96.8475C170.788 96.8475 170.959 96.676 170.959 96.4663C170.959 96.2565 170.788 96.085 170.578 96.085C170.368 96.085 170.197 96.2565 170.197 96.4663ZM172.485 96.4663C172.485 96.676 172.656 96.8475 172.866 96.8475C173.076 96.8475 173.247 96.676 173.247 96.4663C173.247 96.2565 173.076 96.085 172.866 96.085C172.656 96.085 172.485 96.2565 172.485 96.4663ZM194.618 97.2517C195.358 98.1432 195.384 98.8615 194.728 100.302C193.359 103.306 191.435 102.366 190.384 98.1775C189.916 96.316 190.068 96.085 191.754 96.085C192.797 96.085 194.085 96.6096 194.618 97.2517ZM187.382 102.135C186.06 104.689 185.464 104.946 184.076 103.558C182.503 101.986 183.097 100.324 185.656 99.1353C188.633 97.752 189.168 98.68 187.382 102.135ZM173.159 102.874C172.227 105.547 169.836 107.862 168.72 107.172C168.274 106.897 167.909 105.69 167.909 104.492C167.909 102.809 168.387 102.138 170.006 101.547C173.594 100.236 174.016 100.414 173.159 102.874ZM180.345 103.016C178.274 106.555 176.488 107.251 175.431 104.932C174.077 101.96 175.042 100.66 178.604 100.66H181.722L180.345 103.016ZM148.549 107.195C148.235 108.014 147.548 108.242 146.37 107.918C144.729 107.466 144.716 107.497 146.077 108.589C147.104 109.412 147.368 110.28 147.016 111.679C146.385 114.194 147.139 114.199 148.094 111.687C148.739 109.991 149.044 109.854 150.554 110.586C152.268 111.418 152.269 111.416 150.732 110.045C149.883 109.287 149.308 108.067 149.453 107.333C149.783 105.674 149.168 105.581 148.549 107.195ZM267.912 119.344C267.844 120.182 266.939 122.354 265.901 124.17C264.863 125.986 264.436 127.331 264.95 127.159C266.595 126.611 268.692 122.168 268.356 119.945C268.156 118.613 267.989 118.388 267.912 119.344ZM195.128 136.297C194.934 137.039 194.763 136.616 194.748 135.358C194.733 134.1 194.891 133.493 195.1 134.009C195.309 134.525 195.322 135.555 195.128 136.297ZM219.1 134.786C220.047 135.995 220.021 136.022 218.811 135.074C217.541 134.077 217.137 133.451 217.765 133.451C217.923 133.451 218.524 134.051 219.1 134.786ZM209.851 135.358C209.851 135.567 209.679 135.739 209.47 135.739C209.26 135.739 209.088 135.567 209.088 135.358C209.088 135.148 209.26 134.977 209.47 134.977C209.679 134.977 209.851 135.148 209.851 135.358ZM211.376 137.646C211.376 137.855 211.205 138.027 210.995 138.027C210.785 138.027 210.614 137.855 210.614 137.646C210.614 137.436 210.785 137.264 210.995 137.264C211.205 137.264 211.376 137.436 211.376 137.646ZM221.29 137.646C221.29 137.855 221.118 138.027 220.908 138.027C220.699 138.027 220.527 137.855 220.527 137.646C220.527 137.436 220.699 137.264 220.908 137.264C221.118 137.264 221.29 137.436 221.29 137.646ZM222.815 139.933C222.815 140.143 222.643 140.315 222.434 140.315C222.224 140.315 222.052 140.143 222.052 139.933C222.052 139.724 222.224 139.552 222.434 139.552C222.643 139.552 222.815 139.724 222.815 139.933ZM195.871 141.586C195.591 141.865 195.362 141.636 195.362 141.077C195.362 140.518 195.591 140.289 195.871 140.568C196.15 140.848 196.15 141.306 195.871 141.586ZM213.64 144.127C213.64 145.144 213.559 145.144 212.901 144.127C212.495 143.498 212.162 142.469 212.162 141.84C212.162 140.823 212.244 140.823 212.901 141.84C213.308 142.469 213.64 143.498 213.64 144.127ZM223.577 141.458C223.577 141.668 223.406 141.84 223.196 141.84C222.986 141.84 222.815 141.668 222.815 141.458C222.815 141.249 222.986 141.077 223.196 141.077C223.406 141.077 223.577 141.249 223.577 141.458ZM196.633 145.399C196.353 145.678 196.125 145.449 196.125 144.89C196.125 144.331 196.353 144.102 196.633 144.381C196.912 144.661 196.912 145.119 196.633 145.399ZM214.427 146.796C214.427 147.006 214.255 147.178 214.045 147.178C213.836 147.178 213.664 147.006 213.664 146.796C213.664 146.587 213.836 146.415 214.045 146.415C214.255 146.415 214.427 146.587 214.427 146.796ZM215.189 149.084C215.189 149.294 215.018 149.465 214.808 149.465C214.598 149.465 214.427 149.294 214.427 149.084C214.427 148.874 214.598 148.703 214.808 148.703C215.018 148.703 215.189 148.874 215.189 149.084ZM215.698 152.262C215.418 152.541 215.189 152.312 215.189 151.753C215.189 151.194 215.418 150.965 215.698 151.245C215.977 151.524 215.977 151.982 215.698 152.262ZM149.853 154.033C147.681 155.278 145.657 156.696 145.356 157.184C144.658 158.312 152.396 154.131 153.527 152.769C154.716 151.336 154.312 151.475 149.853 154.033ZM216.714 155.185C216.714 155.395 216.543 155.566 216.333 155.566C216.123 155.566 215.952 155.395 215.952 155.185C215.952 154.975 216.123 154.804 216.333 154.804C216.543 154.804 216.714 154.975 216.714 155.185ZM141.614 162.503C135.943 166.318 131.08 169.803 130.806 170.247C130.152 171.305 130.766 170.935 140.838 164.208C149.978 158.104 153.345 155.61 152.481 155.583C152.175 155.574 147.284 158.688 141.614 162.503ZM217.223 159.888C216.943 160.167 216.714 159.938 216.714 159.379C216.714 158.82 216.943 158.591 217.223 158.87C217.502 159.15 217.502 159.608 217.223 159.888ZM87.8742 220.169L85.4629 226.911L73.7024 236.373C67.2342 241.577 62.0884 245.982 62.2676 246.161C62.4468 246.34 67.158 242.789 72.7378 238.269C78.3168 233.75 83.3109 229.722 83.8364 229.318C84.3625 228.914 83.9164 230.938 82.8435 233.827C81.7721 236.71 79.8275 241.927 78.5227 245.422L76.1496 251.776L64.2762 261.575C57.7455 266.965 52.322 271.294 52.2244 271.197C52.0055 270.979 60.2284 248.706 60.959 247.536C61.2488 247.073 61.5698 246.152 61.6735 245.489C61.7772 244.827 62.9364 241.47 64.2495 238.031L66.6379 231.777L78.191 222.394C84.5456 217.234 89.8668 213.105 90.0155 213.219C90.1642 213.334 89.2003 216.461 87.8742 220.169ZM245.883 225.723C247.563 229.822 248.913 236.106 249.565 242.856C250.153 248.94 250.156 248.928 249.932 240.975C249.714 233.192 247.914 226.115 245.567 223.817C245.139 223.398 245.28 224.255 245.883 225.723ZM45.4504 241.577C40.801 244.812 35.9967 248.248 34.7743 249.215C30.1325 252.886 36.2461 249.257 45.1339 243.066C54.7912 236.339 55.7117 235.622 54.6281 235.667C54.2292 235.684 50.0999 238.344 45.4504 241.577ZM58.5332 243.668C56.3675 249.424 55.3983 250.975 52.2786 253.681C50.2486 255.443 48.5084 256.805 48.4115 256.709C48.3154 256.612 49.3907 253.461 50.8022 249.707C52.9519 243.989 53.9608 242.359 57.0241 239.66C59.0342 237.889 60.7737 236.533 60.8881 236.647C61.0025 236.763 59.9425 239.921 58.5332 243.668ZM219.776 253.693C218.759 255.611 216.762 258.705 215.339 260.569C213.916 262.432 212.926 264.131 213.139 264.344C213.729 264.934 219.549 256.927 220.927 253.632C222.644 249.52 221.97 249.557 219.776 253.693ZM52.6743 259.468C51.3901 262.928 49.5302 267.989 48.5411 270.716C47.1929 274.433 45.8492 276.489 43.168 278.938C41.2013 280.735 39.4565 282.07 39.2911 281.904C39.1256 281.738 40.878 276.494 43.1856 270.249C46.942 260.085 47.7229 258.598 50.6428 256.059C52.4364 254.499 54.1522 253.211 54.4565 253.199C54.7607 253.186 53.9585 256.007 52.6743 259.468ZM61.1481 270.805C55.9077 274.72 53.6672 276.929 56.9539 274.94C59.5238 273.385 66.4862 268.236 66.4862 267.89C66.4862 267.147 64.8451 268.043 61.1481 270.805ZM239.849 291.711C244.073 294.936 245.583 297.285 244.055 298.254C243.488 298.613 239.11 298.913 234.326 298.92L225.629 298.931L227.056 297.215C230.532 293.033 234.643 289.017 235.446 289.017C235.928 289.017 237.909 290.229 239.849 291.711ZM90.1017 293.941C91.7931 296.231 93.1764 298.29 93.1764 298.517C93.1764 299.085 82.1526 299.042 80.6564 298.468C79.993 298.213 79.45 297.571 79.45 297.04C79.45 296.16 85.7794 289.78 86.6533 289.78C86.8592 289.78 88.4111 291.653 90.1017 293.941Z" fill="#323036"/>
</svg>
