<svg width="316" height="319" viewBox="0 0 316 319" fill="none" xmlns="http://www.w3.org/2000/svg">
<path fill-rule="evenodd" clip-rule="evenodd" d="M80.1506 1.04295C75.9469 1.70548 73.6865 1.76075 72.0892 1.23814C68.0809 -0.0729376 62.5863 0.937305 56.909 4.0303C53.1803 6.06058 48.8126 7.57664 41.6215 9.33407C30.0805 12.1549 13.5632 17.2761 9.18202 19.391C7.54141 20.183 5.46081 21.5738 4.55773 22.4819C1.20789 25.8506 -1.08897 39.7428 0.531507 46.8313C1.3891 50.584 5.02978 56.6056 8.68611 60.3205C11.1418 62.8154 14.5528 62.9686 15.1837 60.6123C15.6185 58.9857 15.6289 58.9878 18.1062 61.3119C20.9303 63.9613 23.1638 64.2811 24.6784 62.2522C25.7023 60.8809 25.7418 60.8858 27.4607 62.602C30.2043 65.3424 34.1641 64.5924 34.1641 61.3322C34.1641 60.1813 34.5221 60.2954 36.8003 62.1717C40.5797 65.2857 44.6044 64.8582 44.6044 61.3427C44.6044 60.1589 44.8483 60.2142 46.946 61.8695C49.7962 64.1194 53.061 64.081 53.4085 61.7932C53.6241 60.3723 53.7538 60.3471 55.8322 61.3196C58.22 62.4369 58.66 64.3755 57.2058 67.3691C56.5011 68.8201 55.695 69.128 51.5636 69.5254C45.8587 70.0739 36.6899 73.0836 29.9463 76.6215C25.2563 79.0821 25.0617 79.122 23.6262 77.9025C21.8625 76.4054 19.8841 77.2113 19.2629 79.6803C18.8818 81.197 18.8199 81.1795 17.1733 79.0898C16.1106 77.7416 14.8168 76.9364 13.7139 76.9364C11.8122 76.9364 11.0598 78.076 11.0225 81.0165C11.0098 82.0429 10.5064 83.4946 9.9039 84.241C7.3602 87.3963 9.33415 92.4699 13.4514 93.3577C18.8341 94.5184 39.3171 97.2252 42.7169 97.2252C45.283 97.2252 50.2339 96.2156 56.4452 94.4267C61.7891 92.8876 66.344 91.6283 66.5685 91.6283C67.3993 91.6283 66.9391 94.5645 65.7773 96.6718C65.1181 97.8681 62.1411 102.496 59.1626 106.956C52.7657 116.534 46.8148 127.461 44.931 133.087C43.626 136.985 43.5059 137.107 41.2963 136.79C30.0246 135.174 20.6768 136.002 13.5162 139.252C8.67716 141.448 6.42057 143.923 5.48989 148.056C4.76504 151.277 6.0999 151.46 8.32667 148.445C9.39381 147.001 11.2559 145.271 12.464 144.601L14.6617 143.384L13.4789 146.209C12.5684 148.382 12.4528 149.786 12.9763 152.287C13.7288 155.884 15.5208 157.279 15.5208 154.267C15.5208 150.249 17.447 148.331 23.9088 145.916C25.5039 145.32 27.0759 144.105 27.5703 143.086C28.3549 141.471 28.8344 141.306 32.6063 141.355C38.6781 141.433 42.6014 142.709 43.2539 144.818C45.5396 152.209 46.4106 154.39 48.0557 156.834C49.0878 158.368 49.8238 159.703 49.6918 159.799C49.5598 159.897 47.6157 160.89 45.3718 162.007C39.0897 165.135 32.4877 171.6 30.5242 176.549C29.6263 178.811 29.029 180.792 29.1968 180.95C29.3653 181.107 31.4019 179.607 33.7234 177.617C36.0449 175.627 37.7578 173.823 37.5304 173.609C37.3022 173.396 35.6123 174.605 33.7741 176.298L30.4325 179.375L31.7107 176.254C32.4929 174.345 34.8815 171.34 37.8645 168.514C43.6648 163.02 51.9715 158.921 61.7563 156.725C69.2353 155.047 71.3218 154.982 73.2712 156.365C74.0676 156.93 75.4099 157.366 76.2541 157.335C77.4331 157.291 77.2228 157.046 75.3495 156.277C70.2524 154.187 68.4515 147.516 71.4807 141.945C74.5605 136.282 82.2066 134.493 86.4229 138.449C89.209 141.062 89.2918 144.269 86.6989 149.07L84.795 152.595L86.2581 156.562C87.0628 158.744 87.5647 160.768 87.3723 161.059C87.1806 161.351 81.871 161.59 75.574 161.59C64.5304 161.59 54.6621 162.708 51.4428 164.324C50.6613 164.717 49.8089 166.036 49.5486 167.257C48.5478 171.95 42.1681 178.38 38.5118 178.38C37.1679 178.38 37.1717 178.279 38.6236 175.61C40.3589 172.418 40.4648 171.863 39.2627 172.238C38.7862 172.387 38.3097 173.06 38.2045 173.732C38.0994 174.405 37.4692 175.735 36.8033 176.687C35.191 178.997 35.8689 179.825 38.7399 179.053C41.7922 178.231 44.6037 176.515 46.5821 174.265L48.1869 172.439L48.6731 175.935C50.9595 192.355 56.3579 202.509 69.3963 214.91C76.1005 221.287 82.346 225.994 88.3529 229.198L92.2054 231.253L89.6169 235.075C88.1933 237.177 85.6616 241.347 83.9919 244.341C79.205 252.922 77.0371 254.275 61.9763 258.081C60.2514 258.517 57.9023 259.608 56.7561 260.505C55.6099 261.403 53.6263 262.64 52.3489 263.254C49.9431 264.411 48.1019 267.339 47.3338 271.227C46.7573 274.148 47.6709 274.586 50.712 272.846C52.0692 272.07 53.7948 271.433 54.5465 271.432C55.8262 271.429 55.812 271.581 54.3206 273.846C52.6606 276.364 51.1244 283.129 52.0849 283.686C52.3891 283.863 53.0498 283.541 53.5525 282.973C54.0551 282.405 55.5943 281.287 56.9724 280.488L59.4781 279.035L61.1619 280.506C62.0874 281.315 63.5751 282.149 64.4678 282.359C65.9011 282.697 66.0115 283 65.4149 284.951C65.0435 286.166 64.7392 288.406 64.7392 289.927V292.692L67.1629 290.498C68.4962 289.292 71.8259 287.366 74.5635 286.217C77.3011 285.068 79.9022 283.495 80.343 282.722C82.3945 279.125 80.3139 275.175 75.9073 274.301L73.3152 273.786L75.5524 272.69C76.7828 272.087 79.6353 271.361 81.8911 271.078C89.643 270.105 93.928 266.81 96.861 259.569C98.4136 255.735 98.609 254.638 97.738 254.639C97.4307 254.64 96.5813 256.546 95.852 258.876C94.8706 262.009 93.6834 263.901 91.2918 266.144C88.0964 269.143 87.0881 269.529 80.2677 270.37C75.7179 270.931 72.5061 273.034 69.0041 277.745C67.4395 279.851 65.8959 281.661 65.5752 281.767C65.2538 281.874 64.0591 281.273 62.9204 280.432L60.8487 278.904L64.0979 277.44C68.318 275.539 69.4291 272.971 67.2285 270.203C66.388 269.146 64.7288 268.114 63.5416 267.909L61.3834 267.536L63.2478 266.374C65.7728 264.799 70.893 263.771 76.3182 263.75C80.9179 263.733 83.0724 262.862 85.8241 259.907C87.8361 257.747 91.0092 251.761 90.4149 251.246C90.1263 250.995 89.7265 251.223 89.5259 251.752C89.3261 252.282 88.2649 254.326 87.1679 256.295C84.2678 261.504 81.8628 262.758 73.9215 263.201C70.3069 263.403 66.4156 263.975 65.2739 264.473C63.4156 265.284 63.0859 265.228 62.1217 263.936C61.5296 263.143 60.1462 262.282 59.047 262.023C57.2468 261.599 57.1626 261.446 58.1999 260.474C58.8323 259.88 62.0852 258.797 65.4283 258.066C76.7418 255.595 79.9843 253.133 86.593 241.995C92.7714 231.581 92.5969 231.76 95.5127 232.873C102.092 235.384 112.267 238.547 113.764 238.547C114.691 238.547 115.449 238.833 115.449 239.181C115.449 239.53 116.12 239.65 116.941 239.45C117.761 239.248 118.432 239.406 118.432 239.799C118.432 240.193 119.187 240.384 120.11 240.223C121.033 240.063 121.367 240.119 120.851 240.348C120.336 240.577 120.079 241.016 120.282 241.323C120.483 241.629 119.889 242.94 118.962 244.236C118.034 245.532 116.826 248.009 116.277 249.741C115.728 251.473 115.001 253.519 114.661 254.288C114.321 255.058 113.858 257.104 113.633 258.836C113.407 260.568 113.08 262.614 112.906 263.383C112.732 264.153 112.562 265.352 112.528 266.048C112.492 266.787 112.122 267.115 111.641 266.835C111.091 266.517 110.975 266.83 111.293 267.769C111.583 268.628 111.322 269.604 110.627 270.256C109.998 270.846 109.478 271.903 109.472 272.604C109.462 273.694 109.348 273.727 108.677 272.828C108.052 271.991 107.982 272.076 108.331 273.25C108.666 274.377 107.965 275.417 105.341 277.686C103.456 279.317 101.687 280.422 101.41 280.142C101.133 279.862 101.327 279.492 101.84 279.321C102.941 278.951 103.095 277.726 102.04 277.726C101.638 277.726 101.112 278.46 100.872 279.358C100.631 280.256 100.038 281.03 99.5523 281.078C95.327 281.499 91.4447 282.938 87.5811 285.518C83.5086 288.237 82.5623 288.569 78.9082 288.56C76.6523 288.555 74.1355 288.293 73.3152 287.978C71.8453 287.415 71.8453 287.422 73.2712 288.512C74.1705 289.2 76.1624 289.619 78.5316 289.619C82.27 289.619 84.2014 288.777 90.5021 284.401C91.3426 283.817 93.8333 283.019 96.0392 282.626C106.852 280.703 111.627 274.782 115.085 259.009C116.328 253.341 117.764 249.162 119.712 245.543L122.536 240.296L128.128 240.538C133.304 240.762 134.081 241.009 138.567 243.847C146.001 248.55 151.634 249.208 161.524 246.528L163.228 246.067L161.678 249.828C157.738 259.385 151.996 269.134 147.226 274.367C141.136 281.048 137.366 283.209 130.199 284.126C124.012 284.918 122.544 285.654 117.206 290.636C112.445 295.079 110.605 300.357 112.359 304.531C112.86 305.723 112.983 305.708 114.356 304.285C115.161 303.451 116.772 302.306 117.938 301.741C119.827 300.824 120.339 300.838 122.669 301.876C124.32 302.61 126.59 302.951 128.841 302.8L132.401 302.562L132.041 306.761C131.782 309.779 132.039 311.747 132.954 313.757L134.226 316.554L135.915 313.056C138.451 307.806 140.019 306.758 143.95 307.687C145.912 308.15 148.221 308.212 149.939 307.849L152.736 307.257V310.317C152.736 313.274 154.635 319.006 155.614 319C155.876 318.999 156.931 317.346 157.956 315.327C159.321 312.639 160.757 311.095 163.321 309.558C168.862 306.236 169.847 302.766 166.217 299.36C163.81 297.102 161.619 296.808 158.515 298.327C155.632 299.738 155.933 298.344 159.085 295.68C166.711 289.238 167.394 288.421 168.642 284.247C169.888 280.083 170.297 276.408 169.425 277.227C169.17 277.465 168.663 279.171 168.298 281.017C167.192 286.603 164.357 291.231 160.934 293.036C157.3 294.951 156.086 296.571 154.541 301.568C153.895 303.654 152.825 305.754 152.163 306.235C150.77 307.246 143.337 307.423 142.701 306.46C142.466 306.103 142.941 305.612 143.756 305.369C144.572 305.127 145.92 304.117 146.751 303.126C150.132 299.093 147.288 293.817 141.733 293.817C140.155 293.817 138.424 294.211 137.885 294.691C137.198 295.304 137.242 294.937 138.032 293.465C139.435 290.852 141.066 289.486 144.992 287.635C149.65 285.44 152.617 282.797 154.649 279.034C155.661 277.16 156.199 275.627 155.845 275.627C155.49 275.627 154.587 276.901 153.838 278.459C152.219 281.827 148.814 284.78 143.806 287.161C139.668 289.129 137.17 291.949 135.267 296.803C134.547 298.638 133.462 300.605 132.854 301.175C131.726 302.233 127.603 302.53 124.584 301.771C122.312 301.2 122.457 300.113 124.804 300.113C127.55 300.113 130.369 297.19 130.34 294.373C130.3 290.439 126.791 287.76 122.629 288.486L120.296 288.894L122.034 287.524C124.078 285.915 128.209 284.731 131.806 284.726C136.052 284.719 140.415 282.149 146.627 275.992C152.872 269.802 156.673 263.764 162.048 251.49C163.565 248.027 165.362 244.902 166.042 244.546C168.253 243.386 176.678 235.484 179.371 232.043C183.494 226.776 181.87 227.583 177.327 233.058C170.229 241.614 164.149 245.561 155.978 246.917C143.177 249.043 131.849 240.53 128.083 225.954C126.858 221.216 126.848 210.942 128.062 205.316C130.442 194.287 135.949 182.041 142.732 172.696C147.253 166.467 147.873 164.564 143.654 169.865C136.045 179.427 129.28 193.809 126.979 205.316C126.041 210.008 125.838 213.484 126.183 218.958C126.438 222.998 126.653 226.619 126.663 227.004C126.711 228.976 125.109 235.182 124.058 237.089C123.136 238.76 122.477 239.187 121.205 238.938C120.295 238.759 116.79 238.082 113.416 237.433L107.282 236.253L110.585 234.288C113.596 232.496 117.657 227.092 116.68 226.176C116.48 225.988 115.913 226.57 115.42 227.468C114.132 229.818 110.192 233.604 107.822 234.769C105.949 235.689 105.319 235.589 99.8536 233.504L93.9191 231.238L97.3852 229.471C100.631 227.815 105.781 222.248 104.863 221.386C104.635 221.172 103.746 222.113 102.889 223.476C101.283 226.029 95.2151 230.152 93.063 230.152C92.3955 230.152 89.3813 228.671 86.3648 226.859L80.8799 223.568L83.0634 222.694C84.264 222.213 85.6272 221.805 86.0926 221.788C87.1209 221.749 92.3314 216.443 92.3314 215.433C92.3314 215.037 91.2747 215.841 89.9838 217.22C87.0889 220.313 84.2223 221.756 80.9746 221.756C78.9186 221.756 77.7001 221.005 73.8804 217.384L69.2681 213.011L72.2197 212.852C73.8424 212.766 76.4532 212.08 78.0215 211.329C81.0201 209.895 83.4132 207.764 82.0261 207.764C81.5906 207.764 81.0044 208.112 80.7248 208.537C79.7956 209.946 74.1071 211.931 70.9497 211.946C68.1211 211.96 67.5275 211.629 64.4245 208.301C62.5468 206.287 61.0106 204.398 61.0106 204.103C61.0106 203.808 62.0792 203.566 63.385 203.566C65.9749 203.566 72.1966 201.041 72.1966 199.99C72.1966 199.63 71.4411 199.796 70.5187 200.357C67.6379 202.107 62.1359 203.107 60.3409 202.205C59.1514 201.608 54.2863 194.126 54.3012 192.918C54.3027 192.81 55.7285 192.711 57.4706 192.697C59.264 192.682 61.5378 192.11 62.7116 191.377C65.347 189.734 64.9018 189.213 62.0538 190.607C60.8644 191.188 58.4751 191.666 56.7435 191.669L53.595 191.673L52.404 187.65C51.7493 185.437 51.0863 183.25 50.9305 182.79C50.7254 182.184 51.6359 182.062 54.2393 182.352C56.2998 182.581 58.4288 182.425 59.2342 181.986C60.3536 181.376 59.6377 181.217 55.6972 181.2C50.7672 181.179 50.756 181.175 50.2906 178.993C50.0341 177.79 49.8245 175.106 49.8245 173.028V169.25L52.0245 170.317C53.2348 170.904 55.5003 171.349 57.0582 171.307C59.8219 171.232 59.7935 171.207 55.8881 170.315C50.9431 169.184 50.3041 168.634 51.2429 166.317C52.3138 163.674 56.7815 162.909 73.556 162.495C89.9689 162.09 89.7131 162.199 87.5512 156.488L86.241 153.028L88.9286 150.949C90.4074 149.806 92.1129 147.97 92.7199 146.87C94.4127 143.798 94.1361 138.452 92.139 135.633C90.212 132.912 84.8591 130.107 81.5958 130.107C78.4428 130.107 73.2294 132.661 71.3628 135.12C69.1256 138.068 68.007 147.722 69.4485 151.646L70.4836 154.465L67.0846 154.944C65.215 155.207 60.8286 156.199 57.3371 157.148C50.0013 159.142 50.3331 159.293 47.0594 152.498C43.3038 144.704 43.9661 136.59 49.2444 125.73C51.4048 121.283 51.6039 121.086 52.5897 122.406C53.2109 123.238 54.4563 123.799 55.6465 123.783L57.6548 123.756L55.3206 122.803C54.0372 122.278 52.756 121.5 52.4749 121.073C52.193 120.645 53.0275 118.549 54.3288 116.416C56.5175 112.827 56.7919 112.617 57.9799 113.626C58.6861 114.225 59.9084 114.714 60.6966 114.713C61.7667 114.711 61.5012 114.351 59.6474 113.291L57.1663 111.872L58.7555 109.62C59.6302 108.383 60.7167 106.662 61.1701 105.795C62.0591 104.101 62.8861 103.806 63.6206 104.921C63.8742 105.306 64.8168 105.587 65.7154 105.546C67.18 105.479 67.1368 105.393 65.2985 104.712C64.1702 104.293 63.2478 103.708 63.2478 103.41C63.2478 103.113 64.4588 100.804 65.9391 98.2774C67.5126 95.5916 68.4724 93.1205 68.2516 92.3258C67.9138 91.1168 69.4209 90.4998 82.0261 86.6904C89.8108 84.3376 96.0116 82.2541 95.8058 82.061C95.5999 81.8686 88.7772 83.7597 80.645 86.2643C56.698 93.639 48.4479 95.9176 44.3583 96.2856C40.2814 96.6522 14.47 92.9729 11.8339 91.6492C11.0464 91.254 10.1806 90.2766 9.91061 89.4783C9.20813 87.4012 10.9367 83.985 12.9286 83.5162C13.86 83.2966 20.1093 83.957 26.8164 84.9826C33.5235 86.009 40.5215 86.8366 42.3672 86.8226C46.43 86.7911 88.5058 74.5311 91.8862 72.3945C96.9833 69.1721 96.3449 65.1122 89.7944 59.0864C80.3154 50.3671 74.9521 49.5843 59.1462 54.6131L49.4517 57.697L35.2827 57.6641C24.694 57.6396 19.5119 57.3171 14.775 56.388C6.75913 54.816 5.13567 54.0681 3.29072 51.0954C0.33165 46.329 0.958812 30.673 4.35936 24.4198C5.41905 22.4714 6.81954 21.329 9.72492 20.0431C15.0316 17.6945 29.5465 13.2106 41.7087 10.1631C48.0892 8.5645 54.032 6.52932 58.185 4.52003C64.9078 1.26892 67.846 0.759603 72.0191 2.12455C73.6478 2.65696 75.5501 2.64926 78.6561 2.09866C81.0507 1.6733 86.8689 1.14299 91.5857 0.919115C106.224 0.225098 118.296 3.01866 127.711 9.2788C134.6 13.8599 136.523 18.5613 140.504 40.5564C143.848 59.0367 143.092 62.5418 129.246 92.726C124.975 102.036 121.087 111.119 120.606 112.912C118.324 121.416 121.335 131.196 128.271 137.806C135.694 144.88 147.475 148.533 162.803 148.512C181.392 148.488 195.25 142.837 220.343 125.05C242.246 109.524 251.159 104.542 261.445 102.073C272.018 99.536 284.879 100.87 295.731 105.63C305.759 110.028 313.304 118.512 314.316 126.525C314.932 131.408 314.217 133.605 312.014 133.605C310.136 133.605 307.773 131.385 303.567 125.672C299.144 119.662 290.33 116.085 282.591 117.16C270.688 118.814 262.849 127.213 251.394 150.586C248.71 156.061 244.971 162.587 243.083 165.088C238.561 171.079 223.451 185.602 216.044 191.075C208.316 196.786 208.046 197.379 215.278 192.76L218.505 190.698L219.902 192.41C220.67 193.351 221.622 194.976 222.018 196.02C222.663 197.72 222.372 198.305 219.244 201.605C217.322 203.632 214.692 206.3 213.398 207.533L211.047 209.775L207.96 207.02C205.837 205.125 204.206 204.266 202.731 204.266C201.552 204.266 200.418 203.872 200.211 203.392C199.91 202.692 199.823 202.692 199.776 203.392C199.74 203.918 198.657 204.266 197.058 204.266C195.595 204.266 193.755 204.589 192.967 204.985C191.671 205.636 191.601 205.54 192.233 203.982C192.617 203.035 193.255 201.689 193.652 200.99C194.048 200.29 194.777 198.696 195.271 197.445C195.765 196.195 196.454 195.171 196.801 195.171C197.149 195.171 197.238 194.695 197 194.114C196.68 193.33 196.927 193.166 197.956 193.48C198.948 193.783 199.066 193.717 198.369 193.246C197.189 192.452 197.939 188.875 199.226 189.157C199.701 189.26 199.839 189.213 199.531 189.052C198.675 188.602 198.866 186.776 199.767 186.776C200.253 186.776 200.356 186.164 200.033 185.207C199.561 183.813 199.638 183.744 200.728 184.593C201.42 185.132 201.954 185.232 201.954 184.821C201.954 184.421 201.535 183.934 201.022 183.739C200.411 183.506 200.35 183.185 200.845 182.806C201.26 182.489 201.647 181.322 201.705 180.213C201.762 179.104 202.261 177.928 202.813 177.6C203.62 177.121 203.625 177.001 202.843 176.992C202.306 176.986 202.097 176.631 202.379 176.202C202.996 175.266 203.249 168.586 202.667 168.586C202.442 168.586 201.864 171.119 201.383 174.216C200.17 182.025 195.306 195.28 189.842 205.665C187.312 210.475 185.099 214.69 184.925 215.032C184.751 215.375 184.996 215.431 185.468 215.156C185.94 214.883 187.313 212.828 188.516 210.591C190.967 206.035 192.944 204.966 198.908 204.966C203.698 204.966 207.194 206.871 209.225 210.588C212.544 216.66 211.412 220.057 201.177 234.745C188.929 252.32 186.488 258.688 184.495 278.245C183.469 288.323 183.267 289.131 180.821 292.937C179.398 295.152 178.028 298.067 177.778 299.414C177.177 302.64 174.478 306.988 172.012 308.703C170.924 309.459 168.072 310.314 165.673 310.601L161.312 311.124L164.975 311.215C171.754 311.385 176.632 307.234 178.843 299.414C179.332 297.682 180.834 294.534 182.18 292.417C184.462 288.833 184.711 287.801 185.829 277.334C187.873 258.187 190.424 251.575 202.222 234.842C210.543 223.04 211.869 220.332 211.832 215.209L211.803 211.11L219.17 203.078C232.318 188.743 237.583 180.433 254.394 147.485C257.862 140.69 261.929 133.391 263.433 131.265C269.918 122.099 276.259 118.232 284.823 118.221C293.571 118.208 298.992 120.931 304.025 127.866C308.978 134.688 311.396 135.938 314.327 133.188C316.045 131.576 316.205 130.996 315.839 127.68C314.589 116.309 303.192 105.661 288.061 101.726C281.315 99.9712 267.529 99.599 261.594 101.011C251.253 103.472 243.295 107.862 222.089 122.808C194.339 142.366 181.668 147.597 162.05 147.597C147.217 147.597 135.953 143.835 128.661 136.446C123.435 131.151 121.414 126.395 121.42 119.411C121.425 112.696 121.832 111.501 130.843 91.7619C144.179 62.5495 144.93 59.3942 142.308 43.5977C139.958 29.4354 136.833 17.9071 134.304 14.0712C131.902 10.4262 125.01 5.71497 118.99 3.60213C108.799 0.0250085 93.1517 -1.00622 80.1506 1.04295ZM101.82 8.04328C100.271 8.57709 97.5664 9.98191 95.8102 11.165C92.2941 13.5339 83.7495 16.6569 70.9042 20.2683C66.2971 21.564 62.6683 22.7555 62.8398 22.9171C63.4372 23.4775 78.1557 19.5785 84.4907 17.1823L90.866 14.7708L89.3962 16.7066C88.5878 17.7714 87.4073 19.0468 86.7734 19.5407C86.1388 20.0347 85.6198 20.6741 85.6198 20.9617C85.6198 21.2492 87.9144 19.37 90.7191 16.7857C96.8595 11.1265 102.276 8.47285 109.231 7.71447L114.331 7.15897L109.483 7.11629C106.817 7.09251 103.369 7.51018 101.82 8.04328ZM109.258 18.4794C107.699 19.0013 105.169 20.2432 103.636 21.2401C100.042 23.5768 92.1763 30.1497 92.5521 30.5023C92.711 30.6513 92.403 32.8957 91.8675 35.4898C90.2784 43.1926 90.5088 45.7833 93.016 48.4159C95.1585 50.6666 95.2935 50.7015 101.935 50.7589C108.492 50.8156 111.162 50.2937 109.981 49.1848C109.662 48.8867 109.098 49.1029 108.728 49.6661C108.228 50.4245 107.837 50.4854 107.214 49.9012C106.591 49.3163 106.705 48.5041 107.659 46.7585C108.367 45.4635 109.318 44.1727 109.774 43.8901C110.343 43.5368 110.297 43.3731 109.626 43.3654C109.089 43.3598 108.873 43.017 109.145 42.6035C109.417 42.19 109.709 40.9076 109.794 39.7526C109.88 38.5975 110.386 37.3998 110.92 37.0906C111.709 36.633 111.71 36.4721 110.927 36.2272C110.312 36.0348 110.196 35.5759 110.606 34.9532C110.958 34.4187 111.281 33.2378 111.324 32.3304C111.366 31.423 111.847 30.4218 112.391 30.1063C113.189 29.6432 113.195 29.4739 112.418 29.2311C111.78 29.0317 111.683 28.5909 112.13 27.9221C112.5 27.3673 112.903 25.5112 113.026 23.7958C113.149 22.081 113.62 20.4635 114.072 20.2012C114.524 19.9388 114.664 19.3742 114.382 18.9468C114.068 18.4696 114.48 18.1688 115.449 18.1688C116.318 18.1688 116.835 18.4619 116.6 18.8201C116.363 19.1783 116.512 19.6688 116.929 19.9108C117.346 20.1522 117.686 20.0165 117.686 19.6093C117.686 18.343 119.162 18.7901 121.156 20.6601C123.103 22.4868 124.588 22.5183 122.979 20.6986C120.352 17.7294 114.383 16.764 109.258 18.4794ZM109.876 32.8677C108.096 41.6227 106.77 46.4087 105.774 47.675C104.881 48.8091 104.619 49.6458 105.107 49.7983C105.55 49.9369 103.898 50.1251 101.436 50.2167C97.5806 50.3594 96.6462 50.1349 94.7006 48.5985C91.6311 46.1757 91.3396 44.1399 92.9369 36.2853C94.1614 30.2665 94.5701 29.3416 96.8595 27.4226C98.2652 26.2444 99.4912 25.3517 99.5844 25.4392C99.6769 25.5266 99.0922 29.1996 98.2846 33.6023C96.3278 44.2637 96.3621 45.2942 98.7015 46.294C100.304 46.9789 100.81 46.8956 101.973 45.7546C103.6 44.1567 104.66 39.4699 103.541 38.8207C103.118 38.5758 102.772 36.6477 102.772 34.537C102.772 31.4188 103.107 30.3834 104.56 29.0205C105.752 27.9018 106.525 26.1409 106.877 23.7398C107.342 20.565 107.683 20.027 109.75 19.2049C111.513 18.5039 112.145 18.478 112.3 19.1021C112.413 19.5582 111.323 25.7526 109.876 32.8677ZM115.449 20.6174C115.449 20.8098 115.617 20.9673 115.822 20.9673C116.027 20.9673 116.195 20.8098 116.195 20.6174C116.195 20.4251 116.027 20.2676 115.822 20.2676C115.617 20.2676 115.449 20.4251 115.449 20.6174ZM114.206 23.8783C114.206 25.2223 114.419 25.6113 114.828 25.0173C115.324 24.2967 115.591 24.3226 116.155 25.1446C116.542 25.7106 117.081 25.966 117.352 25.712C117.623 25.4574 117.026 24.4814 116.026 23.5432L114.206 21.8362V23.8783ZM116.941 22.3665C116.941 22.8793 117.164 23.0892 117.438 22.8331C117.711 22.5764 117.711 22.1566 117.438 21.8998C117.164 21.6438 116.941 21.8537 116.941 22.3665ZM12.5378 23.0234C10.7846 23.3984 13.4946 23.6118 20.7901 23.6734C26.7649 23.7244 33.5817 24.1001 35.9382 24.5087C41.4164 25.4588 43.1793 24.9439 38.2657 23.8294C33.7331 22.8009 16.1517 22.2496 12.5378 23.0234ZM115.449 26.914C115.449 27.1064 115.617 27.2638 115.822 27.2638C116.027 27.2638 116.195 27.1064 116.195 26.914C116.195 26.7216 116.027 26.5642 115.822 26.5642C115.617 26.5642 115.449 26.7216 115.449 26.914ZM113.958 27.9634C113.958 28.4762 114.181 28.6861 114.455 28.43C114.728 28.1733 114.728 27.7535 114.455 27.4967C114.181 27.2407 113.958 27.4506 113.958 27.9634ZM115.791 28.7099C115.521 29.1199 115.46 29.6061 115.655 29.7894C115.85 29.9727 116.209 29.6369 116.452 29.0429C116.956 27.8102 116.527 27.5933 115.791 28.7099ZM89.6587 32.2261C87.467 34.4985 85.5422 35.2744 84.8196 34.1774C84.484 33.668 83.962 33.4833 83.6593 33.7674C82.7547 34.616 84.6168 35.8319 86.1038 35.3639C87.9107 34.7951 92.9466 30.8052 91.8877 30.7807C91.4388 30.7702 90.4357 31.4209 89.6587 32.2261ZM113.46 31.2285C113.734 31.4845 114.181 31.4845 114.455 31.2285C114.728 30.9717 114.504 30.7618 113.958 30.7618C113.411 30.7618 113.187 30.9717 113.46 31.2285ZM47.5829 33.4568C44.7998 36.0677 42.7967 42.4363 43.4575 46.571C43.7282 48.2648 44.2442 49.6514 44.6029 49.6514C44.9624 49.6514 45.066 48.5488 44.8326 47.2021C44.4195 44.8129 44.462 44.7625 46.5575 45.1536C51.973 46.1638 56.8479 34.5642 52.0252 32.1429C50.1139 31.183 49.9573 31.2292 47.5829 33.4568ZM111.969 32.6277C112.242 32.8838 112.69 32.8838 112.964 32.6277C113.237 32.371 113.013 32.1611 112.466 32.1611C111.92 32.1611 111.696 32.371 111.969 32.6277ZM113.46 34.0269C113.734 34.283 114.181 34.283 114.455 34.0269C114.728 33.7702 114.504 33.5603 113.958 33.5603C113.411 33.5603 113.187 33.7702 113.46 34.0269ZM111.969 35.4262C112.242 35.6822 112.69 35.6822 112.964 35.4262C113.237 35.1694 113.013 34.9595 112.466 34.9595C111.92 34.9595 111.696 35.1694 111.969 35.4262ZM114.952 35.4262C115.225 35.6822 115.673 35.6822 115.947 35.4262C116.22 35.1694 115.996 34.9595 115.449 34.9595C114.903 34.9595 114.679 35.1694 114.952 35.4262ZM113.46 36.8254C113.734 37.0815 114.181 37.0815 114.455 36.8254C114.728 36.5686 114.504 36.3588 113.958 36.3588C113.411 36.3588 113.187 36.5686 113.46 36.8254ZM112.466 38.1078C112.466 38.3002 112.634 38.4576 112.839 38.4576C113.044 38.4576 113.212 38.3002 113.212 38.1078C113.212 37.9154 113.044 37.758 112.839 37.758C112.634 37.758 112.466 37.9154 112.466 38.1078ZM114.703 38.1078C114.703 38.3002 114.871 38.4576 115.076 38.4576C115.281 38.4576 115.449 38.3002 115.449 38.1078C115.449 37.9154 115.281 37.758 115.076 37.758C114.871 37.758 114.703 37.9154 114.703 38.1078ZM110.477 39.6239C110.751 39.8799 111.198 39.8799 111.472 39.6239C111.745 39.3671 111.521 39.1572 110.975 39.1572C110.428 39.1572 110.204 39.3671 110.477 39.6239ZM113.46 39.6239C113.734 39.8799 114.181 39.8799 114.455 39.6239C114.728 39.3671 114.504 39.1572 113.958 39.1572C113.411 39.1572 113.187 39.3671 113.46 39.6239ZM129.784 40.9461C128.872 41.545 128.127 42.381 128.127 42.8036C128.127 43.2262 128.74 43.0506 129.491 42.4139C132.276 40.0485 135.584 41.403 135.584 44.9087C135.584 47.4819 132.779 48.8714 129.991 47.6799C128.966 47.2413 128.127 47.1573 128.127 47.4924C128.127 49.3464 133.625 49.3905 135.584 47.5526C137.665 45.6 137.472 43.0492 135.11 41.3071C132.757 39.57 131.96 39.5161 129.784 40.9461ZM111.969 41.0231C112.242 41.2791 112.69 41.2791 112.964 41.0231C113.237 40.7663 113.013 40.5564 112.466 40.5564C111.92 40.5564 111.696 40.7663 111.969 41.0231ZM110.477 42.4223C110.751 42.6784 111.198 42.6784 111.472 42.4223C111.745 42.1656 111.521 41.9557 110.975 41.9557C110.428 41.9557 110.204 42.1656 110.477 42.4223ZM113.46 42.4223C113.734 42.6784 114.181 42.6784 114.455 42.4223C114.728 42.1656 114.504 41.9557 113.958 41.9557C113.411 41.9557 113.187 42.1656 113.46 42.4223ZM132.228 43.25C131.385 43.5067 130.652 44.4295 130.541 45.3712C130.379 46.7648 130.526 46.8984 131.441 46.1855C132.043 45.7168 132.85 45.516 133.235 45.7385C133.62 45.9617 133.886 45.3593 133.827 44.4001C133.768 43.4409 133.72 42.6875 133.72 42.7252C133.72 42.7637 133.048 42.9995 132.228 43.25ZM111.969 43.8215C112.242 44.0776 112.69 44.0776 112.964 43.8215C113.237 43.5648 113.013 43.3549 112.466 43.3549C111.92 43.3549 111.696 43.5648 111.969 43.8215ZM110.477 45.2208C110.751 45.4768 111.198 45.4768 111.472 45.2208C111.745 44.964 111.521 44.7541 110.975 44.7541C110.428 44.7541 110.204 44.964 110.477 45.2208ZM113.212 45.1039C113.212 45.2963 113.38 45.4537 113.585 45.4537C113.79 45.4537 113.958 45.2963 113.958 45.1039C113.958 44.9115 113.79 44.7541 113.585 44.7541C113.38 44.7541 113.212 44.9115 113.212 45.1039ZM108.986 46.62C109.26 46.8761 109.707 46.8761 109.981 46.62C110.254 46.3632 110.03 46.1534 109.483 46.1534C108.937 46.1534 108.713 46.3632 108.986 46.62ZM111.969 46.62C112.242 46.8761 112.69 46.8761 112.964 46.62C113.237 46.3632 113.013 46.1534 112.466 46.1534C111.92 46.1534 111.696 46.3632 111.969 46.62ZM107.992 47.9024C107.992 48.0948 108.16 48.2522 108.365 48.2522C108.57 48.2522 108.738 48.0948 108.738 47.9024C108.738 47.71 108.57 47.5526 108.365 47.5526C108.16 47.5526 107.992 47.71 107.992 47.9024ZM110.477 48.0192C110.751 48.2753 111.198 48.2753 111.472 48.0192C111.745 47.7625 111.521 47.5526 110.975 47.5526C110.428 47.5526 110.204 47.7625 110.477 48.0192ZM102.772 52.1001C102.772 52.2925 102.939 52.4499 103.145 52.4499C103.35 52.4499 103.517 52.2925 103.517 52.1001C103.517 51.9077 103.35 51.7503 103.145 51.7503C102.939 51.7503 102.772 51.9077 102.772 52.1001ZM66.62 56.0172C67.4239 59.4509 66.0547 59.9854 62.3484 57.6844L59.1514 55.6996L61.3857 54.8062C64.9741 53.3713 66.0592 53.6224 66.62 56.0172ZM127.529 59.4817C125.984 67.9323 122.267 72.6484 115.138 75.2027C110.782 76.7629 111.105 77.3247 115.519 75.866C123.619 73.1899 127.649 68.0688 128.579 59.2711C128.854 56.6735 128.933 54.5487 128.755 54.5487C128.576 54.5487 128.024 56.7686 127.529 59.4817ZM11.4617 56.7308C14.7005 57.4955 15.2404 58.1944 14.3224 60.4381C13.5774 62.2606 11.3454 61.6995 8.88671 59.0717C5.57714 55.5359 5.74792 55.3806 11.4617 56.7308ZM59.1425 58.03C59.8375 60.9985 59.0963 61.7373 56.6256 60.5388C55.4914 59.9889 54.1543 59.0759 53.6539 58.5106C52.9029 57.6613 53.1065 57.3598 54.8269 56.7707C58.094 55.6527 58.622 55.8073 59.1425 58.03ZM23.5844 60.6703C23.7432 62.2144 23.4971 62.9441 22.8185 62.9441C21.3986 62.9441 18.6581 61.0237 17.7132 59.3677C16.9608 58.0482 17.1092 57.9754 20.1309 58.179C23.1623 58.384 23.3644 58.5295 23.5844 60.6703ZM52.2788 59.9665C53.0073 63.5416 51.2086 63.9459 47.5232 61.0369L45.1078 59.1305L46.9072 58.6583C50.6844 57.6669 51.8693 57.9558 52.2788 59.9665ZM32.6727 61.1951C32.6727 64.1467 30.8031 64.5329 28.4391 62.0696C25.5509 59.0598 25.6299 58.7464 29.2729 58.7464C32.6615 58.7464 32.6727 58.7548 32.6727 61.1951ZM43.1129 61.1951C43.1129 64.4706 41.0644 64.4776 37.3223 61.2139L34.537 58.7842L38.825 58.7653L43.1129 58.7464V61.1951ZM95.6357 61.9059C98.4703 66.135 98.7798 68.6991 96.8364 71.8411L95.1995 74.4877L97.0772 72.7387C100.293 69.7443 100.034 65.6033 96.3979 61.8366L93.7528 59.0962L95.6357 61.9059ZM63.1642 78.6021L64.8317 80.2672L62.4118 81.0592C59.839 81.9001 58.8091 81.309 58.7845 78.9771C58.7584 76.4543 60.8353 76.2759 63.1642 78.6021ZM16.2158 79.6677C18.2606 82.3619 18.1965 82.5333 15.1479 82.5333C12.6624 82.5333 12.5378 82.4164 12.5378 80.0846C12.5378 77.0182 14.0725 76.8447 16.2158 79.6677ZM26.7068 83.4372C26.7068 83.815 25.6896 83.9164 24.3764 83.6702C23.0944 83.4295 21.5843 83.2329 21.0206 83.2329C19.7729 83.2329 19.6827 80.8899 20.8513 78.8414C21.6872 77.3764 21.7663 77.4044 24.2071 80.0538C25.5822 81.5454 26.7068 83.0678 26.7068 83.4372ZM55.9768 80.2994C56.695 80.878 57.2819 81.586 57.2819 81.8735C57.2819 82.2947 53.3377 83.9325 52.3235 83.9325C51.8529 83.9325 52.0491 79.2801 52.5383 78.8211C53.0707 78.3216 54.0379 78.7379 55.9768 80.2994ZM33.2059 81.7672C35.2014 84.5454 35.3774 85.6501 33.7301 85.0568C33.0813 84.8231 31.739 84.6321 30.7472 84.6321C29.1349 84.6321 28.944 84.3299 28.944 81.7826C28.944 79.4669 29.1841 78.9757 30.2229 79.1639C30.9261 79.2906 32.2685 80.4624 33.2059 81.7672ZM41.2218 82.3458C42.2621 83.7821 43.1129 85.2177 43.1129 85.536C43.1129 85.855 41.8571 86.0181 40.3224 85.8984C37.3178 85.6647 36.625 84.5803 37.4677 81.4286C38.0964 79.08 39.0196 79.3053 41.2218 82.3458ZM48.6962 81.9512C50.8387 84.339 50.6284 84.714 46.6552 85.6004C44.7729 86.0202 44.6044 85.8893 44.6044 84.0032C44.6044 81.5965 45.2607 79.7348 46.1093 79.7348C46.4389 79.7348 47.6037 80.7318 48.6962 81.9512ZM70.7051 98.1647C70.7051 100.524 69.6424 103.143 65.951 109.883C63.3365 114.657 60.2782 120.925 59.1552 123.81C55.5436 133.09 55.8635 145.811 59.833 150.746C60.5549 151.643 60.3826 150.766 59.3528 148.297C58.1395 145.389 57.7435 142.911 57.7301 138.153C57.7084 130.18 58.9046 126.392 65.6826 112.966C69.55 105.306 71.069 101.48 71.3077 98.7993C71.4881 96.7795 71.4262 95.1263 71.1704 95.1263C70.9146 95.1263 70.7051 96.4934 70.7051 98.1647ZM46.8416 133.237C46.8416 134.001 51.4018 135.7 53.3295 135.655C54.9746 135.616 54.5473 135.323 51.316 134.275C46.6104 132.749 46.8416 132.803 46.8416 133.237ZM41.6722 138.556C42.1427 139.254 42.3478 139.29 42.356 138.677C42.362 138.197 42.6446 137.803 42.9839 137.803C43.3232 137.803 43.4575 138.715 43.283 139.83C43.0607 141.255 42.6006 141.79 41.7348 141.632C41.0569 141.509 39.9152 141.384 39.1978 141.355C38.4789 141.325 37.8876 140.751 37.8816 140.077C37.8741 139.322 37.6594 139.147 37.3223 139.621C36.6877 140.51 31.9269 140.655 31.9269 139.785C31.9269 139.464 32.3184 139.202 32.7972 139.202C33.2752 139.202 33.4452 138.994 33.1745 138.74C32.9038 138.486 32.0298 138.831 31.2326 139.508C30.4355 140.185 29.4242 140.53 28.985 140.275C28.0178 139.714 26.1057 141.359 26.4853 142.427C26.9491 143.733 22.7074 146.106 18.151 147.091C17.4023 147.252 16.0957 148.997 14.8914 151.445C14.3283 152.591 14.2008 152.365 14.1911 150.201C14.1837 148.747 14.6721 147.094 15.2754 146.528C15.9138 145.929 16.0279 145.499 15.5476 145.499C14.9548 145.499 14.9466 145.106 15.517 144.106C16.2195 142.874 16.0927 142.729 14.4253 142.859C13.3872 142.939 12.5378 143.251 12.5378 143.552C12.5378 143.853 12.1694 144.099 11.7183 144.099C11.2678 144.099 9.87779 145.123 8.62943 146.373C6.50335 148.503 6.39671 148.536 6.94557 146.898C7.26772 145.936 8.14844 144.644 8.90237 144.028C9.65631 143.412 10.056 142.704 9.7898 142.454C9.52357 142.205 9.7115 142 10.2074 142C10.7033 142 11.8294 141.371 12.7093 140.601C14.3805 139.14 15.9451 138.692 15.1479 139.902C14.3798 141.067 15.4842 140.688 17.1838 139.202C18.8818 137.718 20.9378 137.198 19.3986 138.642C18.9064 139.104 18.5037 139.748 18.5037 140.073C18.5037 140.398 19.3233 139.896 20.3248 138.956C22.0832 137.307 22.465 137.254 31.5727 137.404C38.7787 137.523 41.1591 137.794 41.6722 138.556ZM22.9781 138.502C22.9781 139.015 23.2018 139.225 23.4755 138.969C23.7485 138.712 23.7485 138.292 23.4755 138.036C23.2018 137.78 22.9781 137.99 22.9781 138.502ZM38.6385 138.502C38.6385 139.015 38.8622 139.225 39.1359 138.969C39.4089 138.712 39.4089 138.292 39.1359 138.036C38.8622 137.78 38.6385 137.99 38.6385 138.502ZM35.6556 138.852C35.6556 139.045 35.8234 139.202 36.0285 139.202C36.2335 139.202 36.4013 139.045 36.4013 138.852C36.4013 138.66 36.2335 138.502 36.0285 138.502C35.8234 138.502 35.6556 138.66 35.6556 138.852ZM21.4866 139.902C21.4866 140.414 21.7104 140.624 21.984 140.368C22.257 140.112 22.257 139.692 21.984 139.435C21.7104 139.179 21.4866 139.389 21.4866 139.902ZM40.13 139.902C40.13 140.414 40.3537 140.624 40.6274 140.368C40.9003 140.112 40.9003 139.692 40.6274 139.435C40.3537 139.179 40.13 139.389 40.13 139.902ZM24.4696 140.251C24.4696 140.444 24.6374 140.601 24.8424 140.601C25.0475 140.601 25.2153 140.444 25.2153 140.251C25.2153 140.059 25.0475 139.902 24.8424 139.902C24.6374 139.902 24.4696 140.059 24.4696 140.251ZM13.5319 141.767C13.8056 142.024 14.253 142.024 14.5267 141.767C14.7996 141.511 14.5759 141.301 14.0293 141.301C13.4827 141.301 13.259 141.511 13.5319 141.767ZM17.0122 141.651C17.0122 141.843 17.18 142 17.3851 142C17.5902 142 17.758 141.843 17.758 141.651C17.758 141.458 17.5902 141.301 17.3851 141.301C17.18 141.301 17.0122 141.458 17.0122 141.651ZM19.9952 141.651C19.9952 141.843 20.163 142 20.368 142C20.5731 142 20.7409 141.843 20.7409 141.651C20.7409 141.458 20.5731 141.301 20.368 141.301C20.163 141.301 19.9952 141.458 19.9952 141.651ZM22.9781 141.651C22.9781 141.843 23.1459 142 23.351 142C23.5561 142 23.7238 141.843 23.7238 141.651C23.7238 141.458 23.5561 141.301 23.351 141.301C23.1459 141.301 22.9781 141.458 22.9781 141.651ZM24.4696 142.7C24.4696 143.085 24.8253 143.4 25.2593 143.4C25.6933 143.4 25.8417 143.085 25.5882 142.7C25.3346 142.315 24.9797 142 24.7984 142C24.6172 142 24.4696 142.315 24.4696 142.7ZM18.5037 143.05C18.5037 143.242 18.6715 143.4 18.8766 143.4C19.0816 143.4 19.2494 143.242 19.2494 143.05C19.2494 142.857 19.0816 142.7 18.8766 142.7C18.6715 142.7 18.5037 142.857 18.5037 143.05ZM21.4866 143.05C21.4866 143.242 21.6544 143.4 21.8595 143.4C22.0646 143.4 22.2324 143.242 22.2324 143.05C22.2324 142.857 22.0646 142.7 21.8595 142.7C21.6544 142.7 21.4866 142.857 21.4866 143.05ZM46.4247 144.477C48.0989 145.659 52.665 145.814 54.2989 144.746C55.1342 144.2 54.8157 144.125 53.0424 144.452C51.7366 144.693 49.3875 144.567 47.8222 144.173C45.2524 143.525 45.1175 143.554 46.4247 144.477ZM16.5148 144.566C16.7885 144.822 17.236 144.822 17.5096 144.566C17.7826 144.309 17.5589 144.099 17.0122 144.099C16.4656 144.099 16.2419 144.309 16.5148 144.566ZM19.9952 144.449C19.9952 144.641 20.163 144.799 20.368 144.799C20.5731 144.799 20.7409 144.641 20.7409 144.449C20.7409 144.257 20.5731 144.099 20.368 144.099C20.163 144.099 19.9952 144.257 19.9952 144.449ZM22.9781 144.449C22.9781 144.641 23.1459 144.799 23.351 144.799C23.5561 144.799 23.7238 144.641 23.7238 144.449C23.7238 144.257 23.5561 144.099 23.351 144.099C23.1459 144.099 22.9781 144.257 22.9781 144.449ZM18.5037 145.848C18.5037 146.041 18.6715 146.198 18.8766 146.198C19.0816 146.198 19.2494 146.041 19.2494 145.848C19.2494 145.656 19.0816 145.499 18.8766 145.499C18.6715 145.499 18.5037 145.656 18.5037 145.848ZM15.5208 148.647C15.5208 148.839 15.6886 148.997 15.8936 148.997C16.0987 148.997 16.2665 148.839 16.2665 148.647C16.2665 148.454 16.0987 148.297 15.8936 148.297C15.6886 148.297 15.5208 148.454 15.5208 148.647ZM52.4346 153.56L48.7059 154.459L51.7329 154.526C53.3974 154.563 55.4108 154.131 56.2073 153.566C57.9098 152.358 57.4206 152.358 52.4346 153.56ZM64.7392 166.487C64.7392 167 64.9629 167.21 65.2366 166.954C65.5096 166.697 65.5096 166.277 65.2366 166.02C64.9629 165.764 64.7392 165.974 64.7392 166.487ZM242.439 168.411C242.172 169.085 240.803 171.614 239.395 174.034C237.037 178.087 236.752 178.334 235.767 177.182C234.794 176.046 234.738 176.133 235.146 178.131C235.497 179.85 235.072 181.131 233.197 183.988L230.798 187.647L229.512 185.314L228.226 182.981L233.644 177.267C236.624 174.125 239.837 170.571 240.783 169.371C242.742 166.885 243.132 166.66 242.439 168.411ZM65.5528 169.285C65.4879 171.554 67.1323 177.139 69.1197 181.395C75.2272 194.48 91.1076 209.133 106.05 215.473C111.555 217.808 120.229 220.373 122.425 220.315C123.305 220.291 121.651 219.674 118.75 218.942C94.7699 212.892 71.1786 191.646 66.6379 172.011C66.0689 169.55 65.5812 168.323 65.5528 169.285ZM202.7 180.129C202.7 180.322 202.868 180.479 203.073 180.479C203.278 180.479 203.446 180.322 203.446 180.129C203.446 179.937 203.278 179.78 203.073 179.78C202.868 179.78 202.7 179.937 202.7 180.129ZM202.7 182.928C202.7 183.12 202.868 183.278 203.073 183.278C203.278 183.278 203.446 183.12 203.446 182.928C203.446 182.735 203.278 182.578 203.073 182.578C202.868 182.578 202.7 182.735 202.7 182.928ZM228.759 186.608C229.55 189.297 229.233 189.971 224.432 195.784L223.059 197.447L222.598 195.282C222.343 194.09 221.443 192.466 220.596 191.672L219.056 190.227L222.997 186.823C225.163 184.951 227.176 183.556 227.468 183.723C227.76 183.891 228.341 185.189 228.759 186.608ZM201.209 187.475C201.209 187.988 201.432 188.198 201.706 187.942C201.979 187.685 201.979 187.266 201.706 187.009C201.432 186.753 201.209 186.963 201.209 187.475ZM200.711 190.74C200.985 190.997 201.432 190.997 201.706 190.74C201.979 190.484 201.755 190.274 201.209 190.274C200.662 190.274 200.438 190.484 200.711 190.74ZM199.22 192.14C199.493 192.396 199.941 192.396 200.215 192.14C200.487 191.883 200.264 191.673 199.717 191.673C199.171 191.673 198.947 191.883 199.22 192.14ZM201.209 193.422C201.209 193.614 201.376 193.772 201.581 193.772C201.787 193.772 201.954 193.614 201.954 193.422C201.954 193.23 201.787 193.072 201.581 193.072C201.376 193.072 201.209 193.23 201.209 193.422ZM199.717 194.821C199.717 195.014 199.885 195.171 200.09 195.171C200.295 195.171 200.463 195.014 200.463 194.821C200.463 194.629 200.295 194.472 200.09 194.472C199.885 194.472 199.717 194.629 199.717 194.821ZM202.7 194.821C202.7 195.014 202.868 195.171 203.073 195.171C203.278 195.171 203.446 195.014 203.446 194.821C203.446 194.629 203.278 194.472 203.073 194.472C202.868 194.472 202.7 194.629 202.7 194.821ZM197.853 195.871C197.599 196.256 197.748 196.57 198.182 196.57C198.616 196.57 198.971 196.256 198.971 195.871C198.971 195.486 198.824 195.171 198.643 195.171C198.461 195.171 198.106 195.486 197.853 195.871ZM201.209 196.221C201.209 196.413 201.376 196.57 201.581 196.57C201.787 196.57 201.954 196.413 201.954 196.221C201.954 196.028 201.787 195.871 201.581 195.871C201.376 195.871 201.209 196.028 201.209 196.221ZM196.237 197.737C196.51 197.993 196.958 197.993 197.232 197.737C197.505 197.48 197.281 197.27 196.734 197.27C196.188 197.27 195.964 197.48 196.237 197.737ZM199.22 197.737C199.493 197.993 199.941 197.993 200.215 197.737C200.487 197.48 200.264 197.27 199.717 197.27C199.171 197.27 198.947 197.48 199.22 197.737ZM203.712 198.319C204.327 198.897 205.063 199.369 205.348 199.369C205.633 199.369 205.448 198.897 204.937 198.319C204.426 197.742 203.69 197.27 203.301 197.27C202.912 197.27 203.097 197.742 203.712 198.319ZM205.683 197.62C205.683 197.812 205.851 197.97 206.056 197.97C206.261 197.97 206.429 197.812 206.429 197.62C206.429 197.427 206.261 197.27 206.056 197.27C205.851 197.27 205.683 197.427 205.683 197.62ZM195.243 199.019C195.243 199.211 195.411 199.369 195.616 199.369C195.821 199.369 195.988 199.211 195.988 199.019C195.988 198.827 195.821 198.669 195.616 198.669C195.411 198.669 195.243 198.827 195.243 199.019ZM201.209 199.019C201.209 199.211 201.376 199.369 201.581 199.369C201.787 199.369 201.954 199.211 201.954 199.019C201.954 198.827 201.787 198.669 201.581 198.669C201.376 198.669 201.209 198.827 201.209 199.019ZM207.423 199.136C207.697 199.392 208.144 199.392 208.418 199.136C208.691 198.879 208.467 198.669 207.92 198.669C207.374 198.669 207.15 198.879 207.423 199.136ZM210.157 199.019C210.157 199.211 210.325 199.369 210.53 199.369C210.735 199.369 210.903 199.211 210.903 199.019C210.903 198.827 210.735 198.669 210.53 198.669C210.325 198.669 210.157 198.827 210.157 199.019ZM196.237 200.535C196.51 200.791 196.958 200.791 197.232 200.535C197.505 200.278 197.281 200.068 196.734 200.068C196.188 200.068 195.964 200.278 196.237 200.535ZM199.22 200.535C199.493 200.791 199.941 200.791 200.215 200.535C200.487 200.278 200.264 200.068 199.717 200.068C199.171 200.068 198.947 200.278 199.22 200.535ZM202.7 200.418C202.7 200.611 202.868 200.768 203.073 200.768C203.278 200.768 203.446 200.611 203.446 200.418C203.446 200.226 203.278 200.068 203.073 200.068C202.868 200.068 202.7 200.226 202.7 200.418ZM205.931 200.535C206.205 200.791 206.652 200.791 206.926 200.535C207.199 200.278 206.975 200.068 206.429 200.068C205.882 200.068 205.658 200.278 205.931 200.535ZM208.914 200.535C209.188 200.791 209.635 200.791 209.909 200.535C210.182 200.278 209.958 200.068 209.412 200.068C208.865 200.068 208.641 200.278 208.914 200.535ZM211.897 200.535C212.171 200.791 212.618 200.791 212.892 200.535C213.165 200.278 212.941 200.068 212.395 200.068C211.848 200.068 211.624 200.278 211.897 200.535ZM214.88 200.535C215.154 200.791 215.601 200.791 215.875 200.535C216.148 200.278 215.924 200.068 215.378 200.068C214.831 200.068 214.607 200.278 214.88 200.535ZM194.745 201.934C195.019 202.19 195.466 202.19 195.74 201.934C196.013 201.678 195.789 201.468 195.243 201.468C194.696 201.468 194.472 201.678 194.745 201.934ZM197.728 201.934C198.002 202.19 198.449 202.19 198.723 201.934C198.996 201.678 198.772 201.468 198.226 201.468C197.679 201.468 197.455 201.678 197.728 201.934ZM201.209 201.817C201.209 202.01 201.376 202.167 201.581 202.167C201.787 202.167 201.954 202.01 201.954 201.817C201.954 201.625 201.787 201.468 201.581 201.468C201.376 201.468 201.209 201.625 201.209 201.817ZM204.192 201.817C204.192 202.01 204.359 202.167 204.564 202.167C204.769 202.167 204.937 202.01 204.937 201.817C204.937 201.625 204.769 201.468 204.564 201.468C204.359 201.468 204.192 201.625 204.192 201.817ZM207.423 201.934C207.697 202.19 208.144 202.19 208.418 201.934C208.691 201.678 208.467 201.468 207.92 201.468C207.374 201.468 207.15 201.678 207.423 201.934ZM210.406 201.934C210.679 202.19 211.127 202.19 211.401 201.934C211.673 201.678 211.45 201.468 210.903 201.468C210.357 201.468 210.133 201.678 210.406 201.934ZM213.389 201.934C213.662 202.19 214.11 202.19 214.383 201.934C214.656 201.678 214.433 201.468 213.886 201.468C213.339 201.468 213.116 201.678 213.389 201.934ZM216.372 201.934C216.645 202.19 217.093 202.19 217.366 201.934C217.639 201.678 217.416 201.468 216.869 201.468C216.322 201.468 216.099 201.678 216.372 201.934ZM196.237 203.334C196.51 203.59 196.958 203.59 197.232 203.334C197.505 203.077 197.281 202.867 196.734 202.867C196.188 202.867 195.964 203.077 196.237 203.334ZM202.948 203.334C203.222 203.59 203.67 203.59 203.943 203.334C204.216 203.077 203.992 202.867 203.446 202.867C202.899 202.867 202.675 203.077 202.948 203.334ZM205.931 203.334C206.205 203.59 206.652 203.59 206.926 203.334C207.199 203.077 206.975 202.867 206.429 202.867C205.882 202.867 205.658 203.077 205.931 203.334ZM208.914 203.334C209.188 203.59 209.635 203.59 209.909 203.334C210.182 203.077 209.958 202.867 209.412 202.867C208.865 202.867 208.641 203.077 208.914 203.334ZM211.897 203.334C212.171 203.59 212.618 203.59 212.892 203.334C213.165 203.077 212.941 202.867 212.395 202.867C211.848 202.867 211.624 203.077 211.897 203.334ZM214.88 203.334C215.154 203.59 215.601 203.59 215.875 203.334C216.148 203.077 215.924 202.867 215.378 202.867C214.831 202.867 214.607 203.077 214.88 203.334ZM207.423 204.733C207.697 204.989 208.144 204.989 208.418 204.733C208.691 204.476 208.467 204.266 207.92 204.266C207.374 204.266 207.15 204.476 207.423 204.733ZM210.406 204.733C210.679 204.989 211.127 204.989 211.401 204.733C211.673 204.476 211.45 204.266 210.903 204.266C210.357 204.266 210.133 204.476 210.406 204.733ZM213.389 204.733C213.662 204.989 214.11 204.989 214.383 204.733C214.656 204.476 214.433 204.266 213.886 204.266C213.339 204.266 213.116 204.476 213.389 204.733ZM208.914 206.132C209.188 206.388 209.635 206.388 209.909 206.132C210.182 205.875 209.958 205.665 209.412 205.665C208.865 205.665 208.641 205.875 208.914 206.132ZM211.897 206.132C212.171 206.388 212.618 206.388 212.892 206.132C213.165 205.875 212.941 205.665 212.395 205.665C211.848 205.665 211.624 205.875 211.897 206.132ZM210.406 207.531C210.679 207.787 211.127 207.787 211.401 207.531C211.673 207.274 211.45 207.065 210.903 207.065C210.357 207.065 210.133 207.274 210.406 207.531ZM132.393 239.846C132.04 239.983 129.902 239.879 127.642 239.613C123.778 239.161 123.603 239.058 124.719 237.901C125.372 237.224 126.295 235.125 126.772 233.236L127.637 229.802L130.336 234.699C131.82 237.393 132.745 239.709 132.393 239.846ZM107.992 238.197C107.992 238.39 108.16 238.547 108.365 238.547C108.57 238.547 108.738 238.39 108.738 238.197C108.738 238.005 108.57 237.848 108.365 237.848C108.16 237.848 107.992 238.005 107.992 238.197ZM109.483 239.597C109.483 239.789 109.651 239.946 109.856 239.946C110.061 239.946 110.229 239.789 110.229 239.597C110.229 239.404 110.061 239.247 109.856 239.247C109.651 239.247 109.483 239.404 109.483 239.597ZM112.466 239.946C112.466 240.459 112.69 240.669 112.964 240.413C113.237 240.156 113.237 239.737 112.964 239.48C112.69 239.224 112.466 239.434 112.466 239.946ZM107.992 240.996C107.992 241.188 108.16 241.346 108.365 241.346C108.57 241.346 108.738 241.188 108.738 240.996C108.738 240.803 108.57 240.646 108.365 240.646C108.16 240.646 107.992 240.803 107.992 240.996ZM110.975 241.346C110.975 241.858 111.198 242.068 111.472 241.812C111.745 241.556 111.745 241.136 111.472 240.879C111.198 240.623 110.975 240.833 110.975 241.346ZM113.958 241.346C113.958 241.858 114.181 242.068 114.455 241.812C114.728 241.556 114.728 241.136 114.455 240.879C114.181 240.623 113.958 240.833 113.958 241.346ZM116.941 240.996C116.941 241.188 117.108 241.346 117.313 241.346C117.519 241.346 117.686 241.188 117.686 240.996C117.686 240.803 117.519 240.646 117.313 240.646C117.108 240.646 116.941 240.803 116.941 240.996ZM109.483 242.745C109.483 243.258 109.707 243.468 109.981 243.212C110.254 242.955 110.254 242.535 109.981 242.278C109.707 242.022 109.483 242.232 109.483 242.745ZM112.466 242.395C112.466 242.587 112.634 242.745 112.839 242.745C113.044 242.745 113.212 242.587 113.212 242.395C113.212 242.203 113.044 242.045 112.839 242.045C112.634 242.045 112.466 242.203 112.466 242.395ZM115.449 242.395C115.449 242.587 115.617 242.745 115.822 242.745C116.027 242.745 116.195 242.587 116.195 242.395C116.195 242.203 116.027 242.045 115.822 242.045C115.617 242.045 115.449 242.203 115.449 242.395ZM118.432 242.395C118.432 242.587 118.6 242.745 118.805 242.745C119.01 242.745 119.178 242.587 119.178 242.395C119.178 242.203 119.01 242.045 118.805 242.045C118.6 242.045 118.432 242.203 118.432 242.395ZM107.992 244.144C107.992 244.657 108.216 244.867 108.489 244.611C108.762 244.354 108.762 243.934 108.489 243.677C108.216 243.421 107.992 243.631 107.992 244.144ZM110.975 244.144C110.975 244.657 111.198 244.867 111.472 244.611C111.745 244.354 111.745 243.934 111.472 243.677C111.198 243.421 110.975 243.631 110.975 244.144ZM113.958 244.144C113.958 244.657 114.181 244.867 114.455 244.611C114.728 244.354 114.728 243.934 114.455 243.677C114.181 243.421 113.958 243.631 113.958 244.144ZM116.941 244.144C116.941 244.657 117.164 244.867 117.438 244.611C117.711 244.354 117.711 243.934 117.438 243.677C117.164 243.421 116.941 243.631 116.941 244.144ZM109.483 245.543C109.483 246.056 109.707 246.266 109.981 246.01C110.254 245.753 110.254 245.333 109.981 245.077C109.707 244.821 109.483 245.031 109.483 245.543ZM112.466 245.543C112.466 246.056 112.69 246.266 112.964 246.01C113.237 245.753 113.237 245.333 112.964 245.077C112.69 244.821 112.466 245.031 112.466 245.543ZM115.449 245.543C115.449 246.056 115.673 246.266 115.947 246.01C116.22 245.753 116.22 245.333 115.947 245.077C115.673 244.821 115.449 245.031 115.449 245.543ZM107.992 246.593C107.992 246.785 108.16 246.943 108.365 246.943C108.57 246.943 108.738 246.785 108.738 246.593C108.738 246.4 108.57 246.243 108.365 246.243C108.16 246.243 107.992 246.4 107.992 246.593ZM110.975 246.943C110.975 247.455 111.198 247.665 111.472 247.409C111.745 247.152 111.745 246.733 111.472 246.476C111.198 246.22 110.975 246.43 110.975 246.943ZM113.958 246.943C113.958 247.455 114.181 247.665 114.455 247.409C114.728 247.152 114.728 246.733 114.455 246.476C114.181 246.22 113.958 246.43 113.958 246.943ZM109.483 248.342C109.483 248.855 109.707 249.064 109.981 248.808C110.254 248.552 110.254 248.132 109.981 247.875C109.707 247.619 109.483 247.829 109.483 248.342ZM112.466 247.992C112.466 248.184 112.634 248.342 112.839 248.342C113.044 248.342 113.212 248.184 113.212 247.992C113.212 247.8 113.044 247.642 112.839 247.642C112.634 247.642 112.466 247.8 112.466 247.992ZM115.449 247.992C115.449 248.184 115.617 248.342 115.822 248.342C116.027 248.342 116.195 248.184 116.195 247.992C116.195 247.8 116.027 247.642 115.822 247.642C115.617 247.642 115.449 247.8 115.449 247.992ZM107.992 249.391C107.992 249.584 108.16 249.741 108.365 249.741C108.57 249.741 108.738 249.584 108.738 249.391C108.738 249.199 108.57 249.041 108.365 249.041C108.16 249.041 107.992 249.199 107.992 249.391ZM113.958 249.741C113.958 250.254 114.181 250.464 114.455 250.208C114.728 249.951 114.728 249.531 114.455 249.274C114.181 249.018 113.958 249.228 113.958 249.741ZM109.483 251.14C109.483 251.653 109.707 251.863 109.981 251.607C110.254 251.35 110.254 250.93 109.981 250.674C109.707 250.418 109.483 250.627 109.483 251.14ZM112.466 251.14C112.466 251.653 112.69 251.863 112.964 251.607C113.237 251.35 113.237 250.93 112.964 250.674C112.69 250.418 112.466 250.627 112.466 251.14ZM110.975 252.539C110.975 253.052 111.198 253.262 111.472 253.006C111.745 252.749 111.745 252.33 111.472 252.073C111.198 251.817 110.975 252.027 110.975 252.539ZM113.958 252.539C113.958 253.052 114.181 253.262 114.455 253.006C114.728 252.749 114.728 252.33 114.455 252.073C114.181 251.817 113.958 252.027 113.958 252.539ZM109.483 254.288C109.483 254.481 109.651 254.638 109.856 254.638C110.061 254.638 110.229 254.481 110.229 254.288C110.229 254.096 110.061 253.939 109.856 253.939C109.651 253.939 109.483 254.096 109.483 254.288ZM112.466 254.288C112.466 254.481 112.634 254.638 112.839 254.638C113.044 254.638 113.212 254.481 113.212 254.288C113.212 254.096 113.044 253.939 112.839 253.939C112.634 253.939 112.466 254.096 112.466 254.288ZM110.975 255.338C110.975 255.851 111.198 256.061 111.472 255.805C111.745 255.548 111.745 255.128 111.472 254.871C111.198 254.615 110.975 254.825 110.975 255.338ZM109.483 257.087C109.483 257.279 109.651 257.437 109.856 257.437C110.061 257.437 110.229 257.279 110.229 257.087C110.229 256.895 110.061 256.737 109.856 256.737C109.651 256.737 109.483 256.895 109.483 257.087ZM112.466 257.087C112.466 257.279 112.634 257.437 112.839 257.437C113.044 257.437 113.212 257.279 113.212 257.087C113.212 256.895 113.044 256.737 112.839 256.737C112.634 256.737 112.466 256.895 112.466 257.087ZM110.975 258.836C110.975 259.349 111.198 259.559 111.472 259.303C111.745 259.046 111.745 258.626 111.472 258.369C111.198 258.113 110.975 258.323 110.975 258.836ZM109.483 259.885C109.483 260.078 109.651 260.235 109.856 260.235C110.061 260.235 110.229 260.078 110.229 259.885C110.229 259.693 110.061 259.536 109.856 259.536C109.651 259.536 109.483 259.693 109.483 259.885ZM112.466 259.885C112.466 260.078 112.634 260.235 112.839 260.235C113.044 260.235 113.212 260.078 113.212 259.885C113.212 259.693 113.044 259.536 112.839 259.536C112.634 259.536 112.466 259.693 112.466 259.885ZM107.992 261.285C107.992 261.477 108.16 261.634 108.365 261.634C108.57 261.634 108.738 261.477 108.738 261.285C108.738 261.092 108.57 260.935 108.365 260.935C108.16 260.935 107.992 261.092 107.992 261.285ZM110.975 261.634C110.975 262.147 111.198 262.357 111.472 262.101C111.745 261.844 111.745 261.425 111.472 261.168C111.198 260.912 110.975 261.122 110.975 261.634ZM109.483 263.034C109.483 263.547 109.707 263.756 109.981 263.5C110.254 263.244 110.254 262.824 109.981 262.567C109.707 262.311 109.483 262.521 109.483 263.034ZM107.992 264.433C107.992 264.946 108.216 265.156 108.489 264.9C108.762 264.643 108.762 264.223 108.489 263.966C108.216 263.71 107.992 263.92 107.992 264.433ZM110.975 264.433C110.975 264.946 111.198 265.156 111.472 264.9C111.745 264.643 111.745 264.223 111.472 263.966C111.198 263.71 110.975 263.92 110.975 264.433ZM109.483 265.832C109.483 266.345 109.707 266.555 109.981 266.299C110.254 266.042 110.254 265.622 109.981 265.366C109.707 265.109 109.483 265.319 109.483 265.832ZM107.992 267.231C107.992 267.744 108.216 267.954 108.489 267.698C108.762 267.441 108.762 267.021 108.489 266.765C108.216 266.509 107.992 266.719 107.992 267.231ZM106.5 268.631C106.5 269.143 106.724 269.353 106.998 269.097C107.271 268.84 107.271 268.421 106.998 268.164C106.724 267.908 106.5 268.118 106.5 268.631ZM109.483 268.631C109.483 269.143 109.707 269.353 109.981 269.097C110.254 268.84 110.254 268.421 109.981 268.164C109.707 267.908 109.483 268.118 109.483 268.631ZM107.992 270.03C107.992 270.543 108.216 270.753 108.489 270.496C108.762 270.24 108.762 269.82 108.489 269.563C108.216 269.307 107.992 269.517 107.992 270.03ZM106.5 271.429C106.5 271.942 106.724 272.152 106.998 271.896C107.271 271.639 107.271 271.219 106.998 270.962C106.724 270.706 106.5 270.916 106.5 271.429ZM105.009 272.828C105.009 273.341 105.233 273.551 105.506 273.295C105.779 273.038 105.779 272.618 105.506 272.362C105.233 272.106 105.009 272.315 105.009 272.828ZM106.5 274.228C106.5 274.74 106.724 274.95 106.998 274.694C107.271 274.437 107.271 274.018 106.998 273.761C106.724 273.505 106.5 273.715 106.5 274.228ZM103.517 274.577C103.517 274.77 103.685 274.927 103.89 274.927C104.095 274.927 104.263 274.77 104.263 274.577C104.263 274.385 104.095 274.228 103.89 274.228C103.685 274.228 103.517 274.385 103.517 274.577ZM105.009 275.627C105.009 276.14 105.233 276.349 105.506 276.093C105.779 275.837 105.779 275.417 105.506 275.16C105.233 274.904 105.009 275.114 105.009 275.627ZM103.517 277.026C103.517 277.539 103.741 277.749 104.015 277.493C104.288 277.236 104.288 276.816 104.015 276.559C103.741 276.303 103.517 276.513 103.517 277.026ZM79.281 281.224C79.5346 281.608 79.5741 281.923 79.369 281.923C79.164 281.923 78.7889 281.608 78.5353 281.224C78.2818 280.839 78.2422 280.524 78.4473 280.524C78.6524 280.524 79.0275 280.839 79.281 281.224ZM77.0118 283.274C77.2482 283.632 77.0483 284.153 76.5681 284.431C76.0475 284.734 75.8939 284.636 76.1877 284.19C76.4584 283.779 76.2586 283.283 75.7433 283.087C75.0729 282.834 75.0594 282.717 75.6948 282.678C76.1833 282.648 76.7761 282.916 77.0118 283.274ZM68.4679 287.87C68.4679 288.062 68.3001 288.22 68.095 288.22C67.89 288.22 67.7222 288.062 67.7222 287.87C67.7222 287.678 67.89 287.52 68.095 287.52C68.3001 287.52 68.4679 287.678 68.4679 287.87ZM66.9764 288.57C66.9764 288.762 66.8086 288.919 66.6036 288.919C66.3985 288.919 66.2307 288.762 66.2307 288.57C66.2307 288.377 66.3985 288.22 66.6036 288.22C66.8086 288.22 66.9764 288.377 66.9764 288.57Z" fill="black"/>
</svg>
