<svg width="74" height="56" viewBox="0 0 74 56" fill="none" xmlns="http://www.w3.org/2000/svg">
<path d="M21.4971 21.7747V19.0189L29.4309 14.1137V13.6911L28.4024 13.93H21.4971V12.6439H29.8716V15.3997L21.9378 20.305V20.7275L22.9663 20.4887H29.8716V21.7747H21.4971ZM31.5944 17.0899C31.5944 15.6447 31.9984 14.5117 32.8065 13.6911C33.6268 12.8705 34.6981 12.4602 36.0204 12.4602C37.3182 12.4602 38.3528 12.8521 39.1242 13.636C39.8955 14.4199 40.2812 15.5099 40.2812 16.9062V17.4941H33.0636C33.1126 18.4494 33.3881 19.2272 33.89 19.8273C34.4043 20.4152 35.1879 20.7092 36.2408 20.7092C36.9999 20.7092 37.6244 20.5316 38.1141 20.1764C38.6038 19.8089 38.9283 19.2761 39.0874 18.578H40.5934C40.4954 18.9822 40.3485 19.3619 40.1526 19.7171C39.969 20.0723 39.7118 20.4274 39.3813 20.7826C39.0629 21.1378 38.6283 21.4257 38.0773 21.6461C37.5386 21.8543 36.9265 21.9584 36.2408 21.9584C34.6981 21.9584 33.535 21.5053 32.7514 20.5989C31.9801 19.6803 31.5944 18.5107 31.5944 17.0899ZM33.0636 16.355H38.8119C38.8119 15.5957 38.567 14.971 38.0773 14.4811C37.5876 13.9789 36.902 13.7279 36.0204 13.7279C35.1389 13.7279 34.4226 13.9789 33.8717 14.4811C33.333 14.9833 33.0636 15.6079 33.0636 16.355ZM42.7764 12.6439H44.2824V13.9851L44.0436 15.0323H44.466C44.6742 14.2729 45.0904 13.6544 45.7148 13.1767C46.3393 12.699 47.1535 12.4602 48.1574 12.4602C49.4552 12.4602 50.502 12.9073 51.2979 13.8013C52.106 14.6954 52.51 15.8345 52.51 17.2185C52.51 18.5903 52.106 19.7232 51.2979 20.6173C50.502 21.5114 49.4552 21.9584 48.1574 21.9584C47.1657 21.9584 46.3515 21.7257 45.7148 21.2603C45.0904 20.7826 44.6742 20.1641 44.466 19.4048H44.0436L44.2824 20.4336V25.1184H42.7764V12.6439ZM44.2824 17.2185C44.2824 18.3698 44.6007 19.2333 45.2374 19.8089C45.8863 20.3846 46.7127 20.6724 47.7167 20.6724C48.7084 20.6724 49.5043 20.3846 50.1041 19.8089C50.704 19.2333 51.004 18.3698 51.004 17.2185C51.004 16.0672 50.704 15.2037 50.1041 14.6281C49.5043 14.0402 48.7084 13.7462 47.7167 13.7462C46.7127 13.7462 45.8863 14.0341 45.2374 14.6097C44.6007 15.1854 44.2824 16.055 44.2824 17.2185ZM26.7389 30.2579C27.8041 30.2579 28.6367 30.5702 29.2366 31.1949C29.8365 31.8195 30.1365 32.7503 30.1365 33.9874V39.5724H28.6489V34.1895C28.6489 33.2463 28.4591 32.5728 28.0796 32.1686C27.7123 31.7522 27.1307 31.5439 26.3349 31.5439C25.3554 31.5439 24.5596 31.9052 23.9474 32.6279C23.3475 33.3505 23.0475 34.3181 23.0475 35.5306V39.5724H21.5415V26.0691H23.0475V32.0216L22.8088 33.0688H23.2312C23.427 32.2115 23.8188 31.5317 24.4065 31.0295C25.0065 30.5151 25.7839 30.2579 26.7389 30.2579ZM39.2343 30.4416H40.8689L36.902 39.4806V42.0342C36.902 42.7937 36.4796 43.1549 35.6347 43.1182L32.1086 42.9528V41.6668L35.396 41.8321V39.4806L31.4107 30.4416H33.0636L35.9286 37.5515V38.2496H36.3694V37.5515L39.2343 30.4416ZM42.5791 39.5724V31.5256C42.5791 30.6559 43.0015 30.2395 43.8463 30.2763L48.9151 30.4416V31.7276L44.0851 31.5623V39.5724H42.5791ZM51.8272 39.3152C51.5333 39.6092 51.1722 39.7561 50.7436 39.7561C50.3151 39.7561 49.9539 39.6092 49.6601 39.3152C49.3662 39.0213 49.2193 38.6538 49.2193 38.2129C49.2193 37.7842 49.3662 37.4291 49.6601 37.1473C49.9539 36.8534 50.3151 36.7064 50.7436 36.7064C51.1722 36.7064 51.5333 36.8534 51.8272 37.1473C52.121 37.4413 52.268 37.7965 52.268 38.2129C52.268 38.6538 52.121 39.0213 51.8272 39.3152Z" fill="black"/>
<path d="M68.8002 19.4059C71.672 30.1234 59.7626 42.6266 42.1998 47.3325C24.637 52.0384 8.07152 47.1651 5.19977 36.4476C2.32802 25.73 14.2374 13.2268 31.8002 8.5209C49.363 3.81497 65.9285 8.68833 68.8002 19.4059ZM6.78978 36.0215C9.51795 46.2032 25.2551 50.8329 41.9398 46.3622C58.6244 41.8916 69.9384 30.0136 67.2102 19.8319C64.4821 9.65025 48.7449 5.02055 32.0602 9.49119C15.3756 13.9618 4.06162 25.8399 6.78978 36.0215Z" fill="black"/>
</svg>
