<svg width="264" height="300" viewBox="0 0 264 300" fill="none" xmlns="http://www.w3.org/2000/svg">
<path fill-rule="evenodd" clip-rule="evenodd" d="M48.6028 26.1378L48.4265 52.2748L46.3804 53.0694C45.2546 53.5062 41.9146 54.219 38.957 54.652C21.1876 57.2562 10.0975 67.3515 6.2991 84.3828C4.44939 92.6737 5.65178 104.006 8.7634 107.616C9.34003 108.285 10.7991 109.03 12.006 109.271C13.4465 109.559 14.2002 110.164 14.2009 111.031C14.2017 113.835 18.5372 121.37 21.9562 124.509C27.4026 129.511 31.0581 130.832 40.428 131.187L48.4265 131.489L48.4042 137.546L48.3826 143.602L42.7955 147.322C36.7032 151.379 26.9219 160.78 22.6675 166.667C16.9985 174.513 11.968 188.158 11.968 195.689C11.968 197.932 11.5231 199.199 10.3772 200.22C7.92559 202.405 6.75967 205.963 6.75967 211.261C6.75967 215.314 6.52232 216.221 5.28868 216.882C1.95608 218.665 1.34819 222.583 3.43078 228.854L4.66368 232.566L2.64655 234.153C0.780476 235.621 0.665149 236.023 1.11083 239.523C1.37497 241.602 2.38242 250.256 3.3482 258.753C4.31621 267.267 5.51487 274.695 6.01859 275.302C7.468 277.049 12.5603 278.106 19.4085 278.083C34.2687 278.032 47.6958 273.055 47.675 267.606C47.6705 266.517 47.0158 261.905 46.2204 257.357C45.4243 252.81 44.3632 245.313 43.8632 240.699C42.9555 232.331 42.9466 232.305 40.4592 230.838C38.8186 229.87 38.0842 228.95 38.3149 228.15C38.5076 227.482 39.0232 225.549 39.4607 223.854C39.9436 221.983 40.983 220.296 42.1088 219.559C43.9161 218.375 44.5321 215.842 43.393 214.282C43.0924 213.871 41.5515 212.569 39.9689 211.388C38.1549 210.035 36.4555 207.802 35.3699 205.348C34.4227 203.206 32.7412 200.741 31.634 199.87C29.6958 198.345 29.6385 198.097 30.1043 193.266C30.9941 184.033 32.9458 176.814 36.451 169.795C39.7777 163.132 39.9347 162.953 42.2524 163.176C44.4228 163.385 44.8015 163.087 46.5217 159.827L48.4094 156.251L48.1021 170.388C47.9325 178.163 47.5694 186.096 47.2948 188.016C46.681 192.306 47.7204 195.696 50.6215 198.873L52.8067 201.266H47.713C42.8216 201.266 42.5924 201.347 41.9242 203.312C41.5165 204.511 41.4957 206.359 41.8729 207.776L42.5165 210.194H54.2703C67.8291 210.194 66.5598 209.585 72.6067 219.002C76.2681 224.703 81.9088 236.253 81.9088 238.048C81.9088 238.621 80.3894 239.669 78.533 240.378C74.8284 241.793 72.0523 244.628 70.2986 248.789C66.655 257.43 69.4764 276.527 75.0442 280.907C79.2451 284.211 85.074 281.757 89.1417 274.971C90.5651 272.596 91.67 271.398 91.8619 272.02C92.2422 273.248 95.7065 288.327 96.423 291.872C97.4803 297.1 103.376 300.97 108.481 299.785C119.264 297.284 128.068 281.325 124.015 271.626C122.698 268.473 120.881 267.884 116.803 269.289C115.035 269.898 113.556 270.328 113.517 270.244C113.477 270.16 112.487 267.747 111.317 264.882C110.147 262.017 108.051 257.377 106.66 254.569L104.129 249.465L107.062 245.269C113.959 235.4 117.623 225.408 117.623 216.469C117.623 213.24 118.091 210.409 118.925 208.597L120.227 205.769L140.875 205.749L161.522 205.73V180.06V154.39H136.969H112.415L112.427 146.02L112.439 137.649L119.527 134.367C129.924 129.552 137.237 124.493 144.806 116.88C149.765 111.893 152.01 108.999 153.363 105.847C154.372 103.497 155.725 101.401 156.369 101.189C158.705 100.417 161.743 96.3538 162.872 92.4914C164.185 87.9974 164.295 83.3143 163.196 78.6104C162.123 74.0211 160.728 72.8939 156.286 73.0293C154.255 73.0911 152.594 72.8426 152.594 72.4765C152.594 72.0948 173.109 71.7302 200.771 71.6201L248.948 71.4289L249.142 38.8766L249.336 6.32443H180.918H112.5L112.215 3.16221L111.93 0L111.801 3.14361L111.671 6.28723L99.58 6.49184L87.4892 6.69646V39.0627V71.4289L99.5569 71.6335L111.625 71.8373L111.651 98.2214L111.677 124.606L108.512 126.608C99.6529 132.211 86.5293 136.896 77.2585 137.765L72.2361 138.235V126.965C72.2361 117.116 72.4236 115.344 73.7242 112.918C74.5427 111.391 75.2123 109.741 75.2123 109.25C75.2123 108.761 74.5427 108.147 73.7242 107.887C71.8894 107.305 71.5628 103.051 73.3522 103.051C73.966 103.051 74.4705 102.465 74.4735 101.749C74.4757 101.032 75.1469 99.4424 75.9646 98.2147C77.164 96.4133 77.4348 94.8337 77.3671 90.0301C77.2905 84.6164 77.0457 83.6826 74.6602 79.7131L72.0382 75.3485L71.7071 39.9064C71.5256 20.413 71.2614 4.12948 71.1208 3.72025C70.9802 3.31102 70.8388 19.0045 70.8068 38.5954L70.748 74.2146L69.0739 72.9981C68.1528 72.3284 66.0151 71.068 64.3232 70.1967L61.2472 68.6119L60.9318 62.0181C60.5047 53.0828 59.2621 51.3321 53.3648 51.3581L49.1892 51.3759L48.9838 25.6883L48.7784 0L48.6028 26.1378ZM262.3 105.655C262.301 161.719 262.485 199.387 262.709 189.361C263.239 165.69 263.239 43.8276 262.709 21.2054C262.484 11.5886 262.3 49.591 262.3 105.655ZM247.832 39.0627V70.3128H200.263C153.366 70.3128 152.687 70.2919 152.222 68.8262C151.963 68.0092 150.936 67.1357 149.94 66.8857C148.421 66.5047 148.129 65.9779 148.129 63.6178C148.129 62.0419 147.556 60.1037 146.827 59.2108C146.027 58.2316 140.647 55.7897 132.876 52.8789L120.227 48.1408L120.041 43.4153C119.901 39.8461 120.046 39.0091 120.636 39.9927C121.355 41.1921 123.413 41.2948 146.661 41.2948H171.905L173.117 39.4436C174.004 38.0917 174.274 36.2353 174.123 32.5611C174.009 29.794 173.973 23.0931 174.043 17.6712L174.171 7.81253H211.002H247.832V39.0627ZM175.659 21.2054C175.659 24.2062 175.844 26.477 176.07 26.2516C176.62 25.701 176.64 16.73 176.091 16.1816C175.854 15.9435 175.659 18.2047 175.659 21.2054ZM152.973 22.1868C153.235 23.4889 153.614 25.1392 153.815 25.8558C154.115 26.9212 153.699 27.1578 151.527 27.1578C149.105 27.1578 148.873 26.9726 148.873 25.0366C148.873 23.8699 149.245 21.8505 149.699 20.5484C150.342 18.7025 150.741 18.3617 151.511 19.0008C152.053 19.4517 152.712 20.8855 152.973 22.1868ZM131.291 24.3677C131.986 26.9607 131.888 27.1578 129.9 27.1578C128.026 27.1578 127.606 26.1779 128.492 23.8706C129.153 22.1474 130.774 22.4346 131.291 24.3677ZM158.951 32.419C159.248 32.9012 160.549 33.0284 162.248 32.7412C164.084 32.4309 166.018 32.6705 167.843 33.4332C169.377 34.0738 171.261 34.5984 172.03 34.5984C173.63 34.5984 173.805 35.9302 172.563 38.6557L171.7 40.5508H146.876H122.05L121.325 38.6423C119.658 34.2576 121.205 32.3119 123.948 35.3424C125.825 37.4168 127.793 37.2018 130.758 34.5984C133.721 31.9972 135.475 31.7933 137.323 33.835C139.524 36.2665 141.24 36.3811 143.756 34.2643C145.729 32.6043 146.662 32.3573 150.407 32.5053C152.803 32.5998 155.001 32.4399 155.29 32.1497C156.091 31.3498 158.394 31.5187 158.951 32.419ZM137.983 56.2175C141.201 57.399 144.297 58.751 144.865 59.222C145.45 59.7071 145.897 61.4541 145.897 63.2547C145.897 65.9995 145.651 66.4928 144.087 66.8857C143.091 67.1357 142.064 68.0092 141.804 68.8262C141.361 70.222 140.675 70.3128 130.594 70.3128H119.855V59.9147V49.5166L125.994 51.7934C129.37 53.0449 134.765 55.0359 137.983 56.2175ZM63.9816 71.0211C70.6178 74.4065 76.0457 81.3865 75.9497 86.4125C75.9199 87.9929 76.1089 90.5033 76.3693 91.9914C76.6461 93.5718 76.4802 95.3754 75.9705 96.3278C75.1528 97.856 74.7562 97.9267 69.6892 97.452C64.4147 96.958 64.2406 96.9959 62.6781 98.9825C60.5895 101.637 60.655 102.558 63.1342 105.332C64.7867 107.181 65.9943 107.734 69.2622 108.134C74.0844 108.724 74.6744 109.895 72.1811 113.928C70.6528 116.402 70.5389 117.4 70.6878 127.008L70.85 137.41L69.1245 136.879C67.0337 136.236 67.5672 136.847 65.2502 132.441C64.1743 130.395 62.8827 128.138 62.3797 127.427C61.6096 126.337 61.745 125.937 63.2398 124.89C66.4325 122.654 70.004 119.282 70.004 118.504C70.004 118.085 68.5456 119.087 66.7629 120.73C64.9809 122.373 62.8045 124.102 61.9266 124.571C60.0873 125.556 59.8707 127.04 61.3834 128.295C62.3142 129.068 65.5397 135.166 65.5397 136.153C65.5397 136.362 64.6922 136.533 63.6557 136.533C62.6193 136.533 60.6103 137.018 59.1914 137.611C56.8365 138.595 56.6103 138.579 56.6021 137.425C56.5969 136.73 55.7614 134.707 54.745 132.928C52.9429 129.776 52.934 129.687 54.3819 129.308C55.1989 129.094 55.867 128.64 55.867 128.3C55.867 127.96 54.6118 128.213 53.0768 128.865C50.0165 130.164 35.7799 131.198 35.7747 130.123C35.7724 129.761 34.5671 129.402 33.0953 129.326C31.6236 129.251 29.8409 128.664 29.134 128.024C28.4264 127.384 27.4361 126.861 26.9324 126.861C26.4234 126.861 26.256 126.474 26.5551 125.99C26.9078 125.419 26.6995 125.271 25.951 125.558C24.7977 126 18.6526 120.477 18.6756 119.02C18.6823 118.626 19.0119 118.806 19.4085 119.42C19.8497 120.103 20.134 120.189 20.1414 119.643C20.1474 119.152 19.7344 118.483 19.2225 118.155C17.8103 117.251 16.4085 115.268 16.096 113.73C15.942 112.971 15.5886 111.682 15.3103 110.864C14.9018 109.663 14.9591 109.591 15.6064 110.492C16.0566 111.117 16.4145 111.234 16.4212 110.759C16.4271 110.292 17.6087 109.773 19.0462 109.605C21.8088 109.282 23.8498 110.018 22.881 110.988C22.5633 111.305 21.9614 111.072 21.5432 110.47C20.8795 109.514 20.8215 109.516 21.0879 110.492C21.5261 112.096 23.5001 111.87 23.5053 110.215C23.5082 109.15 24.9041 108.326 29.4577 106.701C32.7293 105.534 35.4889 104.57 35.5916 104.559C35.6943 104.548 35.7776 105.391 35.7776 106.433C35.7776 110.824 41.9332 113.557 45.3365 110.678C47.0924 109.192 48.3112 105.283 47.0188 105.283C46.5656 105.283 46.1943 106.101 46.1943 107.101C46.1943 109.068 43.7494 111.236 41.5306 111.236C39.5902 111.236 36.5217 107.901 36.5217 105.793C36.5217 104.398 37.6333 103.285 41.544 100.759C49.2249 95.8002 52.8246 92.1194 55.5612 86.4259L58.0084 81.3329L63.2324 86.2399C67.1453 89.9148 68.9891 91.1462 70.5761 91.1462C72.5709 91.1462 76.5985 88.9884 74.6982 88.9379C74.2108 88.9245 73.6052 89.2489 73.3522 89.6581C73.0992 90.0673 71.9913 90.388 70.8901 90.3709C69.4556 90.3486 67.341 88.8746 63.4333 85.1715C58.0508 80.0717 57.989 79.9698 58.7867 77.5517C59.5285 75.3054 59.8722 75.0881 62.8953 74.9564C65.5947 74.8396 66.2793 75.0792 66.6595 76.2763C66.9147 77.0814 66.9318 78.0509 66.6967 78.4311C66.1662 79.2897 69.934 82.3485 70.8358 81.7912C73.2555 80.2957 69.0047 74.3783 63.6468 71.7853C60.6438 70.3314 59.6408 69.5687 60.7331 69.5687C60.9541 69.5687 62.4161 70.222 63.9816 71.0211ZM141.433 73.2183C141.433 74.1059 140.214 75.35 138.174 76.5457C135.847 77.9088 134.57 79.318 133.71 81.4676C132.207 85.2221 132.158 91.1105 133.601 94.5621C134.593 96.9364 134.568 97.5257 133.344 100.747C131.481 105.65 128.321 110.04 122.736 115.486C118.626 119.493 113.349 123.884 112.643 123.884C112.518 123.884 112.415 112.166 112.415 97.8427V71.8009H126.924C140.695 71.8009 141.433 71.8731 141.433 73.2183ZM160.44 75.1156C161.444 76.1201 162.266 77.6603 162.266 78.5383C162.266 80.1372 159.06 83.757 155.57 86.0993C154.547 86.7861 154.098 87.3657 154.573 87.3873C155.047 87.4081 157.116 86.0978 159.17 84.475L162.903 81.5234L163.371 83.6536C164.234 87.5807 161.626 91.7615 156.686 94.3717C155.458 95.0205 154.789 95.5629 155.198 95.5778C155.607 95.5926 157.068 94.9185 158.444 94.0792C161.576 92.17 162.132 92.6767 160.549 95.9967C159.052 99.1373 155.387 101.521 151.85 101.658L149.245 101.759L151.684 102.219L154.122 102.679L152.674 105.509C147.75 115.13 135.732 125.599 121.346 132.799C111.943 137.505 112.41 137.609 112.445 130.817L112.474 125L116.992 121.652C123.551 116.79 130.413 109.07 133.19 103.428C135.178 99.391 135.798 98.6685 136.661 99.3843C138.207 100.668 137.947 99.7422 135.922 96.7586C132.726 92.0487 132.706 83.9371 135.879 79.4229C136.528 78.5003 138.077 77.2183 139.321 76.5747L141.585 75.4043L141.323 79.1833C141.073 82.789 141.146 82.9624 142.921 82.9579C145.632 82.9512 150.55 81.4877 151.907 80.2845C152.661 79.6164 152.963 78.4467 152.754 77.0174C152.489 75.2109 152.759 74.658 154.184 74.0873C157.044 72.9415 158.507 73.1818 160.44 75.1156ZM165.879 84.5375C166.056 87.1075 166.36 88.0338 166.798 87.3426C167.737 85.8597 167.623 83.449 166.545 81.9728C165.766 80.9066 165.658 81.3232 165.879 84.5375ZM171.939 112.358V136.547L210.444 136.354L248.948 136.161L249.145 112.166L249.341 88.17H210.64H171.939V112.358ZM245.6 89.199C245.6 89.356 243.675 90.6454 241.322 92.0651C238.968 93.484 231.415 98.211 224.535 102.568C217.656 106.926 211.697 110.492 211.295 110.492C210.732 110.492 193.864 100.223 177.147 89.7035C176.437 89.257 188.695 88.9855 210.816 88.9579C229.947 88.9334 245.6 89.042 245.6 89.199ZM247.088 111.942V134.227L229.646 122.917L212.203 111.608L214.951 109.966C216.461 109.064 224.227 104.144 232.207 99.0339C240.187 93.9237 246.8 89.7236 246.902 89.7005C247.004 89.6767 247.088 99.6864 247.088 111.942ZM186.114 96.9565C192.027 100.561 199.824 105.393 203.441 107.695L210.016 111.878L206.789 113.914C205.013 115.034 197.534 119.777 190.168 124.454C182.802 129.131 176.189 133.272 175.473 133.656C174.247 134.313 174.171 133.076 174.171 112.378C174.171 100.291 174.439 90.4021 174.767 90.4021C175.094 90.4021 180.2 93.3516 186.114 96.9565ZM64.9667 99.7422C64.4362 100.691 64.1141 100.778 63.687 100.087C63.3633 99.5636 63.5508 98.8962 64.1208 98.5443C65.4757 97.7065 65.8276 98.2043 64.9667 99.7422ZM69.5903 98.5197C70.3098 99.6827 69.1639 101.563 67.7361 101.563C66.0568 101.563 65.3879 100.592 65.9891 99.0257C66.4779 97.7519 68.905 97.4104 69.5903 98.5197ZM73.5665 100.729C73.44 101.393 72.5397 102.048 71.5657 102.186C70.1692 102.385 69.8953 102.175 70.2711 101.195C70.5337 100.512 70.748 99.6767 70.748 99.3397C70.748 99.0019 71.434 98.9052 72.2718 99.1247C73.1684 99.359 73.7019 100.02 73.5665 100.729ZM64.9467 101.512C65.8864 101.893 67.5769 102.401 68.7019 102.642C70.3782 103 70.748 103.48 70.748 105.297C70.748 107.68 69.9095 108.009 66.8194 106.834C64.3537 105.896 62.5635 103.97 62.5635 102.254C62.5635 100.605 62.6461 100.579 64.9467 101.512ZM41.8164 103.696C41.7613 104.343 41.1742 104.567 40.1995 104.312C38.9458 103.985 38.8275 104.103 39.5433 104.965C40.0239 105.545 40.2338 106.721 40.0098 107.58C39.6251 109.05 39.6809 109.068 40.9637 107.907C41.8603 107.096 42.4942 106.945 42.8164 107.467C43.0857 107.903 43.6728 108.259 44.1214 108.259C44.5835 108.259 44.4362 107.695 43.7821 106.957C43.1475 106.241 42.4644 104.986 42.265 104.167C42.0656 103.349 41.864 103.137 41.8164 103.696ZM125.327 108.073C122.112 112.117 121.547 113.368 123.899 111.236C125.696 109.605 128.538 105.283 127.811 105.283C127.665 105.283 126.547 106.539 125.327 108.073ZM17.4777 111.351C17.1481 111.883 17.2731 112.008 17.8051 111.678C18.2776 111.387 18.6645 111 18.6645 110.82C18.6645 110.199 18.0075 110.493 17.4777 111.351ZM19.4085 111.608C19.4085 111.812 19.5759 111.98 19.7806 111.98C19.9852 111.98 20.1526 111.812 20.1526 111.608C20.1526 111.403 19.9852 111.236 19.7806 111.236C19.5759 111.236 19.4085 111.403 19.4085 111.608ZM18.1682 113.22C18.4413 113.492 18.8877 113.492 19.1608 113.22C19.4331 112.947 19.2099 112.724 18.6645 112.724C18.1191 112.724 17.8959 112.947 18.1682 113.22ZM20.8966 113.096C20.8966 113.3 21.064 113.468 21.2687 113.468C21.4733 113.468 21.6407 113.3 21.6407 113.096C21.6407 112.891 21.4733 112.724 21.2687 112.724C21.064 112.724 20.8966 112.891 20.8966 113.096ZM23.1288 113.096C23.1288 113.3 23.2962 113.468 23.5008 113.468C23.7054 113.468 23.8728 113.3 23.8728 113.096C23.8728 112.891 23.7054 112.724 23.5008 112.724C23.2962 112.724 23.1288 112.891 23.1288 113.096ZM228.187 123.698L244.979 134.673L227.804 134.873C218.358 134.983 202.853 134.983 193.347 134.873L176.065 134.673L193.161 123.741C202.564 117.728 210.513 112.79 210.826 112.766C211.139 112.743 218.952 117.662 228.187 123.698ZM17.1764 114.584C17.1764 114.788 17.3438 114.956 17.5484 114.956C17.753 114.956 17.9204 114.788 17.9204 114.584C17.9204 114.379 17.753 114.212 17.5484 114.212C17.3438 114.212 17.1764 114.379 17.1764 114.584ZM19.4085 114.584C19.4085 114.788 19.5759 114.956 19.7806 114.956C19.9852 114.956 20.1526 114.788 20.1526 114.584C20.1526 114.379 19.9852 114.212 19.7806 114.212C19.5759 114.212 19.4085 114.379 19.4085 114.584ZM22.7568 114.956C23.0097 115.365 23.384 115.7 23.5886 115.7C23.7932 115.7 23.7538 115.365 23.5008 114.956C23.2478 114.547 22.8736 114.212 22.669 114.212C22.4643 114.212 22.5038 114.547 22.7568 114.956ZM24.6169 114.584C24.6169 114.788 24.7843 114.956 24.9889 114.956C25.1935 114.956 25.3609 114.788 25.3609 114.584C25.3609 114.379 25.1935 114.212 24.9889 114.212C24.7843 114.212 24.6169 114.379 24.6169 114.584ZM146.246 118.762C143.803 121.265 142.495 122.96 143.34 122.531C145.567 121.396 152.093 114.212 150.896 114.212C150.781 114.212 148.688 116.259 146.246 118.762ZM20.8966 115.627C20.8966 116.399 22.3118 117.518 22.7315 117.076C22.8676 116.934 22.5105 116.384 21.9376 115.857C21.3654 115.329 20.8966 115.225 20.8966 115.627ZM19.4085 116.816C19.4085 117.021 19.5759 117.188 19.7806 117.188C19.9852 117.188 20.1526 117.021 20.1526 116.816C20.1526 116.611 19.9852 116.444 19.7806 116.444C19.5759 116.444 19.4085 116.611 19.4085 116.816ZM24.6169 116.816C24.6169 117.021 24.7843 117.188 24.9889 117.188C25.1935 117.188 25.3609 117.021 25.3609 116.816C25.3609 116.611 25.1935 116.444 24.9889 116.444C24.7843 116.444 24.6169 116.611 24.6169 116.816ZM20.8966 118.304C20.8966 118.509 21.064 118.676 21.2687 118.676C21.4733 118.676 21.6407 118.509 21.6407 118.304C21.6407 118.099 21.4733 117.932 21.2687 117.932C21.064 117.932 20.8966 118.099 20.8966 118.304ZM22.6593 118.834C22.416 119.227 22.6094 119.939 23.0886 120.415C23.7545 121.075 23.8319 120.941 23.416 119.849C22.9993 118.756 23.1362 118.52 23.9971 118.85C24.6169 119.088 25.5477 119.021 26.0655 118.7C26.6675 118.329 26.3014 118.118 25.0551 118.118C23.9807 118.118 22.9026 118.44 22.6593 118.834ZM20.8966 120.536C20.8966 120.741 21.064 120.908 21.2687 120.908C21.4733 120.908 21.6407 120.741 21.6407 120.536C21.6407 120.332 21.4733 120.164 21.2687 120.164C21.064 120.164 20.8966 120.332 20.8966 120.536ZM25.6087 120.66C25.8818 120.933 26.3282 120.933 26.6013 120.66C26.8736 120.387 26.6504 120.164 26.105 120.164C25.5596 120.164 25.3364 120.387 25.6087 120.66ZM28.3371 120.536C28.3371 120.741 28.5045 120.908 28.7092 120.908C28.9138 120.908 29.0812 120.741 29.0812 120.536C29.0812 120.332 28.9138 120.164 28.7092 120.164C28.5045 120.164 28.3371 120.332 28.3371 120.536ZM21.8884 122.149C22.1615 122.421 22.6079 122.421 22.881 122.149C23.1533 121.875 22.9301 121.652 22.3847 121.652C21.8393 121.652 21.6161 121.875 21.8884 122.149ZM24.6169 122.024C24.6169 122.229 24.7843 122.396 24.9889 122.396C25.1935 122.396 25.3609 122.229 25.3609 122.024C25.3609 121.82 25.1935 121.652 24.9889 121.652C24.7843 121.652 24.6169 121.82 24.6169 122.024ZM26.4368 122.461C25.6199 123.783 27.419 125.101 28.5231 123.989C29.2687 123.238 29.195 123.151 28.1511 123.548C26.6891 124.105 26.3252 122.732 27.7791 122.145C28.4495 121.875 28.4621 121.753 27.823 121.711C27.3356 121.679 26.7121 122.016 26.4368 122.461ZM29.8252 122.024C29.8252 122.229 29.9926 122.396 30.1973 122.396C30.4019 122.396 30.5693 122.229 30.5693 122.024C30.5693 121.82 30.4019 121.652 30.1973 121.652C29.9926 121.652 29.8252 121.82 29.8252 122.024ZM24.6169 124.256C24.6169 124.461 24.7843 124.628 24.9889 124.628C25.1935 124.628 25.3609 124.461 25.3609 124.256C25.3609 124.052 25.1935 123.884 24.9889 123.884C24.7843 123.884 24.6169 124.052 24.6169 124.256ZM29.8252 124.256C29.8252 124.461 29.9926 124.628 30.1973 124.628C30.4019 124.628 30.5693 124.461 30.5693 124.256C30.5693 124.052 30.4019 123.884 30.1973 123.884C29.9926 123.884 29.8252 124.052 29.8252 124.256ZM32.0574 124.256C32.0574 124.461 32.2248 124.628 32.4294 124.628C32.634 124.628 32.8014 124.461 32.8014 124.256C32.8014 124.052 32.634 123.884 32.4294 123.884C32.2248 123.884 32.0574 124.052 32.0574 124.256ZM28.3371 125.745C28.3371 125.949 28.5045 126.117 28.7092 126.117C28.9138 126.117 29.0812 125.949 29.0812 125.745C29.0812 125.54 28.9138 125.373 28.7092 125.373C28.5045 125.373 28.3371 125.54 28.3371 125.745ZM31.4703 126.413C31.9979 126.986 32.547 127.344 32.6898 127.207C33.1311 126.788 32.0127 125.373 31.2404 125.373C30.8386 125.373 30.9421 125.841 31.4703 126.413ZM33.5455 125.745C33.5455 125.949 33.7129 126.117 33.9175 126.117C34.1221 126.117 34.2895 125.949 34.2895 125.745C34.2895 125.54 34.1221 125.373 33.9175 125.373C33.7129 125.373 33.5455 125.54 33.5455 125.745ZM111.671 131.624V137.132L109.328 137.948C106.295 139.006 104.23 138.989 104.23 137.905C104.23 137.433 103.329 135.864 102.227 134.419C101.125 132.974 100.539 131.683 100.924 131.55C101.311 131.416 103.635 130.16 106.09 128.759C108.546 127.359 110.806 126.192 111.113 126.165C111.419 126.138 111.671 128.595 111.671 131.624ZM30.1973 127.605C30.4502 128.014 30.8245 128.349 31.0291 128.349C31.2337 128.349 31.1943 128.014 30.9413 127.605C30.6883 127.195 30.3141 126.861 30.1095 126.861C29.9049 126.861 29.9443 127.195 30.1973 127.605ZM33.9227 127.596C33.6623 128.018 33.9607 128.143 34.6229 127.889C35.9116 127.394 36.1474 126.861 35.0775 126.861C34.6921 126.861 34.1727 127.192 33.9227 127.596ZM38.7538 127.977C38.7538 128.181 38.9213 128.349 39.1259 128.349C39.3305 128.349 39.4979 128.181 39.4979 127.977C39.4979 127.772 39.3305 127.605 39.1259 127.605C38.9213 127.605 38.7538 127.772 38.7538 127.977ZM37.2657 129.465C37.2657 129.669 37.4332 129.837 37.6378 129.837C37.8424 129.837 38.0098 129.669 38.0098 129.465C38.0098 129.26 37.8424 129.093 37.6378 129.093C37.4332 129.093 37.2657 129.26 37.2657 129.465ZM39.4979 129.465C39.4979 129.669 39.6653 129.837 39.8699 129.837C40.0745 129.837 40.2419 129.669 40.2419 129.465C40.2419 129.26 40.0745 129.093 39.8699 129.093C39.6653 129.093 39.4979 129.26 39.4979 129.465ZM42.4741 129.465C42.4741 129.669 42.6415 129.837 42.8461 129.837C43.0507 129.837 43.2181 129.669 43.2181 129.465C43.2181 129.26 43.0507 129.093 42.8461 129.093C42.6415 129.093 42.4741 129.26 42.4741 129.465ZM54.117 134.301C55.0567 136.143 55.8343 138.061 55.8462 138.565C55.864 139.335 50.8223 142.486 49.5723 142.486C49.3514 142.486 49.1706 139.784 49.1706 136.481C49.1706 130.739 49.2412 130.488 50.7896 130.715C51.8417 130.87 53.0076 132.126 54.117 134.301ZM111.671 146.206V154.39L100.324 154.374L88.9773 154.359L85.2153 149.724L81.4534 145.09L88.5636 145.306C92.4743 145.425 97.6827 145.258 100.138 144.934C104.433 144.368 104.611 144.259 104.826 142.05C105.016 140.108 105.476 139.634 107.802 138.981C109.317 138.557 110.806 138.167 111.113 138.115C111.419 138.064 111.671 141.704 111.671 146.206ZM57.9794 160.719L57.7271 171.167L53.4488 175.443L49.1706 179.72V167.231V154.741L53.0404 149.958L56.9109 145.175L57.5709 147.724C57.934 149.126 58.1178 154.973 57.9794 160.719ZM72.9973 147.222L75.0896 148.983L70.8656 149.425C68.5427 149.667 65.1862 150.379 63.4072 151.007C59.8417 152.265 58.8432 152.029 58.8432 149.926C58.8432 148.191 59.2108 147.963 64.1587 146.632C69.6736 145.149 70.6067 145.21 72.9973 147.222ZM37.5009 155.974C41.7859 158.188 41.8573 158.609 38.7568 163.405C33.0641 172.212 29.0812 184.896 29.0812 194.216C29.0812 198.133 28.9837 198.359 27.5001 197.888C26.4361 197.55 26.0849 197.656 26.4279 198.21C26.7077 198.663 27.3743 199.034 27.9086 199.034C29.8319 199.034 32.7434 202.121 34.5589 206.086C35.8223 208.847 37.3692 210.788 39.4361 212.208C43.0225 214.671 44.0961 217.385 42.0701 218.866C40.8513 219.758 40.605 219.636 39.8089 217.742C39.1973 216.286 37.8394 215.173 35.4964 214.208C33.1251 213.23 31.8639 212.188 31.381 210.807C30.9986 209.712 29.8223 208.251 28.7672 207.56C27.0365 206.426 26.6801 206.414 25.1236 207.434C23.5425 208.47 23.3237 208.446 22.5127 207.147C21.0819 204.855 14.9442 205.734 14.9442 208.231C14.9442 208.867 14.2195 209.086 12.8066 208.879C11.2679 208.653 10.2262 209.041 9.08631 210.264L7.50372 211.963V209.453C7.50372 205.938 10.25 200.656 13 198.882C14.2738 198.06 14.6987 197.592 13.9435 197.842C12.6875 198.258 12.6131 197.965 13.0655 194.387C14.7939 180.714 20.541 169.036 30.8267 158.297C34.041 154.94 34.9131 154.638 37.5009 155.974ZM111.671 164.435C111.671 169.551 111.488 173.736 111.264 173.736C111.04 173.736 107.105 171.287 102.521 168.294C95.7258 163.857 93.7444 162.139 91.798 158.993L89.411 155.135H100.541H111.671V164.435ZM157.393 155.78C155.76 157.271 120.899 179.156 120.129 179.173C119.666 179.184 117.742 178.216 115.852 177.022L112.418 174.852L112.416 164.993L112.415 155.135H135.257C148.208 155.135 157.794 155.414 157.393 155.78ZM159.29 180.14C159.29 200.17 159.133 203.597 158.231 203.251C156.655 202.646 124.634 182.791 122.869 181.324C121.39 180.094 121.852 179.74 139.761 168.371C149.888 161.943 158.425 156.67 158.732 156.652C159.039 156.636 159.29 167.205 159.29 180.14ZM91.4847 160.8L92.3716 162.745L86.9542 162.402C80.4244 161.986 68.8291 162.936 63.4809 164.324L59.5873 165.333V163.262C59.5873 161.334 59.9102 161.113 64.2376 160.088C67.1379 159.401 72.972 158.961 79.7429 158.92L90.5985 158.855L91.4847 160.8ZM172.683 160.333C172.683 161.014 223.167 160.555 223.961 159.867C224.131 159.72 212.663 159.599 198.477 159.599C182.001 159.599 172.683 159.864 172.683 160.333ZM229.231 160.343C229.231 160.768 231.448 161.087 234.395 161.087C237.236 161.087 239.767 160.752 240.02 160.343C240.31 159.872 238.415 159.599 234.855 159.599C231.601 159.599 229.231 159.913 229.231 160.343ZM105.532 172.117L111.671 176.191V180.549V184.906L106.648 188.124C103.886 189.894 100.267 192.199 98.6053 193.248L95.5844 195.153L96.9066 191.327C99.0926 185.002 98.513 174.253 95.577 166.67C94.9163 164.963 94.01 164.467 105.532 172.117ZM12.5223 175.556C11.4092 177.827 10.3162 181.108 10.093 182.848C9.69346 185.968 9.70759 185.955 11.0722 181.92C11.8341 179.67 13.0372 176.717 13.7456 175.359C14.4546 174.001 14.9249 172.562 14.7909 172.16C14.657 171.757 13.6362 173.286 12.5223 175.556ZM173.055 172.248C172.49 173.161 193.966 173.198 198.353 172.29C200.373 171.873 196.862 171.647 187.422 171.589C178.858 171.536 173.338 171.789 173.055 172.248ZM207.839 172.036C208.964 172.207 210.807 172.207 211.932 172.036C213.057 171.866 212.136 171.727 209.885 171.727C207.635 171.727 206.714 171.866 207.839 172.036ZM225.697 172.058C229.278 172.194 235.137 172.194 238.717 172.058C242.299 171.921 239.368 171.809 232.207 171.809C225.046 171.809 222.116 171.921 225.697 172.058ZM116.369 179.151L118.463 180.602L115.85 182.377C114.413 183.353 113.053 184.153 112.826 184.153C112.6 184.153 112.415 182.458 112.415 180.388C112.415 176.358 112.362 176.375 116.369 179.151ZM128.307 186.75C131.639 188.92 139.672 193.911 146.16 197.842L157.955 204.986H139.082C120.223 204.986 120.207 204.984 119.474 203.312C118.899 202.002 118.021 201.586 115.436 201.402C113.619 201.272 111.276 200.57 110.228 199.842C107.287 197.797 103.657 196.801 99.141 196.801H95.0175L103.158 191.627L111.299 186.452L111.732 190.697L112.165 194.941L112.29 190.379L112.415 185.817L115.905 183.546C119.884 180.958 119.111 180.759 128.307 186.75ZM196.121 184.153C195.818 184.642 202.948 184.897 216.954 184.897C230.96 184.897 238.09 184.642 237.787 184.153C237.499 183.686 229.734 183.408 216.954 183.408C204.174 183.408 196.409 183.686 196.121 184.153ZM176.99 184.704C179.564 184.85 183.582 184.849 185.919 184.702C188.256 184.554 186.15 184.435 181.24 184.437C176.329 184.438 174.417 184.559 176.99 184.704ZM177.891 196.057C174.822 196.319 184.783 196.594 200.027 196.667C218.098 196.755 227.743 196.542 227.743 196.057C227.743 195.237 187.512 195.237 177.891 196.057ZM118.367 203.87C119.174 205.99 118.08 209.821 116.881 209.079C116.052 208.567 115.852 203.285 116.631 202.506C117.41 201.726 117.613 201.885 118.367 203.87ZM21.9934 208.669C23.6719 211.915 23.4963 219.254 21.6876 221.458C20.5194 222.882 19.9896 223.061 18.8974 222.403C16.7791 221.126 15.6287 218.034 15.4963 213.261C15.3609 208.356 16.3624 206.474 19.1087 206.474C20.2939 206.474 21.2248 207.182 21.9934 208.669ZM29.3877 209.636C32.5209 214.473 30.1958 222.914 26.0194 221.865C24.2716 221.426 24.1957 221.162 24.2434 215.615C24.2702 212.429 24.5529 209.404 24.8706 208.892C25.7903 207.413 28.2047 207.811 29.3877 209.636ZM14.3505 214.561C14.6384 217.168 15.0536 219.481 15.2746 219.701C16.0447 220.471 14.0037 222.099 12.2679 222.099C8.83482 222.099 6.92336 214.649 9.43602 211.062C10.1801 209.999 11.2217 209.451 12.2262 209.594C13.6079 209.791 13.9003 210.473 14.3505 214.561ZM106.006 212.24C104.837 217.166 99.9319 224.874 95.0762 229.411L93.2236 231.142L88.6759 225.168C86.1744 221.882 82.2533 217.169 79.9623 214.694L75.7964 210.194H91.1432H106.491L106.006 212.24ZM35.8074 215.418C37.791 216.429 38.7538 217.419 38.7538 218.444C38.7538 219.685 38.4428 219.869 37.0797 219.438C34.1906 218.524 32.0574 216.774 32.0574 215.317C32.0574 213.572 32.195 213.575 35.8074 215.418ZM7.50372 218.238C7.50372 221.436 13.7984 224.555 15.311 222.107C15.5886 221.659 16.5134 221.861 17.6801 222.626C19.4413 223.78 19.759 223.785 21.6608 222.694C23.0045 221.923 23.9815 221.761 24.4539 222.234C25.9376 223.717 29.4056 222.566 30.5916 220.195L31.7293 217.919L34.6839 219.244C36.3081 219.973 37.9287 220.676 38.2843 220.806C38.64 220.935 38.5016 222.959 37.9771 225.302C37.1229 229.119 36.8617 229.511 35.4703 229.057C32.1273 227.968 17.6295 228.69 11.6592 230.243C8.41964 231.085 5.69419 231.69 5.60192 231.586C4.96204 230.871 3.03941 223.909 3.03941 222.307C3.03941 220.441 5.56324 216.891 6.88913 216.891C7.22693 216.891 7.50372 217.497 7.50372 218.238ZM25.3609 230.335C19.8364 230.644 13.343 231.435 10.9323 232.096C8.52084 232.756 6.39211 233.14 6.20163 232.95C5.84746 232.595 12.346 230.611 15.6883 230.053C16.7113 229.882 21.5663 229.749 26.477 229.758L35.4056 229.775L25.3609 230.335ZM37.018 230.78C36.7449 231.052 36.2985 231.052 36.0254 230.78C35.7531 230.507 35.9763 230.284 36.5217 230.284C37.0671 230.284 37.2903 230.507 37.018 230.78ZM41.3022 232.454C43.1512 234.496 41.867 236.418 37.355 238.359C31.4473 240.9 26.3193 241.762 17.1764 241.75C10.0424 241.741 8.03199 241.474 5.08555 240.145C1.39283 238.48 0.754433 237.139 2.72021 235.173C4.38912 233.504 5.01264 233.723 3.46427 235.434C2.22393 236.804 2.25444 236.919 4.20087 238.194C5.66517 239.153 8.14881 239.609 13.1034 239.825C28.8922 240.516 44.9979 235.875 39.9138 232.1C39.1192 231.511 38.8163 231.028 39.2405 231.028C39.6646 231.028 40.5924 231.67 41.3022 232.454ZM113.734 238.671C110.676 244.566 110.473 245.943 113.295 241.645C115.026 239.009 117.127 234.004 116.686 233.563C116.576 233.453 115.248 235.752 113.734 238.671ZM83.0323 243.907C86.2667 247.142 87.5107 251.55 87.3924 259.361C87.2868 266.36 85.7466 272.783 82.9683 277.805C81.8336 279.857 81.6015 280.699 82.3388 280.087C82.9817 279.553 84.2563 277.645 85.1707 275.845C86.5546 273.121 86.9832 272.753 87.7258 273.647C88.4482 274.518 88.0874 275.317 85.821 277.862C78.5419 286.037 71.8589 280.285 70.0791 264.314C69.0382 254.974 70.7428 247.334 74.7659 243.312C77.3611 240.716 80.033 240.908 83.0323 243.907ZM18.5015 243.299C18.6169 243.396 18.9145 245.194 19.163 247.296L19.6161 251.117L17.4658 251.099C16.2835 251.09 13.9866 250.773 12.3609 250.396C10.7359 250.02 9.30283 249.814 9.17783 249.939C9.05209 250.065 9.38096 253.643 9.90849 257.89C10.811 265.161 10.9866 265.671 12.9055 266.59C14.3773 267.296 14.9465 268.125 14.9524 269.573C14.9569 270.676 15.1682 272.834 15.4219 274.369C15.8475 276.942 15.7456 277.158 14.1116 277.148C13.1369 277.141 11.9159 276.867 11.3981 276.538C9.78349 275.513 7.70312 263.143 6.45758 247.162L6.06249 242.09L12.1771 242.607C15.541 242.891 18.3862 243.203 18.5015 243.299ZM74.9653 249.071C73.9058 249.843 74.4824 249.953 78.3574 249.723C81.6566 249.526 82.5888 249.269 81.5368 248.845C79.2763 247.935 76.3879 248.034 74.9653 249.071ZM20.1526 258.601C23.4837 261.543 23.5075 261.55 24.7597 260.028C26.0164 258.502 26.0276 258.505 29.7821 261.202C31.852 262.689 33.5455 264.181 33.5455 264.518C33.5455 265.467 26.5492 266.742 21.3431 266.742C11.9397 266.742 9.28199 263.863 13.657 258.418C14.9115 256.858 16.1325 255.596 16.3706 255.613C16.6094 255.63 18.3111 256.975 20.1526 258.601ZM73.786 257.76C73.1104 258.187 74.4884 258.384 77.6178 258.306C80.3054 258.24 82.3508 257.935 82.1625 257.628C81.6841 256.846 75.0643 256.95 73.786 257.76ZM74.9363 265.843C74.7361 266.166 75.8046 266.314 77.3106 266.171C81.9118 265.735 82.4542 265.431 78.7905 265.34C76.8708 265.293 75.1364 265.519 74.9363 265.843ZM115.734 266.79C115.401 267.328 116.158 267.415 118.108 267.063C121.907 266.375 122.191 265.998 118.907 265.998C117.431 265.998 116.003 266.354 115.734 266.79ZM22.2612 268.633C22.3981 268.753 22.6876 270.175 22.9041 271.793C23.6846 277.609 19.98 276.443 19.0313 270.573C18.5231 267.427 18.5573 267.352 20.2605 267.876C21.224 268.172 22.1243 268.513 22.2612 268.633ZM122.806 271.157C123.229 271.949 123.576 274.32 123.576 276.425V280.253L121.157 279.734C117.259 278.897 116.349 278.121 115.153 274.61L114.022 271.291L116.009 270.564C119.321 269.35 121.962 269.581 122.806 271.157ZM75.6119 273.395C75.3537 273.812 76.312 273.919 77.9861 273.661C81.722 273.084 82.0219 272.695 78.7287 272.695C77.2518 272.695 75.8492 273.009 75.6119 273.395ZM69.2629 278.89C69.2592 280.445 73.126 284.599 74.5769 284.599C75.1082 284.599 74.7704 284.058 73.8262 283.396C72.8812 282.735 71.469 281.145 70.687 279.862C69.6632 278.183 69.2644 277.911 69.2629 278.89Z" fill="#323036"/>
</svg>
