<svg width="302" height="300" viewBox="0 0 302 300" fill="none" xmlns="http://www.w3.org/2000/svg">
<path fill-rule="evenodd" clip-rule="evenodd" d="M6.8189 1.04615C4.69377 2.23298 4.69147 2.2368 5.28106 3.19039C5.66571 3.8121 6.10007 3.80063 6.88696 3.14757C7.7939 2.39509 7.96596 2.93727 7.96596 6.55206C7.96596 10.3412 7.78472 10.8513 6.43654 10.8513C5.59536 10.8513 4.90712 11.1954 4.90712 11.616C4.90712 12.0366 6.79978 12.3807 9.11303 12.3807C11.4263 12.3807 13.3189 12.0366 13.3189 11.616C13.3189 11.1954 12.6307 10.8513 11.7895 10.8513C10.4054 10.8513 10.2601 10.3412 10.2601 5.49829C10.2601 -0.12692 9.85556 -0.64998 6.8189 1.04615ZM26.0215 1.31685C23.2877 4.05069 23.8735 10.6624 26.9973 12.334C28.8479 13.3251 32.0146 12.2897 32.715 10.4651C33.7367 7.80083 33.2228 2.69562 31.8027 1.41091C30.0523 -0.173568 27.5525 -0.214096 26.0215 1.31685ZM45.8099 1.68468C43.6848 4.0331 43.9012 9.90684 46.1808 11.7529C49.6901 14.5945 53.0839 11.8507 53.0839 6.17123C53.0839 0.563614 49.0668 -1.91405 45.8099 1.68468ZM66.2621 1.32756C64.1844 2.78586 64.7174 4.3451 66.8953 3.17969C68.2794 2.43868 68.3781 2.66657 68.3781 6.61859C68.3781 10.3412 68.1938 10.8513 66.8486 10.8513C66.0074 10.8513 65.3192 11.294 65.3192 11.8354C65.3192 12.9068 69.2154 13.4681 71.5371 12.7309C73.2255 12.1956 73.4527 10.8513 71.8544 10.8513C71.0132 10.8513 70.6867 9.59331 70.5162 5.69711C70.2676 0.0351975 69.389 -0.867158 66.2621 1.32756ZM86.1231 1.53021C84.125 3.06804 84.6671 4.3084 86.8313 3.15063C88.1473 2.44633 88.2605 2.72163 88.2605 6.61859C88.2605 10.3412 88.0762 10.8513 86.7311 10.8513C85.8899 10.8513 85.2017 11.1954 85.2017 11.616C85.2017 12.0366 86.9223 12.3807 89.0252 12.3807C91.1282 12.3807 92.8488 12.0366 92.8488 11.616C92.8488 11.1954 92.3326 10.8513 91.7017 10.8513C90.7917 10.8513 90.5546 9.74702 90.5546 5.49829C90.5546 -0.414451 89.6745 -1.20287 86.1231 1.53021ZM105.51 1.84527C104.081 3.88475 103.942 9.31419 105.275 11.0103C106.876 13.0467 109.283 13.3236 111.287 11.7016C112.766 10.5033 113.114 9.50384 113.114 6.44806C113.114 4.37263 112.641 2.10527 112.064 1.41015C110.533 -0.434334 106.939 -0.195744 105.51 1.84527ZM125.393 1.84527C123.963 3.88475 123.825 9.31419 125.158 11.0103C126.976 13.3236 129.367 13.4031 131.547 11.2229C133.284 9.48625 133.511 8.7353 133.183 5.82329C132.973 3.96275 132.373 1.92403 131.849 1.29315C130.403 -0.450393 126.783 -0.140685 125.393 1.84527ZM146.57 1.07826C145.623 1.5348 144.849 2.38439 144.849 2.96557C144.849 3.78534 145.192 3.83887 146.378 3.20416C147.822 2.4318 147.908 2.62298 147.908 6.61859C147.908 10.3412 147.724 10.8513 146.378 10.8513C145.537 10.8513 144.849 11.1954 144.849 11.616C144.849 12.0366 146.762 12.3807 149.1 12.3807C151.739 12.3807 153.172 12.0909 152.879 11.616C152.618 11.1954 151.91 10.8513 151.304 10.8513C150.45 10.8513 150.202 9.64913 150.202 5.49829C150.202 -0.162861 149.901 -0.528392 146.57 1.07826ZM30.6901 2.93421C30.8507 3.41675 29.933 4.55846 28.6506 5.47152C26.6608 6.88853 26.319 6.94894 26.319 5.88217C26.319 2.61456 29.8015 0.265376 30.6901 2.93421ZM50.5725 2.93421C50.7331 3.41675 49.8155 4.55846 48.5331 5.47152C46.5433 6.88853 46.2015 6.94894 46.2015 5.88217C46.2015 2.61456 49.684 0.265376 50.5725 2.93421ZM110.075 2.47309C110.646 3.3961 109.288 5.24134 107.225 6.34482C105.95 7.02771 105.853 6.88165 106.312 4.96452C106.594 3.7861 106.97 2.56409 107.147 2.24827C107.62 1.40556 109.505 1.55009 110.075 2.47309ZM130.126 2.55186C130.787 3.21257 130.558 3.78075 129.203 4.84599C126.867 6.68359 126.496 6.63312 126.496 4.47893C126.496 1.68391 128.3 0.725731 130.126 2.55186ZM30.9287 9.28207C29.9789 11.057 27.0837 11.4233 27.0837 9.76766C27.0837 8.17095 31.2162 5.27805 31.529 6.65606C31.6613 7.23724 31.3906 8.41872 30.9287 9.28207ZM50.8111 9.28207C49.8965 10.9904 48.1308 11.3521 47.2965 10.0017C47.0067 9.53366 47.7592 8.35907 48.972 7.38636C51.4023 5.43558 52.3482 6.40982 50.8111 9.28207ZM111.202 7.34736C111.202 9.43731 110.261 10.8513 108.871 10.8513C106.585 10.8513 106.25 9.22166 108.224 7.70447C110.438 6.00223 111.202 5.91123 111.202 7.34736ZM131.084 7.34736C131.084 9.43731 130.144 10.8513 128.753 10.8513C126.513 10.8513 126.231 9.4029 128.158 7.79624C130.294 6.01676 131.084 5.89517 131.084 7.34736ZM163.006 14.6748C157.705 15.3539 148.257 18.7148 145.614 20.8613L143.702 22.4137L146.333 21.1251C150.76 18.9579 159.349 16.2593 163.486 15.7362C165.643 15.4632 167.924 14.9509 168.555 14.5983C169.939 13.8245 169.609 13.829 163.006 14.6748ZM165.032 18.5289C157.591 19.8442 148.249 23.199 139.305 27.7666L130.32 32.3557V27.7208C130.32 22.7907 129.674 22.1506 126.446 23.8781C124.502 24.9189 124.538 26.436 126.496 25.9237C127.886 25.5605 128.025 25.9008 128.025 29.6585C128.025 33.2825 127.837 33.7926 126.496 33.7926C125.655 33.7926 124.957 34.2231 124.944 34.7484C124.921 35.7953 109.763 46.0279 108.236 46.0279C107.717 46.0279 106.365 47.0068 105.232 48.2028C102.4 51.1928 92.8488 57.8243 92.8488 56.8012C92.8488 56.3431 92.3326 55.9692 91.7017 55.9692C90.8001 55.9692 90.5546 54.907 90.5546 50.9985C90.5546 45.6211 90.1348 45.2066 86.4084 46.9043C84.2274 47.8984 84.5524 49.3957 86.7953 48.6838C88.1076 48.2678 88.2605 48.6233 88.2605 52.0944C88.2605 55.4591 88.0594 55.9692 86.7311 55.9692C85.8815 55.9692 85.2017 56.4792 85.2017 57.1162C85.2017 57.952 86.0834 58.2702 88.4517 58.2878C91.5495 58.3107 91.6298 58.368 90.1723 59.5182C89.3311 60.1812 87.3467 61.3229 85.7622 62.0539L82.8808 63.383L87.4927 69.867C92.1926 76.4741 102.125 86.6019 113.114 95.9903C119.049 101.061 125.749 108.291 127.402 111.411C128.432 113.355 127.774 112.685 122.061 105.974C119.515 102.983 113.153 96.8957 107.923 92.4458C102.692 87.996 96.4834 82.2224 94.1243 79.6163C88.8585 73.7976 82.1688 64.2288 81.7368 61.8995C81.2007 59.0012 76.4496 55.2044 73.3601 55.2044H70.6722V50.6162C70.6722 45.6494 70.2027 45.2296 66.5259 46.9043C64.3197 47.9099 64.6822 49.3919 66.9572 48.67C68.3337 48.2333 68.4461 48.5063 68.2312 51.7602L67.9957 55.3299L63.8357 56.7912C54.8442 59.9487 43.3162 66.6682 34.3171 73.9987L30.1425 77.3986V72.8019C30.1425 70.273 29.9537 68.2045 29.722 68.2045C29.491 68.2045 28.2866 68.7299 27.0455 69.3715C24.502 70.6868 23.956 72.3959 26.319 71.6457C27.7077 71.2052 27.8484 71.5081 27.8484 74.9462C27.8484 78.1496 27.6014 78.7965 26.2418 79.1521C25.3448 79.3869 24.8607 79.9367 25.1459 80.3986C25.4266 80.8528 24.4294 82.6583 22.929 84.411C19.1843 88.7859 19.4496 90.2993 24.1572 91.4226C26.1645 91.9013 26.1806 91.9534 25.0289 94.2612C23.6861 96.953 24.1335 100.624 26.0644 102.757C29.0605 106.068 33.2014 103.102 33.2014 97.6459C33.2014 93.4575 33.313 93.4438 41.9558 96.5714C46.9318 98.3716 48.4956 99.2732 48.4956 100.341C48.4956 101.216 47.8456 101.838 46.775 101.989C43.5426 102.449 45.0467 103.763 49.0691 103.994C52.287 104.18 53.0839 103.991 53.0839 103.039C53.0839 102.362 52.427 101.852 51.5544 101.852C50.7132 101.852 50.025 101.351 50.025 100.738C50.025 99.7794 50.4219 99.7679 52.8927 100.653C62.4103 104.063 81.5112 113.565 84.1471 116.2C84.8637 116.917 85.9962 117.509 86.6646 117.516C87.5677 117.525 87.9378 118.457 88.1114 121.161C88.3186 124.391 88.1703 124.793 86.7731 124.793C85.909 124.793 85.2017 125.137 85.2017 125.558C85.2017 125.978 86.9223 126.322 89.0252 126.322C91.1282 126.322 92.8488 125.978 92.8488 125.558C92.8488 125.137 92.3326 124.793 91.7017 124.793C90.937 124.793 90.5546 124.028 90.5546 122.499C90.5546 121.237 90.8131 120.206 91.1282 120.207C92.7815 120.214 109.522 133.684 116.071 140.276L123.615 147.872L121.281 149.291C116.942 151.931 116.084 156.119 119.195 159.476C120.226 160.588 121.73 161.499 122.537 161.499C123.718 161.499 124.128 162.284 124.634 165.514C124.98 167.722 125.201 170.131 125.124 170.867C125.047 171.604 125.496 172.205 126.123 172.205C126.748 172.205 127.261 172.512 127.261 172.887C127.261 174.533 134.38 181.261 138.948 183.932L143.944 186.855L142.677 189.084C141.783 190.655 140.815 191.314 139.4 191.318C138.296 191.321 136.392 191.523 135.169 191.768C132.987 192.204 132.949 192.156 133.224 189.274C133.429 187.123 133.063 185.775 131.857 184.241C129.881 181.73 127.834 181.573 125.644 183.763C124.297 185.11 124.083 186.054 124.362 189.418L124.697 193.456L116.611 195.55C105.335 198.471 93.4667 202.881 81.4622 208.611C75.8309 211.3 71.0989 213.499 70.9475 213.499C70.7961 213.499 70.6722 211.799 70.6722 209.721C70.6722 207.643 70.338 205.736 69.9296 205.484C68.895 204.844 64.4023 207.282 64.9583 208.181C65.2443 208.644 65.9593 208.622 66.8953 208.122C68.2794 207.381 68.3781 207.609 68.3781 211.561C68.3781 215.283 68.1938 215.794 66.8486 215.794C66.0074 215.794 65.3192 216.091 65.3192 216.455C65.3192 216.819 62.3904 218.912 58.8115 221.108C51.7265 225.452 41.3693 233.336 34.7308 239.438C31.295 242.595 30.0148 243.305 27.7375 243.313C20.8077 243.338 8.70085 248.994 3.18652 254.783C-0.247025 258.387 -0.50932 260.914 2.31934 263.138C5.24665 265.441 8.65343 266.196 20.482 267.161C33.5532 268.229 45.4161 267.202 50.7767 264.539L54.2309 262.823L54.068 258.85L53.9051 254.876L60.2905 247.761C72.3607 234.312 84.2511 224.196 98.1788 215.529L103.866 211.99L104.667 214.448C105.192 216.065 106.193 217.162 107.586 217.651C110.876 218.805 113.092 216.17 113.167 211.016L113.224 207.042L117.816 204.975C120.34 203.838 125.945 201.676 130.27 200.171C136.885 197.869 138.044 197.647 137.572 198.776C137.263 199.514 136.226 202.306 135.266 204.981C133.599 209.629 133.48 209.764 132.571 208.039C129.731 202.652 124.202 204.997 124.202 211.588C124.202 216.675 128.167 219.934 130.96 217.142C131.711 216.391 131.781 217.139 131.304 220.774C130.164 229.444 130.606 249.322 132.078 255.64C133.552 261.964 134.281 262.695 140.095 263.674C142.459 264.073 143.485 264.912 146.192 268.667L149.447 273.181L147.339 273.949C141.924 275.923 140.384 276.646 136.793 278.906C128.896 283.876 125.3 291.495 130.242 292.788C131.066 293.003 131.87 294.089 132.116 295.321C132.754 298.513 137.046 299.825 140.415 297.858C142.816 296.455 142.855 296.458 144.574 298.177C148.003 301.605 152.644 300.146 157.104 294.238C161.27 288.721 166.47 285.234 170.078 285.538L172.761 285.765V290.337C172.761 294.565 172.919 294.984 174.858 295.919C179.816 298.31 186.124 291.296 185 284.641C184.342 280.747 182.487 278.435 177.206 274.93C169.204 269.618 158.041 254.386 152.923 241.794C150.581 236.032 148.153 227.186 147.441 221.823L146.946 218.088H149.676C152.772 218.088 154.243 216.672 151.809 216.035C150.369 215.659 150.202 215.057 150.202 210.262C150.202 205.286 150.094 204.938 148.673 205.309C147.38 205.647 147.145 205.335 147.154 203.295C147.159 201.968 147.373 200.104 147.627 199.154C148.082 197.455 148.137 197.47 151.012 200.067C154.662 203.364 157.126 204.623 162.327 205.845C170.22 207.701 179.623 205.153 185.94 199.446L188.993 196.687L193.471 198.227C205.339 202.31 214.759 208.884 217.71 215.144C218.452 216.717 219.026 219.752 219.026 222.096C219.026 229.943 213.632 237.525 200.568 248.045C196.296 251.485 194.388 255.24 194.703 259.589C194.92 262.579 195.198 262.953 198.392 264.539C203.752 267.201 215.853 268.258 228.81 267.194C234.575 266.722 240.495 265.922 241.967 265.418C246.354 263.915 248.85 261.799 248.85 259.581C248.85 256.78 243.019 251.415 236.668 248.371L231.547 245.917L233.684 242.517C238.889 234.237 239.877 225.087 236.346 217.871C231.278 207.511 215.177 198.029 195.097 193.576C191.833 192.853 190.776 192.31 191.082 191.514C191.31 190.919 191.499 189.687 191.502 188.775C191.507 187.638 192.445 186.609 194.489 185.5L197.47 183.882L198.952 185.867C200.289 187.658 200.634 187.762 202.465 186.928C203.838 186.303 204.496 185.411 204.496 184.177C204.496 181.48 207.044 178.718 210.483 177.688C212.15 177.188 213.721 176.241 213.973 175.584C214.636 173.858 213.106 171.44 211.352 171.44C209.56 171.44 209.571 171.527 210.931 168.284C213.042 163.256 226.085 157.36 240.378 154.971C256.703 152.243 276.476 155.017 290.456 161.999C293.361 163.45 296.567 165.288 297.578 166.084C300.343 168.258 301.615 167.309 301.615 163.069C301.615 153.519 295.888 139.927 288.599 132.171C284.81 128.139 283.954 127.612 280.251 127.027C277.982 126.668 275.802 126.051 275.407 125.656C275.012 125.261 274.037 122.14 273.241 118.719C271.783 112.459 269.485 106.996 267.897 106.014C267.291 105.639 267.343 105.291 268.077 104.826C269.904 103.669 272.378 104.096 274.6 105.953C278.483 109.199 281.714 109.332 283.33 106.312C284.716 103.723 282.808 99.8429 278.803 97.1083C271.845 92.3556 271.8 91.2796 278.262 84.2382C283.485 78.5464 284.88 75.145 283.546 71.3521C282.566 68.5662 279.363 67.5767 276.787 69.2652C275.684 69.987 274.447 71.4591 274.038 72.5351C272.814 75.7537 268.848 80.8062 266.419 82.2415C264.164 83.5729 264.144 83.5691 264.153 81.8217C264.158 80.8513 264.67 78.1649 265.291 75.8516C266.807 70.2035 266.721 67.5316 264.929 64.5928C262.534 60.6645 257.348 60.4939 256.139 64.3037C255.735 65.577 255.394 65.6504 253.391 64.8941C249.251 63.331 248.534 64.5484 247.975 74.0935C247.528 81.7055 246.068 87.3223 244.535 87.3223C244.287 87.3223 242.421 86.1018 240.39 84.6098C236.753 81.941 235.29 79.6698 236.227 78.1526C236.49 77.7282 236.529 77.381 236.316 77.381C235.483 77.381 228.85 87.466 222.484 98.4106C218.814 104.719 215.448 110.225 215.002 110.646C211.935 113.544 231.863 81.5411 235.561 77.6296C237.742 75.324 239.69 72.8104 239.89 72.0441C240.407 70.0696 238.129 63.7853 235.042 58.6655C231.478 52.7574 221.994 43.8485 214.757 39.612C205.13 33.9769 196.207 31.1589 182.893 29.55C180.196 29.2234 179.249 28.7784 179.213 27.8194C179.129 25.6117 177.846 29.5905 175.085 40.6092C171.689 54.1644 168.953 68.4729 167.394 80.8222C166.704 86.2899 165.84 92.6561 165.474 94.9694C164.892 98.6491 164.858 98.4106 165.199 93.0576C166.405 74.1211 176.744 24.2069 179.151 25.695C180.01 26.2258 181.422 20.2855 180.71 19.1338C179.957 17.9141 170.559 17.5516 165.032 18.5289ZM6.62772 24.0196C4.49647 25.0481 4.35347 26.4689 6.43654 25.9237C7.82678 25.5605 7.96596 25.9008 7.96596 29.6585C7.96596 33.2825 7.77708 33.7926 6.43654 33.7926C5.59536 33.7926 4.90712 34.1367 4.90712 34.5573C4.90712 34.9779 6.79978 35.322 9.11303 35.322C11.4263 35.322 13.3189 34.9779 13.3189 34.5573C13.3189 34.1367 12.6307 33.7926 11.7895 33.7926C10.4054 33.7926 10.2601 33.2825 10.2601 28.4396C10.2601 22.7784 9.95956 22.4129 6.62772 24.0196ZM25.0893 25.8426C23.9186 28.6453 24.2084 32.4696 25.7363 34.3661C26.8772 35.7823 30.4867 35.5246 31.9358 33.9233C33.3689 32.3404 33.6457 26.875 32.4099 24.5656C31.8578 23.534 30.8048 23.0866 28.9297 23.0866C26.5652 23.0866 26.1018 23.4185 25.0893 25.8426ZM46.3926 24.0196C44.0136 25.1674 44.2209 26.4246 46.6878 25.8052C48.6118 25.3226 48.6814 25.409 48.2172 27.7299C47.9496 29.0667 47.7309 30.9777 47.7309 31.9764C47.7309 33.3001 47.3042 33.7926 46.1563 33.7926C45.2907 33.7926 44.7944 34.1367 45.0544 34.5573C45.6371 35.5002 53.0839 35.5827 53.0839 34.6467C53.0839 34.2751 52.3528 33.7796 51.4596 33.5463C50.1565 33.2053 49.9325 32.7373 50.324 31.1765C50.9755 28.5795 50.0495 23.0736 48.9712 23.1386C48.4994 23.1669 47.3386 23.5638 46.3926 24.0196ZM65.7429 24.2612C64.6738 25.0688 64.488 25.6201 65.0829 26.2151C65.6779 26.81 66.0564 26.8092 66.425 26.212C67.6042 24.3048 68.3781 25.6423 68.3781 29.5867C68.3781 33.2825 68.193 33.7926 66.8486 33.7926C66.0074 33.7926 65.3192 34.1367 65.3192 34.5573C65.3192 34.9779 67.0398 35.322 69.1428 35.322C71.2457 35.322 72.9663 34.9779 72.9663 34.5573C72.9663 34.1367 72.4501 33.7926 71.8192 33.7926C70.9092 33.7926 70.6722 32.6883 70.6722 28.4396C70.6722 23.391 70.5743 23.0881 68.9516 23.1111C68.0056 23.1241 66.5611 23.6418 65.7429 24.2612ZM86.0543 24.1519C84.1166 25.2255 84.9356 26.4926 87.0446 25.6836C88.067 25.2913 88.2605 25.8992 88.2605 29.5048C88.2605 33.2825 88.0785 33.7926 86.7311 33.7926C85.8899 33.7926 85.2017 34.1367 85.2017 34.5573C85.2017 34.9779 86.9223 35.322 89.0252 35.322C91.1282 35.322 92.8488 34.9779 92.8488 34.5573C92.8488 34.1367 92.3326 33.7926 91.7017 33.7926C90.7917 33.7926 90.5546 32.6883 90.5546 28.4396C90.5546 22.5926 89.9337 22.0015 86.0543 24.1519ZM106.422 23.9125C104.592 24.9785 104.729 26.4169 106.614 25.9237C108.004 25.5605 108.143 25.9008 108.143 29.6585C108.143 33.2825 107.954 33.7926 106.614 33.7926C105.772 33.7926 105.084 34.1367 105.084 34.5573C105.084 34.9779 106.805 35.322 108.908 35.322C111.011 35.322 112.731 34.9779 112.731 34.5573C112.731 34.1367 112.215 33.7926 111.584 33.7926C110.674 33.7926 110.437 32.6883 110.437 28.4396C110.437 23.8422 110.248 23.0897 109.099 23.1096C108.362 23.1226 107.159 23.4835 106.422 23.9125ZM30.6656 25.8013C30.8124 26.2426 29.8948 27.3713 28.6261 28.3096L26.319 30.0149V28.2331C26.319 25.266 29.8328 23.3 30.6656 25.8013ZM30.9516 31.7653C30.151 33.8706 28.3432 34.4472 27.3881 32.9009C27.0654 32.3794 27.7589 31.2744 29.0635 30.2336C31.5374 28.2591 32.1086 28.7218 30.9516 31.7653ZM219.82 39.3367C222.479 40.704 226.841 43.9762 229.518 46.6099C232.194 49.2435 233.974 50.6345 233.475 49.7016C231.811 46.5923 225.482 41.0825 221.129 38.9544C215.079 35.9965 213.96 36.323 219.82 39.3367ZM6.35166 46.707C4.87194 47.9053 4.52477 48.9048 4.52477 51.9605C4.52477 56.3859 5.79266 58.2633 8.78114 58.2633C11.5892 58.2633 13.3189 55.7764 13.3189 51.7395C13.3189 46.4898 9.77832 43.9326 6.35166 46.707ZM26.1278 46.8538C24.2979 47.9198 24.4348 49.3582 26.319 48.865C27.6909 48.5063 27.8484 48.842 27.8484 52.128C27.8484 55.1479 27.58 55.8613 26.319 56.1909C23.2173 57.0015 24.8615 58.16 28.9955 58.0759C33.1693 57.991 34.6207 56.9617 31.6574 56.1871C30.6549 55.9248 30.1601 55.2128 30.2473 54.1553C30.3207 53.2605 30.3268 51.0658 30.2618 49.2779C30.1357 45.8337 29.0115 45.1745 26.1278 46.8538ZM46.0103 46.8538C43.9823 48.0353 44.3685 49.3284 46.5838 48.7725C48.4298 48.309 48.4956 48.4222 48.4956 52.0775C48.4956 55.2977 48.2624 55.8996 46.9356 56.1068C43.7949 56.5993 45.166 57.887 49.0691 58.1119C51.7112 58.264 53.0839 58.0438 53.0839 57.4672C53.0839 56.9847 52.3956 56.4104 51.5544 56.1909C50.2261 55.8437 50.025 55.1479 50.025 50.9091C50.025 45.7297 49.2626 44.9596 46.0103 46.8538ZM10.748 48.7044C11.0118 49.6014 7.29455 52.4943 6.67513 51.8741C6.44266 51.6417 6.4786 50.5535 6.7539 49.4553C7.1286 47.9634 7.66849 47.5191 8.88897 47.6988C9.7875 47.8311 10.6241 48.2838 10.748 48.7044ZM11.489 52.5907C11.2336 53.256 11.0248 54.299 11.0248 54.9085C11.0248 56.4777 8.93102 57.0872 7.5316 55.9263C6.49236 55.0637 6.60707 54.738 8.49743 53.1917C11.0202 51.127 12.1367 50.9022 11.489 52.5907ZM263.785 64.6463C265.24 66.7248 265.214 71.7765 263.716 77.5562C262.432 82.5099 262.643 84.2634 264.519 84.2634C266.391 84.2634 272.319 78.3522 274.066 74.7435C274.939 72.9404 276.308 70.8726 277.109 70.1484C280.165 67.3832 283.736 70.9949 282.761 75.8661C282.498 77.1837 280.208 80.5079 277.428 83.6088C270.75 91.0556 270.839 92.9544 278.094 97.9104C281.627 100.325 282.908 102.574 282.367 105.424C281.939 107.679 278.26 107.637 275.537 105.346C272.696 102.955 270.086 102.869 265.256 105.005C262.334 106.298 260.649 106.543 256.99 106.212C254.105 105.95 252.802 106.053 253.49 106.488C254.092 106.869 255.252 107.186 256.066 107.193C257.381 107.203 257.304 107.459 255.389 109.458L253.229 111.712L250.849 109.928C247.731 107.592 242.354 104.911 240.788 104.911C239.703 104.911 239.739 104.6 241.073 102.425C241.911 101.059 242.838 98.2194 243.133 96.1164C243.426 94.0135 244.723 90.2282 246.013 87.7046C248.087 83.6501 248.398 82.1819 248.688 75.0869C248.868 70.6707 249.365 66.6277 249.791 66.1016C250.909 64.7228 252.451 64.9231 254.203 66.6751C256.049 68.5219 256.243 73.5483 254.697 79.5085C253.503 84.1105 253.792 84.6687 255.389 80.8467C256.077 79.1995 256.497 75.5947 256.497 71.3314C256.497 65.2627 256.68 64.3397 258.076 63.3616C260.015 62.0035 262.292 62.5158 263.785 64.6463ZM7.01007 69.4066C4.57982 70.725 4.15923 72.3684 6.43654 71.6457C7.82831 71.2037 7.96596 71.5081 7.96596 75.0357C7.96596 78.4004 7.76484 78.9105 6.43654 78.9105C5.58695 78.9105 4.90712 79.4205 4.90712 80.0575C4.90712 80.9385 5.88442 81.2046 9.11303 81.2046C12.3416 81.2046 13.3189 80.9385 13.3189 80.0575C13.3189 79.4205 12.6391 78.9105 11.7895 78.9105C10.4054 78.9105 10.2601 78.4004 10.2601 73.5575C10.2601 70.6133 10.0024 68.2183 9.68656 68.2351C9.37073 68.2519 8.16708 68.7788 7.01007 69.4066ZM245.263 75.4693C245.267 77.9928 245.41 78.9326 245.58 77.5584C245.75 76.1843 245.747 74.1195 245.573 72.9702C245.398 71.8208 245.259 72.9457 245.263 75.4693ZM269.488 75.2781C267.34 78.8026 267.603 79.7027 269.879 76.6163C271.709 74.1356 272.243 72.7928 271.397 72.7928C271.181 72.7928 270.322 73.9115 269.488 75.2781ZM5.98154 92.7555C4.01241 94.9311 4.01241 100.361 5.98154 102.536C9.11302 105.996 13.3189 103.291 13.3189 97.8164C13.3189 91.9144 9.26979 89.1216 5.98154 92.7555ZM10.1981 93.7474C10.9086 94.6038 10.6195 95.1544 8.76202 96.4758L6.43654 98.1322V96.3214C6.43654 94.5977 7.67766 92.6752 8.79032 92.6752C9.07479 92.6752 9.70873 93.1578 10.1981 93.7474ZM30.1425 93.4652C31.1076 94.1106 30.9256 94.5534 28.9955 96.2587C27.1082 97.9257 26.6585 98.0657 26.462 97.0494C26.1989 95.6951 27.5777 92.6684 28.4487 92.6867C28.7493 92.6936 29.5117 93.0438 30.1425 93.4652ZM283.014 98.0282C283.844 99.5003 284.936 101.565 285.44 102.616C286.307 104.421 286.334 104.378 285.938 101.852C285.707 100.378 284.617 98.3165 283.512 97.2635L281.504 95.3517L283.014 98.0282ZM11.7895 97.5961C11.7895 99.3879 10.0291 101.852 8.74979 101.852C6.6866 101.852 6.78142 100.037 8.92185 98.5436C10.6386 97.3468 11.7895 96.966 11.7895 97.5961ZM31.672 98.0787C31.672 99.8268 30.0164 101.852 28.5864 101.852C26.5629 101.852 26.6838 100.023 28.8043 98.5436C30.8598 97.1098 31.672 96.9783 31.672 98.0787ZM228.569 116.449C222.216 122.878 213.843 129.906 206.408 135.049L203.349 137.166L206.365 134.612C218.991 123.917 230.477 113.872 232.36 111.878C233.595 110.569 234.793 109.499 235.021 109.499C235.248 109.499 232.346 112.626 228.569 116.449ZM213.143 114.146C212.383 115.44 211.273 116.903 210.675 117.396C210.078 117.889 210.554 116.831 211.733 115.043C214.208 111.29 215.184 110.669 213.143 114.146ZM6.15895 115.239C3.33258 118.065 3.73711 123.992 6.89843 126.062C8.70543 127.247 8.93867 127.231 10.8772 125.789C13.4971 123.84 14.2083 117.867 12.0985 115.535C10.5232 113.795 7.7419 113.656 6.15895 115.239ZM26.4888 115.03C24.5487 115.964 24.6236 117.654 26.5897 117.303C27.6213 117.119 27.8484 117.774 27.8484 120.936C27.8484 124.283 27.6465 124.793 26.319 124.793C25.4778 124.793 24.7896 125.137 24.7896 125.558C24.7896 125.978 26.6822 126.322 28.9955 126.322C31.3087 126.322 33.2014 125.978 33.2014 125.558C33.2014 125.137 32.5131 124.793 31.672 124.793C30.2878 124.793 30.1425 124.283 30.1425 119.44C30.1425 113.772 29.8451 113.413 26.4888 115.03ZM46.5838 114.988C44.4648 116.172 44.4579 116.181 45.0246 117.097C45.3771 117.667 45.9782 117.675 47.0128 117.121C48.3969 116.38 48.4956 116.608 48.4956 120.56C48.4956 124.24 48.3021 124.793 47.0113 124.793C46.1946 124.793 45.3144 125.137 45.0544 125.558C44.7607 126.033 46.1938 126.322 48.8328 126.322C51.1705 126.322 53.0839 125.978 53.0839 125.558C53.0839 125.137 52.3956 124.793 51.5544 124.793C50.1703 124.793 50.025 124.283 50.025 119.44C50.025 113.815 49.6205 113.292 46.5838 114.988ZM66.0266 115.304C65.2382 116.253 64.0865 116.428 60.7707 116.102L56.525 115.685L60.3486 116.608C63.7982 117.441 64.1928 117.755 64.3817 119.824C64.7686 124.053 65.3276 125.509 66.8869 126.343C69.207 127.584 71.4422 126.495 72.6864 123.518L73.7968 120.861L78.161 123.302C80.5614 124.644 83.9017 126.844 85.584 128.19C89.3732 131.221 90.9745 132.208 90.2809 131.087C89.3976 129.657 80.3733 123.141 76.9918 121.491C74.6709 120.359 73.5223 119.212 72.9403 117.449C71.7986 113.992 68.0745 112.835 66.0266 115.304ZM10.8076 116.876C10.9682 117.359 10.0506 118.5 8.76814 119.413L6.43654 121.074V119.263C6.43654 116.215 9.94885 114.297 10.8076 116.876ZM70.481 116.955C70.6661 117.509 70.1499 117.911 69.2514 117.911C67.5789 117.911 66.5726 116.912 67.4053 116.079C68.1754 115.31 70.1178 115.863 70.481 116.955ZM69.0793 118.892C68.9042 119.011 68.1586 119.569 67.4222 120.132C66.2766 121.009 66.0839 120.978 66.0839 119.916C66.0839 119.153 66.7225 118.675 67.741 118.675C68.6518 118.675 69.2544 118.772 69.0793 118.892ZM207.691 121.543C206.433 123.121 204.275 125.443 202.897 126.705C201.519 127.967 202.433 126.677 204.929 123.838C209.898 118.187 211.292 117.027 207.691 121.543ZM256.121 120.197C253.986 122.556 244.406 128.841 236.504 133.066C229.228 136.956 214.494 143.458 214.023 142.986C213.881 142.844 216.411 141.566 219.645 140.146C231.977 134.733 254.601 121.889 256.112 119.444C256.374 119.021 256.792 118.675 257.043 118.675C257.294 118.675 256.878 119.361 256.121 120.197ZM11.1395 122.155C10.4926 124.587 7.20125 125.931 7.20125 123.763C7.20125 122.803 11.0722 119.233 11.5716 119.732C11.6633 119.824 11.4691 120.914 11.1395 122.155ZM71.2992 121.847C70.962 124.111 68.729 125.451 67.4436 124.161C66.6498 123.365 66.8257 122.904 68.3781 121.71C70.8649 119.796 71.599 119.831 71.2992 121.847ZM265.879 127.589C265.361 127.798 264.329 127.811 263.585 127.617C262.841 127.423 263.264 127.252 264.526 127.236C265.788 127.221 266.397 127.379 265.879 127.589ZM247.32 128.999C247.32 129.209 247.148 129.381 246.938 129.381C246.728 129.381 246.555 129.209 246.555 128.999C246.555 128.789 246.728 128.617 246.938 128.617C247.148 128.617 247.32 128.789 247.32 128.999ZM6.62772 137.961C4.49647 138.99 4.35347 140.411 6.43654 139.866C7.82678 139.502 7.96596 139.843 7.96596 143.6C7.96596 147.224 7.77708 147.734 6.43654 147.734C5.59536 147.734 4.90712 148.078 4.90712 148.499C4.90712 148.92 6.79978 149.264 9.11303 149.264C11.4263 149.264 13.3189 148.92 13.3189 148.499C13.3189 148.078 12.6307 147.734 11.7895 147.734C10.4054 147.734 10.2601 147.224 10.2601 142.381C10.2601 136.72 9.95956 136.355 6.62772 137.961ZM26.5102 137.961C24.3789 138.99 24.2359 140.411 26.319 139.866C27.7092 139.502 27.8484 139.843 27.8484 143.6C27.8484 147.224 27.6595 147.734 26.319 147.734C25.4778 147.734 24.7896 148.078 24.7896 148.499C24.7896 148.92 26.6822 149.264 28.9955 149.264C31.3087 149.264 33.2014 148.92 33.2014 148.499C33.2014 148.078 32.5131 147.734 31.672 147.734C30.2878 147.734 30.1425 147.224 30.1425 142.381C30.1425 136.72 29.842 136.355 26.5102 137.961ZM46.3926 137.961C44.0679 139.082 44.204 140.37 46.5838 139.773C48.4497 139.305 48.4956 139.394 48.4956 143.514C48.4956 147.532 48.4015 147.734 46.5387 147.734C45.4291 147.734 44.786 148.065 45.0544 148.499C45.3144 148.92 47.2269 149.264 49.3054 149.264C51.3839 149.264 53.0839 148.92 53.0839 148.499C53.0839 148.078 52.3956 147.734 51.5544 147.734C50.1703 147.734 50.025 147.224 50.025 142.381C50.025 136.72 49.7245 136.355 46.3926 137.961ZM65.8537 138.39C64.3878 140.009 64.0941 145.445 65.346 147.785C65.8981 148.816 66.9511 149.264 68.8262 149.264C71.209 149.264 71.6518 148.938 72.7193 146.396C73.7677 143.899 73.7876 143.133 72.8715 140.47C71.9875 137.9 71.4461 137.374 69.4861 137.182C67.9536 137.032 66.7064 137.447 65.8537 138.39ZM85.7026 138.427C84.2695 140.01 83.9927 145.475 85.2284 147.785C85.7806 148.816 86.8336 149.264 88.7086 149.264C91.0731 149.264 91.5365 148.932 92.549 146.508C93.7198 143.705 93.4299 139.881 91.9021 137.984C90.7611 136.568 87.1517 136.826 85.7026 138.427ZM106.422 137.854C105.686 138.283 105.084 139.145 105.084 139.77C105.084 140.668 105.403 140.735 106.614 140.087C108.057 139.315 108.143 139.506 108.143 143.502C108.143 147.224 107.959 147.734 106.614 147.734C105.772 147.734 105.084 148.078 105.084 148.499C105.084 148.92 106.805 149.264 108.908 149.264C111.011 149.264 112.731 148.92 112.731 148.499C112.731 148.078 112.215 147.734 111.584 147.734C110.674 147.734 110.437 146.63 110.437 142.381C110.437 137.784 110.248 137.031 109.099 137.051C108.362 137.064 107.159 137.425 106.422 137.854ZM202.967 137.366C202.967 137.551 202.569 137.948 202.084 138.248C201.537 138.587 201.409 138.458 201.747 137.912C202.292 137.03 202.967 136.728 202.967 137.366ZM70.455 139.817C70.6156 140.3 69.6979 141.442 68.4155 142.355C66.4258 143.772 66.0839 143.832 66.0839 142.765C66.0839 139.498 69.5664 137.148 70.455 139.817ZM90.2503 139.449C90.573 139.971 89.8794 141.076 88.5748 142.117C86.101 144.091 85.5297 143.629 86.6867 140.585C87.4874 138.48 89.2952 137.903 90.2503 139.449ZM197.476 140.964C202.377 144.26 205.104 146.837 207.259 150.204C208.263 151.774 209.085 153.204 209.085 153.383C209.085 154.376 203.05 160.706 200.089 162.82C195.542 166.064 195.128 166.573 198.379 164.925C199.851 164.179 203.216 161.368 205.858 158.68C208.5 155.991 210.995 153.997 211.403 154.249C212.335 154.826 212.378 156.911 211.458 156.911C211.081 156.911 208.414 159.245 205.531 162.098C196.132 171.401 184.774 175.465 168.173 175.465C151.572 175.465 140.213 171.401 130.814 162.098C127.931 159.245 125.265 156.911 124.888 156.911C124.51 156.911 124.202 156.415 124.202 155.809C124.202 153.231 125.992 154.075 130.307 158.688C138.683 167.642 150.077 172.09 165.879 172.574L175.055 172.856L166.643 172.258C162.017 171.929 155.995 171.082 153.261 170.377C143.163 167.771 133.088 161.796 129.107 156.051C127.261 153.388 127.216 153.099 128.308 150.986C128.945 149.754 131.62 146.752 134.252 144.315C139.55 139.41 139.181 139.308 141.023 146.205C143.243 154.519 155.957 161.499 168.881 161.499C177.256 161.499 187.284 156.61 189.663 151.367C190.378 149.79 191.255 148.499 191.613 148.499C192.613 148.499 192.38 149.853 191.305 150.287C190.616 150.565 190.603 150.689 191.26 150.733C192.692 150.828 193.25 149.308 192.234 148.083C191.725 147.471 191.633 146.97 192.029 146.97C192.425 146.97 192.682 145.335 192.599 143.337C192.453 139.82 192.692 138.558 193.507 138.558C193.722 138.558 195.508 139.641 197.476 140.964ZM200.673 138.94C200.673 139.15 200.501 139.323 200.291 139.323C200.08 139.323 199.908 139.15 199.908 138.94C199.908 138.73 200.08 138.558 200.291 138.558C200.501 138.558 200.673 138.73 200.673 138.94ZM195.32 141.234C195.32 141.445 195.492 141.617 195.702 141.617C195.913 141.617 196.085 141.445 196.085 141.234C196.085 141.024 195.913 140.852 195.702 140.852C195.492 140.852 195.32 141.024 195.32 141.234ZM70.6936 146.165C69.7683 147.894 68.0102 148.231 67.153 146.843C66.8303 146.321 67.5239 145.213 68.8285 144.169C70.5605 142.781 71.1073 142.63 71.2939 143.49C71.4262 144.098 71.1555 145.302 70.6936 146.165ZM90.5195 146.629C89.4275 147.945 87.791 148.066 87.0614 146.885C86.7716 146.417 87.5241 145.243 88.7369 144.27C90.8643 142.563 90.9454 142.554 91.187 144.015C91.3239 144.845 91.0242 146.021 90.5195 146.629ZM193.79 142.764C193.79 142.974 193.963 143.146 194.173 143.146C194.383 143.146 194.555 142.974 194.555 142.764C194.555 142.553 194.383 142.381 194.173 142.381C193.963 142.381 193.79 142.553 193.79 142.764ZM196.085 142.764C196.085 142.974 196.257 143.146 196.467 143.146C196.677 143.146 196.849 142.974 196.849 142.764C196.849 142.553 196.677 142.381 196.467 142.381C196.257 142.381 196.085 142.553 196.085 142.764ZM212.654 143.656C212.373 143.936 211.914 143.936 211.633 143.656C211.354 143.376 211.583 143.146 212.144 143.146C212.704 143.146 212.933 143.376 212.654 143.656ZM194.178 144.667C193.911 145.1 194.217 145.228 194.898 144.968C196.222 144.459 196.465 143.911 195.365 143.911C194.969 143.911 194.435 144.251 194.178 144.667ZM210.614 144.293C210.614 144.503 210.442 144.676 210.232 144.676C210.021 144.676 209.849 144.503 209.849 144.293C209.849 144.083 210.021 143.911 210.232 143.911C210.442 143.911 210.614 144.083 210.614 144.293ZM208.32 145.058C208.32 145.268 208.148 145.44 207.938 145.44C207.727 145.44 207.555 145.268 207.555 145.058C207.555 144.848 207.727 144.676 207.938 144.676C208.148 144.676 208.32 144.848 208.32 145.058ZM194.81 146.715C195.09 146.995 195.549 146.995 195.83 146.715C196.11 146.434 195.88 146.205 195.32 146.205C194.759 146.205 194.53 146.434 194.81 146.715ZM193.79 148.117C193.79 148.327 193.963 148.499 194.173 148.499C194.383 148.499 194.555 148.327 194.555 148.117C194.555 147.906 194.383 147.734 194.173 147.734C193.963 147.734 193.79 147.906 193.79 148.117ZM126.052 150.272C127.378 151.241 127.378 151.332 126.059 152.651C124.74 153.969 124.649 153.969 123.68 152.644C123.022 151.743 122.672 151.618 122.672 152.284C122.672 152.843 122.071 153.758 121.334 154.317C120.115 155.243 120.109 155.335 121.274 155.357C122.464 155.38 124.089 159.573 123.237 160.425C122.406 161.256 120.128 159.548 119.234 157.424C117.14 152.443 122.02 147.323 126.052 150.272ZM216.225 152.513C217.965 154.844 217.247 158.04 214.587 159.806C212.975 160.877 212.908 160.823 212.908 158.444C212.908 156.256 213.108 156.019 214.629 156.408C216.331 156.845 216.33 156.834 214.51 155.449C213.336 154.555 212.841 153.601 213.143 152.814C213.548 151.757 213.398 151.715 212.092 152.525C210.842 153.299 210.436 153.262 209.838 152.323C208.791 150.678 208.909 150.18 210.423 149.842C212.48 149.384 214.626 150.371 216.225 152.513ZM189.967 151.94C189.967 152.151 190.139 152.323 190.349 152.323C190.56 152.323 190.732 152.151 190.732 151.94C190.732 151.73 190.56 151.558 190.349 151.558C190.139 151.558 189.967 151.73 189.967 151.94ZM7.38096 160.05C5.20689 160.858 3.89464 164.163 4.42612 167.494C4.9683 170.897 6.17807 172.205 8.78114 172.205C11.5892 172.205 13.3189 169.718 13.3189 165.681C13.3189 161.004 10.9239 158.732 7.38096 160.05ZM26.5752 160.335C24.3675 161.882 23.6899 166.1 25.1062 169.488C26.0361 171.714 26.6409 172.205 28.4556 172.205C31.5817 172.205 33.2014 170.081 33.2014 165.982C33.2014 160.729 29.9583 157.965 26.5752 160.335ZM47.2529 160.01C45.2127 160.769 43.8163 164.636 44.4243 167.845C45.0536 171.173 46.0118 172.205 48.4704 172.205C51.4695 172.205 53.0839 170.027 53.0839 165.982C53.0839 161.07 50.7721 158.702 47.2529 160.01ZM67.6133 159.736C65.5188 160.484 64.5545 162.515 64.5545 166.179C64.5545 171.787 68.5715 174.264 71.8284 170.666C73.9421 168.33 73.7379 162.444 71.4797 160.615C69.6444 159.129 69.441 159.083 67.6133 159.736ZM87.4958 159.736C85.4104 160.481 84.437 162.511 84.437 166.115C84.437 170.996 87.742 173.727 91.08 171.604C94.0211 169.734 94.0463 162.424 91.119 160.374C89.3342 159.124 89.2493 159.109 87.4958 159.736ZM106.422 160.796C104.586 161.865 104.729 163.244 106.614 162.646C108.018 162.2 108.143 162.509 108.143 166.419C108.143 170.166 107.96 170.676 106.614 170.676C105.772 170.676 105.084 171.02 105.084 171.44C105.084 171.861 106.805 172.205 108.908 172.205C111.011 172.205 112.731 171.861 112.731 171.44C112.731 171.02 112.215 170.676 111.584 170.676C110.674 170.676 110.437 169.571 110.437 165.323C110.437 160.725 110.248 159.973 109.099 159.993C108.362 160.006 107.159 160.367 106.422 160.796ZM10.748 162.646C11.0118 163.543 7.29455 166.436 6.67513 165.816C6.44266 165.583 6.4786 164.495 6.7539 163.397C7.1286 161.905 7.66849 161.461 8.88897 161.641C9.7875 161.773 10.6241 162.226 10.748 162.646ZM30.6304 162.646C30.8943 163.543 27.177 166.436 26.5576 165.816C26.3251 165.583 26.3611 164.495 26.6364 163.397C27.0111 161.905 27.5509 161.461 28.7714 161.641C29.67 161.773 30.5066 162.226 30.6304 162.646ZM50.5634 162.731C50.8807 163.685 47.0793 166.455 46.3934 165.769C46.151 165.528 46.3567 164.443 46.8507 163.36C47.7454 161.394 49.9921 161.014 50.5634 162.731ZM70.3418 162.349C70.6317 162.817 69.8792 163.991 68.6663 164.964C67.0337 166.275 66.4043 166.461 66.2269 165.684C65.6106 162.992 69.0281 160.222 70.3418 162.349ZM90.5546 162.502C90.5546 163.055 89.5223 164.269 88.2605 165.202C85.8295 166.999 85.5053 166.635 86.712 163.461C87.492 161.409 90.5546 160.645 90.5546 162.502ZM246.523 162.669C258.863 164.902 271.941 174.014 278.224 184.756C279.843 187.527 281.316 189.793 281.495 189.793C281.675 189.793 280.694 187.643 279.315 185.014C275.747 178.211 267.425 170.047 260.511 166.565C254.303 163.439 247.591 161.465 243.527 161.568C241.692 161.615 242.657 161.969 246.523 162.669ZM11.2382 167.871C10.7396 170.469 9.04038 171.313 7.46967 169.743C6.45719 168.729 6.61242 168.421 8.84767 167.005C10.2333 166.128 11.4316 165.476 11.5104 165.557C11.5899 165.639 11.4676 166.679 11.2382 167.871ZM30.9516 168.648C30.151 170.753 28.3432 171.33 27.3888 169.786C27.0699 169.27 27.7605 168.103 29.0307 167.01C31.4426 164.936 32.1377 165.528 30.9516 168.648ZM50.8111 169.106C49.869 170.867 49.3834 170.99 47.7309 169.886C46.7658 169.24 46.9478 168.798 48.8779 167.092C50.7652 165.425 51.2149 165.285 51.4114 166.302C51.5437 166.981 51.273 168.243 50.8111 169.106ZM70.6936 169.106C69.7683 170.835 68.0102 171.172 67.1537 169.786C66.8341 169.269 67.5369 168.092 68.8292 166.981C70.6844 165.385 71.0943 165.271 71.2939 166.302C71.4262 166.981 71.1555 168.243 70.6936 169.106ZM90.5195 169.571C89.4137 170.904 87.7887 171.004 87.0354 169.784C86.7127 169.262 87.4063 168.154 88.7109 167.108C90.9049 165.35 90.9408 165.347 91.187 166.895C91.3239 167.759 91.0242 168.963 90.5195 169.571ZM193.408 166.852C193.148 167.273 193.28 167.617 193.7 167.617C194.121 167.617 194.678 167.273 194.938 166.852C195.198 166.432 195.066 166.087 194.645 166.087C194.225 166.087 193.668 166.432 193.408 166.852ZM126.496 167.234C126.496 167.445 126.324 167.617 126.114 167.617C125.903 167.617 125.731 167.445 125.731 167.234C125.731 167.024 125.903 166.852 126.114 166.852C126.324 166.852 126.496 167.024 126.496 167.234ZM191.496 167.999C191.496 168.209 191.668 168.382 191.879 168.382C192.089 168.382 192.261 168.209 192.261 167.999C192.261 167.789 192.089 167.617 191.879 167.617C191.668 167.617 191.496 167.789 191.496 167.999ZM209.143 170.14C208.461 171.934 208.579 172.132 210.46 172.349C212.049 172.532 212.526 173.001 212.526 174.379C212.526 175.785 211.867 176.396 209.467 177.218C205.959 178.419 203.732 180.775 203.732 183.284C203.732 184.238 203.216 185.446 202.585 185.97C200.851 187.408 199.153 185.596 199.095 182.244C199.053 179.848 198.954 179.7 198.367 181.159C197.541 183.209 192.28 185.968 184.595 188.381C179.728 189.909 177.288 190.174 168.173 190.167C159.112 190.16 156.589 189.885 151.758 188.375C140.648 184.902 132.951 179.79 128.671 173.041C127.475 171.154 126.496 169.37 126.496 169.076C126.496 168.781 128.493 170.495 130.935 172.885C135.855 177.698 143.726 181.973 151.731 184.179C158.656 186.087 176.831 186.12 183.849 184.237C192.407 181.941 200.61 177.417 205.289 172.412C207.587 169.954 209.563 167.994 209.68 168.057C209.797 168.118 209.555 169.056 209.143 170.14ZM189.202 168.764C189.202 168.974 189.374 169.146 189.585 169.146C189.795 169.146 189.967 168.974 189.967 168.764C189.967 168.554 189.795 168.382 189.585 168.382C189.374 168.382 189.202 168.554 189.202 168.764ZM184.996 169.911C183.988 170.345 183.858 170.582 184.614 170.61C185.245 170.634 186.277 170.319 186.908 169.911C188.306 169.008 187.099 169.008 184.996 169.911ZM181.412 171.198C181.963 171.419 182.623 171.391 182.877 171.138C183.131 170.884 182.68 170.703 181.874 170.736C180.983 170.773 180.802 170.954 181.412 171.198ZM176.393 171.967C177.129 172.16 178.334 172.16 179.07 171.967C179.805 171.775 179.204 171.618 177.732 171.618C176.26 171.618 175.658 171.775 176.393 171.967ZM206.998 175.236C205.13 176.084 203.112 177.774 202.221 179.234C200.567 181.947 200.192 184.44 201.438 184.44C201.858 184.44 202.202 183.444 202.202 182.226C202.202 179.689 206.593 175.264 209.111 175.264C209.938 175.264 210.614 174.92 210.614 174.499C210.614 173.541 210.829 173.497 206.998 175.236ZM270.574 185.287C272.124 187.645 274.259 191.947 275.32 194.846C276.89 199.137 277.171 199.552 276.833 197.077C276.294 193.118 272.414 185.281 269.806 182.884C268.025 181.246 268.126 181.562 270.574 185.287ZM6.6369 183.316C4.81536 184.592 3.70194 188.73 4.50259 191.252C5.76589 195.234 10.0192 196.458 12.1283 193.446C13.8619 190.972 13.6745 185.561 11.7895 183.676C9.95497 181.841 8.85226 181.764 6.6369 183.316ZM26.8925 183.348C24.4608 184.668 24.0616 186.338 26.319 185.748C27.6909 185.389 27.8484 185.725 27.8484 189.011C27.8484 192.089 27.5922 192.741 26.2418 193.094C23.4452 193.825 25.4931 195.146 29.423 195.146C32.2715 195.146 33.2014 194.864 33.2014 193.999C33.2014 193.362 32.5216 192.852 31.672 192.852C30.2878 192.852 30.1425 192.342 30.1425 187.499C30.1425 184.555 29.8841 182.16 29.569 182.177C29.254 182.194 28.0495 182.721 26.8925 183.348ZM45.7465 183.756C42.6004 187.233 44.776 195.146 48.8779 195.146C51.5942 195.146 53.0839 192.797 53.0839 188.513C53.0839 182.669 49.0791 180.073 45.7465 183.756ZM66.0839 183.676C64.02 185.74 63.9389 192.058 65.9532 193.881C69.3982 196.999 73.221 194.177 73.221 188.517C73.221 185.745 72.8394 184.658 71.4797 183.556C69.2475 181.749 67.9827 181.777 66.0839 183.676ZM86.517 183.362C84.2045 184.614 84.4201 186.321 86.7953 185.567C88.1076 185.151 88.2605 185.506 88.2605 188.977C88.2605 192.342 88.0594 192.852 86.7311 192.852C85.8815 192.852 85.2017 193.362 85.2017 193.999C85.2017 194.866 86.1361 195.146 89.0252 195.146C91.9143 195.146 92.8488 194.866 92.8488 193.999C92.8488 193.368 92.3487 192.852 91.7369 192.852C90.8972 192.852 90.5692 191.601 90.3986 187.752C90.274 184.946 89.8282 182.552 89.4076 182.431C88.987 182.31 87.6862 182.729 86.517 183.362ZM106.35 183.591C104.187 185.017 104.603 186.4 106.927 185.508C107.94 185.12 108.143 185.692 108.143 188.947C108.143 192.342 107.943 192.852 106.614 192.852C105.764 192.852 105.084 193.362 105.084 193.999C105.084 194.866 106.019 195.146 108.908 195.146C111.797 195.146 112.731 194.866 112.731 193.999C112.731 193.368 112.231 192.852 111.619 192.852C110.78 192.852 110.452 191.601 110.281 187.752C110.156 184.946 109.711 182.539 109.29 182.404C108.869 182.268 107.546 182.802 106.35 183.591ZM10.605 185.144C11.0646 185.889 7.22113 189.303 6.61013 188.693C6.4136 188.496 6.47248 187.459 6.74166 186.388C7.22878 184.447 9.68503 183.657 10.605 185.144ZM50.5091 185.588C50.7859 186.512 47.0511 189.368 46.4072 188.724C46.1571 188.475 46.3567 187.385 46.8507 186.301C47.724 184.385 50.0158 183.937 50.5091 185.588ZM70.6485 185.396C70.6194 186.55 66.9312 189.367 66.2896 188.724C66.0396 188.475 66.2285 187.409 66.7079 186.355C67.6072 184.382 70.6928 183.631 70.6485 185.396ZM130.32 185.5C130.32 186.082 129.459 187.122 128.408 187.811C126.555 189.026 126.496 189.008 126.496 187.262C126.496 186.271 126.725 185.23 127.006 184.951C127.931 184.024 130.32 184.421 130.32 185.5ZM11.3039 190.367C10.5476 193.459 8.32537 194.678 7.47731 192.468C7.2196 191.796 7.78472 190.696 8.83926 189.817C11.3077 187.761 11.9088 187.895 11.3039 190.367ZM51.5544 189.739C51.5544 191.288 49.6694 193.617 48.4168 193.617C46.7712 193.617 46.8882 191.247 48.6042 189.817C50.8922 187.911 51.5544 187.893 51.5544 189.739ZM70.6936 192.048C69.7515 193.808 69.2659 193.931 67.6133 192.827C66.6483 192.182 66.8303 191.739 68.7604 190.034C70.6477 188.366 71.0974 188.227 71.2939 189.243C71.4262 189.922 71.1555 191.184 70.6936 192.048ZM131.084 190.199C131.084 192.326 129.532 193.306 127.452 192.493C126.286 192.037 126.408 191.732 128.408 190.121C129.67 189.104 130.788 188.27 130.893 188.268C130.998 188.266 131.084 189.135 131.084 190.199ZM5.98154 206.697C4.01241 208.873 4.01241 214.302 5.98154 216.478C9.11302 219.938 13.3189 217.233 13.3189 211.758C13.3189 205.856 9.26979 203.063 5.98154 206.697ZM25.864 206.697C23.8949 208.873 23.8949 214.302 25.864 216.478C29.1308 220.087 33.2014 217.228 33.2014 211.324C33.2014 205.609 29.1568 203.059 25.864 206.697ZM45.8099 206.627C43.9264 208.709 43.9264 214.467 45.8099 216.548C49.0164 220.091 53.0839 217.169 53.0839 211.324C53.0839 205.665 49.0424 203.055 45.8099 206.627ZM10.1981 207.689C10.9086 208.546 10.6195 209.096 8.76202 210.418C6.77607 211.832 6.43654 211.892 6.43654 210.824C6.43654 209.233 7.82143 206.617 8.66414 206.617C9.0182 206.617 9.70873 207.1 10.1981 207.689ZM30.9073 208.11C30.9073 208.705 28.8884 210.599 27.2749 211.517C25.8785 212.311 26.0544 209.284 27.4882 207.851C28.6009 206.738 30.9073 206.912 30.9073 208.11ZM50.7897 208.11C50.7897 208.705 48.7709 210.599 47.1573 211.517C45.761 212.311 45.9369 209.284 47.3707 207.851C48.4834 206.738 50.7897 206.912 50.7897 208.11ZM130.21 207.632C130.857 208.412 130.525 209.037 128.774 210.331L126.496 212.016V210.234C126.496 208.535 127.744 206.617 128.85 206.617C129.134 206.617 129.747 207.074 130.21 207.632ZM147.908 211.97C147.908 214.073 147.564 215.794 147.143 215.794C146.723 215.794 146.378 214.073 146.378 211.97C146.378 209.867 146.723 208.146 147.143 208.146C147.564 208.146 147.908 209.867 147.908 211.97ZM108.699 210.441C107.63 211.282 106.465 211.959 106.11 211.945C105.201 211.909 108.907 208.911 109.861 208.911C110.291 208.911 109.769 209.599 108.699 210.441ZM11.7895 211.538C11.7895 213.33 10.0291 215.794 8.74979 215.794C6.6866 215.794 6.78142 213.979 8.92185 212.485C10.6386 211.289 11.7895 210.908 11.7895 211.538ZM31.672 212.02C31.672 213.769 30.0164 215.794 28.5864 215.794C26.5629 215.794 26.6838 213.965 28.8043 212.485C30.8598 211.052 31.672 210.92 31.672 212.02ZM51.5437 211.779C51.4994 214.236 50.4303 215.794 48.7885 215.794C46.4974 215.794 46.4569 214.552 48.6868 212.692C50.5114 211.169 51.5613 210.834 51.5437 211.779ZM110.884 213.896C110.51 215.387 109.97 215.832 108.749 215.652C106.341 215.297 106.322 214.03 108.703 212.586C111.21 211.065 111.544 211.266 110.884 213.896ZM131.084 213.141C131.084 215.266 129.533 216.246 127.452 215.437C126.271 214.978 126.366 214.699 128.259 213.061C130.929 210.752 131.084 210.756 131.084 213.141ZM44.2897 227.023C41.4817 228.526 37.6306 231.657 36.7726 233.136C36.2021 234.119 37.444 233.28 45.1209 227.498C47.7645 225.507 47.4548 225.33 44.2897 227.023ZM127.725 230.768C127.061 232.497 127.15 241.635 127.834 242.057C128.149 242.251 128.408 239.518 128.408 235.983C128.408 232.45 128.359 229.558 128.298 229.558C128.238 229.558 127.98 230.103 127.725 230.768ZM14.3666 251.631C16.6714 254.037 18.6719 259.683 18.6719 263.781V266.408L14.6572 265.893C6.48166 264.844 1.08357 262.408 1.08357 259.767C1.08357 257.742 9.66591 249.441 11.7612 249.441C12.0403 249.441 13.2126 250.427 14.3666 251.631ZM162.099 253.973C164.153 257.748 168.555 262.657 168.555 261.173C168.555 260.739 167.871 259.764 167.034 259.007C166.198 258.251 164.442 255.961 163.131 253.918C160.049 249.117 159.472 249.147 162.099 253.973ZM242.701 253.313C244.863 255.021 247.033 257.298 247.522 258.373C248.314 260.11 248.18 260.525 246.325 262.122C243.978 264.141 240.182 265.336 235.085 265.662L231.644 265.882L231.888 262.109C232.022 260.034 232.665 257.281 233.315 255.991C234.62 253.408 237.328 250.206 238.209 250.206C238.518 250.206 240.54 251.603 242.701 253.313ZM169.138 258.243C169.581 259.089 170.713 260.466 171.654 261.302C173.364 262.822 173.365 262.822 172.561 261.285C172.118 260.44 170.985 259.063 170.044 258.227C168.334 256.707 168.333 256.707 169.138 258.243ZM171.124 271.108C173.204 273.141 176.144 275.592 177.657 276.553C182.114 279.385 183.315 281.199 183.639 285.585C183.866 288.664 183.572 290.166 182.362 292.092C180.451 295.137 177.527 296.441 175.294 295.247C173.942 294.523 173.787 293.925 174.191 290.979C174.449 289.095 174.307 286.892 173.875 286.085C172.832 284.136 168.651 284.147 164.806 286.109C162.006 287.537 154.79 294.772 154.79 296.151C154.79 297.111 150.569 299.147 148.579 299.147C144.855 299.147 142.98 295.085 144.939 291.258C146.214 288.768 151.048 283.885 153.523 282.586C154.719 281.959 155.525 281.274 155.315 281.064C154.548 280.297 150.428 283.054 147.348 286.396C145.611 288.28 143.757 291.268 143.227 293.036C142.524 295.385 141.632 296.553 139.92 297.369C135.16 299.639 131.281 295.799 133.332 290.848C134.512 287.997 139.105 283.336 142.502 281.54C144.003 280.746 144.84 280.082 144.362 280.063C142.425 279.988 135.91 285.225 133.761 288.587C132.499 290.56 131.123 292.083 130.702 291.969C130.281 291.856 129.832 290.52 129.702 288.999C129.502 286.638 129.918 285.784 132.548 283.154C138.038 277.664 151.006 272.457 156.835 273.403C158.309 273.642 159.379 273.491 159.379 273.044C159.379 272.59 157.572 272.355 155.001 272.474L150.625 272.677L147.353 268.515L144.08 264.353L149.353 263.462C152.253 262.972 156.117 261.92 157.939 261.126L161.253 259.681L164.298 263.546C165.973 265.672 169.044 269.075 171.124 271.108Z" fill="#323036"/>
</svg>
