<svg width="302" height="300" viewBox="0 0 302 300" fill="none" xmlns="http://www.w3.org/2000/svg">
<path fill-rule="evenodd" clip-rule="evenodd" d="M149.757 1.04354C144.155 3.10962 136.73 7.24095 131.542 11.1796C128.658 13.37 124.083 16.2596 121.377 17.5994C106.893 24.7751 96.6305 43.5485 99.2434 58.0909C99.7136 60.712 100.345 63.413 100.645 64.0924C101.042 64.9891 100.006 65.946 96.8627 67.5863C81.72 75.4892 68.2332 88.206 63.7914 98.7711L62.6196 101.556L57.4022 101.291C53.0197 101.069 51.7268 101.335 49.3223 102.959C44.5313 106.196 42.5122 109.923 42.9042 114.811C43.1125 117.412 43.9483 119.998 45.1053 121.623C47.4184 124.872 52.6969 127.644 56.857 127.797C59.8717 127.906 60.057 128.081 61.3523 132.029C62.0959 134.293 63.3435 137.443 64.1258 139.028C65.3544 141.516 65.4038 142.304 64.4873 144.792C62.8206 149.321 63.0586 157.256 65.0184 162.494C67.2986 168.589 74.2116 176.057 79.9685 178.644C85.8744 181.299 96.1793 181.307 102.959 178.663C105.522 177.663 108.022 176.359 108.516 175.765C109.249 174.882 110.62 175.032 115.995 176.59C123.058 178.636 135.566 181.018 139.266 181.022L141.531 181.025V194.956V208.889L138.697 210.639C137.139 211.603 134.025 214.403 131.776 216.863L127.688 221.336L126.361 215.385C123.851 204.131 118.837 195.933 112.014 191.928C108.89 190.095 107.177 189.678 102.759 189.675C98.0922 189.672 96.7483 190.037 93.1053 192.3L88.8735 194.928L87.1392 192.493C84.8022 189.211 81.445 187.613 76.8887 187.613C72.5573 187.613 68.9669 189.19 65.2309 192.733L62.6304 195.199L61.3079 193.179C59.4839 190.396 56.5984 189.26 51.353 189.26C41.4524 189.26 32.4214 195.169 27.7169 204.726C22.8923 214.525 24.4346 224.56 31.4176 228.807C33.4244 230.027 34.3146 231.648 36.2291 237.574C37.5203 241.572 38.5818 245.12 38.5876 245.459C38.5933 245.796 32.0204 251.331 23.9809 257.757C15.9414 264.184 9.42936 269.651 9.50924 269.906C9.58912 270.162 9.85098 270.927 10.0914 271.606C10.364 272.378 9.34372 273.768 7.36987 275.312C3.17759 278.592 0.717896 282.274 0.717896 285.272C0.717896 288.19 6.0095 298.509 7.97842 299.43C8.74095 299.786 73.207 300.041 151.236 299.995C290.43 299.913 293.136 299.882 294.633 298.317C296.68 296.178 301.28 287.213 301.282 285.358C301.285 282.722 298.97 279.302 294.84 275.844C291.79 273.29 290.873 272.005 291.094 270.593C291.339 269.033 289.283 267.079 278.655 258.765L265.922 248.805L268.023 246.001C270.987 242.047 275.307 233.328 277.279 227.323C278.199 224.518 280.098 220.798 281.498 219.055C291.087 207.123 288.142 188.586 275.67 182.371C268.616 178.856 261.438 179.674 254.787 184.751L251.07 187.588L247.194 185.13C242.486 182.144 237.209 181.829 233.166 184.295L230.514 185.912L226.487 183.822C223.248 182.142 221.215 181.72 216.117 181.667C209.227 181.596 209.212 181.586 204.567 174.271L203.154 172.047L206.311 170.728C211.926 168.383 221.689 162.271 226.962 157.8C237.238 149.087 244.238 138.189 246.397 127.541L247.474 122.228L251.537 122.444C255.996 122.68 259.793 120.745 262.779 116.712C264.86 113.901 264.883 107.776 262.826 104.253C259.734 98.9588 252.005 96.7676 246.43 99.6044L243.867 100.91L241.768 96.6301C237.493 87.9137 226.734 77.2662 215.539 70.6744C211.005 68.0055 210.896 67.854 210.461 63.6419C209.936 58.5595 208.383 55.2944 204.383 50.8675C199.954 45.9654 195.148 42.7497 180.057 34.5941C164.036 25.9353 160.232 23.4419 156.149 18.9227C151.265 13.5166 150.493 8.4564 153.461 1.30293C154.156 -0.371184 153.685 -0.404121 149.757 1.04354ZM126.83 63.959C130.135 67.6588 130.39 69.7241 128.71 79.1668C127.647 85.1345 127.163 92.4683 127.035 104.537C126.872 119.974 126.698 121.822 125.118 124.917C119.37 136.185 102.153 135.795 96.2699 124.263C90.998 113.93 92.6738 92.4353 99.9853 76.5943C105.062 65.596 111.684 60.4683 120.053 61.0554C123.813 61.3198 124.879 61.776 126.83 63.959ZM162.833 64.9438C172.779 65.9649 181.626 68.1167 190.494 71.6708L197.048 74.2984L194.2 74.9827C186.873 76.7417 177.008 80.0668 173.701 81.8925C170.519 83.6497 169.899 83.7551 168.861 82.7176C167.921 81.7772 167.857 80.9941 168.557 78.9856C169.108 77.4054 169.141 76.4444 168.645 76.4444C167.295 76.4444 165.995 80.318 166.573 82.6204C167.059 84.5564 167.462 84.7705 170.177 84.5366C172.935 84.2986 173.245 84.474 173.347 86.3285C173.409 87.4591 173.122 89.0245 172.711 89.8068C172.129 90.9103 172.242 91.1219 173.216 90.7489C173.906 90.4837 174.47 90.6377 174.47 91.0906C174.47 91.5435 173.914 92.1273 173.234 92.3884C172.555 92.6486 172.029 93.337 172.064 93.9176C172.115 94.7435 172.219 94.7493 172.544 93.9431C173.343 91.9635 174.275 92.9368 174.123 95.59C174.011 97.5425 173.594 98.2358 172.581 98.1535C171.818 98.0917 171.412 98.3948 171.68 98.8271C171.947 99.2594 172.638 99.4323 173.215 99.2116C173.876 98.9572 174.264 99.5048 174.264 100.693C174.264 101.924 173.799 102.544 172.926 102.481C171.243 102.359 171.154 104.598 172.823 105.054C173.902 105.349 173.905 105.285 172.847 104.55C172.18 104.087 171.909 103.435 172.243 103.101C172.577 102.767 173.298 102.941 173.846 103.489C174.623 104.266 174.605 104.86 173.764 106.207C172.992 107.443 172.94 108.183 173.579 108.822C175.005 110.248 174.648 115.24 173.029 116.498C171.661 117.561 171.665 117.678 173.111 118.798C173.949 119.448 174.415 120.334 174.146 120.769C173.584 121.677 175.694 127.141 176.892 127.882C177.331 128.153 177.475 128.941 177.209 129.634C176.891 130.463 177.33 131.049 178.497 131.355C179.91 131.724 180.074 132.052 179.311 132.972C178.784 133.607 178.59 134.365 178.881 134.656C179.173 134.947 179.41 134.713 179.41 134.137C179.41 133.526 179.946 133.293 180.689 133.578C181.487 133.885 181.758 133.731 181.411 133.169C181.105 132.674 181.804 132.891 182.965 133.652C184.126 134.412 184.973 135.47 184.849 136.002C184.724 136.534 184.771 136.707 184.955 136.387C185.472 135.484 193.745 136.605 194.426 137.669C194.866 138.359 195.035 138.336 195.044 137.587C195.051 137.021 195.662 136.558 196.402 136.558C203.406 136.558 212.139 129.164 214.511 121.225C216.381 114.967 216.369 100.524 214.487 92.5868C213.746 89.4634 213.289 86.7592 213.47 86.5772C213.652 86.396 215.487 88.3732 217.548 90.9712C235.708 113.863 229.967 141.751 203.466 159.384C197.5 163.354 195.844 164.073 192.486 164.149C189.374 164.22 187.605 164.876 184.177 167.233C177.783 171.629 169.937 173.142 153.471 173.155C138.846 173.166 131.338 171.955 119.503 167.678L112.71 165.223V161.556C112.71 156.767 110.392 154.582 103.263 152.652C97.1353 150.994 94.0564 148.18 92.1945 142.538C90.6489 137.856 88.5836 135.846 84.6762 135.221C81.5298 134.718 81.3486 134.516 80.0319 130.069C76.1706 117.022 80.3003 100.682 90.1688 89.96C92.2167 87.735 93.7229 86.48 93.5162 87.1709C90.8761 95.9837 90.028 114.143 91.9532 120.629C93.6471 126.34 97.8229 131.662 102.416 133.966C108.825 137.182 108.946 137.22 111.772 136.89C113.727 136.663 114.277 136.852 113.829 137.598C113.372 138.358 113.548 138.348 114.52 137.561C115.237 136.98 116.94 136.424 118.303 136.325C119.668 136.227 120.612 135.868 120.404 135.528C120.052 134.956 121.585 134.6 124.023 134.688C124.585 134.708 124.838 134.393 124.587 133.987C124.337 133.581 125.265 132.603 126.65 131.815C128.035 131.026 129.171 129.897 129.174 129.304C129.176 128.699 129.596 128.483 130.13 128.813C130.672 129.148 130.859 129.042 130.564 128.566C129.996 127.646 131.709 123.399 132.653 123.389C132.978 123.385 133.008 122.765 132.719 122.012C132.419 121.232 132.532 120.851 132.98 121.128C133.412 121.395 133.766 120.927 133.766 120.088C133.766 119.249 133.535 118.706 133.252 118.88C132.969 119.056 132.689 117.917 132.63 116.35C132.564 114.605 132.913 113.496 133.527 113.488C134.166 113.48 134.082 113.18 133.296 112.665C132.199 111.943 132.199 111.764 133.296 111.042C134.122 110.501 134.191 110.228 133.502 110.219C132.054 110.202 132.216 108.011 133.708 107.438C134.387 107.178 134.914 106.489 134.878 105.909C134.827 105.083 134.723 105.077 134.398 105.883C133.434 108.272 132.666 106.587 132.666 102.08C132.666 98.2548 132.928 97.2666 133.922 97.3448C134.613 97.3984 135.338 96.887 135.535 96.2076C135.828 95.1939 135.749 95.1758 135.098 96.1072C134.648 96.7511 133.861 96.9685 133.281 96.6095C132.526 96.1434 132.415 94.4421 132.858 90.1222C133.188 86.9024 133.484 83.8202 133.514 83.2742C133.546 82.7283 133.816 82.4327 134.116 82.6179C134.416 82.8032 134.696 81.5828 134.738 79.9054C134.78 78.2289 134.982 75.9297 135.185 74.7975C135.39 73.6652 135.604 72.4358 135.661 72.066C135.72 71.6955 136.477 71.618 137.344 71.8931C138.212 72.169 139.196 71.9516 139.53 71.4097C139.896 70.8176 139.789 70.6414 139.262 70.9675C138.007 71.7424 135.767 70.7098 135.767 69.3568C135.767 68.726 136.23 68.1801 136.796 68.1447C137.619 68.0928 137.619 67.9964 136.796 67.6646C135.282 67.0536 135.544 65.8521 137.208 65.7739C138.001 65.7368 141.057 65.3992 144.001 65.0245C151.914 64.0174 153.729 64.01 162.833 64.9438ZM139.061 67.798C139.061 68.0244 139.246 68.2097 139.472 68.2097C139.699 68.2097 139.884 68.0244 139.884 67.798C139.884 67.5715 139.699 67.3862 139.472 67.3862C139.246 67.3862 139.061 67.5715 139.061 67.798ZM137.414 69.4449C137.414 69.6714 137.599 69.8567 137.825 69.8567C138.052 69.8567 138.237 69.6714 138.237 69.4449C138.237 69.2185 138.052 69.0332 137.825 69.0332C137.599 69.0332 137.414 69.2185 137.414 69.4449ZM136.59 73.5623C136.59 73.7887 136.775 73.974 137.002 73.974C137.228 73.974 137.414 73.7887 137.414 73.5623C137.414 73.3358 137.228 73.1505 137.002 73.1505C136.775 73.1505 136.59 73.3358 136.59 73.5623ZM138.615 74.0292C138.316 74.5117 138.249 75.084 138.464 75.2998C138.68 75.5155 139.076 75.1203 139.345 74.4211C139.901 72.9702 139.427 72.7149 138.615 74.0292ZM208.235 79.5242C213.753 94.2717 215.189 111.872 211.622 121.053C207.221 132.388 195.471 136.449 186.649 129.685C181.142 125.463 180.397 123.138 179.873 108.56C179.621 101.54 179.054 92.6865 178.613 88.887C178.17 85.0867 177.999 81.6701 178.231 81.2946C179.177 79.7646 198.177 75.0766 204.261 74.8716C206.212 74.8057 206.671 75.3426 208.235 79.5242ZM136.231 77.0266C135.785 78.2 135.879 78.2947 136.692 77.4877C137.256 76.9286 137.508 76.2641 137.255 76.0113C137.001 75.7576 136.541 76.2147 136.231 77.0266ZM138.237 77.6796C138.237 77.9061 138.422 78.0913 138.649 78.0913C138.875 78.0913 139.061 77.9061 139.061 77.6796C139.061 77.4531 138.875 77.2679 138.649 77.2679C138.422 77.2679 138.237 77.4531 138.237 77.6796ZM136.59 79.3265C136.59 79.553 136.775 79.7383 137.002 79.7383C137.228 79.7383 137.414 79.553 137.414 79.3265C137.414 79.1001 137.228 78.9148 137.002 78.9148C136.775 78.9148 136.59 79.1001 136.59 79.3265ZM135.767 80.9735C135.767 81.1999 135.952 81.3852 136.178 81.3852C136.405 81.3852 136.59 81.1999 136.59 80.9735C136.59 80.747 136.405 80.5617 136.178 80.5617C135.952 80.5617 135.767 80.747 135.767 80.9735ZM112.085 83.238C109.627 85.8616 108.174 89.8925 109.524 90.3421C111.863 91.1219 114.357 94.5722 114.357 97.0311C114.357 99.9906 111.202 103.619 108.629 103.619C107.155 103.619 106.945 104.137 106.945 107.777C106.945 113.523 108.745 116.794 111.908 116.794C116.657 116.794 117.647 114.642 117.679 104.236C117.695 99.1416 118.222 92.577 118.849 89.6495C119.608 86.1119 119.726 83.8334 119.203 82.8559C118.09 80.7758 114.195 80.985 112.085 83.238ZM187.701 82.5529C186.954 83.4529 187.025 85.2646 188.012 90.4664C188.717 94.177 189.292 101.005 189.292 105.64C189.292 114.891 190.159 116.794 194.376 116.794C197.649 116.794 199.438 114.088 199.84 108.529C200.173 103.933 200.081 103.619 198.412 103.619C195.753 103.619 192.586 100.038 192.586 97.0311C192.586 94.5615 195.615 90.4434 197.432 90.4434C198.711 90.4434 196.973 85.4844 194.933 83.3121C192.9 81.148 189.19 80.7585 187.701 82.5529ZM135.767 83.4439C135.767 83.6703 135.952 83.8556 136.178 83.8556C136.405 83.8556 136.59 83.6703 136.59 83.4439C136.59 83.2174 136.405 83.0321 136.178 83.0321C135.952 83.0321 135.767 83.2174 135.767 83.4439ZM134.12 85.0908C134.12 85.3173 134.305 85.5025 134.531 85.5025C134.758 85.5025 134.943 85.3173 134.943 85.0908C134.943 84.8644 134.758 84.6791 134.531 84.6791C134.305 84.6791 134.12 84.8644 134.12 85.0908ZM135.117 86.8209C134.532 87.4542 134.418 87.973 134.863 87.973C135.717 87.973 136.955 86.4067 136.467 85.9423C136.309 85.7916 135.701 86.1868 135.117 86.8209ZM170.352 86.7377C170.352 86.9642 170.538 87.1495 170.764 87.1495C170.991 87.1495 171.176 86.9642 171.176 86.7377C171.176 86.5113 170.991 86.326 170.764 86.326C170.538 86.326 170.352 86.5113 170.352 86.7377ZM170.73 88.8516C169.885 90.2186 170.644 90.408 171.826 89.125C172.41 88.4917 172.525 87.973 172.08 87.973C171.636 87.973 171.028 88.3682 170.73 88.8516ZM133.296 89.2082C133.296 89.4346 133.482 89.6199 133.708 89.6199C133.934 89.6199 134.12 89.4346 134.12 89.2082C134.12 88.9817 133.934 88.7964 133.708 88.7964C133.482 88.7964 133.296 88.9817 133.296 89.2082ZM135.767 89.2082C135.767 89.4346 135.952 89.6199 136.178 89.6199C136.405 89.6199 136.59 89.4346 136.59 89.2082C136.59 88.9817 136.405 88.7964 136.178 88.7964C135.952 88.7964 135.767 88.9817 135.767 89.2082ZM135.355 91.2668C135.635 91.7197 136.049 92.0903 136.276 92.0903C136.502 92.0903 136.458 91.7197 136.178 91.2668C135.898 90.8139 135.484 90.4434 135.258 90.4434C135.031 90.4434 135.075 90.8139 135.355 91.2668ZM133.296 92.0903C133.296 92.6939 133.543 92.9409 133.846 92.6395C134.147 92.3373 134.147 91.8432 133.846 91.541C133.543 91.2396 133.296 91.4867 133.296 92.0903ZM170.352 92.502C170.352 92.7285 170.538 92.9138 170.764 92.9138C170.991 92.9138 171.176 92.7285 171.176 92.502C171.176 92.2756 170.991 92.0903 170.764 92.0903C170.538 92.0903 170.352 92.2756 170.352 92.502ZM134.943 93.3255C134.943 93.5519 135.128 93.7372 135.355 93.7372C135.581 93.7372 135.767 93.5519 135.767 93.3255C135.767 93.099 135.581 92.9138 135.355 92.9138C135.128 92.9138 134.943 93.099 134.943 93.3255ZM133.296 94.9724C133.296 95.1989 133.482 95.3842 133.708 95.3842C133.934 95.3842 134.12 95.1989 134.12 94.9724C134.12 94.746 133.934 94.5607 133.708 94.5607C133.482 94.5607 133.296 94.746 133.296 94.9724ZM171.999 96.6194C171.999 96.8458 172.185 97.0311 172.411 97.0311C172.637 97.0311 172.823 96.8458 172.823 96.6194C172.823 96.3929 172.637 96.2076 172.411 96.2076C172.185 96.2076 171.999 96.3929 171.999 96.6194ZM134.943 99.0898C134.943 99.3162 135.128 99.5015 135.355 99.5015C135.581 99.5015 135.767 99.3162 135.767 99.0898C135.767 98.8633 135.581 98.678 135.355 98.678C135.128 98.678 134.943 98.8633 134.943 99.0898ZM134.723 101.251C135.282 101.814 135.947 102.067 136.2 101.813C136.453 101.559 135.996 101.099 135.184 100.789C134.011 100.343 133.916 100.437 134.723 101.251ZM170.627 100.874C170.929 101.176 171.423 101.176 171.725 100.874C172.026 100.572 171.779 100.325 171.176 100.325C170.572 100.325 170.325 100.572 170.627 100.874ZM258.015 102.483C258.748 102.765 259.89 104.043 260.553 105.325C264.228 112.432 258.712 121.404 253.163 117.346C251.729 116.298 251.749 116.105 253.623 112.813L255.581 109.376L257.931 112.055L260.282 114.736L258.495 111.508C257.297 109.347 256.88 107.58 257.228 106.156C257.712 104.18 257.668 104.139 256.597 105.58C255.49 107.068 255.356 107.072 253.234 105.682C251.498 104.544 251.224 103.992 251.962 103.103C252.951 101.912 255.772 101.623 258.015 102.483ZM134.12 103.207C134.12 103.434 134.305 103.619 134.531 103.619C134.758 103.619 134.943 103.434 134.943 103.207C134.943 102.981 134.758 102.795 134.531 102.795C134.305 102.795 134.12 102.981 134.12 103.207ZM253.148 106.954C254.637 108.598 254.637 108.716 253.146 111.483C252.305 113.046 251.334 114.324 250.988 114.324C249.999 114.324 249.264 109.819 249.864 107.43C250.519 104.824 251.139 104.734 253.148 106.954ZM171.176 106.501C171.176 106.727 171.361 106.913 171.588 106.913C171.814 106.913 171.999 106.727 171.999 106.501C171.999 106.275 171.814 106.089 171.588 106.089C171.361 106.089 171.176 106.275 171.176 106.501ZM53.0304 107.772C53.3227 108.245 53.1061 109.181 52.5495 109.852C51.6618 110.921 51.3299 110.892 49.8592 109.61C48.204 108.168 48.1991 108.174 49.4911 110.078C50.6579 111.797 50.6695 112.323 49.5965 114.89C48.9344 116.474 48.526 118.171 48.689 118.659C48.8521 119.149 49.4722 118.373 50.0675 116.936C51.4254 113.658 52.118 113.651 53.466 116.905C54.4171 119.202 54.366 119.609 52.9966 120.61C52.1501 121.229 50.8144 121.735 50.028 121.735C47.9034 121.735 45.1852 117.779 45.1852 114.688C45.1852 110.016 51.1611 104.748 53.0304 107.772ZM174.195 108.285C173.893 108.587 173.646 108.34 173.646 107.736C173.646 107.133 173.893 106.886 174.195 107.187C174.497 107.489 174.497 107.983 174.195 108.285ZM134.12 108.971C134.12 109.198 134.305 109.383 134.531 109.383C134.758 109.383 134.943 109.198 134.943 108.971C134.943 108.745 134.758 108.56 134.531 108.56C134.305 108.56 134.12 108.745 134.12 108.971ZM171.176 108.971C171.176 109.198 171.361 109.383 171.588 109.383C171.814 109.383 171.999 109.198 171.999 108.971C171.999 108.745 171.814 108.56 171.588 108.56C171.361 108.56 171.176 108.745 171.176 108.971ZM55.8779 114.118C55.8936 117.47 54.9762 117.541 53.5409 114.299C52.6507 112.288 52.6376 111.561 53.4726 110.554C54.8395 108.908 55.8606 110.42 55.8779 114.118ZM172.823 110.618C172.823 110.845 173.008 111.03 173.234 111.03C173.461 111.03 173.646 110.845 173.646 110.618C173.646 110.392 173.461 110.207 173.234 110.207C173.008 110.207 172.823 110.392 172.823 110.618ZM171.176 112.177C171.176 112.355 171.751 112.721 172.454 112.992C173.187 113.272 173.517 113.134 173.229 112.668C172.745 111.885 171.176 111.51 171.176 112.177ZM134.943 114.736C134.943 114.962 135.128 115.147 135.355 115.147C135.581 115.147 135.767 114.962 135.767 114.736C135.767 114.509 135.581 114.324 135.355 114.324C135.128 114.324 134.943 114.509 134.943 114.736ZM171.999 114.736C171.999 114.962 172.185 115.147 172.411 115.147C172.637 115.147 172.823 114.962 172.823 114.736C172.823 114.509 172.637 114.324 172.411 114.324C172.185 114.324 171.999 114.509 171.999 114.736ZM133.296 115.559C133.296 115.786 133.482 115.971 133.708 115.971C133.934 115.971 134.12 115.786 134.12 115.559C134.12 115.333 133.934 115.147 133.708 115.147C133.482 115.147 133.296 115.333 133.296 115.559ZM170.352 116.383C170.352 116.609 170.538 116.794 170.764 116.794C170.991 116.794 171.176 116.609 171.176 116.383C171.176 116.156 170.991 115.971 170.764 115.971C170.538 115.971 170.352 116.156 170.352 116.383ZM134.943 117.206C134.943 117.433 135.128 117.618 135.355 117.618C135.581 117.618 135.767 117.433 135.767 117.206C135.767 116.98 135.581 116.794 135.355 116.794C135.128 116.794 134.943 116.98 134.943 117.206ZM174.47 117.618C174.47 118.071 174.099 118.441 173.646 118.441C173.193 118.441 172.823 118.071 172.823 117.618C172.823 117.165 173.193 116.794 173.646 116.794C174.099 116.794 174.47 117.165 174.47 117.618ZM170.352 118.853C170.352 119.079 170.538 119.265 170.764 119.265C170.991 119.265 171.176 119.079 171.176 118.853C171.176 118.627 170.991 118.441 170.764 118.441C170.538 118.441 170.352 118.627 170.352 118.853ZM171.999 120.5C171.999 120.726 172.185 120.912 172.411 120.912C172.637 120.912 172.823 120.726 172.823 120.5C172.823 120.273 172.637 120.088 172.411 120.088C172.185 120.088 171.999 120.273 171.999 120.5ZM170.352 122.147C170.352 122.373 170.538 122.559 170.764 122.559C170.991 122.559 171.176 122.373 171.176 122.147C171.176 121.92 170.991 121.735 170.764 121.735C170.538 121.735 170.352 121.92 170.352 122.147ZM134.943 122.97C134.943 123.197 135.128 123.382 135.355 123.382C135.581 123.382 135.767 123.197 135.767 122.97C135.767 122.744 135.581 122.559 135.355 122.559C135.128 122.559 134.943 122.744 134.943 122.97ZM134.531 125.029C134.811 125.482 135.226 125.852 135.452 125.852C135.679 125.852 135.635 125.482 135.355 125.029C135.075 124.576 134.661 124.206 134.434 124.206C134.208 124.206 134.251 124.576 134.531 125.029ZM132.473 125.852C132.473 126.456 132.72 126.703 133.022 126.402C133.323 126.1 133.323 125.605 133.022 125.303C132.72 125.002 132.473 125.249 132.473 125.852ZM171.999 126.176C171.999 126.354 172.574 126.72 173.277 126.991C174.01 127.271 174.34 127.133 174.052 126.667C173.569 125.884 171.999 125.509 171.999 126.176ZM134.12 127.088C134.12 127.314 134.305 127.499 134.531 127.499C134.758 127.499 134.943 127.314 134.943 127.088C134.943 126.861 134.758 126.676 134.531 126.676C134.305 126.676 134.12 126.861 134.12 127.088ZM132.473 128.735C132.473 128.961 132.658 129.146 132.885 129.146C133.111 129.146 133.296 128.961 133.296 128.735C133.296 128.508 133.111 128.323 132.885 128.323C132.658 128.323 132.473 128.508 132.473 128.735ZM172.823 128.735C172.823 128.961 173.008 129.146 173.234 129.146C173.461 129.146 173.646 128.961 173.646 128.735C173.646 128.508 173.461 128.323 173.234 128.323C173.008 128.323 172.823 128.508 172.823 128.735ZM175.293 128.735C175.293 128.961 175.478 129.146 175.705 129.146C175.931 129.146 176.117 128.961 176.117 128.735C176.117 128.508 175.931 128.323 175.705 128.323C175.478 128.323 175.293 128.508 175.293 128.735ZM130.523 130.617C130.303 130.973 130.81 131.263 131.649 131.263C132.488 131.263 132.996 130.973 132.776 130.617C132.555 130.261 132.049 129.97 131.649 129.97C131.25 129.97 130.744 130.261 130.523 130.617ZM173.646 130.293C173.646 130.471 174.221 130.838 174.924 131.108C175.657 131.389 175.987 131.25 175.699 130.784C175.216 130.001 173.646 129.626 173.646 130.293ZM178.587 130.382C178.587 130.608 178.402 130.793 178.175 130.793C177.949 130.793 177.764 130.608 177.764 130.382C177.764 130.155 177.949 129.97 178.175 129.97C178.402 129.97 178.587 130.155 178.587 130.382ZM125.885 132.852C125.885 133.078 126.07 133.264 126.297 133.264C126.523 133.264 126.709 133.078 126.709 132.852C126.709 132.626 126.523 132.44 126.297 132.44C126.07 132.44 125.885 132.626 125.885 132.852ZM128.355 132.852C128.355 133.078 128.541 133.264 128.767 133.264C128.994 133.264 129.179 133.078 129.179 132.852C129.179 132.626 128.994 132.44 128.767 132.44C128.541 132.44 128.355 132.626 128.355 132.852ZM131.649 132.852C131.649 133.078 131.835 133.264 132.061 133.264C132.288 133.264 132.473 133.078 132.473 132.852C132.473 132.626 132.288 132.44 132.061 132.44C131.835 132.44 131.649 132.626 131.649 132.852ZM174.47 132.852C174.47 133.078 174.655 133.264 174.881 133.264C175.108 133.264 175.293 133.078 175.293 132.852C175.293 132.626 175.108 132.44 174.881 132.44C174.655 132.44 174.47 132.626 174.47 132.852ZM176.94 132.852C176.94 133.078 177.125 133.264 177.352 133.264C177.578 133.264 177.764 133.078 177.764 132.852C177.764 132.626 177.578 132.44 177.352 132.44C177.125 132.44 176.94 132.626 176.94 132.852ZM127.532 134.499C127.532 134.725 127.717 134.911 127.944 134.911C128.17 134.911 128.355 134.725 128.355 134.499C128.355 134.272 128.17 134.087 127.944 134.087C127.717 134.087 127.532 134.272 127.532 134.499ZM130.002 134.499C130.002 134.725 130.188 134.911 130.414 134.911C130.641 134.911 130.826 134.725 130.826 134.499C130.826 134.272 130.641 134.087 130.414 134.087C130.188 134.087 130.002 134.272 130.002 134.499ZM176.117 134.499C176.117 134.725 176.302 134.911 176.528 134.911C176.755 134.911 176.94 134.725 176.94 134.499C176.94 134.272 176.755 134.087 176.528 134.087C176.302 134.087 176.117 134.272 176.117 134.499ZM180.234 135.322C180.234 135.549 180.419 135.734 180.646 135.734C180.872 135.734 181.057 135.549 181.057 135.322C181.057 135.096 180.872 134.911 180.646 134.911C180.419 134.911 180.234 135.096 180.234 135.322ZM182.704 135.322C182.704 135.549 182.89 135.734 183.116 135.734C183.343 135.734 183.528 135.549 183.528 135.322C183.528 135.096 183.343 134.911 183.116 134.911C182.89 134.911 182.704 135.096 182.704 135.322ZM88.7417 138.799L90.7131 141.042L86.683 142.927C78.4368 146.784 73.3832 143.642 78.9227 138.102C81.0727 135.952 81.9077 135.623 84.127 136.049C85.5812 136.328 87.6572 137.565 88.7417 138.799ZM122.865 136.283C123.168 136.585 123.662 136.585 123.964 136.283C124.265 135.981 124.018 135.734 123.415 135.734C122.811 135.734 122.564 135.981 122.865 136.283ZM125.885 136.146C125.885 136.372 126.07 136.558 126.297 136.558C126.523 136.558 126.709 136.372 126.709 136.146C126.709 135.919 126.523 135.734 126.297 135.734C126.07 135.734 125.885 135.919 125.885 136.146ZM181.057 136.881C181.057 137.059 181.632 137.426 182.335 137.696C183.068 137.976 183.399 137.838 183.11 137.372C182.627 136.589 181.057 136.214 181.057 136.881ZM116.003 137.793C116.003 138.019 116.189 138.205 116.415 138.205C116.642 138.205 116.827 138.019 116.827 137.793C116.827 137.566 116.642 137.381 116.415 137.381C116.189 137.381 116.003 137.566 116.003 137.793ZM118.748 137.93C119.05 138.232 119.544 138.232 119.847 137.93C120.148 137.628 119.901 137.381 119.297 137.381C118.694 137.381 118.447 137.628 118.748 137.93ZM121.768 137.793C121.768 138.019 121.953 138.205 122.179 138.205C122.406 138.205 122.591 138.019 122.591 137.793C122.591 137.566 122.406 137.381 122.179 137.381C121.953 137.381 121.768 137.566 121.768 137.793ZM185.998 137.793C185.998 138.019 186.184 138.205 186.41 138.205C186.636 138.205 186.822 138.019 186.822 137.793C186.822 137.566 186.636 137.381 186.41 137.381C186.184 137.381 185.998 137.566 185.998 137.793ZM188.469 137.793C188.469 138.019 188.654 138.205 188.88 138.205C189.107 138.205 189.292 138.019 189.292 137.793C189.292 137.566 189.107 137.381 188.88 137.381C188.654 137.381 188.469 137.566 188.469 137.793ZM190.494 138.26C190.195 138.742 190.173 139.36 190.445 139.632C190.717 139.903 190.939 139.654 190.939 139.077C190.939 138.467 191.474 138.233 192.217 138.519C192.95 138.8 193.28 138.662 192.992 138.195C192.333 137.129 191.174 137.159 190.494 138.26ZM117.65 139.44C117.65 139.666 117.836 139.851 118.062 139.851C118.289 139.851 118.474 139.666 118.474 139.44C118.474 139.213 118.289 139.028 118.062 139.028C117.836 139.028 117.65 139.213 117.65 139.44ZM91.2994 143.442C91.2994 144.059 92.2629 145.982 93.4396 147.716C95.4579 150.69 95.4966 150.932 94.1206 151.938C91.8626 153.589 87.3435 154.186 85.9378 153.02C84.1023 151.496 84.4399 149.532 87.187 145.739C89.6879 142.286 91.2994 141.386 91.2994 143.442ZM103.857 153.814C106.056 153.869 105.588 155.193 102.549 157.511C94.5859 163.585 89.0571 160.907 94.9078 153.81C96.5276 151.845 96.8241 151.778 99.5275 152.744C101.116 153.313 103.064 153.794 103.857 153.814ZM111.119 158.925C112.648 162.619 110.821 166.788 107.239 167.777C101.8 169.279 100.325 167.14 102.855 161.42C105.27 155.959 106.731 154.526 108.654 155.727C109.499 156.255 110.608 157.694 111.119 158.925ZM185.837 174.655C186.312 175.227 187.556 178.925 188.602 182.872C190.372 189.554 190.409 190.142 189.138 191.414C187.201 193.351 185.359 192.314 183.511 188.243C180.391 181.37 182.275 170.363 185.837 174.655ZM178.858 183.606C179.477 188.831 181.865 193.598 186.02 197.906L189.197 201.2L187.625 205.729C184.47 214.813 185.904 228.35 190.867 236.333L193.341 240.315H189.8H186.259L184.04 233.58C180.483 222.784 175.228 215.371 167.264 209.92L164.588 208.087V199.618C164.588 194.96 164.821 188.916 165.107 186.188L165.625 181.228L171.489 180.423C174.713 179.979 177.578 179.563 177.855 179.497C178.132 179.431 178.583 181.28 178.858 183.606ZM281.259 181.754C283.062 183.06 285.712 185.553 287.146 187.294C288.581 189.034 289.755 190.004 289.755 189.45C289.755 187.983 284.088 181.941 281.418 180.56C277.776 178.677 277.71 179.182 281.259 181.754ZM120.112 193.126C121.607 194.906 123.531 198.007 124.386 200.016C125.885 203.534 125.925 203.564 125.484 200.801C124.933 197.352 121.649 192.166 119.18 190.844C117.786 190.098 117.991 190.6 120.112 193.126ZM28.1929 195.419C26.2487 197.448 24.0764 200.32 23.3666 201.801L22.0745 204.494L24.3663 201.626C25.6262 200.049 28.0941 197.176 29.8497 195.244C34.0972 190.57 32.6973 190.718 28.1929 195.419ZM245.053 196.644C253.074 201.535 254.414 218.177 247.355 225.237C242.47 230.122 235.942 228.198 231.843 220.667C228 213.606 229.098 202.815 234.174 197.739C237.389 194.523 240.982 194.162 245.053 196.644ZM280.76 199.901C284.809 203.95 283.713 211.295 278.106 217.681C274.004 222.352 268.977 224.161 264.677 222.51C262.638 221.728 260.932 217.736 260.952 213.799C261.011 202.25 273.997 193.138 280.76 199.901ZM43.2121 200.392C44.3625 202.147 44.4803 203.765 43.9771 210.891C43.3291 220.071 42.1153 224.05 39.5444 225.426C33.9111 228.441 28.7158 223.101 28.7158 214.295C28.7158 208.109 31.5041 202.96 36.5388 199.85C39.8796 197.787 41.5965 197.926 43.2121 200.392ZM208.215 199.544C211.504 201.245 211.82 202.955 210.635 212.648C209.772 219.71 209.794 222.19 210.769 227.625C212.211 235.665 212.062 236.953 209.418 239.285C202.375 245.496 192.114 235.953 191.137 222.285C190.478 213.087 194.38 203.506 200.236 199.936C203.409 198.001 205.073 197.919 208.215 199.544ZM78.7563 204.348C80.8018 206.206 83.0647 212.771 83.0647 216.848C83.0647 223.714 77.0287 232.933 71.8573 233.966C65.7595 235.184 60.0076 228.451 60.0076 220.097C60.0076 212.671 65.6994 203.525 71.1244 202.236C73.6549 201.634 76.6944 202.475 78.7563 204.348ZM183.074 206.938C182.418 208.508 181.906 211.195 181.937 212.908C181.981 215.345 182.139 215.664 182.667 214.375C183.475 212.399 185.02 204.082 184.579 204.082C184.407 204.082 183.73 205.367 183.074 206.938ZM117.255 209.286C121.362 213.393 122.83 219.45 122.47 230.795C122.203 239.187 121.974 240.333 119.953 243.388C117.131 247.652 113.308 249.135 109.325 247.509L106.598 246.396L106.523 228.332C106.45 210.634 106.486 210.231 108.306 208.41C110.974 205.743 114.009 206.04 117.255 209.286ZM156.362 210.263C162.205 213.283 165.37 223.662 164.714 237.638L164.588 240.315H152.968H141.349L141.653 231.43C141.926 223.434 142.219 222.015 144.583 217.225C147.04 212.246 150.237 209.099 152.895 209.045C153.483 209.033 155.043 209.581 156.362 210.263ZM46.0243 264.59C44.2629 266.465 43.4534 266.666 37.6307 266.666C31.1401 266.666 30.3282 266.297 32.2156 264.209C32.8546 263.502 32.3975 263.595 31.0092 264.456C28.6392 265.925 25.2614 266.164 22.5398 265.055C20.9942 264.425 21.0197 264.354 22.9515 263.903C26.5435 263.063 28.8986 262.88 38.5505 262.696L47.9734 262.515L46.0243 264.59ZM60.8311 264.607C59.054 266.498 58.3228 266.663 51.8355 266.636L44.7734 266.606L47.2439 264.581C49.4055 262.809 50.5303 262.556 56.2394 262.552L62.7654 262.548L60.8311 264.607ZM138.237 262.892C138.237 265.338 136.956 265.842 130.738 265.842C125.643 265.842 124.238 265.587 124.238 264.661C124.238 264.006 125.245 263.329 126.503 263.138C129.682 262.656 138.237 262.477 138.237 262.892ZM152.236 264.683C152.236 266.717 152.069 266.798 148.736 266.372C146.811 266.127 143.697 265.907 141.814 265.884C138.805 265.847 138.444 265.643 138.822 264.195C139.206 262.724 139.945 262.548 145.745 262.548C152.182 262.548 152.236 262.566 152.236 264.683ZM167.058 264.607C167.058 266.643 166.982 266.666 159.971 266.666C153.846 266.666 152.951 266.488 153.383 265.363C153.658 264.646 153.883 263.72 153.883 263.304C153.883 262.888 156.847 262.548 160.471 262.548C166.949 262.548 167.058 262.583 167.058 264.607ZM181.737 264.847C181.999 266.7 181.882 266.73 175.149 266.494C168.713 266.269 168.277 266.139 168.026 264.366C167.763 262.514 167.881 262.484 174.614 262.719C181.05 262.945 181.486 263.075 181.737 264.847ZM196.203 263.851C197.218 266.496 196.659 266.731 189.91 266.493C183.576 266.27 183.098 266.129 182.853 264.401C182.599 262.612 182.818 262.548 189.146 262.548C194.366 262.548 195.806 262.814 196.203 263.851ZM210.673 264.141C211.142 265.017 211.526 265.958 211.526 266.233C211.526 266.507 208.51 266.624 204.824 266.493C198.734 266.275 198.06 266.085 197.44 264.401C196.768 262.578 196.861 262.548 203.289 262.548C208.904 262.548 209.941 262.771 210.673 264.141ZM225.202 263.989C225.804 264.781 226.308 265.708 226.322 266.048C226.337 266.388 223.397 266.666 219.789 266.666C214.148 266.666 213.112 266.443 212.378 265.073C211.91 264.197 211.526 263.27 211.526 263.014C211.526 262.758 214.357 262.548 217.817 262.548C222.843 262.548 224.328 262.838 225.202 263.989ZM239.935 264.195C241.398 265.811 241.372 265.844 238.622 265.912C237.08 265.95 234.154 266.146 232.119 266.348C229.277 266.63 228.18 266.386 227.384 265.298C225.604 262.863 226.177 262.548 232.397 262.548C237.399 262.548 238.703 262.833 239.935 264.195ZM261.006 263.254C266.08 263.283 268.353 263.624 269.052 264.465C269.877 265.46 269.072 265.656 263.734 265.759C260.036 265.831 256.975 265.492 256.307 264.937C255.478 264.249 255.17 264.244 255.17 264.918C255.17 265.522 252.955 265.842 248.78 265.842C243.202 265.842 242.254 265.625 241.321 264.131C240.266 262.439 240.331 262.425 247.094 262.817C250.856 263.036 257.117 263.232 261.006 263.254ZM71.1096 264.171C71.6375 265.025 69.965 265.504 64.2666 266.133C60.7981 266.516 60.7405 266.484 62.1297 264.949C63.6671 263.25 70.1906 262.684 71.1096 264.171ZM108.592 264.195C108.592 264.648 107.387 264.982 105.916 264.936C103.381 264.859 103.348 264.82 105.298 264.195C108.204 263.265 108.592 263.265 108.592 264.195ZM122.851 264.707C122.434 265.793 121.559 265.948 118.142 265.537C115.833 265.26 112.904 265.029 111.632 265.026C110.301 265.022 109.534 264.669 109.827 264.195C110.107 263.742 113.267 263.372 116.85 263.372C122.517 263.372 123.296 263.545 122.851 264.707ZM276.991 264.195C277.299 264.692 276.193 265.019 274.207 265.019C272.395 265.019 270.684 264.648 270.404 264.195C270.097 263.699 271.202 263.372 273.189 263.372C275 263.372 276.711 263.742 276.991 264.195ZM27.1232 274.67C28.2259 277.262 29.2511 279.671 29.4018 280.023C29.5533 280.376 26.5756 280.664 22.7852 280.664H15.8936L13.2544 275.312L10.6152 269.959H17.8666H25.1189L27.1232 274.67ZM42.2158 274.283C43.0598 276.66 43.9277 279.069 44.1443 279.635C44.4391 280.406 42.8679 280.664 37.8835 280.664C30.4986 280.664 30.9095 280.969 27.614 273.047L26.3294 269.959H33.5051H40.6816L42.2158 274.283ZM57.9498 275.548L59.8223 280.726L52.7907 280.489L45.7583 280.253L43.824 275.074L41.8897 269.895L48.9838 270.133L56.0772 270.371L57.9498 275.548ZM72.8496 274.694C73.5965 277.299 74.3697 279.707 74.5673 280.047C74.7658 280.387 71.7857 280.664 67.945 280.664H60.9637L59.5423 276.341C58.7601 273.964 57.9498 271.555 57.7406 270.989C57.4557 270.216 59.1199 269.959 64.4255 269.959H71.49L72.8496 274.694ZM105.298 275.312V280.664H98.2989H91.2994V275.312V269.959H98.2989H105.298V275.312ZM120.635 272.533C120.352 273.948 120.121 276.357 120.121 277.885V280.664H113.121H106.122V276.615C106.122 270.009 106.181 269.959 114.136 269.959H121.15L120.635 272.533ZM135.755 273.459C135.733 280.506 135.568 280.664 128.259 280.664H121.768V275.312V269.959H128.767H135.767L135.755 273.459ZM151.118 273.047C150.837 274.746 150.603 277.155 150.598 278.4L150.589 280.664H143.59H136.59L136.599 278.4C136.604 277.155 136.838 274.746 137.119 273.047L137.629 269.959H144.629H151.628L151.118 273.047ZM166.775 271.812C166.522 272.832 166.064 275.24 165.757 277.165L165.201 280.664H158.279H151.356L151.862 276.341C152.646 269.652 152.248 269.959 160.122 269.959C167.088 269.959 167.227 269.998 166.775 271.812ZM181.424 274.694C180.802 277.299 180.279 279.707 180.264 280.047C180.247 280.387 177.059 280.664 173.179 280.664C166.848 280.664 166.167 280.516 166.545 279.223C166.775 278.431 167.213 276.023 167.517 273.871L168.069 269.959H175.312H182.556L181.424 274.694ZM197.511 270.989C197.502 271.555 197.015 273.871 196.43 276.135L195.364 280.253L188.142 280.492C184.169 280.623 181.094 280.438 181.309 280.08C181.523 279.722 182.136 277.299 182.671 274.694L183.645 269.959H190.586C195.598 269.959 197.523 270.245 197.511 270.989ZM212.966 270.989C212.756 271.555 212.091 273.964 211.487 276.341L210.391 280.664H203.547C198.619 280.664 196.705 280.376 196.708 279.635C196.712 278.689 197.975 273.423 198.781 270.989C199.019 270.271 201.275 269.959 206.236 269.959C211.581 269.959 213.254 270.216 212.966 270.989ZM226.93 275.312L225.189 280.664H218.269C213.079 280.664 211.445 280.408 211.732 279.635C211.942 279.069 212.608 276.66 213.211 274.283L214.307 269.959H221.488H228.67L226.93 275.312ZM243.641 270.71C243.641 271.122 242.849 273.531 241.88 276.062L240.118 280.664H233.308H226.497L228.237 275.312L229.978 269.959H236.81C240.567 269.959 243.641 270.297 243.641 270.71ZM258.852 271.68C258.552 272.626 257.583 275.034 256.699 277.032L255.092 280.664H248.21H241.329L242.93 276.341C243.81 273.964 244.689 271.555 244.884 270.989C245.129 270.272 247.389 269.959 252.317 269.959C259.124 269.959 259.377 270.026 258.852 271.68ZM274.12 271.99C273.695 273.107 272.585 275.515 271.653 277.343L269.958 280.664H263.388C259.774 280.664 256.816 280.34 256.816 279.943C256.816 279.547 257.738 277.138 258.864 274.591L260.913 269.959H267.903H274.892L274.12 271.99ZM287.924 275.312L285.285 280.664H278.373C273.166 280.664 271.568 280.411 271.89 279.635C272.125 279.069 273.14 276.66 274.146 274.283L275.976 269.959H283.27H290.563L287.924 275.312ZM295.832 294.86C294.739 297.016 293.573 298.81 293.241 298.845C292.909 298.88 228.782 298.973 150.737 299.051C25.5117 299.176 8.70883 299.048 7.75773 297.957C7.16565 297.278 6.07456 295.525 5.33343 294.062L3.98542 291.401L22.3208 291.12C32.405 290.965 98.5179 290.861 169.237 290.889L297.819 290.939L295.832 294.86Z" fill="#323036"/>
</svg>
