<svg width="288" height="300" viewBox="0 0 288 300" fill="none" xmlns="http://www.w3.org/2000/svg">
<path fill-rule="evenodd" clip-rule="evenodd" d="M169.195 1.50462C168.176 2.5239 166.027 3.75142 164.42 4.23293C162.814 4.71444 161.643 5.25294 161.82 5.42976C161.996 5.60658 163.327 5.35889 164.777 4.88103C166.227 4.40244 167.975 4.25631 168.662 4.55588C170.707 5.45022 174.66 5.58101 174.66 4.75463C174.66 4.32353 175.22 4.20297 175.939 4.47989C183.51 7.39745 219.393 17.7481 242.247 23.6066L260.513 28.2894L252.111 27.8788C199.549 25.3083 149.765 25.5728 101.351 28.6789C91.3734 29.3189 83.0774 29.712 82.9174 29.5513C82.7573 29.3913 84.9325 28.6621 87.7515 27.9314C90.5696 27.2 92.7339 26.4598 92.5607 26.2859C92.3868 26.1128 89.5679 26.7039 86.2967 27.6011C83.0248 28.4977 80.6983 29.4475 81.1272 29.7128C81.5554 29.9773 80.8284 30.1928 79.511 30.1914C75.1409 30.1877 60.518 31.942 59.2452 32.623C57.8861 33.3508 53.8719 43.3704 54.52 44.4189C54.7384 44.7718 55.3376 45.0612 55.852 45.0612C56.5045 45.0612 55.955 47.5513 54.0341 53.2965C50.6218 63.4996 43.7791 91.0531 41.3796 104.245C38.5753 119.666 36.5463 135.855 36.0633 146.662L35.6212 156.564L41.0245 156.023C43.9962 155.726 49.2365 155.462 52.6692 155.437L58.9105 155.392L62.1554 158.699C64.7771 161.37 67.6223 163.616 71.5306 166.098C71.6738 166.189 71.2179 167.763 70.5179 169.595C69.5074 172.242 68.8929 172.928 67.5324 172.928C64.0581 172.928 59.932 175.241 57.7495 178.413C56.4402 180.316 54.8181 181.721 53.5752 182.027C46.2269 183.838 29.2118 193.908 21.5851 200.959L17.2011 205.012L19.4691 205.045L21.7371 205.077L19.9806 208.748C19.0146 210.766 18.0406 214.136 17.8156 216.237C17.5401 218.811 16.6283 221.26 15.0179 223.747C6.44933 236.987 4.27997 249.403 8.39436 261.659C10.3043 267.348 13.9211 273.529 15.7507 274.231C16.4785 274.51 16.1029 275.819 14.2456 279.479C7.96985 291.849 11.7379 300.547 23.091 299.9C28.9466 299.566 34.5669 296.688 41.0084 290.724C45.6591 286.418 52.6385 277.166 52.6385 275.306C52.6385 274.858 53.4342 274.491 54.406 274.491C56.0967 274.491 56.1406 274.611 55.4172 277.231C55.0015 278.738 54.8349 281.892 55.0475 284.24C55.5838 290.155 58.3903 294.491 63.5664 297.402C67.0378 299.355 68.4268 299.683 74.3269 299.941C89.5167 300.605 106.719 295.646 118.611 287.173C121.951 284.794 122.439 284.671 129.206 284.494C137.39 284.28 140.579 283.017 144.836 278.304C148.303 274.467 149.408 269.7 148.881 260.858L148.473 254.032H155.436C161.871 254.032 162.733 254.21 166.793 256.374L171.186 258.715L187.325 256.435C201.678 254.407 203.687 254.269 205.466 255.19C206.567 255.759 208.609 256.224 210.005 256.224C213.327 256.224 217.039 252.707 217.039 249.559C217.039 246.884 214.278 243.945 211.184 243.326C208.594 242.808 208.633 241.285 211.236 241.262C212.367 241.251 213.089 240.755 213.262 239.872C213.599 238.136 212.224 237.252 209.161 237.238C206.421 237.225 205.079 239.167 207.062 240.276C208.988 241.354 208.47 242.415 206.261 241.917C199.658 240.429 198.841 240.091 199.254 239.012C199.503 238.363 200.196 238.079 200.947 238.318C202.554 238.828 204.443 236.76 203.36 235.677C202.943 235.261 201.248 234.737 199.591 234.515C196.899 234.154 196.58 234.273 196.58 235.633C196.58 236.47 197.116 237.454 197.77 237.82C200.016 239.078 197.403 239.544 193.281 238.622C189.002 237.664 187.903 236.02 191.283 235.631C194.287 235.285 194.015 232.74 190.878 231.84C188.933 231.282 188.223 231.392 187.225 232.405C186.059 233.588 186.066 233.723 187.337 234.666C188.898 235.823 188.275 237.455 186.472 236.935C185.803 236.742 183.847 236.219 182.127 235.775C178.863 234.931 178.565 233.573 181.644 233.573C182.626 233.573 183.428 233.272 183.428 232.903C183.428 232.534 183.62 231.731 183.855 231.121C184.512 229.406 179.309 228.611 177.735 230.185C176.646 231.274 176.66 231.445 177.91 232.36C179.658 233.638 178.86 234.937 176.593 234.504C175.445 234.284 172.951 235.204 169.366 237.172L163.892 240.176L126.432 238.358C105.829 237.358 88.8051 236.373 88.6005 236.168C88.3959 235.963 91.152 234.452 94.725 232.809C102.808 229.092 103.796 228.223 103.744 224.875C103.662 219.686 102.282 217.342 98.0765 215.243C93.8591 213.139 94.2106 212.384 99.4078 212.384C102.253 212.384 104.593 214.287 105.583 217.408C105.812 218.129 107.351 219.024 109.225 219.526C111.01 220.003 113.638 221.419 115.065 222.672L117.659 224.949L120.82 223.097C124.725 220.809 127.894 216.371 128.419 212.454C129.22 206.482 124.268 199.636 116.742 196.311C109.297 193.021 103.405 193.719 91.9813 199.244C88.1994 201.073 84.9282 202.155 83.1826 202.155C80.596 202.155 80.4039 202.006 80.4039 200.01C80.4039 198.831 80.7064 197.07 81.0761 196.097C82.0881 193.436 90.1327 187.719 97.9399 184.114C108.38 179.293 108.517 179.209 108.763 177.508C108.948 176.226 109.639 175.839 112.417 175.465C121.716 174.211 131.253 170.639 136.594 166.409C138.508 164.892 139.613 164.459 140.359 164.931C142.013 165.978 146.066 165.737 148.826 164.427C151.801 163.015 153.731 159.693 153.297 156.734L152.986 154.617L157.065 154.984C159.307 155.185 166.075 155.537 172.103 155.765C198.228 156.753 229.135 159.737 243.708 162.68C247.325 163.41 250.477 163.795 250.713 163.536C250.949 163.277 251.532 158.099 252.008 152.031C254.411 121.429 261.502 86.2029 271.225 56.5692L275 45.0612H278.429H281.858L284.521 39.1545C285.985 35.9052 287.183 32.6238 287.183 31.8617C287.183 30.1643 286.15 29.9269 276.223 29.3445C263.543 28.6 233.912 21.4102 195.849 9.84226C189.219 7.82708 181.639 5.52475 179.005 4.7254C175.748 3.73754 173.994 2.78401 173.525 1.74647C172.505 -0.504721 171.273 -0.573403 169.195 1.50462ZM156.393 6.70112C154.987 7.24255 154.329 7.68606 154.932 7.68606C155.535 7.68606 157.179 7.24255 158.585 6.70112C159.992 6.1597 160.649 5.71618 160.047 5.71618C159.444 5.71618 157.8 6.1597 156.393 6.70112ZM147.991 9.25846C145.981 10.0001 144.831 10.6065 145.433 10.6065C146.036 10.6065 148.173 10.0001 150.183 9.25846C152.192 8.51683 153.343 7.91038 152.74 7.91038C152.137 7.91038 150 8.51683 147.991 9.25846ZM139.588 11.8158C138.181 12.3572 137.524 12.8007 138.127 12.8007C138.729 12.8007 140.373 12.3572 141.78 11.8158C143.186 11.2744 143.844 10.8309 143.241 10.8309C142.638 10.8309 140.994 11.2744 139.588 11.8158ZM131.185 14.3731C129.176 15.1148 128.025 15.7212 128.628 15.7212C129.231 15.7212 131.368 15.1148 133.377 14.3731C135.387 13.6315 136.537 13.0251 135.935 13.0251C135.332 13.0251 133.195 13.6315 131.185 14.3731ZM115.665 18.9654C110.344 20.5992 106.123 22.07 106.287 22.2329C106.587 22.5332 126.541 16.6864 127.106 16.1333C127.839 15.4143 124.701 16.191 115.665 18.9654ZM98.3052 24.2255C95.4922 25.1534 93.5193 25.9447 93.9212 25.9842C94.3231 26.0236 97.1179 25.2681 100.132 24.3051C103.146 23.3428 105.119 22.5515 104.516 22.5464C103.913 22.542 101.118 23.2975 98.3052 24.2255ZM67.2518 32.9621C67.2518 33.7329 65.8497 34.0573 65.4325 33.3822C65.1804 32.9737 65.4865 32.6398 66.1127 32.6398C66.7389 32.6398 67.2518 32.7845 67.2518 32.9621ZM62.8079 37.4615C61.7273 38.7636 58.3691 38.54 57.9073 37.1356C57.6523 36.3589 57.9 36.3202 59.0822 36.953C61.172 38.0716 61.3378 38.008 62.2701 35.7452C62.9416 34.115 63.1564 33.9835 63.4085 35.0496C63.5795 35.7722 63.3092 36.8572 62.8079 37.4615ZM58.4838 41.451C58.4838 41.8294 57.9906 42.1385 57.3878 42.1385C56.785 42.1385 56.2655 42.7135 56.2341 43.4172C56.2027 44.1208 56.0164 44.3027 55.8213 43.8227C55.3354 42.6288 56.9297 39.8033 57.7897 40.3345C58.1718 40.5705 58.4838 41.0725 58.4838 41.451ZM189.639 42.8831C213.877 43.6137 241.438 45.0378 262.19 46.6321C271.912 47.3789 273.304 47.6412 272.892 48.6502C272.631 49.2888 270.976 54.1996 269.214 59.5635C260.652 85.6198 253.26 123.312 250.731 153.807C250.353 158.361 249.885 162.245 249.692 162.439C249.499 162.632 244.292 161.955 238.121 160.933C220.403 158 199.115 156.11 167.78 154.685C156.751 154.184 152.323 153.728 151.868 153.047C151.52 152.529 150.943 151.614 150.582 151.014C150.221 150.415 149.7 150.151 149.423 150.428C149.147 150.705 149.615 151.815 150.465 152.895C152.581 155.585 152.517 159.835 150.322 162.387C149.019 163.901 147.785 164.43 144.897 164.707C141.586 165.025 140.94 164.848 139.244 163.152C136.961 160.869 136.331 160.71 137.387 162.682C138.053 163.926 137.727 164.446 135.038 166.427C129.156 170.759 118.912 174.353 112.371 174.378C108.702 174.393 108.611 172.216 112.188 170.005C113.594 169.136 114.745 168.268 114.745 168.076C114.745 167.638 113.944 168.109 108.717 171.621L104.516 174.444V171.992C104.516 167.742 106.575 162.21 108.879 160.271C111.854 157.767 131.514 144.607 137.944 140.814C140.858 139.095 143.241 137.551 143.241 137.382C143.241 137.212 142.649 137.391 141.924 137.779C140.93 138.311 140.404 138.161 139.784 137.168C139.098 136.069 139.256 135.717 140.736 135.042C141.712 134.598 142.511 133.736 142.511 133.127C142.511 131.688 137.69 128.216 133.435 126.591C130.087 125.313 129.126 123.769 131.185 122.978C131.788 122.747 132.255 122.136 132.224 121.621C132.178 120.888 132.086 120.883 131.798 121.599C131.594 122.101 131.128 122.512 130.759 122.512C129.852 122.512 129.904 119.06 130.82 118.493C131.222 118.245 131.551 118.39 131.551 118.816C131.551 119.241 132.011 119.589 132.574 119.589C135.352 119.589 145.377 133.582 144.408 136.107C144.121 136.857 144.796 136.734 146.916 135.653C148.512 134.839 149.817 134.004 149.817 133.796C149.817 133.59 149.182 133.761 148.404 134.177C146.198 135.357 145.926 135.175 143.788 131.081C142.682 128.965 140.333 125.581 138.566 123.563L135.356 119.893L137.088 114.809C138.04 112.013 138.828 108.223 138.838 106.388C138.878 99.2928 135.278 91.3833 129.397 85.6476C126.239 82.5671 125.659 80.2246 127.647 78.5784C129.765 76.8262 131.518 71.9139 131.535 67.6841C131.556 62.3524 129.275 57.8398 125.092 54.9347C122.27 52.9765 121.342 52.7361 116.689 52.7617C112.808 52.7829 110.694 53.1913 108.502 54.3443C104.906 56.2346 99.6255 61.8132 98.9738 64.41C98.6691 65.6258 97.4876 66.8241 95.6902 67.7411C92.313 69.464 92.0171 69.4947 92.5658 68.0641C92.8004 67.4532 92.6009 65.3986 92.123 63.4974C89.7389 54.0133 80.4199 49.8229 71.2296 54.1025C60.0109 59.326 57.0919 73.7976 65.781 81.1094C69.4343 84.1833 74.1486 85.1303 79.0375 83.7727L81.6898 83.0354L79.5855 76.3228C78.4281 72.6315 77.4863 69.266 77.4929 68.8437C77.4995 68.4221 80.4316 66.5567 84.0082 64.6986C91.3135 60.9035 91.3325 60.9108 91.3536 67.3918C91.3624 69.8513 90.9868 70.6389 89.1616 71.9877C87.9502 72.8835 85.9007 75.492 84.6067 77.7841C80.4177 85.2063 81.2602 94.8693 86.6445 101.16C89.2508 104.204 89.2617 104.245 87.4935 104.245C86.5079 104.245 84.6739 104.451 83.4179 104.702C81.3245 105.121 81.1345 104.999 81.1345 103.241C81.1345 100.506 78.7935 100.716 72.6369 104.003C68.0388 106.459 66.9727 106.72 59.9452 107.109C52.5457 107.518 52.2644 107.595 52.0255 109.285C51.8896 110.248 52.1731 112.447 52.656 114.171C53.4503 117.008 53.3845 117.516 51.9633 119.512C49.113 123.514 47.3185 128.325 48.2545 129.453C48.7148 130.009 49.4791 130.314 49.9518 130.132C50.5627 129.898 50.7366 130.896 50.551 133.576C50.2054 138.576 52.2578 145.919 55.2864 150.518C56.6243 152.548 57.6436 154.267 57.553 154.336C57.4624 154.406 52.6568 154.689 46.8735 154.965L36.3592 155.467L36.8583 147.575C38.6425 119.321 45.8586 81.9183 54.8889 54.1163L57.7627 45.2702L62.6895 44.8237C86.0819 42.7026 150.822 41.7133 189.639 42.8831ZM211.487 52.3657C193.585 54.991 179.093 68.8839 175.562 86.8064C174.148 93.983 174.908 101.098 177.752 107.31C179.368 110.842 179.471 111.526 178.611 113.078C178.074 114.047 177.664 116.484 177.7 118.493L177.765 122.147L178.309 118.441C178.919 114.281 179.78 112.382 182.805 108.521C187.268 102.826 188.686 97.4712 187.005 92.651C184.526 85.5387 191.896 81.9555 195.883 88.335C197.204 90.4495 197.353 91.7048 197.162 99.1306L196.945 107.533L199.178 107.752C200.61 107.892 202.968 107.142 205.754 105.662C215.016 100.74 219.61 99.5778 228.945 99.7962C231.894 99.8656 235.305 102.43 235.305 104.578C235.305 108.17 230.05 109.469 214.847 109.634C207.029 109.719 206.2 109.868 202.937 111.787C198.648 114.308 196.622 117.863 197.89 120.646C198.348 121.65 199.512 122.67 200.478 122.912C202.057 123.308 202.199 123.659 201.889 126.405C201.389 130.846 203.305 132.388 209.263 132.339C213.386 132.305 219.271 130.345 218.266 129.341C218.062 129.138 217.071 129.512 216.063 130.172C215.054 130.834 212.478 131.552 210.336 131.769C207.072 132.101 206.12 131.907 204.435 130.573C198.915 126.203 206.372 118.753 216.446 118.571C220.49 118.499 220.96 118.666 222.941 120.88C226.842 125.24 225.027 131.856 218.889 135.649C215.707 137.616 215.445 138.439 218.582 136.619C223.29 133.886 227.801 126.61 226.297 124.176C226.086 123.833 227.518 122.651 229.48 121.547C237.561 117.005 244.856 108.23 248.42 98.7653C250.454 93.3649 251.15 84.225 249.963 78.5119C247.151 64.9836 235.927 54.6527 221.648 52.4482C218.758 52.0025 216.128 51.6781 215.802 51.7285C215.478 51.7782 213.536 52.0654 211.487 52.3657ZM151.424 54.2588C142.527 58.6925 138.079 69.0315 141.708 76.8452C143.49 80.6827 145.704 82.9171 149.375 84.5845C152.506 86.0063 157.907 86.3286 160.412 85.2428C161.363 84.83 160.666 84.7547 158.413 85.0265C152.296 85.7638 146.834 83.3343 143.635 78.452C142.948 77.4027 142.563 76.2556 142.781 75.9027C142.999 75.5498 146.469 73.9781 150.492 72.4108L157.805 69.5605L163.06 62.7967C168.856 55.3358 169.08 55.2818 171.701 60.6953C173.456 64.3201 173.679 70.2626 172.194 73.8166C170.937 76.8255 166.949 81.4163 164.065 83.175C162.86 83.91 162.235 84.5129 162.677 84.5143C164.206 84.5194 169.524 80.1332 171.369 77.3457C172.388 75.8062 173.588 72.7623 174.036 70.5812C176.682 57.6988 163.547 48.2177 151.424 54.2588ZM218.997 54.7425C218.781 55.6464 217.361 62.9172 215.84 70.899C214.319 78.8816 212.989 85.1288 212.885 84.7817C212.78 84.4354 211.85 77.4393 210.818 69.2353C209.305 57.2093 209.123 54.2026 209.884 53.7196C210.404 53.3901 212.754 53.1161 215.108 53.1095C219.179 53.0993 219.37 53.1789 218.997 54.7425ZM167.353 55.6559C167.353 55.8568 167.189 56.0212 166.988 56.0212C166.787 56.0212 166.623 55.8568 166.623 55.6559C166.623 55.4549 166.787 55.2905 166.988 55.2905C167.189 55.2905 167.353 55.4549 167.353 55.6559ZM105.54 63.5288C106.831 64.4926 106.706 64.6029 103.799 65.0676C102.077 65.343 100.534 65.4359 100.372 65.2729C100.21 65.1107 100.465 64.1272 100.939 63.0868C101.837 61.1154 102.38 61.1673 105.54 63.5288ZM79.9289 102.967C79.6206 103.469 75.865 109.249 71.5832 115.81C65.9125 124.501 63.6701 127.405 63.3245 126.506C62.9847 125.62 62.2446 125.36 60.7051 125.586C59.216 125.805 58.7155 125.643 59.0691 125.058C59.3504 124.595 62.4755 119.75 66.0155 114.292C71.3633 106.044 72.9065 104.179 75.1489 103.249C78.5348 101.843 80.6976 101.716 79.9289 102.967ZM94.9602 106.947C99.0593 108.629 100.96 108.941 107.873 109.072C115.503 109.217 116.273 109.373 120.947 111.729L125.914 114.233L120.878 116.781C118.108 118.182 115.512 119.981 115.111 120.777C114.709 121.575 111.256 127.06 107.439 132.969C101.526 142.119 98.6201 145.475 97.6133 144.316C97.1113 143.738 111.177 122.806 112.569 122.06C114.088 121.244 114.088 121.24 112.41 120.791C111.484 120.543 109.015 120.335 106.923 120.33C103.177 120.32 103.114 120.283 102.653 117.825C102.092 114.839 99.8433 112.559 96.8439 111.936C94.6833 111.486 94.6877 111.496 97.1369 112.623C101.872 114.802 103.25 119.33 99.6738 120.96C97.9012 121.767 97.7945 122.07 98.2745 124.913C98.5602 126.607 98.9599 129.001 99.1623 130.234C99.4356 131.9 98.9811 133.31 97.397 135.714C93.2994 141.932 92.5921 145.893 95.5791 145.893C96.3149 145.893 97.283 146.259 97.7302 146.707C98.7926 147.769 100.351 146.788 99.8155 145.393C99.562 144.732 99.7541 144.428 100.307 144.612C100.806 144.778 101.652 144.477 102.187 143.942C103.554 142.575 104.561 142.734 103.988 144.225C103.562 145.338 103.638 145.358 104.666 144.408C105.303 143.818 105.697 143.127 105.543 142.871C105.145 142.21 108.108 141.532 109.335 142.003C109.899 142.22 110.361 142.83 110.361 143.361C110.361 143.892 111.508 146.525 112.909 149.213C114.311 151.902 115.287 154.376 115.08 154.711C114.872 155.047 112.164 157.124 109.061 159.327C105.958 161.531 100.789 165.504 97.5746 168.157C91.3639 173.28 90.5083 173.503 85.0261 171.418L83.2279 170.735L84.7886 168.543C85.6464 167.338 86.0205 166.352 85.6186 166.352C84.8332 166.352 79.6732 176.185 79.6732 177.682C79.6732 178.77 73.5188 184.573 72.1999 184.728C71.6892 184.789 72.7501 185.076 74.5585 185.368C77.2386 185.799 76.8265 185.87 72.3314 185.757C69.2977 185.68 66.4203 185.373 65.9381 185.075C64.4147 184.134 64.9817 181.106 67.1474 178.616C68.2952 177.296 69.6462 174.901 70.1489 173.293C70.6516 171.686 72.0282 168.562 73.2082 166.352C74.6871 163.581 74.8975 162.86 73.8841 164.029L72.414 165.724L69.175 163.496C62.767 159.087 56.3152 151.591 53.8507 145.693C52.1862 141.71 51.126 135.147 51.6338 131.972C52.0591 129.312 53.2508 128.383 56.6572 128.056C57.059 128.017 58.128 127.564 59.0318 127.049C60.3689 126.288 60.678 126.289 60.6868 127.053C60.6948 127.713 60.9082 127.667 61.4065 126.896C61.9494 126.056 62.5368 126.229 62.0276 127.079C61.8266 127.415 66.7367 136.001 68.5093 138.412C70.5647 141.208 74.1852 141.604 74.3773 139.056C74.4365 138.267 74.8479 137.398 75.2914 137.124C75.7342 136.85 76.041 136.327 75.9716 135.962C75.591 133.941 76.0973 131.973 76.8747 132.453C77.4417 132.803 77.5791 132.589 77.2839 131.82C76.2032 129.004 79.348 123.46 81.6526 124.119C81.9704 124.209 82.9985 123.859 83.9374 123.338C84.8755 122.819 85.8188 122.569 86.0337 122.783C86.2477 122.998 86.92 122.676 87.5264 122.07C88.1329 121.463 89.0973 121.146 89.6695 121.366C90.2452 121.587 90.5097 121.442 90.2628 121.043C90.0173 120.645 90.3292 120.32 90.9554 120.32C93.4448 120.32 92.0953 117.366 88.6239 115.215C86.7146 114.033 84.8171 112.782 84.4065 112.435C83.9958 112.089 83.3054 111.925 82.8721 112.069C82.4388 112.213 81.6241 111.765 81.0615 111.074C80.151 109.955 80.1898 109.874 81.4202 110.336C82.5659 110.766 82.6521 110.674 81.9244 109.796C80.5902 108.189 81.2814 106.127 83.3265 105.61C87.0785 104.662 90.2876 105.031 94.9602 106.947ZM83.3265 106.803C83.3265 107.004 83.4909 107.168 83.6919 107.168C83.8928 107.168 84.0572 107.004 84.0572 106.803C84.0572 106.602 83.8928 106.437 83.6919 106.437C83.4909 106.437 83.3265 106.602 83.3265 106.803ZM65.7905 108.363C65.7905 108.618 62.9548 113.211 59.4892 118.571C54.1751 126.789 51.118 130.189 50.1352 128.972C49.6106 128.323 63.7118 107.899 64.6835 107.899C65.2922 107.899 65.7905 108.108 65.7905 108.363ZM81.8652 108.264C81.8652 108.465 82.0296 108.629 82.2305 108.629C82.4315 108.629 82.5959 108.465 82.5959 108.264C82.5959 108.063 82.4315 107.899 82.2305 107.899C82.0296 107.899 81.8652 108.063 81.8652 108.264ZM83.3265 109.725C83.3265 109.926 83.4909 110.091 83.6919 110.091C83.8928 110.091 84.0572 109.926 84.0572 109.725C84.0572 109.524 83.8928 109.36 83.6919 109.36C83.4909 109.36 83.3265 109.524 83.3265 109.725ZM218.817 110.932C220.899 111.881 221.745 113.77 221.057 115.936C220.702 117.055 219.952 117.397 217.853 117.397C214.209 117.397 208.19 119.233 205.881 121.049C202.303 123.864 198.772 122.59 198.772 118.484C198.772 115.701 201.593 112.772 205.735 111.255C209.272 109.961 216.303 109.787 218.817 110.932ZM93.0685 112.77C93.3367 113.037 93.7751 113.037 94.0432 112.77C94.3107 112.502 94.0915 112.283 93.5559 112.283C93.0203 112.283 92.8011 112.502 93.0685 112.77ZM89.809 114.292C88.8818 115.475 88.9161 115.49 90.2679 114.499C91.0716 113.909 91.8666 113.334 92.0339 113.22C92.2012 113.106 91.9944 113.013 91.575 113.013C91.1556 113.013 90.3607 113.588 89.809 114.292ZM128.214 116.205C128.187 116.553 124.406 122.671 119.812 129.797C113.056 140.28 111.307 142.546 110.66 141.66C110.147 140.958 109.154 140.7 107.898 140.939C106.05 141.292 105.995 141.225 106.934 139.768C107.482 138.917 110.847 133.654 114.411 128.072C120.889 117.928 123.775 114.971 126.801 115.376C127.605 115.483 128.241 115.856 128.214 116.205ZM162.234 120.272C160.04 120.94 155.663 123.152 155.663 123.594C155.663 123.925 165.308 120.414 165.831 119.893C166.292 119.434 164.298 119.644 162.234 120.272ZM92.8252 121.416C92.8252 121.617 92.9896 121.781 93.1905 121.781C93.3915 121.781 93.5559 121.617 93.5559 121.416C93.5559 121.215 93.3915 121.051 93.1905 121.051C92.9896 121.051 92.8252 121.215 92.8252 121.416ZM189.273 122.182C189.273 122.804 188.252 123.742 187.004 124.267L184.734 125.221L187.807 125.633C189.544 125.866 191.684 126.786 192.733 127.749C193.888 128.81 194.46 129.039 194.248 128.357C194.062 127.755 192.744 126.604 191.319 125.8C188.858 124.412 188.784 124.257 189.821 122.695C190.521 121.641 190.619 121.051 190.093 121.051C189.642 121.051 189.273 121.56 189.273 122.182ZM162.123 123.517C158.015 125.206 151.279 128.886 151.279 129.439C151.279 129.702 166.58 122.627 167.293 122.035C168.137 121.332 165.816 121.998 162.123 123.517ZM174.903 122.269C175.171 122.536 175.61 122.536 175.878 122.269C176.145 122 175.926 121.781 175.391 121.781C174.855 121.781 174.636 122 174.903 122.269ZM88.4412 122.877C88.4412 123.078 88.6056 123.243 88.8065 123.243C89.0075 123.243 89.1719 123.078 89.1719 122.877C89.1719 122.676 89.0075 122.512 88.8065 122.512C88.6056 122.512 88.4412 122.676 88.4412 122.877ZM91.3639 122.877C91.3639 123.078 91.5283 123.243 91.7292 123.243C91.9301 123.243 92.0945 123.078 92.0945 122.877C92.0945 122.676 91.9301 122.512 91.7292 122.512C91.5283 122.512 91.3639 122.676 91.3639 122.877ZM94.2866 122.877C94.2866 123.078 94.451 123.243 94.6519 123.243C94.8528 123.243 95.0172 123.078 95.0172 122.877C95.0172 122.676 94.8528 122.512 94.6519 122.512C94.451 122.512 94.2866 122.676 94.2866 122.877ZM172.711 122.999C172.979 123.267 173.418 123.267 173.686 122.999C173.953 122.731 173.734 122.512 173.199 122.512C172.663 122.512 172.444 122.731 172.711 122.999ZM89.9025 123.973C89.9025 124.509 90.1217 124.728 90.3899 124.461C90.6573 124.192 90.6573 123.754 90.3899 123.486C90.1217 123.219 89.9025 123.438 89.9025 123.973ZM169.545 123.973C168.943 124.363 168.778 124.681 169.18 124.681C169.582 124.681 170.404 124.363 171.007 123.973C171.609 123.584 171.774 123.265 171.372 123.265C170.97 123.265 170.148 123.584 169.545 123.973ZM84.7879 124.339C84.7879 124.54 84.9523 124.704 85.1532 124.704C85.3541 124.704 85.5185 124.54 85.5185 124.339C85.5185 124.138 85.3541 123.973 85.1532 123.973C84.9523 123.973 84.7879 124.138 84.7879 124.339ZM87.2232 124.461C87.4913 124.728 87.9297 124.728 88.1979 124.461C88.4653 124.192 88.2461 123.973 87.7105 123.973C87.175 123.973 86.9558 124.192 87.2232 124.461ZM92.8252 124.339C92.8252 124.54 92.9896 124.704 93.1905 124.704C93.3915 124.704 93.5559 124.54 93.5559 124.339C93.5559 124.138 93.3915 123.973 93.1905 123.973C92.9896 123.973 92.8252 124.138 92.8252 124.339ZM131.551 124.339C131.551 124.54 131.715 124.704 131.916 124.704C132.117 124.704 132.281 124.54 132.281 124.339C132.281 124.138 132.117 123.973 131.916 123.973C131.715 123.973 131.551 124.138 131.551 124.339ZM167.353 125.069C167.353 125.27 167.518 125.435 167.719 125.435C167.92 125.435 168.084 125.27 168.084 125.069C168.084 124.868 167.92 124.704 167.719 124.704C167.518 124.704 167.353 124.868 167.353 125.069ZM164.431 126.165C163.828 126.555 163.663 126.873 164.065 126.873C164.467 126.873 165.289 126.555 165.892 126.165C166.495 125.776 166.659 125.457 166.257 125.457C165.855 125.457 165.033 125.776 164.431 126.165ZM79.1858 126.653C79.454 126.92 79.8924 126.92 80.1606 126.653C80.428 126.384 80.2088 126.165 79.6732 126.165C79.1376 126.165 78.9184 126.384 79.1858 126.653ZM81.8652 126.531C81.8652 126.732 82.0296 126.896 82.2305 126.896C82.4315 126.896 82.5959 126.732 82.5959 126.531C82.5959 126.33 82.4315 126.165 82.2305 126.165C82.0296 126.165 81.8652 126.33 81.8652 126.531ZM84.7879 126.531C84.7879 126.732 84.9523 126.896 85.1532 126.896C85.3541 126.896 85.5185 126.732 85.5185 126.531C85.5185 126.33 85.3541 126.165 85.1532 126.165C84.9523 126.165 84.7879 126.33 84.7879 126.531ZM87.2232 126.653C87.4913 126.92 87.9297 126.92 88.1979 126.653C88.4653 126.384 88.2461 126.165 87.7105 126.165C87.175 126.165 86.9558 126.384 87.2232 126.653ZM162.239 127.261C162.239 127.462 162.403 127.627 162.604 127.627C162.805 127.627 162.969 127.462 162.969 127.261C162.969 127.06 162.805 126.896 162.604 126.896C162.403 126.896 162.239 127.06 162.239 127.261ZM59.2145 127.992C59.2145 128.193 59.3789 128.357 59.5798 128.357C59.7808 128.357 59.9452 128.193 59.9452 127.992C59.9452 127.791 59.7808 127.627 59.5798 127.627C59.3789 127.627 59.2145 127.791 59.2145 127.992ZM78.2119 127.992C78.2119 128.193 78.3763 128.357 78.5772 128.357C78.7781 128.357 78.9425 128.193 78.9425 127.992C78.9425 127.791 78.7781 127.627 78.5772 127.627C78.3763 127.627 78.2119 127.791 78.2119 127.992ZM80.6472 128.114C80.9153 128.381 81.3537 128.381 81.6219 128.114C81.8893 127.846 81.6701 127.627 81.1345 127.627C80.599 127.627 80.3797 127.846 80.6472 128.114ZM160.777 127.992C160.777 128.193 160.942 128.357 161.143 128.357C161.344 128.357 161.508 128.193 161.508 127.992C161.508 127.791 161.344 127.627 161.143 127.627C160.942 127.627 160.777 127.791 160.777 127.992ZM159.316 128.723C159.316 128.924 159.48 129.088 159.681 129.088C159.882 129.088 160.047 128.924 160.047 128.723C160.047 128.522 159.882 128.357 159.681 128.357C159.48 128.357 159.316 128.522 159.316 128.723ZM55.0738 129.575C55.342 129.843 55.7804 129.843 56.0485 129.575C56.3159 129.307 56.0967 129.088 55.5612 129.088C55.0256 129.088 54.8064 129.307 55.0738 129.575ZM57.7532 129.453C57.7532 129.654 57.9176 129.819 58.1185 129.819C58.3194 129.819 58.4838 129.654 58.4838 129.453C58.4838 129.252 58.3194 129.088 58.1185 129.088C57.9176 129.088 57.7532 129.252 57.7532 129.453ZM60.6758 129.453C60.6758 129.654 60.8402 129.819 61.0412 129.819C61.2421 129.819 61.4065 129.654 61.4065 129.453C61.4065 129.252 61.2421 129.088 61.0412 129.088C60.8402 129.088 60.6758 129.252 60.6758 129.453ZM79.6732 129.453C79.6732 129.654 79.8376 129.819 80.0385 129.819C80.2395 129.819 80.4039 129.654 80.4039 129.453C80.4039 129.252 80.2395 129.088 80.0385 129.088C79.8376 129.088 79.6732 129.252 79.6732 129.453ZM155.985 130.224C154.648 131.296 154.671 131.311 156.393 130.491C158.63 129.426 159.044 129.088 158.116 129.088C157.724 129.088 156.765 129.599 155.985 130.224ZM54.0998 130.915C54.0998 131.116 54.2642 131.28 54.4652 131.28C54.6661 131.28 54.8305 131.116 54.8305 130.915C54.8305 130.714 54.6661 130.549 54.4652 130.549C54.2642 130.549 54.0998 130.714 54.0998 130.915ZM55.1673 132.042C53.9836 133.351 53.969 133.476 55.0541 133.06C55.7351 132.799 56.2918 132.256 56.2918 131.854C56.2918 131.452 56.8018 131.319 57.4258 131.559C58.0761 131.808 58.3691 131.685 58.1134 131.272C57.4426 130.186 56.6623 130.39 55.1673 132.042ZM59.2145 130.915C59.2145 131.116 59.3789 131.28 59.5798 131.28C59.7808 131.28 59.9452 131.116 59.9452 130.915C59.9452 130.714 59.7808 130.549 59.5798 130.549C59.3789 130.549 59.2145 130.714 59.2145 130.915ZM78.2119 130.915C78.2119 131.116 78.3763 131.28 78.5772 131.28C78.7781 131.28 78.9425 131.116 78.9425 130.915C78.9425 130.714 78.7781 130.549 78.5772 130.549C78.3763 130.549 78.2119 130.714 78.2119 130.915ZM80.4039 130.915C80.4039 131.116 80.5683 131.28 80.7692 131.28C80.9701 131.28 81.1345 131.116 81.1345 130.915C81.1345 130.714 80.9701 130.549 80.7692 130.549C80.5683 130.549 80.4039 130.714 80.4039 130.915ZM52.6385 132.011C52.6385 132.546 52.8577 132.765 53.1258 132.498C53.3933 132.23 53.3933 131.791 53.1258 131.523C52.8577 131.256 52.6385 131.475 52.6385 132.011ZM153.471 131.645C153.471 131.846 153.635 132.011 153.836 132.011C154.037 132.011 154.201 131.846 154.201 131.645C154.201 131.444 154.037 131.28 153.836 131.28C153.635 131.28 153.471 131.444 153.471 131.645ZM79.6732 132.376C79.6732 132.577 79.8376 132.741 80.0385 132.741C80.2395 132.741 80.4039 132.577 80.4039 132.376C80.4039 132.175 80.2395 132.011 80.0385 132.011C79.8376 132.011 79.6732 132.175 79.6732 132.376ZM152.009 132.376C152.009 132.577 152.174 132.741 152.375 132.741C152.576 132.741 152.74 132.577 152.74 132.376C152.74 132.175 152.576 132.011 152.375 132.011C152.174 132.011 152.009 132.175 152.009 132.376ZM150.548 133.107C150.548 133.308 150.712 133.472 150.913 133.472C151.114 133.472 151.279 133.308 151.279 133.107C151.279 132.906 151.114 132.741 150.913 132.741C150.712 132.741 150.548 132.906 150.548 133.107ZM78.2119 133.837C78.2119 134.038 78.3763 134.203 78.5772 134.203C78.7781 134.203 78.9425 134.038 78.9425 133.837C78.9425 133.636 78.7781 133.472 78.5772 133.472C78.3763 133.472 78.2119 133.636 78.2119 133.837ZM76.7505 134.568C76.7505 134.769 76.9149 134.933 77.1159 134.933C77.3168 134.933 77.4812 134.769 77.4812 134.568C77.4812 134.367 77.3168 134.203 77.1159 134.203C76.9149 134.203 76.7505 134.367 76.7505 134.568ZM78.2119 136.395C78.2119 136.93 78.4311 137.149 78.6992 136.882C78.9666 136.614 78.9666 136.175 78.6992 135.907C78.4311 135.64 78.2119 135.859 78.2119 136.395ZM141.049 136.395C141.049 136.93 141.268 137.149 141.537 136.882C141.804 136.614 141.804 136.175 141.537 135.907C141.268 135.64 141.049 135.859 141.049 136.395ZM184.159 136.343C184.159 136.755 185.035 137.666 186.107 138.368L188.056 139.645L186.29 140.199C184.627 140.719 184.64 140.737 186.521 140.503C187.619 140.367 190.239 140.702 192.343 141.248C194.446 141.794 197.987 142.194 200.21 142.138C204.074 142.04 204.009 142.012 198.751 141.508C191.696 140.831 190.232 140.366 186.899 137.748C185.392 136.563 184.159 135.932 184.159 136.343ZM139.588 137.655C139.588 138.593 134.735 142.186 133.887 141.875C133.364 141.683 133.137 141.851 133.382 142.248C133.628 142.646 133.344 142.971 132.75 142.971C132.158 142.971 131.563 143.229 131.429 143.545C131.022 144.503 126.38 147.542 125.962 147.124C125.464 146.627 127.195 141.444 128.27 140.212C128.717 139.699 130.099 139.206 131.342 139.116C132.584 139.026 133.414 138.649 133.187 138.28C132.959 137.91 133.251 137.792 133.836 138.016C134.421 138.24 135.493 137.99 136.219 137.459C137.408 136.59 139.588 136.717 139.588 137.655ZM76.7505 137.856C76.7505 138.392 76.9697 138.611 77.2379 138.343C77.5053 138.075 77.5053 137.637 77.2379 137.369C76.9697 137.101 76.7505 137.32 76.7505 137.856ZM137.396 137.491C137.396 137.692 137.56 137.856 137.761 137.856C137.962 137.856 138.127 137.692 138.127 137.491C138.127 137.29 137.962 137.125 137.761 137.125C137.56 137.125 137.396 137.29 137.396 137.491ZM214.847 138.221C214.847 138.422 215.011 138.587 215.212 138.587C215.413 138.587 215.577 138.422 215.577 138.221C215.577 138.02 215.413 137.856 215.212 137.856C215.011 137.856 214.847 138.02 214.847 138.221ZM75.2892 138.952C75.2892 139.153 75.4536 139.317 75.6545 139.317C75.8555 139.317 76.0199 139.153 76.0199 138.952C76.0199 138.751 75.8555 138.587 75.6545 138.587C75.4536 138.587 75.2892 138.751 75.2892 138.952ZM78.2119 138.952C78.2119 139.153 78.3763 139.317 78.5772 139.317C78.7781 139.317 78.9425 139.153 78.9425 138.952C78.9425 138.751 78.7781 138.587 78.5772 138.587C78.3763 138.587 78.2119 138.751 78.2119 138.952ZM135.935 138.952C135.935 139.153 136.099 139.317 136.3 139.317C136.501 139.317 136.665 139.153 136.665 138.952C136.665 138.751 136.501 138.587 136.3 138.587C136.099 138.587 135.935 138.751 135.935 138.952ZM213.385 138.952C213.385 139.153 213.55 139.317 213.751 139.317C213.952 139.317 214.116 139.153 214.116 138.952C214.116 138.751 213.952 138.587 213.751 138.587C213.55 138.587 213.385 138.751 213.385 138.952ZM211.437 139.805C211.705 140.072 212.143 140.072 212.411 139.805C212.679 139.537 212.46 139.317 211.924 139.317C211.388 139.317 211.169 139.537 211.437 139.805ZM76.7505 140.413C76.7505 140.614 76.9149 140.779 77.1159 140.779C77.3168 140.779 77.4812 140.614 77.4812 140.413C77.4812 140.212 77.3168 140.048 77.1159 140.048C76.9149 140.048 76.7505 140.212 76.7505 140.413ZM129.359 141.144C129.859 141.747 130.58 142.24 130.962 142.24C131.343 142.24 131.162 141.747 130.559 141.144C129.956 140.541 129.235 140.048 128.956 140.048C128.677 140.048 128.858 140.541 129.359 141.144ZM131.551 140.413C131.551 140.614 131.715 140.779 131.916 140.779C132.117 140.779 132.281 140.614 132.281 140.413C132.281 140.212 132.117 140.048 131.916 140.048C131.715 140.048 131.551 140.212 131.551 140.413ZM134.473 140.413C134.473 140.614 134.638 140.779 134.839 140.779C135.04 140.779 135.204 140.614 135.204 140.413C135.204 140.212 135.04 140.048 134.839 140.048C134.638 140.048 134.473 140.212 134.473 140.413ZM209.245 140.535C209.513 140.803 209.951 140.803 210.219 140.535C210.487 140.267 210.268 140.048 209.732 140.048C209.196 140.048 208.977 140.267 209.245 140.535ZM75.2892 141.509C75.2892 142.045 75.5084 142.264 75.7766 141.997C76.044 141.729 76.044 141.29 75.7766 141.022C75.5084 140.755 75.2892 140.974 75.2892 141.509ZM182.697 141.144C182.697 141.345 182.862 141.509 183.063 141.509C183.264 141.509 183.428 141.345 183.428 141.144C183.428 140.943 183.264 140.779 183.063 140.779C182.862 140.779 182.697 140.943 182.697 141.144ZM205.896 141.262C206.399 141.465 207.221 141.465 207.723 141.262C208.225 141.06 207.814 140.894 206.809 140.894C205.805 140.894 205.394 141.06 205.896 141.262ZM127.897 141.875C127.897 142.076 128.062 142.24 128.263 142.24C128.464 142.24 128.628 142.076 128.628 141.875C128.628 141.674 128.464 141.509 128.263 141.509C128.062 141.509 127.897 141.674 127.897 141.875ZM178.177 142.008C178.704 142.22 179.334 142.193 179.577 141.951C179.819 141.708 179.388 141.536 178.618 141.567C177.767 141.602 177.594 141.775 178.177 142.008ZM73.8279 142.971C73.8279 143.506 74.0471 143.725 74.3152 143.458C74.5826 143.19 74.5826 142.751 74.3152 142.483C74.0471 142.216 73.8279 142.435 73.8279 142.971ZM76.7505 142.971C76.7505 143.506 76.9697 143.725 77.2379 143.458C77.5053 143.19 77.5053 142.751 77.2379 142.483C76.9697 142.216 76.7505 142.435 76.7505 142.971ZM175.634 142.727C175.902 142.995 176.341 142.995 176.609 142.727C176.876 142.459 176.657 142.24 176.121 142.24C175.586 142.24 175.367 142.459 175.634 142.727ZM108.323 143.993C108.841 144.555 109.381 144.906 109.521 144.772C109.954 144.36 108.856 142.971 108.098 142.971C107.703 142.971 107.805 143.431 108.323 143.993ZM128.871 143.458C129.139 143.725 129.578 143.725 129.846 143.458C130.113 143.19 129.894 142.971 129.359 142.971C128.823 142.971 128.604 143.19 128.871 143.458ZM171.737 143.336C171.737 143.537 171.902 143.701 172.103 143.701C172.304 143.701 172.468 143.537 172.468 143.336C172.468 143.135 172.304 142.971 172.103 142.971C171.902 142.971 171.737 143.135 171.737 143.336ZM75.2892 144.067C75.2892 144.268 75.4536 144.432 75.6545 144.432C75.8555 144.432 76.0199 144.268 76.0199 144.067C76.0199 143.866 75.8555 143.701 75.6545 143.701C75.4536 143.701 75.2892 143.866 75.2892 144.067ZM169.409 144.2C169.936 144.412 170.566 144.385 170.809 144.143C171.051 143.9 170.62 143.728 169.85 143.759C168.999 143.794 168.826 143.967 169.409 144.2ZM105.542 145.276C105.219 145.798 105.342 145.921 105.864 145.597C106.328 145.311 106.708 144.932 106.708 144.754C106.708 144.145 106.063 144.433 105.542 145.276ZM127.897 144.797C127.897 144.998 128.062 145.163 128.263 145.163C128.464 145.163 128.628 144.998 128.628 144.797C128.628 144.596 128.464 144.432 128.263 144.432C128.062 144.432 127.897 144.596 127.897 144.797ZM167.353 144.797C167.353 144.998 167.518 145.163 167.719 145.163C167.92 145.163 168.084 144.998 168.084 144.797C168.084 144.596 167.92 144.432 167.719 144.432C167.518 144.432 167.353 144.596 167.353 144.797ZM99.4012 145.893C99.4012 146.295 99.0922 146.624 98.7137 146.624C98.3352 146.624 97.823 146.295 97.5746 145.893C97.3261 145.491 97.6359 145.163 98.2621 145.163C98.8883 145.163 99.4012 145.491 99.4012 145.893ZM102.324 145.893C102.324 146.429 102.543 146.648 102.811 146.381C103.079 146.113 103.079 145.674 102.811 145.406C102.543 145.139 102.324 145.358 102.324 145.893ZM126.436 145.893C126.436 146.429 126.655 146.648 126.923 146.381C127.191 146.113 127.191 145.674 126.923 145.406C126.655 145.139 126.436 145.358 126.436 145.893ZM161.508 146.259L158.951 147.244L163.335 147.19C165.746 147.16 166.809 146.998 165.697 146.83C164.585 146.662 163.864 146.218 164.096 145.844C164.593 145.039 164.732 145.017 161.508 146.259ZM100.863 146.989C100.863 147.19 101.027 147.355 101.228 147.355C101.429 147.355 101.593 147.19 101.593 146.989C101.593 146.788 101.429 146.624 101.228 146.624C101.027 146.624 100.863 146.788 100.863 146.989ZM103.785 146.989C103.785 147.19 103.95 147.355 104.151 147.355C104.352 147.355 104.516 147.19 104.516 146.989C104.516 146.788 104.352 146.624 104.151 146.624C103.95 146.624 103.785 146.788 103.785 146.989ZM45.5247 147.879C46.6353 148.047 48.2793 148.042 49.178 147.869C50.0768 147.696 49.1678 147.559 47.1585 147.564C45.1491 147.569 44.4141 147.711 45.5247 147.879ZM157.124 147.72C157.124 147.921 157.288 148.085 157.489 148.085C157.69 148.085 157.855 147.921 157.855 147.72C157.855 147.519 157.69 147.355 157.489 147.355C157.288 147.355 157.124 147.519 157.124 147.72ZM172.304 147.89C174.023 148.045 176.653 148.043 178.15 147.886C179.646 147.729 178.24 147.602 175.025 147.605C171.81 147.607 170.586 147.736 172.304 147.89ZM97.2092 148.451C97.2092 148.652 97.3736 148.816 97.5746 148.816C97.7755 148.816 97.9399 148.652 97.9399 148.451C97.9399 148.25 97.7755 148.085 97.5746 148.085C97.3736 148.085 97.2092 148.25 97.2092 148.451ZM99.4012 148.451C99.4012 148.652 99.5656 148.816 99.7666 148.816C99.9675 148.816 100.132 148.652 100.132 148.451C100.132 148.25 99.9675 148.085 99.7666 148.085C99.5656 148.085 99.4012 148.25 99.4012 148.451ZM102.324 148.451C102.324 148.652 102.488 148.816 102.689 148.816C102.89 148.816 103.055 148.652 103.055 148.451C103.055 148.25 102.89 148.085 102.689 148.085C102.488 148.085 102.324 148.25 102.324 148.451ZM154.201 148.816C153.599 149.205 153.434 149.524 153.836 149.524C154.238 149.524 155.06 149.205 155.663 148.816C156.265 148.427 156.43 148.108 156.028 148.108C155.626 148.108 154.804 148.427 154.201 148.816ZM183.229 148.613C184.526 148.774 186.828 148.777 188.344 148.619C189.859 148.46 188.798 148.329 185.985 148.325C183.172 148.322 181.932 148.451 183.229 148.613ZM193.488 149.346C194.801 149.508 196.774 149.505 197.872 149.338C198.97 149.171 197.895 149.038 195.484 149.042C193.073 149.046 192.175 149.183 193.488 149.346ZM151.522 150.034C151.79 150.301 152.229 150.301 152.497 150.034C152.764 149.766 152.545 149.547 152.009 149.547C151.474 149.547 151.255 149.766 151.522 150.034ZM201.877 150.07C202.982 150.237 204.791 150.237 205.896 150.07C207.001 149.902 206.097 149.766 203.887 149.766C201.676 149.766 200.773 149.902 201.877 150.07ZM209.549 150.793C210.454 150.967 211.933 150.967 212.837 150.793C213.742 150.619 213.002 150.476 211.193 150.476C209.385 150.476 208.645 150.619 209.549 150.793ZM147.625 151.373C147.625 151.574 147.79 151.739 147.991 151.739C148.192 151.739 148.356 151.574 148.356 151.373C148.356 151.172 148.192 151.008 147.991 151.008C147.79 151.008 147.625 151.172 147.625 151.373ZM218.135 151.772C223.154 152.554 227.326 152.492 222.884 151.701C221.076 151.38 218.445 151.136 217.039 151.16C214.948 151.195 215.147 151.307 218.135 151.772ZM94.4371 153.288C93.1452 153.765 92.8252 154.46 92.8252 156.787C92.8252 158.383 93.154 159.893 93.5559 160.141C94.0031 160.418 94.2866 159.27 94.2866 157.182V153.771L96.6612 154.116C97.9669 154.306 101.247 155.074 103.949 155.822C108.103 156.973 109.007 157.028 109.794 156.18C110.531 155.388 110.532 155.288 109.804 155.699C109.296 155.986 106.994 155.662 104.689 154.98C97.7901 152.936 96.1271 152.662 94.4371 153.288ZM145.105 155.003C146.551 158.463 146.496 158.689 143.789 160.423C142.484 161.259 141.762 161.949 142.188 161.956C142.614 161.962 143.6 161.485 144.38 160.895C146.319 159.429 146.742 159.51 147.109 161.42C147.378 162.812 147.442 162.752 147.526 161.029C147.581 159.91 148.188 158.101 148.875 157.01C150.115 155.044 150.113 155.038 148.651 156.291C147.223 157.515 147.149 157.476 146.258 155.012C145.753 153.614 145.048 152.469 144.692 152.469C144.337 152.469 144.523 153.61 145.105 155.003ZM229.095 153.242C230.702 153.574 232.839 153.828 233.844 153.804C235.016 153.778 234.623 153.546 232.748 153.158C231.141 152.826 229.003 152.572 227.999 152.596C226.827 152.622 227.22 152.854 229.095 153.242ZM142.511 153.565C142.511 153.766 142.675 153.931 142.876 153.931C143.077 153.931 143.241 153.766 143.241 153.565C143.241 153.364 143.077 153.2 142.876 153.2C142.675 153.2 142.511 153.364 142.511 153.565ZM140.319 154.296C140.319 154.497 140.483 154.661 140.684 154.661C140.885 154.661 141.049 154.497 141.049 154.296C141.049 154.095 140.885 153.931 140.684 153.931C140.483 153.931 140.319 154.095 140.319 154.296ZM240.055 155.07C242.466 155.613 244.932 156.034 245.535 156.004C247.249 155.918 239.547 154.07 237.497 154.075C236.493 154.078 237.644 154.525 240.055 155.07ZM138.857 155.027C138.857 155.228 139.022 155.392 139.223 155.392C139.424 155.392 139.588 155.228 139.588 155.027C139.588 154.826 139.424 154.661 139.223 154.661C139.022 154.661 138.857 154.826 138.857 155.027ZM137.396 155.757C137.396 155.958 137.56 156.123 137.761 156.123C137.962 156.123 138.127 155.958 138.127 155.757C138.127 155.556 137.962 155.392 137.761 155.392C137.56 155.392 137.396 155.556 137.396 155.757ZM135.935 156.488C135.935 156.689 136.099 156.853 136.3 156.853C136.501 156.853 136.665 156.689 136.665 156.488C136.665 156.287 136.501 156.123 136.3 156.123C136.099 156.123 135.935 156.287 135.935 156.488ZM134.473 157.219C134.473 157.42 134.638 157.584 134.839 157.584C135.04 157.584 135.204 157.42 135.204 157.219C135.204 157.018 135.04 156.853 134.839 156.853C134.638 156.853 134.473 157.018 134.473 157.219ZM129.907 159.095C128.4 159.891 127.167 160.705 127.167 160.904C127.167 161.23 132.938 158.532 133.682 157.859C134.522 157.099 132.328 157.817 129.907 159.095ZM124.614 161.96C124.359 162.374 124.652 162.496 125.302 162.247C126.567 161.761 126.799 161.237 125.748 161.237C125.37 161.237 124.86 161.562 124.614 161.96ZM122.783 163.064C122.783 163.265 122.947 163.429 123.148 163.429C123.349 163.429 123.513 163.265 123.513 163.064C123.513 162.863 123.349 162.699 123.148 162.699C122.947 162.699 122.783 162.863 122.783 163.064ZM120.182 164.566C118.82 165.657 118.829 165.67 120.408 164.905C121.312 164.467 122.052 163.955 122.052 163.769C122.052 163.21 121.673 163.372 120.182 164.566ZM123.262 165.706C121.717 166.522 120.616 167.352 120.816 167.551C121.015 167.751 122.772 167.085 124.72 166.071C126.668 165.057 127.769 164.227 127.167 164.227C126.564 164.225 124.807 164.891 123.262 165.706ZM116.529 166.758C115.167 167.849 115.176 167.862 116.755 167.097C117.659 166.659 118.399 166.147 118.399 165.961C118.399 165.402 118.019 165.564 116.529 166.758ZM87.8114 176.824L84.9092 179.727L83.1124 177.638C81.6394 175.925 81.437 175.201 81.9901 173.615L82.6638 171.681L86.6891 172.802L90.7143 173.922L87.8114 176.824ZM62.4375 181.591C62.6501 181.934 62.0115 182.061 61.0192 181.871C60.0263 181.681 59.2145 181.399 59.2145 181.245C59.2145 180.68 62.0634 180.985 62.4375 181.591ZM82.5959 182.649C82.5959 182.771 81.3632 184.003 79.8559 185.389L77.1159 187.907L79.6337 185.167C81.9777 182.617 82.5959 182.091 82.5959 182.649ZM47.9118 192.108C44.683 195.775 38.0251 207.756 38.0251 209.901C38.0251 210.606 37.1169 210.923 35.0886 210.923C32.2551 210.923 32.1688 210.852 32.635 208.913C33.9648 203.379 39.2395 196.64 46.3233 191.426C48.679 189.691 50.7607 188.272 50.9492 188.272C51.137 188.272 49.7699 189.999 47.9118 192.108ZM125.815 198.688C128.432 200.905 130.233 203.926 130.861 207.15L131.383 209.827L131.467 207.404C131.513 206.072 131.182 204.263 130.732 203.385C129.629 201.233 125.605 197.039 124.649 197.044C124.225 197.046 124.75 197.785 125.815 198.688ZM34.6977 202.084C29.0752 210.58 29.6553 219.566 36.3044 226.96C39.2234 230.207 39.7546 230.513 41.3994 229.887C44.558 228.687 48.6198 229.111 52.203 231.016C56.351 233.221 59.837 233.348 62.3366 231.381C67.859 227.038 71.5591 233.964 66.3385 238.874C65.0328 240.102 64.6251 240.757 65.4332 240.331C66.2413 239.903 67.5478 238.842 68.3362 237.971C69.6974 236.467 70.1906 236.409 78.1914 236.829C82.8246 237.073 100.753 237.913 118.033 238.697C135.314 239.48 152.649 240.327 156.557 240.578L163.661 241.035L163.221 245.524C162.98 247.993 162.567 250.253 162.306 250.546C162.045 250.839 140.113 251.168 113.567 251.277L65.3024 251.475L64.5045 248.924C63.5627 245.915 63.9295 245.176 65.3879 247.144C66.2939 248.365 66.6395 248.425 67.9949 247.597C69.2261 246.845 69.7858 246.83 70.6283 247.529C71.3304 248.112 71.9449 248.17 72.4177 247.697C72.8356 247.279 76.4122 247.087 80.9343 247.239C85.2219 247.384 88.5705 247.342 88.3762 247.148C87.6725 246.444 73.084 246.155 72.6632 246.837C72.4082 247.249 71.8119 247.175 71.1836 246.654C70.4054 246.007 69.6777 245.987 68.3873 246.574C66.9851 247.214 66.5592 247.148 66.2106 246.239C65.9103 245.456 65.2308 245.246 64.0018 245.555C63.0257 245.8 62.0225 245.67 61.7733 245.267C61.5241 244.864 60.5998 244.547 59.7194 244.562C58.3764 244.586 58.4809 244.748 60.3682 245.57C64.6587 247.439 65.3302 253.295 61.5914 256.236C58.128 258.96 52.9804 257.647 49.4228 253.133C48.3875 251.819 47.5362 251.13 47.5319 251.601C47.5172 253.191 51.2305 256.88 53.7703 257.798C56.6447 258.837 56.9268 259.973 54.8305 262.069C52.0532 264.847 46.5542 263.391 42.5355 258.814C41.2108 257.305 39.9263 256.272 39.6808 256.517C39.0481 257.15 45.8623 263.531 47.1716 263.531C47.7671 263.531 48.2545 263.822 48.2545 264.176C48.2545 265.225 45.5612 265.621 42.746 264.986C35.1624 263.275 28.5447 254.484 28.5308 246.102C28.5272 244.235 27.7534 242.793 25.2779 240.039C20.4372 234.655 18.7026 229.646 18.737 221.152C18.7684 213.24 20.3554 208.072 24.1731 203.442C26.5398 200.574 29.2579 199.407 33.834 199.298L36.5843 199.232L34.6977 202.084ZM132.976 206.74C133.332 209.751 133.347 209.766 133.595 207.359C133.735 206.002 133.571 204.613 133.23 204.273C132.89 203.932 132.776 205.043 132.976 206.74ZM57.0225 206.173C57.0225 206.374 56.8581 206.539 56.6572 206.539C56.4562 206.539 56.2918 206.374 56.2918 206.173C56.2918 205.972 56.4562 205.808 56.6572 205.808C56.8581 205.808 57.0225 205.972 57.0225 206.173ZM55.2565 211.727C54.6734 213.897 54.1744 215.052 54.148 214.296C54.0925 212.711 55.6649 207.13 56.0566 207.521C56.1998 207.665 55.8403 209.558 55.2565 211.727ZM138.699 220.166C135.647 225.954 133.61 227.229 128.116 226.797L123.585 226.441L123.96 228.363C124.456 230.906 122.924 232.831 119.824 233.561C117.65 234.072 117.566 234.165 119.213 234.23C121.916 234.335 124.975 231.726 124.975 229.314C124.975 227.425 125.102 227.362 128.412 227.626C132.474 227.949 135.569 226.522 137.853 223.273L139.407 221.062L139.917 223.116C141.04 227.639 146.388 230.505 151.949 229.565L154.648 229.109L154.357 231.601C154.119 233.633 154.434 234.381 156.059 235.66C157.155 236.522 158.583 237.206 159.232 237.181C160.118 237.146 160.047 236.985 158.951 236.536C158.147 236.207 156.848 235.225 156.065 234.354C154.838 232.99 154.757 232.457 155.487 230.524L156.334 228.278L152.771 228.751C148.644 229.298 143.42 227.82 142.197 225.759C141.767 225.033 141.25 222.632 141.049 220.421L140.684 216.403L138.699 220.166ZM102.072 228.063C101.879 228.564 98.4879 230.392 94.535 232.126C88.7934 234.644 86.2477 235.348 81.871 235.629C76.6416 235.965 76.4429 235.92 77.4848 234.651C79.5526 232.133 87.0223 227.851 93.3184 225.573C96.7891 224.317 100.153 222.993 100.794 222.632C101.751 222.091 101.999 222.435 102.19 224.562C102.317 225.986 102.264 227.562 102.072 228.063ZM194.388 239.786C210.238 243.814 213.266 244.8 214.664 246.394C216.697 248.711 216.719 249.66 214.793 252.107C212.871 254.551 209.432 254.691 207.02 252.425L205.309 250.818L188.928 253.186L172.547 255.554L168.032 253.275L163.517 250.996L163.974 247.663C164.225 245.83 164.431 243.569 164.431 242.64C164.431 241.331 165.541 240.292 169.363 238.022C172.075 236.411 174.623 235.084 175.025 235.073C175.427 235.062 184.14 237.183 194.388 239.786ZM69.4716 239.02C68.8929 239.718 68.8315 240.149 69.3116 240.149C69.7383 240.149 70.2951 239.816 70.5471 239.407C70.8 238.999 71.3947 238.907 71.8689 239.205C72.3439 239.501 74.3759 239.812 76.3852 239.894C78.3945 239.977 95.9854 240.725 115.476 241.557C148.365 242.961 161.279 243.285 158.585 242.64C157.983 242.496 140.556 241.697 119.86 240.865C75.3177 239.074 73.0789 238.958 71.5701 238.355C70.9169 238.094 69.9984 238.385 69.4716 239.02ZM176.487 238.688C176.238 239.09 175.15 239.442 174.069 239.47C172.497 239.511 172.371 239.627 173.438 240.047C174.637 240.52 174.583 240.675 172.89 241.58C170.887 242.653 169.214 241.999 171.028 240.852C171.619 240.478 171.757 240.167 171.335 240.16C170.436 240.147 168.815 241.644 168.815 242.488C168.815 243.428 171.649 243.161 173.407 242.054C174.621 241.29 175.938 241.191 178.679 241.66C183.541 242.493 187.056 242.96 185.319 242.544C184.55 242.36 183.473 241.759 182.923 241.21C182.374 240.661 181.387 240.418 180.73 240.67C179.93 240.977 179.71 240.845 180.063 240.274C180.415 239.704 179.953 239.419 178.679 239.419C177.589 239.419 176.96 239.104 177.217 238.688C177.466 238.286 177.505 237.957 177.304 237.957C177.103 237.957 176.735 238.286 176.487 238.688ZM57.5705 241.396C58.4743 241.57 59.9547 241.57 60.8585 241.396C61.7623 241.221 61.0229 241.079 59.2145 241.079C57.4061 241.079 56.6667 241.221 57.5705 241.396ZM54.0998 242.307C54.0998 243.866 55.8907 246.774 57.5004 247.828C58.4429 248.445 59.2145 248.694 59.2145 248.38C59.2145 248.065 58.5087 247.367 57.6458 246.828C56.3795 246.037 56.2736 245.724 57.0977 245.202C57.9154 244.685 57.8642 244.554 56.8398 244.544C55.6912 244.535 55.2272 243.724 55.4749 242.159C55.5224 241.857 55.2324 241.611 54.8305 241.611C54.4286 241.611 54.0998 241.924 54.0998 242.307ZM62.6033 242.18C62.4251 242.47 65.0964 242.789 68.54 242.889C71.9837 242.989 74.6469 242.917 74.4591 242.729C73.8651 242.135 62.9424 241.629 62.6033 242.18ZM80.5865 242.881C82.8969 243.026 86.6788 243.026 88.9892 242.881C91.2996 242.737 89.4093 242.618 84.7879 242.618C80.1664 242.618 78.2762 242.737 80.5865 242.881ZM99.5517 243.614C102.247 243.753 106.85 243.755 109.781 243.615C112.713 243.476 110.507 243.361 104.881 243.361C99.2551 243.359 96.857 243.473 99.5517 243.614ZM3.03784 248.692C2.99108 251.581 3.21904 254.11 3.54492 254.311C3.87007 254.512 4.01547 252.642 3.86788 250.153C3.46601 243.381 3.13283 242.794 3.03784 248.692ZM121.472 244.344C124.167 244.484 128.77 244.485 131.701 244.346C134.633 244.207 132.427 244.092 126.801 244.091C121.175 244.09 118.777 244.204 121.472 244.344ZM143.087 245.075C145.615 245.218 149.56 245.217 151.855 245.073C154.15 244.928 152.082 244.811 147.26 244.813C142.438 244.814 140.56 244.932 143.087 245.075ZM158.098 245.751C158.366 246.019 158.805 246.019 159.073 245.751C159.34 245.483 159.121 245.264 158.585 245.264C158.05 245.264 157.831 245.483 158.098 245.751ZM95.7479 246.733C102.823 247.303 133.504 247.677 132.951 247.187C132.783 247.037 122.783 246.75 110.727 246.545C98.2205 246.333 91.7877 246.414 95.7479 246.733ZM134.108 247.821C134.51 247.959 140.264 248.201 146.895 248.358C153.525 248.515 157.471 248.401 155.663 248.104C152.47 247.58 132.643 247.32 134.108 247.821ZM0.818799 252.249C0.78738 253.478 1.24113 255.122 1.82785 255.902C2.79014 257.181 2.82156 257.033 2.15008 254.397C1.04458 250.058 0.882367 249.795 0.818799 252.249ZM162.969 252.205C162.969 252.406 162.805 252.571 162.604 252.571C162.403 252.571 162.239 252.406 162.239 252.205C162.239 252.005 162.403 251.84 162.604 251.84C162.805 251.84 162.969 252.005 162.969 252.205ZM21.2198 256.224C21.2198 257.198 20.7324 257.685 19.7584 257.685C18.7845 257.685 18.2971 257.198 18.2971 256.224C18.2971 255.25 18.7845 254.763 19.7584 254.763C20.7324 254.763 21.2198 255.25 21.2198 256.224ZM114.015 256.008C114.015 256.291 112.556 259.497 110.773 263.132C103.889 277.169 94.6205 284.543 82.9188 285.294C76.8711 285.682 73.3149 284.739 70.6041 282.028C68.0987 279.523 68.2192 278.836 71.0878 279.274C73.2294 279.601 73.1754 279.536 70.5398 278.618C68.9324 278.058 65.8088 276.739 63.5985 275.687C57.8803 272.966 53.7732 273.122 45.7191 276.37C38.0047 279.481 31.3213 280.261 26.3344 278.632L23.0464 277.558L27.1148 277.486C32.3559 277.393 37.046 275.973 43.9961 272.377C52.6801 267.883 54.7903 267.821 63.3844 271.809C67.3198 273.634 71.6907 275.326 73.0972 275.567C75.3761 275.958 80.6983 274.932 84.2399 273.42C85.3015 272.966 85.5185 273.261 85.5185 275.159C85.5185 277.871 84.2749 278.59 77.8465 279.595L73.4625 280.281L78.2119 279.941C84.7564 279.473 86.5466 278.06 86.8352 273.135C87.0478 269.514 86.9192 269.223 83.4595 265.537C80.3885 262.265 77.4812 257.946 77.4812 256.657C77.4812 256.158 85.4594 255.813 101.045 255.639C108.178 255.559 114.015 255.725 114.015 256.008ZM88.8065 256.955C87.7529 257.408 88.5048 257.597 91.5034 257.634C93.7904 257.662 95.8648 257.357 96.1132 256.955C96.6685 256.057 90.8962 256.057 88.8065 256.955ZM95.3826 259.147C94.158 259.673 94.3055 259.783 96.2959 259.826C97.6016 259.854 98.6706 259.549 98.6706 259.147C98.6706 258.28 97.4014 258.28 95.3826 259.147ZM182.697 259.147C181.037 259.679 181.103 259.734 183.428 259.753C184.835 259.765 186.643 259.492 187.447 259.147C188.687 258.613 188.577 258.522 186.716 258.54C185.51 258.552 183.702 258.825 182.697 259.147ZM25.9691 266.088C25.9691 267.936 25.6842 268.28 24.1527 268.28C22.9807 268.28 22.2456 267.811 22.0812 266.959C21.6545 264.742 22.5584 263.412 24.3222 263.662C25.6133 263.846 25.9691 264.37 25.9691 266.088ZM138.129 274.308C139.707 275.816 141.192 277.883 141.429 278.903C141.801 280.501 141.475 280.946 139.08 282.12C136.288 283.487 124.244 284.723 124.244 283.642C124.244 283.35 126.381 280.802 128.993 277.981C131.605 275.16 133.743 272.563 133.743 272.21C133.743 270.885 135.352 271.655 138.129 274.308ZM28.7654 280.088C29.0306 280.353 28.571 281.044 27.7439 281.624C26.0473 282.812 25.21 282.416 25.8559 280.733C26.2986 279.579 27.901 279.224 28.7654 280.088ZM69.0712 289.097C70.222 290.298 70.9381 291.507 70.6619 291.784C70.127 292.318 65.7905 288.51 65.7905 287.506C65.7905 286.35 67.0042 286.938 69.0712 289.097ZM68.3405 294.212C71.0345 297.023 70.1095 298.053 67.3037 295.365C66.1347 294.244 64.8231 293.548 64.3884 293.817C63.532 294.346 63.2909 293.309 64.0859 292.514C65.0379 291.562 66.2757 292.055 68.3405 294.212ZM73.0972 293.488C73.0972 293.89 72.7684 294.219 72.3665 294.219C71.9646 294.219 71.6358 293.89 71.6358 293.488C71.6358 293.086 71.9646 292.758 72.3665 292.758C72.7684 292.758 73.0972 293.086 73.0972 293.488ZM61.4065 293.854C61.4065 294.054 61.2421 294.219 61.0412 294.219C60.8402 294.219 60.6758 294.054 60.6758 293.854C60.6758 293.653 60.8402 293.488 61.0412 293.488C61.2421 293.488 61.4065 293.653 61.4065 293.854ZM63.3552 296.168C63.087 296.435 62.8678 296.216 62.8678 295.68C62.8678 295.145 63.087 294.925 63.3552 295.193C63.6226 295.461 63.6226 295.899 63.3552 296.168Z" fill="#323036"/>
</svg>
