<svg width="1069" height="225" viewBox="0 0 1069 225" fill="none" xmlns="http://www.w3.org/2000/svg">
<path d="M15.3783 178.134L159.408 165.533L158.135 150.979L41.3233 161.198L145.473 39.9991L144.44 28.1856L7.21439 40.1913L8.52079 55.1235L118.811 45.4743L14.3696 166.604L15.3783 178.134Z" fill="black"/>
<path d="M197.958 189.083L317.888 199.575L319.154 185.116L216.707 176.153L221.007 127.009L312.301 134.996L313.5 121.292L222.205 113.305L226.183 67.8468L327.4 76.7022L328.699 61.8645L209.997 51.4794L197.958 189.083Z" fill="black"/>
<path d="M366.316 157.008L384.462 155.421L380.187 106.56L439.349 101.384C457.872 99.7636 471.026 94.4544 478.81 85.4565C486.588 76.3957 489.906 65.3442 488.765 52.3021C487.536 38.252 482.298 27.7269 473.051 20.7269C463.868 13.7214 450.108 11.0207 431.774 12.6248L354.277 19.4048L366.316 157.008ZM378.98 92.762L373.688 32.277L430.015 27.3491C443.939 26.1308 453.97 27.9514 460.109 32.8108C466.306 37.6016 469.818 44.7224 470.644 54.1732C471.438 63.2459 469.245 70.8341 464.065 76.9377C458.88 82.9782 449.294 86.6104 435.306 87.8341L378.98 92.762Z" fill="black"/>
<path d="M516.473 19.999L704.753 36.4715L688.281 224.752L500 208.28L516.473 19.999Z" fill="#D9FD51"/>
<path d="M521.512 187.276L539.658 188.863L545.198 125.543L651.235 134.82L645.696 198.14L663.841 199.728L675.88 62.1244L657.734 60.5369L652.6 119.226L546.562 109.949L551.696 51.2598L533.551 49.6723L521.512 187.276Z" fill="black"/>
<path d="M808.844 170.599L827.178 168.995L822.713 117.96L885.831 25.2065L865.89 26.9511L818.22 98.1646C817.201 99.5869 816.384 100.769 815.768 101.712C815.215 102.649 814.461 103.826 813.506 105.243L813.033 105.284C811.841 103.992 810.863 102.967 810.098 102.208C809.328 101.387 808.349 100.361 807.162 99.132L747.472 37.3114L725.924 39.1966L804.379 119.565L808.844 170.599Z" fill="black"/>
<path d="M914.135 186.535L932.28 188.122L937.167 132.268L1001.43 137.89C1016.24 139.186 1028.16 136.42 1037.2 129.592C1046.24 122.765 1051.31 113.113 1052.4 100.638C1053.49 88.1633 1050.29 77.979 1042.79 70.0853C1035.36 62.1341 1024.02 57.4916 1008.77 56.1576L926.173 48.931L914.135 186.535ZM938.316 119.131L943.104 64.4112L1004.82 69.8105C1015.65 70.7586 1023.41 73.9446 1028.07 79.3685C1032.74 84.7924 1034.72 91.5997 1034 99.7904C1033.3 107.855 1030.17 114.247 1024.61 118.967C1019.12 123.63 1010.93 125.484 1000.03 124.531L938.316 119.131ZM1034.54 197.068L1055.8 198.929L1015.71 132.474L996.463 131.551L1034.54 197.068Z" fill="black"/>
</svg>
