<svg width="45" height="37" viewBox="0 0 45 37" fill="none" xmlns="http://www.w3.org/2000/svg">
<g clip-path="url(#clip0_155_13194)">
<path d="M1.51618 13.5337C3.24912 20.6579 3.5012 31.6057 12.4497 33.6286C16.163 34.4661 20.1684 32.9166 22.429 29.878C24.5519 27.0212 24.7548 23.2191 24.4087 19.8023C23.8866 14.7244 22.2703 9.77401 19.7747 5.32845C19.042 4.02362 15.2531 6.18801 16.027 7.49215C18.5314 11.7387 20.119 16.4275 20.6383 21.3405C20.8377 23.2438 20.9122 25.2219 20.4732 27.0995C20.154 28.4584 19.5443 30.2782 18.1401 30.8719C16.5505 31.5463 14.4595 30.9678 13.0202 30.1939C11.1792 29.1964 9.8323 27.5696 8.83877 25.7549C6.53152 21.5487 6.3298 16.6231 5.21701 12.0451C4.83636 10.47 1.2306 12.2747 1.53102 13.5504L1.52136 13.553L1.51618 13.5337Z" fill="#323036" fill-opacity="0.55"/>
<path d="M33.8597 3.10727C35.2715 11.0422 36.9615 18.9337 38.9124 26.7553C39.2949 28.2989 42.826 26.5245 42.5166 25.2926C40.5658 17.471 38.8757 9.57956 37.4639 1.64459C37.1883 0.113754 33.6294 1.8231 33.8597 3.10727Z" fill="#323036" fill-opacity="0.55"/>
</g>
<defs>
<clipPath id="clip0_155_13194">
<rect width="38.34" height="27.21" fill="white" transform="translate(0 9.9231) rotate(-15)"/>
</clipPath>
</defs>
</svg>
