<svg width="63" height="45" viewBox="0 0 63 45" fill="none" xmlns="http://www.w3.org/2000/svg">
<g clip-path="url(#clip0_155_13190)">
<path d="M1.80965 16.9885C2.71189 25.8763 4.33099 36.7921 13.707 40.668C17.8492 42.3798 22.8229 41.648 26.2931 38.7821C29.7632 35.9162 29.9868 31.0755 29.6722 26.7519C29.25 20.889 28.0324 14.5751 25.4464 9.26268C24.7979 7.92479 21.0879 9.75772 21.5895 11.1764C23.1477 15.595 24.629 19.8864 25.2798 24.5602C25.5771 26.6834 25.7569 28.8305 25.7739 30.9798C25.7941 32.7919 25.6751 34.673 24.879 36.3341C23.3257 39.5463 19.1849 39.2014 16.4067 37.9276C13.2575 36.484 10.8072 33.7561 9.22302 30.7202C6.81517 26.0859 6.26293 20.7901 5.72483 15.665C5.5561 14.0258 1.66114 15.6004 1.80965 16.9885Z" fill="#323036" fill-opacity="0.55"/>
<path d="M43.5325 30.2501C45.6097 25.5951 47.5849 20.8894 49.4384 16.1369C50.3642 13.7557 51.2585 11.3707 52.1195 8.97209C52.9805 6.57345 53.9693 4.30197 54.4713 1.89439C54.6517 1.07222 53.195 1.23463 52.8265 1.32966C51.9935 1.54938 51.0377 2.06946 50.6632 2.89014C49.6118 5.20493 48.9414 7.73843 48.0686 10.1293C47.1958 12.5201 46.3541 14.7618 45.4634 17.0644C43.6353 21.7404 41.6952 26.3676 39.6452 30.9558C39.2297 31.8766 40.3774 32.0523 41.0184 31.9429C41.9575 31.7935 43.1248 31.1591 43.5325 30.2501Z" fill="#323036" fill-opacity="0.55"/>
<path d="M35.7006 11.3793C39.6287 14.5527 43.4629 17.8165 47.1993 21.2022C49.0115 22.8452 50.8061 24.5019 52.5675 26.196C54.4408 27.9898 56.2126 29.9368 58.1955 31.6166C59.1192 32.3988 62.6094 30.539 61.7715 29.5252C60.2156 27.6364 58.3582 25.972 56.5949 24.2681C54.7196 22.4645 52.8208 20.6962 50.8965 18.9535C47.0992 15.519 43.2119 12.1945 39.2228 8.97221C38.089 8.05911 34.4056 10.3254 35.7006 11.3793Z" fill="#323036" fill-opacity="0.55"/>
</g>
<defs>
<clipPath id="clip0_155_13190">
<rect width="56.83" height="32.87" fill="white" transform="translate(0.302979 11.9677) rotate(-11.4497)"/>
</clipPath>
</defs>
</svg>
