<svg width="273" height="293" viewBox="0 0 273 293" fill="none" xmlns="http://www.w3.org/2000/svg">
<path d="M-10.4872 204.187C-2.99732 157.76 46.3113 147.401 70.0294 148.025C60.0428 124.313 31.4563 77.2618 64.412 56.2949C94.843 36.9342 134.534 96.4262 147.808 138.081C134.783 88.3755 122.122 4.33111 159.908 0.133594C200.354 -4.35931 207.969 105.592 206.72 161.129C212.338 128.057 231.437 71.6457 262.895 110.584C294.353 149.523 238.553 182.97 206.72 194.826C231.063 198.57 290.982 288.428 229.19 265.964C167.398 243.5 152.419 7.62185 159.908 148.025C167.398 288.429 98.1166 318.381 64.412 273.452C51.1143 255.726 59.9681 225.178 74.4143 197.56C33.7878 226.302 -16.6383 242.314 -10.4872 204.187Z" fill="#C7AFE8"/>
</svg>
