<svg width="564" height="487" viewBox="0 0 564 487" fill="none" xmlns="http://www.w3.org/2000/svg">
<path fill-rule="evenodd" clip-rule="evenodd" d="M345.638 2.84598C380.318 7.19894 410.255 24.4361 443.061 36.4953C482.899 51.1393 543.067 42.5814 559.822 81.5781C577.404 122.5 522.651 161.266 515.562 205.237C510.009 239.685 544.065 279.762 523.345 307.837C501.901 336.894 453.986 321.608 420.222 334.421C393.26 344.652 369.9 359.685 345.638 375.272C289.407 411.397 249.837 483.026 183.105 486.752C119.37 490.311 52.01 448.471 19.5976 393.477C-12.817 338.479 3.15065 267.515 17.1858 205.237C29.4359 150.88 53.3419 97.7116 94.6741 60.3433C131.689 26.878 184.351 21.2718 232.992 10.128C270.304 1.57948 307.657 -1.92133 345.638 2.84598Z" fill="white"/>
</svg>
