<svg width="254" height="293" viewBox="0 0 254 293" fill="none" xmlns="http://www.w3.org/2000/svg">
<path d="M0.512765 204.187C8.00268 157.76 57.3113 147.401 81.0294 148.025C71.0428 124.313 42.4563 77.2618 75.412 56.2949C105.843 36.9342 145.534 96.4262 158.808 138.081C145.783 88.3755 133.122 4.33111 170.908 0.133594C211.354 -4.35931 218.969 105.592 217.72 161.129C223.338 128.057 242.437 71.6457 273.895 110.584C305.353 149.523 249.553 182.97 217.72 194.826C242.063 198.57 301.982 288.428 240.19 265.964C178.398 243.5 163.419 7.62185 170.908 148.025C178.398 288.429 109.117 318.381 75.412 273.452C62.1143 255.726 70.9681 225.178 85.4143 197.56C44.7878 226.302 -5.6383 242.314 0.512765 204.187Z" fill="#A2B6F4"/>
</svg>
