<svg width="255" height="284" viewBox="0 0 255 284" fill="none" xmlns="http://www.w3.org/2000/svg">
<path d="M166.187 282.686C119.76 275.197 109.401 225.888 110.025 202.17C86.3126 212.156 39.2618 240.743 18.2949 207.787C-1.06577 177.356 58.4262 137.665 100.081 124.391C50.3755 137.416 -33.6689 150.077 -37.8664 112.291C-42.3593 71.8452 67.5921 64.2304 123.129 65.4788C90.0567 59.8613 33.6457 40.762 72.5842 9.30438C111.523 -22.1533 144.97 33.6466 156.826 65.4788C160.57 41.1365 250.428 -18.7828 227.964 43.009C205.5 104.801 -30.3782 119.781 110.025 112.291C250.429 104.801 280.381 174.083 235.452 207.787C217.726 221.085 187.178 212.231 159.56 197.785C188.302 238.411 204.314 288.838 166.187 282.686Z" fill="#A974EC"/>
</svg>
