<svg width="81" height="9" viewBox="0 0 81 9" fill="none" xmlns="http://www.w3.org/2000/svg">
<path d="M0.120244 3.89099C-0.0343158 3.60413 0.0729336 3.24629 0.359793 3.09173L5.03443 0.573024C5.32129 0.418464 5.67913 0.525713 5.83369 0.812572C5.98825 1.09943 5.881 1.45727 5.59414 1.61183L1.43891 3.85068L3.67776 8.00591C3.83232 8.29277 3.72507 8.65061 3.43821 8.80517C3.15135 8.95973 2.79351 8.85248 2.63895 8.56562L0.120244 3.89099ZM80.9049 3.02886C81.2265 2.97629 81.5298 3.19437 81.5823 3.51595C81.6349 3.83753 81.4168 4.14084 81.0952 4.1934L80.9049 3.02886ZM0.639648 3.61113C0.809035 3.04597 0.808928 3.04594 0.808929 3.04594C0.809073 3.04598 0.809183 3.04601 0.809472 3.0461C0.810049 3.04627 0.81106 3.04657 0.812502 3.047C0.815385 3.04785 0.819997 3.04922 0.826334 3.05107C0.839008 3.05479 0.858582 3.06048 0.885041 3.06806C0.937957 3.08322 1.01841 3.1059 1.12625 3.13535C1.34192 3.19424 1.66716 3.28014 2.1008 3.38685C2.96808 3.60027 4.26899 3.89689 5.99431 4.22694C9.44494 4.88705 14.5933 5.68092 21.3658 6.21041C34.9104 7.26935 54.9531 7.27095 80.9049 3.02886L81.0952 4.1934C55.047 8.45127 34.9094 8.45287 21.2738 7.38682C14.4562 6.85381 9.26454 6.05394 5.7726 5.38593C4.02664 5.05193 2.70564 4.75089 1.81884 4.53267C1.37544 4.42356 1.04059 4.33515 0.815442 4.27368C0.702868 4.24294 0.61772 4.21894 0.560142 4.20245C0.531353 4.1942 0.509456 4.18784 0.494471 4.18344C0.486978 4.18125 0.481212 4.17955 0.477177 4.17835C0.475159 4.17775 0.473574 4.17728 0.472421 4.17694C0.471845 4.17677 0.471305 4.1766 0.471017 4.17652C0.470586 4.17639 0.470262 4.17629 0.639648 3.61113Z" fill="#323036" fill-opacity="0.2"/>
</svg>
