<svg width="33" height="32" viewBox="0 0 33 32" fill="none" xmlns="http://www.w3.org/2000/svg">
<g clip-path="url(#clip0_375_2733)">
<path d="M16.6946 7.97224C17.4446 7.97224 18.0835 7.33334 18.0835 6.58333V2.50001C18.0835 1.75001 17.4446 1.09723 16.6946 1.09723C15.9446 1.09723 15.3057 1.75001 15.3057 2.50001V6.58333C15.3057 7.33334 15.9446 7.97224 16.6946 7.97224ZM10.4585 10.3889C11.0002 9.86113 11.0002 8.95833 10.4724 8.43057L7.63904 5.56945C7.11127 5.04168 6.2085 5.02777 5.68071 5.55556C5.13906 6.08335 5.13906 6.98612 5.66683 7.51389L8.50016 10.375C9.02795 10.9167 9.93072 10.9167 10.4585 10.3889ZM22.7919 10.5C23.3195 11.0278 24.2363 11.0278 24.764 10.5L27.6113 7.6389C28.1391 7.11112 28.1391 6.20834 27.6113 5.66667C27.0835 5.13889 26.1807 5.15279 25.639 5.68056L22.7919 8.54168C22.2641 9.06945 22.2641 9.97224 22.7919 10.5ZM15.5974 26.4306C15.5835 27.0416 16.3057 27.25 16.7085 26.8473L18.7501 24.7778L21.0696 30.514C21.2084 30.8334 21.514 31.0139 21.8612 30.8889L23.2779 30.3333C23.6251 30.1806 23.6946 29.8055 23.5558 29.514L21.0973 23.8473L24.028 23.7639C24.6251 23.75 24.9169 23.1527 24.4863 22.6944L16.7641 14.8056C16.3613 14.4028 15.7641 14.625 15.7502 15.2083L15.5974 26.4306ZM8.08349 16.5833C8.08349 15.8333 7.44461 15.1945 6.69462 15.1945H2.59739C1.84738 15.1945 1.2085 15.8333 1.2085 16.5833C1.2085 17.3333 1.84738 17.9723 2.59739 17.9723H6.69462C7.44461 17.9723 8.08349 17.3333 8.08349 16.5833ZM25.3195 16.5833C25.3195 17.3333 25.9585 17.9723 26.7085 17.9723H30.7919C31.5418 17.9723 32.1807 17.3333 32.1807 16.5833C32.1807 15.8333 31.5418 15.1945 30.7919 15.1945H26.7085C25.9585 15.1945 25.3195 15.8333 25.3195 16.5833ZM10.5835 22.6944C10.0696 22.1527 9.15294 22.1527 8.62516 22.6805L5.77794 25.514C5.23627 26.0416 5.23627 26.9444 5.75015 27.4722C6.29182 28.0139 7.1946 28.0277 7.73627 27.5001L10.5835 24.6528C11.1113 24.125 11.1252 23.2222 10.5835 22.6944Z" fill="black"/>
</g>
<defs>
<clipPath id="clip0_375_2733">
<rect width="32" height="32" fill="white" transform="translate(0.5)"/>
</clipPath>
</defs>
</svg>
