<svg width="18" height="18" viewBox="0 0 18 18" fill="none" xmlns="http://www.w3.org/2000/svg">
<g clip-path="url(#clip0_155_4778)">
<path d="M9.10938 4.48438C9.53125 4.48438 9.89062 4.125 9.89062 3.70312V1.40625C9.89062 0.984375 9.53125 0.617188 9.10938 0.617188C8.6875 0.617188 8.32812 0.984375 8.32812 1.40625V3.70312C8.32812 4.125 8.6875 4.48438 9.10938 4.48438ZM5.60156 5.84375C5.90625 5.54688 5.90625 5.03906 5.60938 4.74219L4.01562 3.13281C3.71875 2.83594 3.21094 2.82812 2.91406 3.125C2.60938 3.42188 2.60938 3.92969 2.90625 4.22656L4.5 5.83594C4.79688 6.14062 5.30469 6.14062 5.60156 5.84375ZM12.5391 5.90625C12.8359 6.20312 13.3516 6.20312 13.6484 5.90625L15.25 4.29688C15.5469 4 15.5469 3.49219 15.25 3.1875C14.9531 2.89062 14.4453 2.89844 14.1406 3.19531L12.5391 4.80469C12.2422 5.10156 12.2422 5.60938 12.5391 5.90625ZM8.49219 14.8672C8.48438 15.2109 8.89062 15.3281 9.11719 15.1016L10.2656 13.9375L11.5703 17.1641C11.6484 17.3438 11.8203 17.4453 12.0156 17.375L12.8125 17.0625C13.0078 16.9766 13.0469 16.7656 12.9688 16.6016L11.5859 13.4141L13.2344 13.3672C13.5703 13.3594 13.7344 13.0234 13.4922 12.7656L9.14844 8.32812C8.92188 8.10156 8.58594 8.22656 8.57812 8.55469L8.49219 14.8672ZM4.26562 9.32812C4.26562 8.90625 3.90625 8.54688 3.48438 8.54688H1.17969C0.757812 8.54688 0.398438 8.90625 0.398438 9.32812C0.398438 9.75 0.757812 10.1094 1.17969 10.1094H3.48438C3.90625 10.1094 4.26562 9.75 4.26562 9.32812ZM13.9609 9.32812C13.9609 9.75 14.3203 10.1094 14.7422 10.1094H17.0391C17.4609 10.1094 17.8203 9.75 17.8203 9.32812C17.8203 8.90625 17.4609 8.54688 17.0391 8.54688H14.7422C14.3203 8.54688 13.9609 8.90625 13.9609 9.32812ZM5.67188 12.7656C5.38281 12.4609 4.86719 12.4609 4.57031 12.7578L2.96875 14.3516C2.66406 14.6484 2.66406 15.1562 2.95312 15.4531C3.25781 15.7578 3.76562 15.7656 4.07031 15.4688L5.67188 13.8672C5.96875 13.5703 5.97656 13.0625 5.67188 12.7656Z" fill="black"/>
</g>
<defs>
<clipPath id="clip0_155_4778">
<rect width="18" height="18" fill="white"/>
</clipPath>
</defs>
</svg>
