<svg width="18" height="22" viewBox="0 0 18 22" fill="none" xmlns="http://www.w3.org/2000/svg">
<g clip-path="url(#clip0_615_693)">
<path d="M4.66112 8.34175C8.07327 6.43562 11.4854 4.52949 14.8976 2.62337C15.865 2.08212 16.8368 1.54515 17.7978 0.991071C17.9301 0.916196 18.0386 0.760026 17.8737 0.659478C17.7088 0.55893 17.4182 0.655199 17.2642 0.738633C13.826 2.60197 10.429 4.54447 7.01687 6.4506L4.1058 8.07648C3.96698 8.15349 3.85635 8.32036 4.02771 8.42304C4.19908 8.52573 4.50494 8.42946 4.66546 8.33961L4.66112 8.34175Z" fill="#CEC7F9"/>
<path d="M17.1607 0.89698C17.1021 5.37028 17.0001 9.84359 16.8526 14.3147C16.8114 15.5919 16.7637 16.8691 16.716 18.1463C16.703 18.4843 17.5424 18.3174 17.5533 18.0436C17.7268 13.5724 17.8548 9.10124 17.9394 4.62794C17.9633 3.35077 17.9828 2.07146 18.0001 0.794293C18.0045 0.454142 17.165 0.625287 17.1628 0.89698H17.1607Z" fill="#CEC7F9"/>
<path d="M3.98673 8.32901C7.54855 10.7058 10.785 13.5083 14.0648 16.2402C14.9846 17.0061 15.9108 17.7677 16.8479 18.5143C16.9976 18.6341 17.2384 18.5934 17.4032 18.5228C17.4856 18.4886 17.7763 18.311 17.6266 18.1912C14.2557 15.5043 11.0453 12.6205 7.60061 10.0234C6.63749 9.29812 5.65701 8.59643 4.65267 7.92682C4.42708 7.77707 3.65267 8.10439 3.98673 8.32688V8.32901Z" fill="#CEC7F9"/>
<path d="M17.1037 0.775009C14.6504 3.45771 12.2404 6.17891 9.8738 8.93435C9.19918 9.71948 8.5289 10.5089 7.86078 11.3004C7.73063 11.4545 7.97141 11.5379 8.08855 11.5443C8.28812 11.555 8.51371 11.4716 8.6417 11.3197C10.9844 8.54285 13.3684 5.80026 15.7979 3.09616C16.4899 2.32601 17.1862 1.558 17.8846 0.792123C18.0235 0.640232 17.7675 0.55466 17.6569 0.548242C17.4508 0.537545 17.2404 0.625257 17.1037 0.772869V0.775009Z" fill="#CEC7F9"/>
<path d="M16.134 1.32064C14.698 4.51464 13.3271 7.74072 12.0299 10.9925C11.6611 11.9145 11.2989 12.8387 10.941 13.765C10.8715 13.9426 11.2099 13.9511 11.3032 13.9426C11.4789 13.9233 11.711 13.8399 11.7804 13.6623C13.0407 10.3956 14.3683 7.15455 15.7674 3.94344C16.1644 3.03209 16.5657 2.12503 16.9735 1.21796C17.0516 1.04253 16.6958 1.03184 16.6112 1.04039C16.4269 1.06179 16.2143 1.14522 16.134 1.32064Z" fill="#CEC7F9"/>
<path d="M10.8458 13.5705C10.2536 14.4369 9.61802 15.2691 8.99763 16.1162C8.887 16.266 9.09091 16.343 9.21238 16.3473C9.4011 16.3537 9.61585 16.281 9.73733 16.1334C10.4033 15.3204 11.0085 14.454 11.6007 13.5876C11.707 13.4314 11.5096 13.3565 11.3816 13.3522C11.2037 13.348 10.9521 13.4143 10.8458 13.5705Z" fill="#CEC7F9"/>
<path d="M8.13193 11.615C8.32932 13.3543 8.47683 15.1085 8.74147 16.8414C8.78268 17.1109 9.55926 16.9184 9.53757 16.6317C9.40307 14.8839 9.15145 13.1404 8.95188 11.399C8.92151 11.1315 8.09722 11.3112 8.13193 11.615Z" fill="#CEC7F9"/>
<path d="M10.0907 16.499C10.4573 16.1674 10.8369 15.8508 11.2295 15.5491C11.6221 15.2475 12.0256 14.9929 12.4356 14.6956C12.557 14.6057 12.5332 14.4688 12.3965 14.4239C12.223 14.3661 12.0082 14.4239 11.8564 14.5116C11.4074 14.7683 10.9844 15.0892 10.5744 15.4015C10.1644 15.7139 9.79132 16.0283 9.42039 16.3642C9.37483 16.4049 9.31844 16.4755 9.33796 16.5418C9.35748 16.6081 9.43991 16.6423 9.50065 16.6552C9.68937 16.6958 9.9475 16.6295 10.0928 16.499H10.0907Z" fill="#CEC7F9"/>
<path d="M10.8442 15.2604C11.1023 15.0165 11.3626 14.7748 11.6207 14.5288C11.6619 14.4881 11.714 14.4282 11.6967 14.364C11.6793 14.2998 11.6034 14.2699 11.547 14.2592C11.4515 14.2421 11.3496 14.2485 11.2585 14.2763C11.1674 14.3041 11.0698 14.3384 11.0003 14.4047C10.7379 14.6464 10.4776 14.8903 10.2173 15.1342C10.1739 15.1748 10.1218 15.2369 10.1392 15.301C10.1565 15.3652 10.2346 15.3973 10.291 15.408C10.3865 15.4251 10.4906 15.4187 10.5839 15.3909C10.6771 15.3631 10.7747 15.3267 10.8442 15.2604Z" fill="#CEC7F9"/>
<path d="M9.86079 15.6604L9.7827 15.6989C9.69593 15.7417 9.8391 15.6711 9.76968 15.7053L10.2339 15.9257C10.6677 15.4593 11.1189 15.01 11.5788 14.5672C11.62 14.5266 11.6721 14.4667 11.6547 14.4025C11.6374 14.3383 11.5614 14.3083 11.505 14.2976C11.3293 14.2656 11.0907 14.3169 10.9562 14.4431C10.4899 14.8774 10.043 15.3331 9.61133 15.8016C9.57663 15.8401 9.51155 15.9043 9.53541 15.9663C9.55493 16.0177 9.59832 16.0433 9.65038 16.0604C9.81958 16.1139 10.0148 16.0604 10.1645 15.977C10.223 15.9449 10.2816 15.9171 10.338 15.8872C10.4443 15.8315 10.5658 15.6625 10.4053 15.5898C10.2296 15.5128 10.0191 15.5812 9.85862 15.6604H9.86079Z" fill="#CEC7F9"/>
<path d="M11.2881 14.9737C11.4573 14.7062 11.6265 14.4388 11.7891 14.1671C11.8195 14.1137 11.8325 14.058 11.7891 14.0067C11.7458 13.9553 11.6416 13.9382 11.5766 13.9382C11.4724 13.9382 11.364 13.9553 11.2685 13.9981C11.1904 14.0324 11.1058 14.0773 11.0581 14.15C10.8824 14.4153 10.7154 14.687 10.5462 14.9565C10.5137 15.01 10.5028 15.0678 10.5462 15.1191C10.5896 15.1705 10.6959 15.1876 10.7609 15.1876C10.8672 15.1876 10.9779 15.1705 11.0733 15.1256C11.1514 15.0913 11.2403 15.0464 11.2881 14.9715V14.9737Z" fill="#CEC7F9"/>
<path d="M11.174 14.4667C11.2911 14.6079 11.4083 14.7491 11.5297 14.8882C11.5536 14.9117 11.584 14.9288 11.6187 14.9352C11.6577 14.9502 11.6989 14.9566 11.7423 14.9566C11.7944 14.9566 11.8443 14.9523 11.8942 14.9417C11.9484 14.9331 12.0005 14.9181 12.0504 14.8967L12.1393 14.8518C12.187 14.824 12.2282 14.7898 12.2608 14.7448L12.2868 14.6892C12.2955 14.6507 12.2868 14.6165 12.2586 14.5865C12.1458 14.4432 12.0287 14.302 11.9137 14.1629C11.8877 14.1373 11.8595 14.1223 11.8248 14.1159C11.7857 14.1009 11.7423 14.0945 11.6989 14.0945C11.6469 14.0945 11.5948 14.0988 11.5449 14.1095C11.4907 14.118 11.4386 14.133 11.3866 14.1544L11.2976 14.1993C11.2499 14.2271 11.2087 14.2635 11.174 14.3063L11.1458 14.364C11.1371 14.4047 11.1458 14.4389 11.174 14.4689V14.4667Z" fill="#CEC7F9"/>
<path d="M1.08488 11.2983L0.0783759 12.2909C0.0371611 12.3316 -0.0148996 12.3893 0.00245395 12.4535C0.0198075 12.5134 0.0957294 12.5476 0.149959 12.5562C0.243235 12.5733 0.343018 12.5669 0.434124 12.5391C0.52523 12.5113 0.622844 12.4792 0.68792 12.4129L1.6966 11.4202C1.73781 11.3796 1.78987 11.3218 1.77252 11.2576C1.75517 11.1977 1.67924 11.1635 1.62501 11.1549C1.53174 11.1378 1.43195 11.1443 1.34085 11.1721C1.24974 11.1999 1.15213 11.232 1.08705 11.2983H1.08488Z" fill="#CEC7F9"/>
<path d="M4.28168 13.0506L2.44654 14.8626C2.40533 14.9032 2.35326 14.961 2.37062 15.0273C2.38797 15.0872 2.46389 15.1214 2.52029 15.1321C2.69166 15.1642 2.93678 15.115 3.06476 14.9888L4.90207 13.1768C4.94329 13.1361 4.99535 13.0762 4.97799 13.012C4.96064 12.95 4.88472 12.9179 4.82832 12.9072C4.65695 12.8751 4.40966 12.9243 4.28168 13.0527V13.0506Z" fill="#CEC7F9"/>
<path d="M10.7373 17.6093C10.1646 18.2319 9.59193 18.8566 9.02143 19.4791C8.98022 19.5219 8.92599 19.5775 8.94551 19.6438C8.96286 19.7059 9.04096 19.738 9.09519 19.7486C9.26004 19.7786 9.52252 19.7337 9.64399 19.6032C10.2188 18.9806 10.7915 18.356 11.3642 17.7334C11.4054 17.6885 11.4596 17.635 11.4423 17.5666C11.4249 17.5045 11.3468 17.4703 11.2904 17.4596C11.1234 17.4296 10.8587 17.4746 10.7373 17.6051V17.6093Z" fill="#CEC7F9"/>
<path d="M16.2426 19.5348C15.6699 20.0803 15.0994 20.6258 14.5267 21.1714C14.4855 21.212 14.4313 21.2719 14.4486 21.3361C14.466 21.4003 14.5441 21.4324 14.6005 21.4409C14.7762 21.473 15.017 21.4217 15.1515 21.2954C15.7263 20.7499 16.299 20.2044 16.8716 19.6589C16.915 19.6182 16.9671 19.5562 16.9497 19.492C16.9324 19.4278 16.8543 19.3957 16.7979 19.385C16.62 19.3529 16.3771 19.4043 16.2426 19.5326V19.5348Z" fill="#CEC7F9"/>
</g>
<defs>
<clipPath id="clip0_615_693">
<rect width="18" height="20.9032" fill="white" transform="translate(0 0.54834)"/>
</clipPath>
</defs>
</svg>
