<svg width="24" height="25" viewBox="0 0 24 25" fill="none" xmlns="http://www.w3.org/2000/svg">
<g clip-path="url(#clip0_155_10487)">
<path d="M0.475759 1.27085C0.936602 0.811898 1.68378 0.811898 2.14462 1.27085L23.6544 22.6921C24.1152 23.1511 24.1152 23.8952 23.6544 24.3541C23.1935 24.8131 22.4464 24.8131 21.9855 24.3541L0.475759 2.93285C0.0149164 2.4739 0.0149161 1.7298 0.475759 1.27085Z" fill="#323036"/>
<path d="M0.345632 24.5824C-0.115211 24.1234 -0.115211 23.3793 0.345632 22.9204L21.8553 1.49912C22.3162 1.04017 23.0634 1.04017 23.5242 1.49912C23.985 1.95806 23.985 2.70217 23.5242 3.16112L2.01449 24.5824C1.55365 25.0413 0.806475 25.0413 0.345632 24.5824Z" fill="#323036"/>
</g>
<defs>
<clipPath id="clip0_155_10487">
<rect width="24" height="24" fill="white" transform="translate(0 0.926636)"/>
</clipPath>
</defs>
</svg>
