<svg width="19" height="19" viewBox="0 0 19 19" fill="none" xmlns="http://www.w3.org/2000/svg">
<g clip-path="url(#clip0_155_11602)">
<path d="M9.77607 5.41102C10.1979 5.41102 10.5573 5.05164 10.5573 4.62976V2.33289C10.5573 1.91101 10.1979 1.54382 9.77607 1.54382C9.35419 1.54382 8.99481 1.91101 8.99481 2.33289V4.62976C8.99481 5.05164 9.35419 5.41102 9.77607 5.41102ZM6.26825 6.77039C6.57294 6.47352 6.57294 5.9657 6.27607 5.66883L4.68231 4.05945C4.38544 3.76258 3.87763 3.75476 3.58075 4.05164C3.27607 4.34852 3.27607 4.85633 3.57294 5.1532L5.16669 6.76258C5.46357 7.06726 5.97138 7.06726 6.26825 6.77039ZM13.2058 6.83289C13.5026 7.12976 14.0183 7.12976 14.3151 6.83289L15.9167 5.22352C16.2136 4.92664 16.2136 4.41883 15.9167 4.11414C15.6198 3.81726 15.112 3.82508 14.8073 4.12195L13.2058 5.73133C12.9089 6.0282 12.9089 6.53602 13.2058 6.83289ZM9.15888 15.7938C9.15107 16.1375 9.55731 16.2547 9.78388 16.0282L10.9323 14.8641L12.237 18.0907C12.3151 18.2704 12.487 18.3719 12.6823 18.3016L13.4792 17.9891C13.6745 17.9032 13.7136 17.6922 13.6355 17.5282L12.2526 14.3407L13.9011 14.2938C14.237 14.286 14.4011 13.95 14.1589 13.6922L9.81513 9.25476C9.58857 9.0282 9.25263 9.1532 9.24481 9.48133L9.15888 15.7938ZM4.93231 10.2548C4.93231 9.83288 4.57294 9.47352 4.15107 9.47352H1.84638C1.4245 9.47352 1.06512 9.83288 1.06512 10.2548C1.06512 10.6766 1.4245 11.036 1.84638 11.036H4.15107C4.57294 11.036 4.93231 10.6766 4.93231 10.2548ZM14.6276 10.2548C14.6276 10.6766 14.987 11.036 15.4089 11.036H17.7058C18.1276 11.036 18.487 10.6766 18.487 10.2548C18.487 9.83288 18.1276 9.47352 17.7058 9.47352H15.4089C14.987 9.47352 14.6276 9.83288 14.6276 10.2548ZM6.33857 13.6922C6.0495 13.3875 5.53388 13.3875 5.237 13.6844L3.63544 15.2782C3.33075 15.575 3.33075 16.0828 3.61981 16.3797C3.9245 16.6844 4.43231 16.6922 4.737 16.3954L6.33857 14.7938C6.63544 14.4969 6.64325 13.9891 6.33857 13.6922Z" fill="black"/>
</g>
<defs>
<clipPath id="clip0_155_11602">
<rect width="18" height="18" fill="white" transform="translate(0.666687 0.926636)"/>
</clipPath>
</defs>
</svg>
