<svg width="256" height="256" viewBox="0 0 256 256" fill="none" xmlns="http://www.w3.org/2000/svg">
<g clip-path="url(#clip0_357_205)">
<rect width="256" height="256" rx="48" fill="#F2DCF2"/>
<g filter="url(#filter0_f_357_205)">
<ellipse cx="128.237" cy="127.763" rx="201.244" ry="195.556" fill="#EADEEA"/>
</g>
<path d="M55 99.7194V86.7847L92.252 63.7608V61.7775L87.4231 62.8985H55V56.8623H94.3216V69.7971L57.0696 92.8209V94.8042L61.8985 93.6832H94.3216V99.7194H55ZM102.411 77.7304C102.411 70.9468 104.308 65.6292 108.102 61.7775C111.953 57.9258 116.984 56 123.192 56C129.286 56 134.144 57.8396 137.765 61.5188C141.387 65.198 143.198 70.3144 143.198 76.868V79.6275H109.309C109.539 84.1115 110.832 87.762 113.189 90.5789C115.604 93.3383 119.283 94.718 124.227 94.718C127.792 94.718 130.723 93.8844 133.023 92.2173C135.322 90.4926 136.846 87.9919 137.593 84.7151H144.664C144.204 86.6122 143.514 88.3943 142.594 90.0615C141.732 91.7286 140.525 93.3957 138.973 95.0629C137.478 96.7301 135.437 98.081 132.85 99.1158C130.321 100.093 127.447 100.582 124.227 100.582C116.984 100.582 111.522 98.4547 107.843 94.2006C104.221 89.889 102.411 84.399 102.411 77.7304ZM109.309 74.2811H136.3C136.3 70.7168 135.15 67.785 132.85 65.4855C130.551 63.1285 127.331 61.95 123.192 61.95C119.053 61.95 115.69 63.1285 113.103 65.4855C110.574 67.8425 109.309 70.7744 109.309 74.2811ZM154.914 56.8623H161.985V63.1572L160.864 68.0724H162.847C163.825 64.5082 165.779 61.6051 168.711 59.363C171.643 57.121 175.466 56 180.18 56C186.273 56 191.189 58.0983 194.926 62.2949C198.72 66.4915 200.617 71.8378 200.617 78.334C200.617 84.7726 198.72 90.0902 194.926 94.2868C191.189 98.4834 186.273 100.582 180.18 100.582C175.523 100.582 171.7 99.4895 168.711 97.3049C165.779 95.0629 163.825 92.1598 162.847 88.5955H160.864L161.985 93.4245V115.414H154.914V56.8623ZM161.985 78.334C161.985 83.7378 163.48 87.7907 166.469 90.4926C169.516 93.1946 173.397 94.5455 178.11 94.5455C182.767 94.5455 186.504 93.1946 189.321 90.4926C192.137 87.7907 193.546 83.7378 193.546 78.334C193.546 72.9302 192.137 68.8773 189.321 66.1753C186.504 63.4159 182.767 62.0362 178.11 62.0362C173.397 62.0362 169.516 63.3872 166.469 66.0891C163.48 68.791 161.985 72.8726 161.985 78.334ZM79.6124 139.537C84.6138 139.537 88.523 141.003 91.3399 143.935C94.1568 146.867 95.5652 151.235 95.5652 157.042V183.256H88.5805V157.99C88.5805 153.564 87.6894 150.402 85.9073 148.505C84.1827 146.551 81.452 145.573 77.7153 145.573C73.1162 145.573 69.3796 147.269 66.5052 150.661C63.6883 154.053 62.2798 158.594 62.2798 164.285V183.256H55.2088V119.876H62.2798V147.815L61.1588 152.73H63.1421C64.0619 148.706 65.9016 145.516 68.661 143.159C71.4778 140.744 75.1283 139.537 79.6124 139.537ZM138.283 140.399H145.957L127.331 182.825V194.811C127.331 198.376 125.348 200.071 121.381 199.899L104.825 199.123V193.087L120.26 193.863V182.825L101.548 140.399H109.309L122.761 173.771V177.048H124.831V173.771L138.283 140.399ZM153.988 183.256V145.487C153.988 141.405 155.971 139.451 159.938 139.623L183.738 140.399V146.435L161.059 145.659V183.256H153.988ZM197.411 182.049C196.031 183.429 194.335 184.119 192.323 184.119C190.311 184.119 188.615 183.429 187.235 182.049C185.856 180.669 185.166 178.945 185.166 176.875C185.166 174.863 185.856 173.196 187.235 171.874C188.615 170.494 190.311 169.804 192.323 169.804C194.335 169.804 196.031 170.494 197.411 171.874C198.79 173.253 199.48 174.921 199.48 176.875C199.48 178.945 198.79 180.669 197.411 182.049Z" fill="#E85F9E"/>
</g>
<defs>
<filter id="filter0_f_357_205" x="-582.007" y="-576.793" width="1420.49" height="1409.11" filterUnits="userSpaceOnUse" color-interpolation-filters="sRGB">
<feFlood flood-opacity="0" result="BackgroundImageFix"/>
<feBlend mode="normal" in="SourceGraphic" in2="BackgroundImageFix" result="shape"/>
<feGaussianBlur stdDeviation="254.5" result="effect1_foregroundBlur_357_205"/>
</filter>
<clipPath id="clip0_357_205">
<rect width="256" height="256" rx="48" fill="white"/>
</clipPath>
</defs>
</svg>
