<svg width="18" height="22" viewBox="0 0 18 22" fill="none" xmlns="http://www.w3.org/2000/svg">
<g clip-path="url(#clip0_155_13115)">
<path d="M4.66161 8.34187C8.07375 6.43574 11.4859 4.52962 14.898 2.62349C15.8655 2.08224 16.8373 1.54528 17.7983 0.991194C17.9306 0.916318 18.039 0.760148 17.8742 0.6596C17.7093 0.559052 17.4187 0.655321 17.2646 0.738755C13.8265 2.6021 10.4295 4.54459 7.01735 6.45072L4.10629 8.0766C3.96746 8.15361 3.85683 8.32048 4.0282 8.42317C4.19957 8.52585 4.50542 8.42958 4.66595 8.33973L4.66161 8.34187Z" fill="black"/>
<path d="M17.1605 0.897102C17.102 5.3704 17 9.84371 16.8525 14.3149C16.8113 15.592 16.7636 16.8692 16.7158 18.1464C16.7028 18.4844 17.5423 18.3175 17.5532 18.0437C17.7267 13.5725 17.8547 9.10137 17.9393 4.62806C17.9631 3.35089 17.9827 2.07158 18 0.794415C18.0044 0.454264 17.1649 0.625409 17.1627 0.897102H17.1605Z" fill="black"/>
<path d="M3.98697 8.32901C7.54879 10.7058 10.7852 13.5083 14.0651 16.2402C14.9848 17.0061 15.911 17.7677 16.8481 18.5143C16.9978 18.6341 17.2386 18.5934 17.4035 18.5228C17.4859 18.4886 17.7766 18.311 17.6269 18.1912C14.256 15.5043 11.0455 12.6205 7.60085 10.0234C6.63773 9.29812 5.65725 8.59643 4.65292 7.92682C4.42732 7.77707 3.65292 8.10439 3.98697 8.32688V8.32901Z" fill="black"/>
<path d="M17.1041 0.775131C14.6507 3.45783 12.2408 6.17904 9.87417 8.93447C9.19955 9.7196 8.52926 10.509 7.86115 11.3006C7.731 11.4546 7.97178 11.538 8.08892 11.5444C8.28848 11.5551 8.51408 11.4717 8.64206 11.3198C10.9848 8.54298 13.3687 5.80038 15.7982 3.09629C16.4902 2.32613 17.1865 1.55812 17.885 0.792245C18.0238 0.640354 17.7679 0.554782 17.6572 0.548364C17.4512 0.537667 17.2408 0.625379 17.1041 0.772991V0.775131Z" fill="black"/>
<path d="M16.1345 1.32064C14.6985 4.51464 13.3276 7.74072 12.0304 10.9925C11.6616 11.9145 11.2994 12.8387 10.9414 13.765C10.872 13.9426 11.2104 13.9511 11.3037 13.9426C11.4794 13.9233 11.7115 13.8399 11.7809 13.6623C13.0412 10.3956 14.3688 7.15455 15.7679 3.94344C16.1649 3.03209 16.5662 2.12503 16.974 1.21796C17.0521 1.04253 16.6963 1.03184 16.6117 1.04039C16.4273 1.06179 16.2148 1.14522 16.1345 1.32064Z" fill="black"/>
<path d="M10.846 13.5703C10.2538 14.4368 9.61827 15.2689 8.99788 16.1161C8.88725 16.2659 9.09115 16.3429 9.21263 16.3472C9.40135 16.3536 9.6161 16.2808 9.73757 16.1332C10.4035 15.3203 11.0087 14.4539 11.6009 13.5874C11.7072 13.4313 11.5098 13.3564 11.3818 13.3521C11.2039 13.3478 10.9523 13.4142 10.846 13.5703Z" fill="black"/>
<path d="M8.13229 11.615C8.32969 13.3543 8.47719 15.1085 8.74184 16.8414C8.78305 17.1109 9.55962 16.9184 9.53793 16.6317C9.40344 14.8839 9.15181 13.1404 8.95225 11.399C8.92188 11.1315 8.09758 11.3112 8.13229 11.615Z" fill="black"/>
<path d="M10.0912 16.499C10.4578 16.1674 10.8374 15.8508 11.23 15.5491C11.6226 15.2475 12.0261 14.9929 12.4361 14.6956C12.5575 14.6057 12.5337 14.4688 12.397 14.4239C12.2235 14.3661 12.0087 14.4239 11.8569 14.5116C11.4079 14.7683 10.9849 15.0892 10.5749 15.4015C10.1649 15.7139 9.79181 16.0283 9.42088 16.3642C9.37532 16.4049 9.31892 16.4755 9.33845 16.5418C9.35797 16.6081 9.4404 16.6423 9.50114 16.6552C9.68986 16.6958 9.94799 16.6295 10.0933 16.499H10.0912Z" fill="black"/>
<path d="M10.8438 15.2604C11.1019 15.0165 11.3622 14.7748 11.6204 14.5288C11.6616 14.4881 11.7136 14.4282 11.6963 14.364C11.6789 14.2998 11.603 14.2699 11.5466 14.2592C11.4512 14.2421 11.3492 14.2485 11.2581 14.2763C11.167 14.3041 11.0694 14.3384 11 14.4047C10.7375 14.6464 10.4772 14.8903 10.2169 15.1342C10.1735 15.1748 10.1214 15.2369 10.1388 15.301C10.1562 15.3652 10.2342 15.3973 10.2906 15.408C10.3861 15.4251 10.4902 15.4187 10.5835 15.3909C10.6768 15.3631 10.7744 15.3267 10.8438 15.2604Z" fill="black"/>
<path d="M9.86116 15.6604L9.78307 15.6989C9.6963 15.7417 9.83946 15.6711 9.77005 15.7053L10.2343 15.9257C10.6681 15.4593 11.1193 15.01 11.5792 14.5672C11.6204 14.5266 11.6724 14.4667 11.6551 14.4025C11.6377 14.3383 11.5618 14.3083 11.5054 14.2976C11.3297 14.2656 11.0911 14.3169 10.9566 14.4431C10.4902 14.8774 10.0434 15.3331 9.6117 15.8016C9.57699 15.8401 9.51192 15.9043 9.53578 15.9663C9.5553 16.0177 9.59868 16.0433 9.65074 16.0604C9.81994 16.1139 10.0152 16.0604 10.1648 15.977C10.2234 15.9449 10.282 15.9171 10.3384 15.8872C10.4447 15.8315 10.5661 15.6625 10.4056 15.5898C10.2299 15.5128 10.0195 15.5812 9.85899 15.6604H9.86116Z" fill="black"/>
<path d="M11.2885 14.9738C11.4577 14.7064 11.6269 14.439 11.7896 14.1673C11.82 14.1138 11.833 14.0582 11.7896 14.0068C11.7462 13.9555 11.6421 13.9384 11.577 13.9384C11.4729 13.9384 11.3645 13.9555 11.269 13.9983C11.1909 14.0325 11.1063 14.0774 11.0586 14.1501C10.8829 14.4154 10.7159 14.6871 10.5467 14.9567C10.5141 15.0101 10.5033 15.0679 10.5467 15.1193C10.5901 15.1706 10.6964 15.1877 10.7614 15.1877C10.8677 15.1877 10.9784 15.1706 11.0738 15.1257C11.1519 15.0914 11.2408 15.0465 11.2885 14.9716V14.9738Z" fill="black"/>
<path d="M11.1735 14.4667C11.2906 14.6079 11.4078 14.7491 11.5293 14.8882C11.5531 14.9117 11.5835 14.9288 11.6182 14.9352C11.6572 14.9502 11.6985 14.9566 11.7418 14.9566C11.7939 14.9566 11.8438 14.9523 11.8937 14.9417C11.9479 14.9331 12 14.9181 12.0499 14.8967L12.1388 14.8518C12.1865 14.824 12.2277 14.7898 12.2603 14.7448L12.2863 14.6892C12.295 14.6507 12.2863 14.6165 12.2581 14.5865C12.1453 14.4432 12.0282 14.302 11.9132 14.1629C11.8872 14.1373 11.859 14.1223 11.8243 14.1159C11.7852 14.1009 11.7418 14.0945 11.6985 14.0945C11.6464 14.0945 11.5943 14.0988 11.5444 14.1095C11.4902 14.118 11.4382 14.133 11.3861 14.1544L11.2972 14.1993C11.2494 14.2271 11.2082 14.2635 11.1735 14.3063L11.1453 14.364C11.1366 14.4047 11.1453 14.4389 11.1735 14.4689V14.4667Z" fill="black"/>
<path d="M1.08464 11.2984L0.0781317 12.291C0.036917 12.3317 -0.0151438 12.3895 0.00220981 12.4536C0.0195634 12.5135 0.0954853 12.5478 0.149715 12.5563C0.242991 12.5734 0.342774 12.567 0.43388 12.5392C0.524986 12.5114 0.6226 12.4793 0.687676 12.413L1.69635 11.4203C1.73757 11.3797 1.78963 11.3219 1.77227 11.2578C1.75492 11.1979 1.679 11.1636 1.62477 11.1551C1.53149 11.138 1.43171 11.1444 1.3406 11.1722C1.2495 11.2 1.15188 11.2321 1.08681 11.2984H1.08464Z" fill="black"/>
<path d="M4.28205 13.0504L2.44691 14.8624C2.40569 14.9031 2.35363 14.9608 2.37098 15.0272C2.38834 15.0871 2.46426 15.1213 2.52066 15.132C2.69203 15.1641 2.93714 15.1149 3.06513 14.9887L4.90244 13.1767C4.94365 13.136 4.99571 13.0761 4.97836 13.0119C4.96101 12.9499 4.88508 12.9178 4.82868 12.9071C4.65732 12.875 4.41003 12.9242 4.28205 13.0526V13.0504Z" fill="black"/>
<path d="M10.7375 17.6093C10.1648 18.2319 9.59218 18.8566 9.02168 19.4791C8.98046 19.5219 8.92623 19.5775 8.94576 19.6438C8.96311 19.7059 9.0412 19.738 9.09543 19.7486C9.26029 19.7786 9.52276 19.7337 9.64424 19.6032C10.2191 18.9806 10.7917 18.356 11.3644 17.7334C11.4056 17.6885 11.4599 17.635 11.4425 17.5666C11.4251 17.5045 11.3471 17.4703 11.2907 17.4596C11.1236 17.4296 10.859 17.4746 10.7375 17.6051V17.6093Z" fill="black"/>
<path d="M16.2429 19.5348C15.6703 20.0803 15.0998 20.6258 14.5271 21.1714C14.4859 21.212 14.4316 21.2719 14.449 21.3361C14.4664 21.4003 14.5444 21.4324 14.6008 21.4409C14.7766 21.473 15.0173 21.4217 15.1518 21.2954C15.7267 20.7499 16.2993 20.2044 16.872 19.6589C16.9154 19.6182 16.9674 19.5562 16.9501 19.492C16.9327 19.4278 16.8546 19.3957 16.7982 19.385C16.6204 19.3529 16.3774 19.4043 16.2429 19.5326V19.5348Z" fill="black"/>
</g>
<defs>
<clipPath id="clip0_155_13115">
<rect width="18" height="20.9032" fill="white" transform="translate(0 0.54834)"/>
</clipPath>
</defs>
</svg>
