<svg width="143" height="151" viewBox="0 0 143 151" fill="none" xmlns="http://www.w3.org/2000/svg">
<path d="M12.3162 150.008L30.4617 148.421L26.1869 99.5602L85.3489 94.3842C103.872 92.7636 117.026 87.4544 124.81 78.4565C132.588 69.3957 135.906 58.3442 134.765 45.3021C133.536 31.252 128.298 20.7269 119.051 13.7269C109.868 6.72141 96.1084 4.02069 77.7739 5.62476L0.277409 12.4048L12.3162 150.008ZM24.9797 85.762L19.688 25.277L76.0147 20.3491C89.9388 19.1308 99.9704 20.9514 106.109 25.8108C112.306 30.6016 115.818 37.7224 116.644 47.1732C117.438 56.2459 115.245 63.8341 110.065 69.9377C104.88 75.9782 95.2936 79.6104 81.3064 80.8341L24.9797 85.762Z" fill="black"/>
</svg>
