<svg width="154" height="151" viewBox="0 0 154 151" fill="none" xmlns="http://www.w3.org/2000/svg">
<path d="M0.134738 138.535L18.2803 140.122L23.1669 84.2679L87.4322 89.8904C102.238 91.1858 114.162 88.4197 123.203 81.5922C132.244 74.7647 137.311 65.1134 138.402 52.6384C139.494 40.1633 136.29 29.979 128.79 22.0853C121.36 14.1341 110.021 9.49156 94.7734 8.1576L12.1735 0.931042L0.134738 138.535ZM24.3162 71.1313L29.1035 16.4112L90.8172 21.8105C101.654 22.7586 109.407 25.9446 114.074 31.3685C118.742 36.7924 120.718 43.5997 120.002 51.7904C119.296 59.8551 116.165 66.2474 110.61 70.9673C105.123 75.6297 96.9297 77.4842 86.0298 76.5305L24.3162 71.1313ZM120.538 149.068L141.802 150.929L101.715 84.4737L82.4634 83.5513L120.538 149.068Z" fill="black"/>
</svg>
